<?xml version="1.0" encoding="utf-8"?>
<!-- Generator: Adobe Illustrator 19.0.0, SVG Export Plug-In . SVG Version: 6.00 Build 0)  -->
<svg version="1.1" id="Capa_1" xmlns="http://www.w3.org/2000/svg" xmlns:xlink="http://www.w3.org/1999/xlink" x="0px" y="0px"
	 viewBox="0 0 380 25" style="enable-background:new 0 0 380 25;" xml:space="preserve">
<style type="text/css">
	.st0{clip-path:url(#XMLID_2_);}
	.st1{fill:none;stroke:#000000;stroke-miterlimit:10;}
</style>
<g id="XMLID_2032_">
	<defs>
		<rect id="XMLID_2033_" x="6.6" y="0.5" width="366.8" height="24.1"/>
	</defs>
	<clipPath id="XMLID_2_">
		<use xlink:href="#XMLID_2033_"  style="overflow:visible;"/>
	</clipPath>
	<g id="XMLID_2136_" class="st0">
		<line id="XMLID_2138_" class="st1" x1="2" y1="3.5" x2="17.1" y2="21.5"/>
		<line id="XMLID_2137_" class="st1" x1="2" y1="21.5" x2="17.1" y2="3.5"/>
	</g>
	<g id="XMLID_2133_" class="st0">
		<line id="XMLID_2135_" class="st1" x1="12.6" y1="3.5" x2="27.7" y2="21.5"/>
		<line id="XMLID_2134_" class="st1" x1="12.6" y1="21.5" x2="27.7" y2="3.5"/>
	</g>
	<g id="XMLID_2130_" class="st0">
		<line id="XMLID_2132_" class="st1" x1="23.2" y1="3.5" x2="38.3" y2="21.5"/>
		<line id="XMLID_2131_" class="st1" x1="23.2" y1="21.5" x2="38.3" y2="3.5"/>
	</g>
	<g id="XMLID_2127_" class="st0">
		<line id="XMLID_2129_" class="st1" x1="33.9" y1="3.5" x2="48.9" y2="21.5"/>
		<line id="XMLID_2128_" class="st1" x1="33.9" y1="21.5" x2="48.9" y2="3.5"/>
	</g>
	<g id="XMLID_2124_" class="st0">
		<line id="XMLID_2126_" class="st1" x1="44.5" y1="3.5" x2="59.6" y2="21.5"/>
		<line id="XMLID_2125_" class="st1" x1="44.5" y1="21.5" x2="59.6" y2="3.5"/>
	</g>
	<g id="XMLID_2121_" class="st0">
		<line id="XMLID_2123_" class="st1" x1="55.1" y1="3.5" x2="70.2" y2="21.5"/>
		<line id="XMLID_2122_" class="st1" x1="55.1" y1="21.5" x2="70.2" y2="3.5"/>
	</g>
	<g id="XMLID_2118_" class="st0">
		<line id="XMLID_2120_" class="st1" x1="65.7" y1="3.5" x2="80.8" y2="21.5"/>
		<line id="XMLID_2119_" class="st1" x1="65.7" y1="21.5" x2="80.8" y2="3.5"/>
	</g>
	<g id="XMLID_2115_" class="st0">
		<line id="XMLID_2117_" class="st1" x1="76.4" y1="3.5" x2="91.4" y2="21.5"/>
		<line id="XMLID_2116_" class="st1" x1="76.4" y1="21.5" x2="91.4" y2="3.5"/>
	</g>
	<g id="XMLID_2112_" class="st0">
		<line id="XMLID_2114_" class="st1" x1="87" y1="3.5" x2="102.1" y2="21.5"/>
		<line id="XMLID_2113_" class="st1" x1="87" y1="21.5" x2="102.1" y2="3.5"/>
	</g>
	<g id="XMLID_2109_" class="st0">
		<line id="XMLID_2111_" class="st1" x1="97.6" y1="3.5" x2="112.7" y2="21.5"/>
		<line id="XMLID_2110_" class="st1" x1="97.6" y1="21.5" x2="112.7" y2="3.5"/>
	</g>
	<g id="XMLID_2106_" class="st0">
		<line id="XMLID_2108_" class="st1" x1="108.2" y1="3.5" x2="123.3" y2="21.5"/>
		<line id="XMLID_2107_" class="st1" x1="108.2" y1="21.5" x2="123.3" y2="3.5"/>
	</g>
	<g id="XMLID_2103_" class="st0">
		<line id="XMLID_2105_" class="st1" x1="118.9" y1="3.5" x2="133.9" y2="21.5"/>
		<line id="XMLID_2104_" class="st1" x1="118.9" y1="21.5" x2="133.9" y2="3.5"/>
	</g>
	<g id="XMLID_2100_" class="st0">
		<line id="XMLID_2102_" class="st1" x1="129.5" y1="3.5" x2="144.5" y2="21.5"/>
		<line id="XMLID_2101_" class="st1" x1="129.5" y1="21.5" x2="144.5" y2="3.5"/>
	</g>
	<g id="XMLID_2097_" class="st0">
		<line id="XMLID_2099_" class="st1" x1="140.1" y1="3.5" x2="155.2" y2="21.5"/>
		<line id="XMLID_2098_" class="st1" x1="140.1" y1="21.5" x2="155.2" y2="3.5"/>
	</g>
	<g id="XMLID_2094_" class="st0">
		<line id="XMLID_2096_" class="st1" x1="150.7" y1="3.5" x2="165.8" y2="21.5"/>
		<line id="XMLID_2095_" class="st1" x1="150.7" y1="21.5" x2="165.8" y2="3.5"/>
	</g>
	<g id="XMLID_2091_" class="st0">
		<line id="XMLID_2093_" class="st1" x1="161.4" y1="3.5" x2="176.4" y2="21.5"/>
		<line id="XMLID_2092_" class="st1" x1="161.4" y1="21.5" x2="176.4" y2="3.5"/>
	</g>
	<g id="XMLID_2088_" class="st0">
		<line id="XMLID_2090_" class="st1" x1="172" y1="3.5" x2="187" y2="21.5"/>
		<line id="XMLID_2089_" class="st1" x1="172" y1="21.5" x2="187" y2="3.5"/>
	</g>
	<g id="XMLID_2085_" class="st0">
		<line id="XMLID_2087_" class="st1" x1="182.6" y1="3.5" x2="197.7" y2="21.5"/>
		<line id="XMLID_2086_" class="st1" x1="182.6" y1="21.5" x2="197.7" y2="3.5"/>
	</g>
	<g id="XMLID_2082_" class="st0">
		<line id="XMLID_2084_" class="st1" x1="193.2" y1="3.5" x2="208.3" y2="21.5"/>
		<line id="XMLID_2083_" class="st1" x1="193.2" y1="21.5" x2="208.3" y2="3.5"/>
	</g>
	<g id="XMLID_2079_" class="st0">
		<line id="XMLID_2081_" class="st1" x1="203.9" y1="3.5" x2="218.9" y2="21.5"/>
		<line id="XMLID_2080_" class="st1" x1="203.9" y1="21.5" x2="218.9" y2="3.5"/>
	</g>
	<g id="XMLID_2076_" class="st0">
		<line id="XMLID_2078_" class="st1" x1="214.5" y1="3.5" x2="229.5" y2="21.5"/>
		<line id="XMLID_2077_" class="st1" x1="214.5" y1="21.5" x2="229.5" y2="3.5"/>
	</g>
	<g id="XMLID_2073_" class="st0">
		<line id="XMLID_2075_" class="st1" x1="225.1" y1="3.5" x2="240.2" y2="21.5"/>
		<line id="XMLID_2074_" class="st1" x1="225.1" y1="21.5" x2="240.2" y2="3.5"/>
	</g>
	<g id="XMLID_2070_" class="st0">
		<line id="XMLID_2072_" class="st1" x1="235.7" y1="3.5" x2="250.8" y2="21.5"/>
		<line id="XMLID_2071_" class="st1" x1="235.7" y1="21.5" x2="250.8" y2="3.5"/>
	</g>
	<g id="XMLID_2067_" class="st0">
		<line id="XMLID_2069_" class="st1" x1="246.3" y1="3.5" x2="261.4" y2="21.5"/>
		<line id="XMLID_2068_" class="st1" x1="246.3" y1="21.5" x2="261.4" y2="3.5"/>
	</g>
	<g id="XMLID_2064_" class="st0">
		<line id="XMLID_2066_" class="st1" x1="257" y1="3.5" x2="272" y2="21.5"/>
		<line id="XMLID_2065_" class="st1" x1="257" y1="21.5" x2="272" y2="3.5"/>
	</g>
	<g id="XMLID_2061_" class="st0">
		<line id="XMLID_2063_" class="st1" x1="267.6" y1="3.5" x2="282.7" y2="21.5"/>
		<line id="XMLID_2062_" class="st1" x1="267.6" y1="21.5" x2="282.7" y2="3.5"/>
	</g>
	<g id="XMLID_2058_" class="st0">
		<line id="XMLID_2060_" class="st1" x1="278.2" y1="3.5" x2="293.3" y2="21.5"/>
		<line id="XMLID_2059_" class="st1" x1="278.2" y1="21.5" x2="293.3" y2="3.5"/>
	</g>
	<g id="XMLID_2055_" class="st0">
		<line id="XMLID_2057_" class="st1" x1="288.8" y1="3.5" x2="303.9" y2="21.5"/>
		<line id="XMLID_2056_" class="st1" x1="288.8" y1="21.5" x2="303.9" y2="3.5"/>
	</g>
	<g id="XMLID_2052_" class="st0">
		<line id="XMLID_2054_" class="st1" x1="299.5" y1="3.5" x2="314.5" y2="21.5"/>
		<line id="XMLID_2053_" class="st1" x1="299.5" y1="21.5" x2="314.5" y2="3.5"/>
	</g>
	<g id="XMLID_2049_" class="st0">
		<line id="XMLID_2051_" class="st1" x1="310.1" y1="3.5" x2="325.2" y2="21.5"/>
		<line id="XMLID_2050_" class="st1" x1="310.1" y1="21.5" x2="325.2" y2="3.5"/>
	</g>
	<g id="XMLID_2046_" class="st0">
		<line id="XMLID_2048_" class="st1" x1="320.7" y1="3.5" x2="335.8" y2="21.5"/>
		<line id="XMLID_2047_" class="st1" x1="320.7" y1="21.5" x2="335.8" y2="3.5"/>
	</g>
	<g id="XMLID_2043_" class="st0">
		<line id="XMLID_2045_" class="st1" x1="331.3" y1="3.5" x2="346.4" y2="21.5"/>
		<line id="XMLID_2044_" class="st1" x1="331.3" y1="21.5" x2="346.4" y2="3.5"/>
	</g>
	<g id="XMLID_2040_" class="st0">
		<line id="XMLID_2042_" class="st1" x1="342" y1="3.5" x2="357" y2="21.5"/>
		<line id="XMLID_2041_" class="st1" x1="342" y1="21.5" x2="357" y2="3.5"/>
	</g>
	<g id="XMLID_2037_" class="st0">
		<line id="XMLID_2039_" class="st1" x1="352.6" y1="3.5" x2="367.6" y2="21.5"/>
		<line id="XMLID_2038_" class="st1" x1="352.6" y1="21.5" x2="367.6" y2="3.5"/>
	</g>
	<g id="XMLID_2034_" class="st0">
		<line id="XMLID_2036_" class="st1" x1="363.2" y1="3.5" x2="378.3" y2="21.5"/>
		<line id="XMLID_2035_" class="st1" x1="363.2" y1="21.5" x2="378.3" y2="3.5"/>
	</g>
</g>
</svg>
