<?xml version="1.0" encoding="utf-8"?>
<!-- Generator: Adobe Illustrator 19.0.0, SVG Export Plug-In . SVG Version: 6.00 Build 0)  -->
<svg version="1.1" id="Capa_1" xmlns="http://www.w3.org/2000/svg" xmlns:xlink="http://www.w3.org/1999/xlink" x="0px" y="0px"
	 viewBox="0 0 380 25" style="enable-background:new 0 0 380 25;" xml:space="preserve">
<style type="text/css">
	.st0{clip-path:url(#XMLID_6_);}
	.st1{fill:none;stroke:#231F20;stroke-width:0.5;}
	.st2{fill:none;stroke:#231F20;stroke-width:2;}
</style>
<g id="XMLID_2_">
	<defs>
		<rect id="XMLID_3_" x="5.9" y="1.4" width="366.8" height="24.1"/>
	</defs>
	<clipPath id="XMLID_6_">
		<use xlink:href="#XMLID_3_"  style="overflow:visible;"/>
	</clipPath>
	<g id="XMLID_341_" class="st0">
		<line id="XMLID_557_" class="st1" x1="1.4" y1="18.1" x2="5.7" y2="11"/>
		<line id="XMLID_556_" class="st1" x1="1.6" y1="18" x2="-6.9" y2="18"/>
		<line id="XMLID_555_" class="st1" x1="-6.9" y1="26.1" x2="1.6" y2="26.1"/>
		<line id="XMLID_554_" class="st1" x1="1.4" y1="26" x2="5.7" y2="33"/>
		<line id="XMLID_553_" class="st1" x1="12.7" y1="28.9" x2="8.6" y2="21.8"/>
		<line id="XMLID_552_" class="st1" x1="8.6" y1="22.1" x2="12.7" y2="14.5"/>
		<line id="XMLID_551_" class="st2" x1="-8.9" y1="22" x2="4.1" y2="22"/>
		<line id="XMLID_550_" class="st2" x1="4.1" y1="22" x2="10.6" y2="11"/>
		<line id="XMLID_549_" class="st2" x1="4.1" y1="22" x2="10.6" y2="33"/>
		<line id="XMLID_548_" class="st1" x1="19.3" y1="18.1" x2="23.6" y2="11.1"/>
		<line id="XMLID_547_" class="st1" x1="19.5" y1="18" x2="11" y2="18"/>
		<line id="XMLID_546_" class="st1" x1="11" y1="26.1" x2="19.5" y2="26.1"/>
		<line id="XMLID_545_" class="st1" x1="19.3" y1="26" x2="23.6" y2="33.1"/>
		<line id="XMLID_544_" class="st1" x1="30.5" y1="28.9" x2="26.5" y2="21.9"/>
		<line id="XMLID_543_" class="st1" x1="26.5" y1="22.1" x2="30.5" y2="14.5"/>
		<line id="XMLID_542_" class="st2" x1="9" y1="22" x2="22" y2="22"/>
		<line id="XMLID_541_" class="st2" x1="22" y1="22" x2="28.5" y2="11.1"/>
		<line id="XMLID_540_" class="st2" x1="22" y1="22" x2="28.5" y2="33.1"/>
		<line id="XMLID_539_" class="st1" x1="37.1" y1="18.2" x2="41.5" y2="11.1"/>
		<line id="XMLID_538_" class="st1" x1="37.3" y1="18" x2="28.8" y2="18"/>
		<line id="XMLID_537_" class="st1" x1="28.8" y1="26.2" x2="37.3" y2="26.2"/>
		<line id="XMLID_536_" class="st1" x1="37.2" y1="26.1" x2="41.5" y2="33.1"/>
		<line id="XMLID_535_" class="st1" x1="48.4" y1="29" x2="44.4" y2="21.9"/>
		<line id="XMLID_534_" class="st1" x1="44.4" y1="22.1" x2="48.4" y2="14.6"/>
		<line id="XMLID_533_" class="st2" x1="26.9" y1="22" x2="39.8" y2="22"/>
		<line id="XMLID_532_" class="st2" x1="39.8" y1="22" x2="46.4" y2="11.1"/>
		<line id="XMLID_531_" class="st2" x1="39.8" y1="22" x2="46.4" y2="33.1"/>
		<line id="XMLID_530_" class="st1" x1="55" y1="18.2" x2="59.3" y2="11.1"/>
		<line id="XMLID_529_" class="st1" x1="55.2" y1="18.1" x2="46.7" y2="18.1"/>
		<line id="XMLID_528_" class="st1" x1="46.7" y1="26.2" x2="55.2" y2="26.2"/>
		<line id="XMLID_527_" class="st1" x1="55" y1="26.1" x2="59.3" y2="33.1"/>
		<line id="XMLID_526_" class="st1" x1="66.3" y1="29" x2="62.2" y2="22"/>
		<line id="XMLID_525_" class="st1" x1="62.2" y1="22.2" x2="66.3" y2="14.6"/>
		<line id="XMLID_524_" class="st2" x1="44.7" y1="22.1" x2="57.7" y2="22.1"/>
		<line id="XMLID_523_" class="st2" x1="57.7" y1="22.1" x2="64.2" y2="11.1"/>
		<line id="XMLID_522_" class="st2" x1="57.7" y1="22.1" x2="64.2" y2="33.1"/>
		<line id="XMLID_521_" class="st1" x1="72.9" y1="18.2" x2="77.2" y2="11.2"/>
		<line id="XMLID_520_" class="st1" x1="73.1" y1="18.1" x2="64.6" y2="18.1"/>
		<line id="XMLID_519_" class="st1" x1="64.6" y1="26.3" x2="73.1" y2="26.3"/>
		<line id="XMLID_518_" class="st1" x1="72.9" y1="26.1" x2="77.2" y2="33.2"/>
		<line id="XMLID_517_" class="st1" x1="84.1" y1="29" x2="80.1" y2="22"/>
		<line id="XMLID_516_" class="st1" x1="80.1" y1="22.2" x2="84.1" y2="14.6"/>
		<line id="XMLID_515_" class="st2" x1="62.6" y1="22.1" x2="75.6" y2="22.1"/>
		<line id="XMLID_514_" class="st2" x1="75.6" y1="22.1" x2="82.1" y2="11.2"/>
		<line id="XMLID_513_" class="st2" x1="75.6" y1="22.1" x2="82.1" y2="33.2"/>
		<line id="XMLID_512_" class="st1" x1="90.7" y1="18.3" x2="95.1" y2="11.2"/>
		<line id="XMLID_511_" class="st1" x1="90.9" y1="18.1" x2="82.4" y2="18.1"/>
		<line id="XMLID_510_" class="st1" x1="82.4" y1="26.3" x2="90.9" y2="26.3"/>
		<line id="XMLID_509_" class="st1" x1="90.8" y1="26.2" x2="95.1" y2="33.2"/>
		<line id="XMLID_508_" class="st1" x1="102" y1="29.1" x2="98" y2="22"/>
		<line id="XMLID_507_" class="st1" x1="98" y1="22.3" x2="102" y2="14.7"/>
		<line id="XMLID_506_" class="st2" x1="80.5" y1="22.2" x2="93.4" y2="22.2"/>
		<line id="XMLID_505_" class="st2" x1="93.4" y1="22.2" x2="100" y2="11.2"/>
		<line id="XMLID_504_" class="st2" x1="93.4" y1="22.2" x2="100" y2="33.2"/>
		<line id="XMLID_503_" class="st1" x1="108.2" y1="18.2" x2="112.5" y2="11.2"/>
		<line id="XMLID_502_" class="st1" x1="108.4" y1="18.1" x2="99.9" y2="18.1"/>
		<line id="XMLID_501_" class="st1" x1="99.9" y1="26.2" x2="108.4" y2="26.2"/>
		<line id="XMLID_500_" class="st1" x1="108.3" y1="26.1" x2="112.5" y2="33.2"/>
		<line id="XMLID_499_" class="st1" x1="119.5" y1="29" x2="115.5" y2="22"/>
		<line id="XMLID_498_" class="st1" x1="115.5" y1="22.2" x2="119.5" y2="14.6"/>
		<line id="XMLID_497_" class="st2" x1="98" y1="22.1" x2="110.9" y2="22.1"/>
		<line id="XMLID_496_" class="st2" x1="110.9" y1="22.1" x2="117.5" y2="11.2"/>
		<line id="XMLID_495_" class="st2" x1="110.9" y1="22.1" x2="117.5" y2="33.2"/>
		<line id="XMLID_494_" class="st1" x1="126.1" y1="18.3" x2="130.4" y2="11.2"/>
		<line id="XMLID_493_" class="st1" x1="126.3" y1="18.1" x2="117.8" y2="18.1"/>
		<line id="XMLID_492_" class="st1" x1="117.8" y1="26.3" x2="126.3" y2="26.3"/>
		<line id="XMLID_491_" class="st1" x1="126.1" y1="26.2" x2="130.4" y2="33.2"/>
		<line id="XMLID_490_" class="st1" x1="137.3" y1="29.1" x2="133.3" y2="22"/>
		<line id="XMLID_489_" class="st1" x1="133.3" y1="22.2" x2="137.3" y2="14.7"/>
		<line id="XMLID_488_" class="st2" x1="115.8" y1="22.1" x2="128.8" y2="22.1"/>
		<line id="XMLID_487_" class="st2" x1="128.8" y1="22.1" x2="135.3" y2="11.2"/>
		<line id="XMLID_486_" class="st2" x1="128.8" y1="22.1" x2="135.3" y2="33.2"/>
		<line id="XMLID_485_" class="st1" x1="144" y1="18.3" x2="148.3" y2="11.2"/>
		<line id="XMLID_484_" class="st1" x1="144.1" y1="18.2" x2="135.7" y2="18.2"/>
		<line id="XMLID_483_" class="st1" x1="135.7" y1="26.3" x2="144.1" y2="26.3"/>
		<line id="XMLID_482_" class="st1" x1="144" y1="26.2" x2="148.3" y2="33.2"/>
		<line id="XMLID_481_" class="st1" x1="155.2" y1="29.1" x2="151.2" y2="22"/>
		<line id="XMLID_480_" class="st1" x1="151.2" y1="22.3" x2="155.2" y2="14.7"/>
		<line id="XMLID_479_" class="st2" x1="133.7" y1="22.2" x2="146.6" y2="22.2"/>
		<line id="XMLID_478_" class="st2" x1="146.6" y1="22.2" x2="153.2" y2="11.2"/>
		<line id="XMLID_477_" class="st2" x1="146.6" y1="22.2" x2="153.2" y2="33.2"/>
		<line id="XMLID_476_" class="st1" x1="161.8" y1="18.3" x2="166.1" y2="11.3"/>
		<line id="XMLID_475_" class="st1" x1="162" y1="18.2" x2="153.5" y2="18.2"/>
		<line id="XMLID_474_" class="st1" x1="153.5" y1="26.4" x2="162" y2="26.4"/>
		<line id="XMLID_473_" class="st1" x1="161.8" y1="26.2" x2="166.1" y2="33.3"/>
		<line id="XMLID_472_" class="st1" x1="173.1" y1="29.1" x2="169" y2="22.1"/>
		<line id="XMLID_471_" class="st1" x1="169" y1="22.3" x2="173.1" y2="14.7"/>
		<line id="XMLID_470_" class="st2" x1="151.6" y1="22.2" x2="164.5" y2="22.2"/>
		<line id="XMLID_469_" class="st2" x1="164.5" y1="22.2" x2="171.1" y2="11.3"/>
		<line id="XMLID_468_" class="st2" x1="164.5" y1="22.2" x2="171.1" y2="33.3"/>
		<line id="XMLID_467_" class="st1" x1="179.7" y1="18.4" x2="184" y2="11.3"/>
		<line id="XMLID_466_" class="st1" x1="179.9" y1="18.2" x2="171.4" y2="18.2"/>
		<line id="XMLID_465_" class="st1" x1="171.4" y1="26.4" x2="179.9" y2="26.4"/>
		<line id="XMLID_464_" class="st1" x1="179.7" y1="26.3" x2="184" y2="33.3"/>
		<line id="XMLID_463_" class="st1" x1="190.9" y1="29.2" x2="186.9" y2="22.1"/>
		<line id="XMLID_462_" class="st1" x1="186.9" y1="22.3" x2="190.9" y2="14.8"/>
		<line id="XMLID_461_" class="st2" x1="169.4" y1="22.3" x2="182.4" y2="22.3"/>
		<line id="XMLID_460_" class="st2" x1="182.4" y1="22.3" x2="188.9" y2="11.3"/>
		<line id="XMLID_459_" class="st2" x1="182.4" y1="22.3" x2="188.9" y2="33.3"/>
		<line id="XMLID_458_" class="st1" x1="197.6" y1="18.4" x2="201.9" y2="11.3"/>
		<line id="XMLID_457_" class="st1" x1="197.7" y1="18.3" x2="189.3" y2="18.3"/>
		<line id="XMLID_456_" class="st1" x1="189.3" y1="26.4" x2="197.7" y2="26.4"/>
		<line id="XMLID_455_" class="st1" x1="197.6" y1="26.3" x2="201.9" y2="33.3"/>
		<line id="XMLID_454_" class="st1" x1="208.8" y1="29.2" x2="204.8" y2="22.2"/>
		<line id="XMLID_453_" class="st1" x1="204.8" y1="22.4" x2="208.8" y2="14.8"/>
		<line id="XMLID_452_" class="st2" x1="187.3" y1="22.3" x2="200.2" y2="22.3"/>
		<line id="XMLID_451_" class="st2" x1="200.2" y1="22.3" x2="206.8" y2="11.3"/>
		<line id="XMLID_450_" class="st2" x1="200.2" y1="22.3" x2="206.8" y2="33.3"/>
		<line id="XMLID_449_" class="st1" x1="215" y1="18.3" x2="219.4" y2="11.3"/>
		<line id="XMLID_448_" class="st1" x1="215.2" y1="18.2" x2="206.7" y2="18.2"/>
		<line id="XMLID_447_" class="st1" x1="206.7" y1="26.4" x2="215.2" y2="26.4"/>
		<line id="XMLID_446_" class="st1" x1="215.1" y1="26.3" x2="219.4" y2="33.3"/>
		<line id="XMLID_445_" class="st1" x1="226.3" y1="29.2" x2="222.3" y2="22.1"/>
		<line id="XMLID_444_" class="st1" x1="222.3" y1="22.3" x2="226.3" y2="14.8"/>
		<line id="XMLID_443_" class="st2" x1="204.8" y1="22.2" x2="217.7" y2="22.2"/>
		<line id="XMLID_442_" class="st2" x1="217.7" y1="22.2" x2="224.3" y2="11.3"/>
		<line id="XMLID_441_" class="st2" x1="217.7" y1="22.2" x2="224.3" y2="33.3"/>
		<line id="XMLID_440_" class="st1" x1="232.9" y1="18.4" x2="237.2" y2="11.3"/>
		<line id="XMLID_439_" class="st1" x1="233.1" y1="18.3" x2="224.6" y2="18.3"/>
		<line id="XMLID_438_" class="st1" x1="224.6" y1="26.4" x2="233.1" y2="26.4"/>
		<line id="XMLID_437_" class="st1" x1="232.9" y1="26.3" x2="237.2" y2="33.3"/>
		<line id="XMLID_436_" class="st1" x1="244.2" y1="29.2" x2="240.1" y2="22.1"/>
		<line id="XMLID_435_" class="st1" x1="240.1" y1="22.4" x2="244.2" y2="14.8"/>
		<line id="XMLID_434_" class="st2" x1="222.6" y1="22.3" x2="235.6" y2="22.3"/>
		<line id="XMLID_433_" class="st2" x1="235.6" y1="22.3" x2="242.1" y2="11.3"/>
		<line id="XMLID_432_" class="st2" x1="235.6" y1="22.3" x2="242.1" y2="33.3"/>
		<line id="XMLID_431_" class="st1" x1="250.8" y1="18.4" x2="255.1" y2="11.4"/>
		<line id="XMLID_430_" class="st1" x1="251" y1="18.3" x2="242.5" y2="18.3"/>
		<line id="XMLID_429_" class="st1" x1="242.5" y1="26.4" x2="251" y2="26.4"/>
		<line id="XMLID_428_" class="st1" x1="250.8" y1="26.3" x2="255.1" y2="33.4"/>
		<line id="XMLID_427_" class="st1" x1="262" y1="29.2" x2="258" y2="22.2"/>
		<line id="XMLID_426_" class="st1" x1="258" y1="22.4" x2="262" y2="14.8"/>
		<line id="XMLID_425_" class="st2" x1="240.5" y1="22.3" x2="253.5" y2="22.3"/>
		<line id="XMLID_424_" class="st2" x1="253.5" y1="22.3" x2="260" y2="11.4"/>
		<line id="XMLID_423_" class="st2" x1="253.5" y1="22.3" x2="260" y2="33.4"/>
		<line id="XMLID_422_" class="st1" x1="268.6" y1="18.5" x2="273" y2="11.4"/>
		<line id="XMLID_421_" class="st1" x1="268.8" y1="18.3" x2="260.3" y2="18.3"/>
		<line id="XMLID_420_" class="st1" x1="260.3" y1="26.5" x2="268.8" y2="26.5"/>
		<line id="XMLID_419_" class="st1" x1="268.7" y1="26.4" x2="273" y2="33.4"/>
		<line id="XMLID_418_" class="st1" x1="279.9" y1="29.3" x2="275.9" y2="22.2"/>
		<line id="XMLID_417_" class="st1" x1="275.9" y1="22.4" x2="279.9" y2="14.9"/>
		<line id="XMLID_416_" class="st2" x1="258.4" y1="22.3" x2="271.3" y2="22.3"/>
		<line id="XMLID_415_" class="st2" x1="271.3" y1="22.3" x2="277.9" y2="11.4"/>
		<line id="XMLID_414_" class="st2" x1="271.3" y1="22.3" x2="277.9" y2="33.4"/>
		<line id="XMLID_413_" class="st1" x1="286.5" y1="18.5" x2="290.8" y2="11.4"/>
		<line id="XMLID_412_" class="st1" x1="286.7" y1="18.4" x2="278.2" y2="18.4"/>
		<line id="XMLID_411_" class="st1" x1="278.2" y1="26.5" x2="286.7" y2="26.5"/>
		<line id="XMLID_410_" class="st1" x1="286.5" y1="26.4" x2="290.8" y2="33.4"/>
		<line id="XMLID_409_" class="st1" x1="297.7" y1="29.3" x2="293.7" y2="22.3"/>
		<line id="XMLID_408_" class="st1" x1="293.7" y1="22.5" x2="297.7" y2="14.9"/>
		<line id="XMLID_407_" class="st2" x1="276.2" y1="22.4" x2="289.2" y2="22.4"/>
		<line id="XMLID_406_" class="st2" x1="289.2" y1="22.4" x2="295.7" y2="11.4"/>
		<line id="XMLID_405_" class="st2" x1="289.2" y1="22.4" x2="295.7" y2="33.4"/>
		<line id="XMLID_404_" class="st1" x1="304.4" y1="18.5" x2="308.7" y2="11.5"/>
		<line id="XMLID_403_" class="st1" x1="304.6" y1="18.4" x2="296.1" y2="18.4"/>
		<line id="XMLID_402_" class="st1" x1="296.1" y1="26.6" x2="304.6" y2="26.6"/>
		<line id="XMLID_401_" class="st1" x1="304.4" y1="26.4" x2="308.7" y2="33.5"/>
		<line id="XMLID_400_" class="st1" x1="315.6" y1="29.3" x2="311.6" y2="22.3"/>
		<line id="XMLID_399_" class="st1" x1="311.6" y1="22.5" x2="315.6" y2="14.9"/>
		<line id="XMLID_398_" class="st2" x1="294.1" y1="22.4" x2="307.1" y2="22.4"/>
		<line id="XMLID_397_" class="st2" x1="307.1" y1="22.4" x2="313.6" y2="11.5"/>
		<line id="XMLID_396_" class="st2" x1="307.1" y1="22.4" x2="313.6" y2="33.5"/>
		<line id="XMLID_395_" class="st1" x1="321.9" y1="18.5" x2="326.2" y2="11.4"/>
		<line id="XMLID_394_" class="st1" x1="322" y1="18.3" x2="313.6" y2="18.3"/>
		<line id="XMLID_393_" class="st1" x1="313.6" y1="26.5" x2="322" y2="26.5"/>
		<line id="XMLID_392_" class="st1" x1="321.9" y1="26.4" x2="326.2" y2="33.4"/>
		<line id="XMLID_391_" class="st1" x1="333.1" y1="29.3" x2="329.1" y2="22.2"/>
		<line id="XMLID_390_" class="st1" x1="329.1" y1="22.5" x2="333.1" y2="14.9"/>
		<line id="XMLID_389_" class="st2" x1="311.6" y1="22.4" x2="324.5" y2="22.4"/>
		<line id="XMLID_388_" class="st2" x1="324.5" y1="22.4" x2="331.1" y2="11.4"/>
		<line id="XMLID_387_" class="st2" x1="324.5" y1="22.4" x2="331.1" y2="33.4"/>
		<line id="XMLID_386_" class="st1" x1="339.7" y1="18.5" x2="344" y2="11.5"/>
		<line id="XMLID_385_" class="st1" x1="339.9" y1="18.4" x2="331.4" y2="18.4"/>
		<line id="XMLID_384_" class="st1" x1="331.4" y1="26.5" x2="339.9" y2="26.5"/>
		<line id="XMLID_383_" class="st1" x1="339.7" y1="26.4" x2="344" y2="33.5"/>
		<line id="XMLID_382_" class="st1" x1="351" y1="29.3" x2="346.9" y2="22.3"/>
		<line id="XMLID_381_" class="st1" x1="346.9" y1="22.5" x2="351" y2="14.9"/>
		<line id="XMLID_380_" class="st2" x1="329.5" y1="22.4" x2="342.4" y2="22.4"/>
		<line id="XMLID_379_" class="st2" x1="342.4" y1="22.4" x2="349" y2="11.5"/>
		<line id="XMLID_378_" class="st2" x1="342.4" y1="22.4" x2="349" y2="33.5"/>
		<line id="XMLID_377_" class="st1" x1="357.6" y1="18.6" x2="361.9" y2="11.5"/>
		<line id="XMLID_376_" class="st1" x1="357.8" y1="18.4" x2="349.3" y2="18.4"/>
		<line id="XMLID_375_" class="st1" x1="349.3" y1="26.6" x2="357.8" y2="26.6"/>
		<line id="XMLID_374_" class="st1" x1="357.6" y1="26.5" x2="361.9" y2="33.5"/>
		<line id="XMLID_373_" class="st1" x1="368.8" y1="29.4" x2="364.8" y2="22.3"/>
		<line id="XMLID_372_" class="st1" x1="364.8" y1="22.5" x2="368.8" y2="15"/>
		<line id="XMLID_371_" class="st2" x1="347.3" y1="22.4" x2="360.3" y2="22.4"/>
		<line id="XMLID_370_" class="st2" x1="360.3" y1="22.4" x2="366.8" y2="11.5"/>
		<line id="XMLID_369_" class="st2" x1="360.3" y1="22.4" x2="366.8" y2="33.5"/>
		<line id="XMLID_368_" class="st1" x1="375.5" y1="18.6" x2="379.8" y2="11.5"/>
		<line id="XMLID_367_" class="st1" x1="375.6" y1="18.5" x2="367.2" y2="18.5"/>
		<line id="XMLID_366_" class="st1" x1="367.2" y1="26.6" x2="375.6" y2="26.6"/>
		<line id="XMLID_365_" class="st1" x1="375.5" y1="26.5" x2="379.8" y2="33.5"/>
		<line id="XMLID_364_" class="st1" x1="386.7" y1="29.4" x2="382.7" y2="22.3"/>
		<line id="XMLID_363_" class="st1" x1="382.7" y1="22.6" x2="386.7" y2="15"/>
		<line id="XMLID_362_" class="st2" x1="365.2" y1="22.5" x2="378.1" y2="22.5"/>
		<line id="XMLID_361_" class="st2" x1="378.1" y1="22.5" x2="384.7" y2="11.5"/>
		<line id="XMLID_360_" class="st2" x1="378.1" y1="22.5" x2="384.7" y2="33.5"/>
		<line id="XMLID_359_" class="st1" x1="393.3" y1="18.6" x2="397.6" y2="11.6"/>
		<line id="XMLID_358_" class="st1" x1="393.5" y1="18.5" x2="385" y2="18.5"/>
		<line id="XMLID_357_" class="st1" x1="385" y1="26.6" x2="393.5" y2="26.6"/>
		<line id="XMLID_356_" class="st1" x1="393.3" y1="26.5" x2="397.6" y2="33.6"/>
		<line id="XMLID_355_" class="st1" x1="404.6" y1="29.4" x2="400.5" y2="22.4"/>
		<line id="XMLID_354_" class="st1" x1="400.5" y1="22.6" x2="404.6" y2="15"/>
		<line id="XMLID_353_" class="st2" x1="383" y1="22.5" x2="396" y2="22.5"/>
		<line id="XMLID_352_" class="st2" x1="396" y1="22.5" x2="402.5" y2="11.6"/>
		<line id="XMLID_351_" class="st2" x1="396" y1="22.5" x2="402.5" y2="33.6"/>
		<line id="XMLID_350_" class="st1" x1="411.2" y1="18.7" x2="415.5" y2="11.6"/>
		<line id="XMLID_349_" class="st1" x1="411.4" y1="18.5" x2="402.9" y2="18.5"/>
		<line id="XMLID_348_" class="st1" x1="402.9" y1="26.7" x2="411.4" y2="26.7"/>
		<line id="XMLID_347_" class="st1" x1="411.2" y1="26.6" x2="415.5" y2="33.6"/>
		<line id="XMLID_346_" class="st1" x1="422.4" y1="29.5" x2="418.4" y2="22.4"/>
		<line id="XMLID_345_" class="st1" x1="418.4" y1="22.6" x2="422.4" y2="15.1"/>
		<line id="XMLID_344_" class="st2" x1="400.9" y1="22.6" x2="413.9" y2="22.6"/>
		<line id="XMLID_343_" class="st2" x1="413.9" y1="22.6" x2="420.4" y2="11.6"/>
		<line id="XMLID_342_" class="st2" x1="413.9" y1="22.6" x2="420.4" y2="33.6"/>
	</g>
	<g id="XMLID_4_" class="st0">
		<line id="XMLID_340_" class="st1" x1="-7.4" y1="2.6" x2="-3.1" y2="-4.4"/>
		<line id="XMLID_339_" class="st1" x1="-7.2" y1="2.5" x2="-15.7" y2="2.5"/>
		<line id="XMLID_338_" class="st1" x1="-15.7" y1="10.7" x2="-7.2" y2="10.7"/>
		<line id="XMLID_337_" class="st1" x1="-7.4" y1="10.5" x2="-3.1" y2="17.6"/>
		<line id="XMLID_336_" class="st1" x1="3.9" y1="13.4" x2="-0.2" y2="6.4"/>
		<line id="XMLID_335_" class="st1" x1="-0.2" y1="6.6" x2="3.9" y2="-1"/>
		<line id="XMLID_334_" class="st2" x1="-17.6" y1="6.5" x2="-4.7" y2="6.5"/>
		<line id="XMLID_333_" class="st2" x1="-4.7" y1="6.5" x2="1.9" y2="-4.4"/>
		<line id="XMLID_332_" class="st2" x1="-4.7" y1="6.5" x2="1.9" y2="17.6"/>
		<line id="XMLID_331_" class="st1" x1="10.5" y1="2.7" x2="14.8" y2="-4.4"/>
		<line id="XMLID_330_" class="st1" x1="10.7" y1="2.5" x2="2.2" y2="2.5"/>
		<line id="XMLID_329_" class="st1" x1="2.2" y1="10.7" x2="10.7" y2="10.7"/>
		<line id="XMLID_328_" class="st1" x1="10.5" y1="10.6" x2="14.8" y2="17.6"/>
		<line id="XMLID_327_" class="st1" x1="21.7" y1="13.5" x2="17.7" y2="6.4"/>
		<line id="XMLID_326_" class="st1" x1="17.7" y1="6.7" x2="21.7" y2="-0.9"/>
		<line id="XMLID_325_" class="st2" x1="0.2" y1="6.6" x2="13.2" y2="6.6"/>
		<line id="XMLID_324_" class="st2" x1="13.2" y1="6.6" x2="19.7" y2="-4.4"/>
		<line id="XMLID_323_" class="st2" x1="13.2" y1="6.6" x2="19.7" y2="17.6"/>
		<line id="XMLID_322_" class="st1" x1="28.4" y1="2.7" x2="32.7" y2="-4.3"/>
		<line id="XMLID_321_" class="st1" x1="28.5" y1="2.6" x2="20.1" y2="2.6"/>
		<line id="XMLID_320_" class="st1" x1="20.1" y1="10.7" x2="28.5" y2="10.7"/>
		<line id="XMLID_319_" class="st1" x1="28.4" y1="10.6" x2="32.7" y2="17.7"/>
		<line id="XMLID_318_" class="st1" x1="39.6" y1="13.5" x2="35.6" y2="6.5"/>
		<line id="XMLID_317_" class="st1" x1="35.6" y1="6.7" x2="39.6" y2="-0.9"/>
		<line id="XMLID_316_" class="st2" x1="18.1" y1="6.6" x2="31" y2="6.6"/>
		<line id="XMLID_315_" class="st2" x1="31" y1="6.6" x2="37.6" y2="-4.3"/>
		<line id="XMLID_314_" class="st2" x1="31" y1="6.6" x2="37.6" y2="17.7"/>
		<line id="XMLID_313_" class="st1" x1="46.2" y1="2.7" x2="50.5" y2="-4.3"/>
		<line id="XMLID_312_" class="st1" x1="46.4" y1="2.6" x2="37.9" y2="2.6"/>
		<line id="XMLID_311_" class="st1" x1="37.9" y1="10.8" x2="46.4" y2="10.8"/>
		<line id="XMLID_310_" class="st1" x1="46.2" y1="10.7" x2="50.5" y2="17.7"/>
		<line id="XMLID_309_" class="st1" x1="57.5" y1="13.6" x2="53.4" y2="6.5"/>
		<line id="XMLID_308_" class="st1" x1="53.4" y1="6.7" x2="57.5" y2="-0.8"/>
		<line id="XMLID_307_" class="st2" x1="35.9" y1="6.6" x2="48.9" y2="6.6"/>
		<line id="XMLID_306_" class="st2" x1="48.9" y1="6.6" x2="55.5" y2="-4.3"/>
		<line id="XMLID_305_" class="st2" x1="48.9" y1="6.6" x2="55.5" y2="17.7"/>
		<line id="XMLID_304_" class="st1" x1="64.1" y1="2.8" x2="68.4" y2="-4.3"/>
		<line id="XMLID_303_" class="st1" x1="64.3" y1="2.7" x2="55.8" y2="2.7"/>
		<line id="XMLID_302_" class="st1" x1="55.8" y1="10.8" x2="64.3" y2="10.8"/>
		<line id="XMLID_301_" class="st1" x1="64.1" y1="10.7" x2="68.4" y2="17.7"/>
		<line id="XMLID_300_" class="st1" x1="75.3" y1="13.6" x2="71.3" y2="6.5"/>
		<line id="XMLID_299_" class="st1" x1="71.3" y1="6.8" x2="75.3" y2="-0.8"/>
		<line id="XMLID_298_" class="st2" x1="53.8" y1="6.7" x2="66.8" y2="6.7"/>
		<line id="XMLID_297_" class="st2" x1="66.8" y1="6.7" x2="73.3" y2="-4.3"/>
		<line id="XMLID_296_" class="st2" x1="66.8" y1="6.7" x2="73.3" y2="17.7"/>
		<line id="XMLID_295_" class="st1" x1="81.9" y1="2.8" x2="86.3" y2="-4.2"/>
		<line id="XMLID_294_" class="st1" x1="82.1" y1="2.7" x2="73.6" y2="2.7"/>
		<line id="XMLID_293_" class="st1" x1="73.6" y1="10.8" x2="82.1" y2="10.8"/>
		<line id="XMLID_292_" class="st1" x1="82" y1="10.7" x2="86.3" y2="17.8"/>
		<line id="XMLID_291_" class="st1" x1="93.2" y1="13.6" x2="89.2" y2="6.6"/>
		<line id="XMLID_290_" class="st1" x1="89.2" y1="6.8" x2="93.2" y2="-0.8"/>
		<line id="XMLID_289_" class="st2" x1="71.7" y1="6.7" x2="84.6" y2="6.7"/>
		<line id="XMLID_288_" class="st2" x1="84.6" y1="6.7" x2="91.2" y2="-4.2"/>
		<line id="XMLID_287_" class="st2" x1="84.6" y1="6.7" x2="91.2" y2="17.8"/>
		<line id="XMLID_286_" class="st1" x1="99.4" y1="2.8" x2="103.8" y2="-4.3"/>
		<line id="XMLID_285_" class="st1" x1="99.6" y1="2.6" x2="91.1" y2="2.6"/>
		<line id="XMLID_284_" class="st1" x1="91.1" y1="10.8" x2="99.6" y2="10.8"/>
		<line id="XMLID_283_" class="st1" x1="99.5" y1="10.7" x2="103.8" y2="17.7"/>
		<line id="XMLID_282_" class="st1" x1="110.7" y1="13.6" x2="106.7" y2="6.5"/>
		<line id="XMLID_281_" class="st1" x1="106.7" y1="6.7" x2="110.7" y2="-0.8"/>
		<line id="XMLID_280_" class="st2" x1="89.2" y1="6.7" x2="102.1" y2="6.7"/>
		<line id="XMLID_279_" class="st2" x1="102.1" y1="6.7" x2="108.7" y2="-4.3"/>
		<line id="XMLID_278_" class="st2" x1="102.1" y1="6.7" x2="108.7" y2="17.7"/>
		<line id="XMLID_277_" class="st1" x1="117.3" y1="2.8" x2="121.6" y2="-4.3"/>
		<line id="XMLID_276_" class="st1" x1="117.5" y1="2.7" x2="109" y2="2.7"/>
		<line id="XMLID_275_" class="st1" x1="109" y1="10.8" x2="117.5" y2="10.8"/>
		<line id="XMLID_274_" class="st1" x1="117.3" y1="10.7" x2="121.6" y2="17.7"/>
		<line id="XMLID_273_" class="st1" x1="128.5" y1="13.6" x2="124.5" y2="6.6"/>
		<line id="XMLID_272_" class="st1" x1="124.5" y1="6.8" x2="128.5" y2="-0.8"/>
		<line id="XMLID_271_" class="st2" x1="107" y1="6.7" x2="120" y2="6.7"/>
		<line id="XMLID_270_" class="st2" x1="120" y1="6.7" x2="126.5" y2="-4.3"/>
		<line id="XMLID_269_" class="st2" x1="120" y1="6.7" x2="126.5" y2="17.7"/>
		<line id="XMLID_268_" class="st1" x1="135.2" y1="2.8" x2="139.5" y2="-4.2"/>
		<line id="XMLID_267_" class="st1" x1="135.4" y1="2.7" x2="126.9" y2="2.7"/>
		<line id="XMLID_266_" class="st1" x1="126.9" y1="10.9" x2="135.4" y2="10.9"/>
		<line id="XMLID_265_" class="st1" x1="135.2" y1="10.7" x2="139.5" y2="17.8"/>
		<line id="XMLID_264_" class="st1" x1="146.4" y1="13.6" x2="142.4" y2="6.6"/>
		<line id="XMLID_263_" class="st1" x1="142.4" y1="6.8" x2="146.4" y2="-0.8"/>
		<line id="XMLID_262_" class="st2" x1="124.9" y1="6.7" x2="137.8" y2="6.7"/>
		<line id="XMLID_261_" class="st2" x1="137.8" y1="6.7" x2="144.4" y2="-4.2"/>
		<line id="XMLID_260_" class="st2" x1="137.8" y1="6.7" x2="144.4" y2="17.8"/>
		<line id="XMLID_259_" class="st1" x1="153" y1="2.9" x2="157.4" y2="-4.2"/>
		<line id="XMLID_258_" class="st1" x1="153.2" y1="2.7" x2="144.7" y2="2.7"/>
		<line id="XMLID_257_" class="st1" x1="144.7" y1="10.9" x2="153.2" y2="10.9"/>
		<line id="XMLID_256_" class="st1" x1="153.1" y1="10.8" x2="157.4" y2="17.8"/>
		<line id="XMLID_255_" class="st1" x1="164.3" y1="13.7" x2="160.3" y2="6.6"/>
		<line id="XMLID_254_" class="st1" x1="160.3" y1="6.9" x2="164.3" y2="-0.7"/>
		<line id="XMLID_253_" class="st2" x1="142.8" y1="6.8" x2="155.7" y2="6.8"/>
		<line id="XMLID_252_" class="st2" x1="155.7" y1="6.8" x2="162.3" y2="-4.2"/>
		<line id="XMLID_251_" class="st2" x1="155.7" y1="6.8" x2="162.3" y2="17.8"/>
		<line id="XMLID_250_" class="st1" x1="170.9" y1="2.9" x2="175.2" y2="-4.1"/>
		<line id="XMLID_249_" class="st1" x1="171.1" y1="2.8" x2="162.6" y2="2.8"/>
		<line id="XMLID_248_" class="st1" x1="162.6" y1="10.9" x2="171.1" y2="10.9"/>
		<line id="XMLID_247_" class="st1" x1="170.9" y1="10.8" x2="175.2" y2="17.9"/>
		<line id="XMLID_246_" class="st1" x1="182.1" y1="13.7" x2="178.1" y2="6.7"/>
		<line id="XMLID_245_" class="st1" x1="178.1" y1="6.9" x2="182.1" y2="-0.7"/>
		<line id="XMLID_244_" class="st2" x1="160.6" y1="6.8" x2="173.6" y2="6.8"/>
		<line id="XMLID_243_" class="st2" x1="173.6" y1="6.8" x2="180.1" y2="-4.1"/>
		<line id="XMLID_242_" class="st2" x1="173.6" y1="6.8" x2="180.1" y2="17.9"/>
		<line id="XMLID_241_" class="st1" x1="188.8" y1="2.9" x2="193.1" y2="-4.1"/>
		<line id="XMLID_240_" class="st1" x1="188.9" y1="2.8" x2="180.5" y2="2.8"/>
		<line id="XMLID_239_" class="st1" x1="180.5" y1="11" x2="188.9" y2="11"/>
		<line id="XMLID_238_" class="st1" x1="188.8" y1="10.9" x2="193.1" y2="17.9"/>
		<line id="XMLID_237_" class="st1" x1="200" y1="13.8" x2="196" y2="6.7"/>
		<line id="XMLID_236_" class="st1" x1="196" y1="6.9" x2="200" y2="-0.6"/>
		<line id="XMLID_235_" class="st2" x1="178.5" y1="6.8" x2="191.4" y2="6.8"/>
		<line id="XMLID_234_" class="st2" x1="191.4" y1="6.8" x2="198" y2="-4.1"/>
		<line id="XMLID_233_" class="st2" x1="191.4" y1="6.8" x2="198" y2="17.9"/>
		<line id="XMLID_232_" class="st1" x1="206.3" y1="2.9" x2="210.6" y2="-4.2"/>
		<line id="XMLID_231_" class="st1" x1="206.4" y1="2.8" x2="198" y2="2.8"/>
		<line id="XMLID_230_" class="st1" x1="198" y1="10.9" x2="206.4" y2="10.9"/>
		<line id="XMLID_229_" class="st1" x1="206.3" y1="10.8" x2="210.6" y2="17.8"/>
		<line id="XMLID_228_" class="st1" x1="217.5" y1="13.7" x2="213.5" y2="6.7"/>
		<line id="XMLID_227_" class="st1" x1="213.5" y1="6.9" x2="217.5" y2="-0.7"/>
		<line id="XMLID_226_" class="st2" x1="196" y1="6.8" x2="208.9" y2="6.8"/>
		<line id="XMLID_225_" class="st2" x1="208.9" y1="6.8" x2="215.5" y2="-4.2"/>
		<line id="XMLID_224_" class="st2" x1="208.9" y1="6.8" x2="215.5" y2="17.8"/>
		<line id="XMLID_223_" class="st1" x1="224.1" y1="2.9" x2="228.4" y2="-4.1"/>
		<line id="XMLID_222_" class="st1" x1="224.3" y1="2.8" x2="215.8" y2="2.8"/>
		<line id="XMLID_221_" class="st1" x1="215.8" y1="11" x2="224.3" y2="11"/>
		<line id="XMLID_220_" class="st1" x1="224.1" y1="10.8" x2="228.4" y2="17.9"/>
		<line id="XMLID_219_" class="st1" x1="235.4" y1="13.7" x2="231.3" y2="6.7"/>
		<line id="XMLID_218_" class="st1" x1="231.3" y1="6.9" x2="235.4" y2="-0.7"/>
		<line id="XMLID_217_" class="st2" x1="213.8" y1="6.8" x2="226.8" y2="6.8"/>
		<line id="XMLID_216_" class="st2" x1="226.8" y1="6.8" x2="233.4" y2="-4.1"/>
		<line id="XMLID_215_" class="st2" x1="226.8" y1="6.8" x2="233.4" y2="17.9"/>
		<line id="XMLID_214_" class="st1" x1="242" y1="3" x2="246.3" y2="-4.1"/>
		<line id="XMLID_213_" class="st1" x1="242.2" y1="2.8" x2="233.7" y2="2.8"/>
		<line id="XMLID_212_" class="st1" x1="233.7" y1="11" x2="242.2" y2="11"/>
		<line id="XMLID_211_" class="st1" x1="242" y1="10.9" x2="246.3" y2="17.9"/>
		<line id="XMLID_210_" class="st1" x1="253.2" y1="13.8" x2="249.2" y2="6.7"/>
		<line id="XMLID_209_" class="st1" x1="249.2" y1="6.9" x2="253.2" y2="-0.6"/>
		<line id="XMLID_208_" class="st2" x1="231.7" y1="6.9" x2="244.7" y2="6.9"/>
		<line id="XMLID_207_" class="st2" x1="244.7" y1="6.9" x2="251.2" y2="-4.1"/>
		<line id="XMLID_206_" class="st2" x1="244.7" y1="6.9" x2="251.2" y2="17.9"/>
		<line id="XMLID_205_" class="st1" x1="259.8" y1="3" x2="264.2" y2="-4"/>
		<line id="XMLID_204_" class="st1" x1="260" y1="2.9" x2="251.5" y2="2.9"/>
		<line id="XMLID_203_" class="st1" x1="251.5" y1="11" x2="260" y2="11"/>
		<line id="XMLID_202_" class="st1" x1="259.9" y1="10.9" x2="264.2" y2="17.9"/>
		<line id="XMLID_201_" class="st1" x1="271.1" y1="13.8" x2="267.1" y2="6.8"/>
		<line id="XMLID_200_" class="st1" x1="267.1" y1="7" x2="271.1" y2="-0.6"/>
		<line id="XMLID_199_" class="st2" x1="249.6" y1="6.9" x2="262.5" y2="6.9"/>
		<line id="XMLID_198_" class="st2" x1="262.5" y1="6.9" x2="269.1" y2="-4"/>
		<line id="XMLID_197_" class="st2" x1="262.5" y1="6.9" x2="269.1" y2="17.9"/>
		<line id="XMLID_196_" class="st1" x1="277.7" y1="3" x2="282" y2="-4"/>
		<line id="XMLID_195_" class="st1" x1="277.9" y1="2.9" x2="269.4" y2="2.9"/>
		<line id="XMLID_194_" class="st1" x1="269.4" y1="11.1" x2="277.9" y2="11.1"/>
		<line id="XMLID_193_" class="st1" x1="277.7" y1="11" x2="282" y2="18"/>
		<line id="XMLID_192_" class="st1" x1="289" y1="13.9" x2="284.9" y2="6.8"/>
		<line id="XMLID_191_" class="st1" x1="284.9" y1="7" x2="289" y2="-0.5"/>
		<line id="XMLID_190_" class="st2" x1="267.4" y1="6.9" x2="280.4" y2="6.9"/>
		<line id="XMLID_189_" class="st2" x1="280.4" y1="6.9" x2="286.9" y2="-4"/>
		<line id="XMLID_188_" class="st2" x1="280.4" y1="6.9" x2="286.9" y2="18"/>
		<line id="XMLID_187_" class="st1" x1="295.6" y1="3.1" x2="299.9" y2="-4"/>
		<line id="XMLID_186_" class="st1" x1="295.8" y1="2.9" x2="287.3" y2="2.9"/>
		<line id="XMLID_185_" class="st1" x1="287.3" y1="11.1" x2="295.8" y2="11.1"/>
		<line id="XMLID_184_" class="st1" x1="295.6" y1="11" x2="299.9" y2="18"/>
		<line id="XMLID_183_" class="st1" x1="306.8" y1="13.9" x2="302.8" y2="6.8"/>
		<line id="XMLID_182_" class="st1" x1="302.8" y1="7.1" x2="306.8" y2="-0.5"/>
		<line id="XMLID_181_" class="st2" x1="285.3" y1="7" x2="298.3" y2="7"/>
		<line id="XMLID_180_" class="st2" x1="298.3" y1="7" x2="304.8" y2="-4"/>
		<line id="XMLID_179_" class="st2" x1="298.3" y1="7" x2="304.8" y2="18"/>
		<line id="XMLID_178_" class="st1" x1="313.1" y1="3" x2="317.4" y2="-4"/>
		<line id="XMLID_177_" class="st1" x1="313.3" y1="2.9" x2="304.8" y2="2.9"/>
		<line id="XMLID_176_" class="st1" x1="304.8" y1="11" x2="313.3" y2="11"/>
		<line id="XMLID_175_" class="st1" x1="313.1" y1="10.9" x2="317.4" y2="18"/>
		<line id="XMLID_174_" class="st1" x1="324.3" y1="13.8" x2="320.3" y2="6.8"/>
		<line id="XMLID_173_" class="st1" x1="320.3" y1="7" x2="324.3" y2="-0.6"/>
		<line id="XMLID_172_" class="st2" x1="302.8" y1="6.9" x2="315.8" y2="6.9"/>
		<line id="XMLID_171_" class="st2" x1="315.8" y1="6.9" x2="322.3" y2="-4"/>
		<line id="XMLID_170_" class="st2" x1="315.8" y1="6.9" x2="322.3" y2="18"/>
		<line id="XMLID_169_" class="st1" x1="330.9" y1="3.1" x2="335.3" y2="-4"/>
		<line id="XMLID_168_" class="st1" x1="331.1" y1="2.9" x2="322.6" y2="2.9"/>
		<line id="XMLID_167_" class="st1" x1="322.6" y1="11.1" x2="331.1" y2="11.1"/>
		<line id="XMLID_166_" class="st1" x1="331" y1="11" x2="335.3" y2="18"/>
		<line id="XMLID_165_" class="st1" x1="342.2" y1="13.9" x2="338.2" y2="6.8"/>
		<line id="XMLID_164_" class="st1" x1="338.2" y1="7" x2="342.2" y2="-0.5"/>
		<line id="XMLID_163_" class="st2" x1="320.7" y1="6.9" x2="333.6" y2="6.9"/>
		<line id="XMLID_162_" class="st2" x1="333.6" y1="6.9" x2="340.2" y2="-4"/>
		<line id="XMLID_161_" class="st2" x1="333.6" y1="6.9" x2="340.2" y2="18"/>
		<line id="XMLID_160_" class="st1" x1="348.8" y1="3.1" x2="353.1" y2="-4"/>
		<line id="XMLID_159_" class="st1" x1="349" y1="3" x2="340.5" y2="3"/>
		<line id="XMLID_158_" class="st1" x1="340.5" y1="11.1" x2="349" y2="11.1"/>
		<line id="XMLID_157_" class="st1" x1="348.8" y1="11" x2="353.1" y2="18"/>
		<line id="XMLID_156_" class="st1" x1="360" y1="13.9" x2="356" y2="6.9"/>
		<line id="XMLID_155_" class="st1" x1="356" y1="7.1" x2="360" y2="-0.5"/>
		<line id="XMLID_154_" class="st2" x1="338.5" y1="7" x2="351.5" y2="7"/>
		<line id="XMLID_153_" class="st2" x1="351.5" y1="7" x2="358" y2="-4"/>
		<line id="XMLID_152_" class="st2" x1="351.5" y1="7" x2="358" y2="18"/>
		<line id="XMLID_151_" class="st1" x1="366.7" y1="3.1" x2="371" y2="-3.9"/>
		<line id="XMLID_150_" class="st1" x1="366.9" y1="3" x2="358.4" y2="3"/>
		<line id="XMLID_149_" class="st1" x1="358.4" y1="11.2" x2="366.9" y2="11.2"/>
		<line id="XMLID_148_" class="st1" x1="366.7" y1="11" x2="371" y2="18.1"/>
		<line id="XMLID_147_" class="st1" x1="377.9" y1="13.9" x2="373.9" y2="6.9"/>
		<line id="XMLID_146_" class="st1" x1="373.9" y1="7.1" x2="377.9" y2="-0.5"/>
		<line id="XMLID_145_" class="st2" x1="356.4" y1="7" x2="369.3" y2="7"/>
		<line id="XMLID_144_" class="st2" x1="369.3" y1="7" x2="375.9" y2="-3.9"/>
		<line id="XMLID_143_" class="st2" x1="369.3" y1="7" x2="375.9" y2="18.1"/>
		<line id="XMLID_142_" class="st1" x1="384.5" y1="3.2" x2="388.8" y2="-3.9"/>
		<line id="XMLID_141_" class="st1" x1="384.7" y1="3" x2="376.2" y2="3"/>
		<line id="XMLID_140_" class="st1" x1="376.2" y1="11.2" x2="384.7" y2="11.2"/>
		<line id="XMLID_139_" class="st1" x1="384.5" y1="11.1" x2="388.8" y2="18.1"/>
		<line id="XMLID_138_" class="st1" x1="395.8" y1="14" x2="391.7" y2="6.9"/>
		<line id="XMLID_137_" class="st1" x1="391.7" y1="7.2" x2="395.8" y2="-0.4"/>
		<line id="XMLID_136_" class="st2" x1="374.3" y1="7.1" x2="387.2" y2="7.1"/>
		<line id="XMLID_135_" class="st2" x1="387.2" y1="7.1" x2="393.8" y2="-3.9"/>
		<line id="XMLID_134_" class="st2" x1="387.2" y1="7.1" x2="393.8" y2="18.1"/>
		<line id="XMLID_133_" class="st1" x1="402.4" y1="3.2" x2="406.7" y2="-3.8"/>
		<line id="XMLID_132_" class="st1" x1="402.6" y1="3.1" x2="394.1" y2="3.1"/>
		<line id="XMLID_131_" class="st1" x1="394.1" y1="11.2" x2="402.6" y2="11.2"/>
		<line id="XMLID_130_" class="st1" x1="402.4" y1="11.1" x2="406.7" y2="18.2"/>
		<line id="XMLID_124_" class="st1" x1="413.6" y1="14" x2="409.6" y2="7"/>
		<line id="XMLID_118_" class="st1" x1="409.6" y1="7.2" x2="413.6" y2="-0.4"/>
		<line id="XMLID_112_" class="st2" x1="392.1" y1="7.1" x2="405.1" y2="7.1"/>
		<line id="XMLID_106_" class="st2" x1="405.1" y1="7.1" x2="411.6" y2="-3.8"/>
		<line id="XMLID_5_" class="st2" x1="405.1" y1="7.1" x2="411.6" y2="18.2"/>
	</g>
</g>
</svg>
