<?xml version="1.0" encoding="utf-8"?>
<!-- Generator: Adobe Illustrator 19.0.0, SVG Export Plug-In . SVG Version: 6.00 Build 0)  -->
<svg version="1.1" id="Capa_1" xmlns="http://www.w3.org/2000/svg" xmlns:xlink="http://www.w3.org/1999/xlink" x="0px" y="0px"
	 viewBox="0 0 380 25" style="enable-background:new 0 0 380 25;" xml:space="preserve">
<style type="text/css">
	.st0{clip-path:url(#XMLID_2_);fill:none;stroke:#000000;stroke-miterlimit:10;}
</style>
<g id="XMLID_1955_">
	<defs>
		<rect id="XMLID_1956_" x="6.6" y="0.5" width="366.8" height="24.1"/>
	</defs>
	<clipPath id="XMLID_2_">
		<use xlink:href="#XMLID_1956_"  style="overflow:visible;"/>
	</clipPath>
	<line id="XMLID_1992_" class="st0" x1="-2.4" y1="3.5" x2="12.7" y2="21.5"/>
	<line id="XMLID_1991_" class="st0" x1="-2.4" y1="21.5" x2="12.7" y2="3.5"/>
	<line id="XMLID_1990_" class="st0" x1="19.1" y1="3.5" x2="34.2" y2="21.5"/>
	<line id="XMLID_1989_" class="st0" x1="19.1" y1="21.5" x2="34.2" y2="3.5"/>
	<line id="XMLID_1988_" class="st0" x1="40.6" y1="3.5" x2="55.7" y2="21.5"/>
	<line id="XMLID_1987_" class="st0" x1="40.6" y1="21.5" x2="55.7" y2="3.5"/>
	<line id="XMLID_1986_" class="st0" x1="62.1" y1="3.5" x2="77.2" y2="21.5"/>
	<line id="XMLID_1985_" class="st0" x1="62.1" y1="21.5" x2="77.2" y2="3.5"/>
	<line id="XMLID_1984_" class="st0" x1="83.6" y1="3.5" x2="98.7" y2="21.5"/>
	<line id="XMLID_1983_" class="st0" x1="83.6" y1="21.5" x2="98.7" y2="3.5"/>
	<line id="XMLID_1982_" class="st0" x1="105.1" y1="3.5" x2="120.2" y2="21.5"/>
	<line id="XMLID_1981_" class="st0" x1="105.1" y1="21.5" x2="120.2" y2="3.5"/>
	<line id="XMLID_1980_" class="st0" x1="126.6" y1="3.5" x2="141.7" y2="21.5"/>
	<line id="XMLID_1979_" class="st0" x1="126.6" y1="21.5" x2="141.7" y2="3.5"/>
	<line id="XMLID_1978_" class="st0" x1="148.1" y1="3.5" x2="163.2" y2="21.5"/>
	<line id="XMLID_1977_" class="st0" x1="148.1" y1="21.5" x2="163.2" y2="3.5"/>
	<line id="XMLID_1976_" class="st0" x1="169.6" y1="3.5" x2="184.7" y2="21.5"/>
	<line id="XMLID_1975_" class="st0" x1="169.6" y1="21.5" x2="184.7" y2="3.5"/>
	<line id="XMLID_1974_" class="st0" x1="191.1" y1="3.5" x2="206.2" y2="21.5"/>
	<line id="XMLID_1973_" class="st0" x1="191.1" y1="21.5" x2="206.2" y2="3.5"/>
	<line id="XMLID_1972_" class="st0" x1="212.6" y1="3.5" x2="227.7" y2="21.5"/>
	<line id="XMLID_1971_" class="st0" x1="212.6" y1="21.5" x2="227.7" y2="3.5"/>
	<line id="XMLID_1970_" class="st0" x1="234.1" y1="3.5" x2="249.2" y2="21.5"/>
	<line id="XMLID_1969_" class="st0" x1="234.1" y1="21.5" x2="249.2" y2="3.5"/>
	<line id="XMLID_1968_" class="st0" x1="255.6" y1="3.5" x2="270.7" y2="21.5"/>
	<line id="XMLID_1967_" class="st0" x1="255.6" y1="21.5" x2="270.7" y2="3.5"/>
	<line id="XMLID_1966_" class="st0" x1="277.1" y1="3.5" x2="292.2" y2="21.5"/>
	<line id="XMLID_1965_" class="st0" x1="277.1" y1="21.5" x2="292.2" y2="3.5"/>
	<line id="XMLID_1964_" class="st0" x1="298.6" y1="3.5" x2="313.7" y2="21.5"/>
	<line id="XMLID_1963_" class="st0" x1="298.6" y1="21.5" x2="313.7" y2="3.5"/>
	<line id="XMLID_1962_" class="st0" x1="320.1" y1="3.5" x2="335.2" y2="21.5"/>
	<line id="XMLID_1961_" class="st0" x1="320.1" y1="21.5" x2="335.2" y2="3.5"/>
	<line id="XMLID_1960_" class="st0" x1="341.6" y1="3.5" x2="356.7" y2="21.5"/>
	<line id="XMLID_1959_" class="st0" x1="341.6" y1="21.5" x2="356.7" y2="3.5"/>
	<line id="XMLID_1958_" class="st0" x1="363.1" y1="3.5" x2="378.2" y2="21.5"/>
	<line id="XMLID_1957_" class="st0" x1="363.1" y1="21.5" x2="378.2" y2="3.5"/>
</g>
</svg>
