<?xml version="1.0" encoding="utf-8"?>
<!-- Generator: Adobe Illustrator 19.0.0, SVG Export Plug-In . SVG Version: 6.00 Build 0)  -->
<svg version="1.1" id="Capa_1" xmlns="http://www.w3.org/2000/svg" xmlns:xlink="http://www.w3.org/1999/xlink" x="0px" y="0px"
	 viewBox="0 0 200 200" style="enable-background:new 0 0 200 200;" xml:space="preserve">
<style type="text/css">
	.st0{fill:none;stroke:#FED09A;stroke-width:11.3849;stroke-linecap:round;stroke-miterlimit:10;}
	.st1{fill:#C59B6D;}
	.st2{fill:#FED09A;}
	.st3{fill:#39B44A;}
	.st4{fill:#42210B;}
	.st5{fill:#AB5B24;}
	.st6{fill:#572300;}
	.st7{fill:#8BC53F;}
</style>
<path id="XMLID_24_" class="st0" d="M111.7,178c0,0,5.6-45.1-5.5-82.4"/>
<path id="XMLID_23_" class="st0" d="M72.7,167.2c0,0,44-42.5,33-79.8"/>
<path id="XMLID_22_" class="st1" d="M111.7,22.5c0,0,10.4-5.3,4.2-12.3c-6.2-6.9-12.6-0.5-12.6-0.5s-17.9-4.7-17.4,6.3
	c-1.9,7.4-9.8,3.6-3,25c6.8,21.4,1,24-0.1,29.5c0,0,6.4-1.4,7.4-5.4c0,0-0.2,4.4-1.9,5.9c0,0,4.4-2.4,7.9-8.4
	c3.4-6,4.9-31.4,4.9-31.4L111.7,22.5z"/>
<path id="XMLID_21_" class="st2" d="M94.3,33.3l1.9,0.8v-2.7l-0.7-3.2c0,0-0.5-7.7,3.5-8.5c0,0,7,2.4,11.1-1.5c0,0,1.8,2.5,1.7,5.6
	c-0.1,3.1,1.5,3.7,3.1,4.5c1.5,0.8-0.6,2.7-0.6,2.7s1.5,7.9,0.7,10.3c-0.6,1.9-4.6,1.5-9.9,1.2c-0.4,1.4-1.5,6.2-0.9,7.7h-7.7
	c0,0-1.8-3.9-0.9-9c-0.7-0.7-0.6-1.2-0.6-1.2s-4.7,1.7-5.4-4.5C88.7,29.3,94.3,33.3,94.3,33.3z"/>
<path id="XMLID_20_" class="st0" d="M98.7,56.3c0,0,32.8,15.2,40.1-30.1"/>
<path id="XMLID_19_" class="st3" d="M113.5,88.3c0,0,10.2,25.2,5,47.4l-33.3,1.9c0,0,8-40,6-49.4C89,78.9,113.5,88.3,113.5,88.3z"/>
<path id="XMLID_18_" class="st3" d="M106.3,48c0,0,3,6.2,7,9.1c3.9,2.9,4.8,6.7,2.3,11.4c-2.5,4.7-2,15.7-2,15.7H91.1
	c0,0,2.2-11.3,0.9-18.9C90.6,57.8,94,48,94,48H106.3z"/>
<g id="XMLID_15_">
	<path id="XMLID_17_" class="st3" d="M118.4,174.6v7.1h9.1c3.3,0,6,2.7,6,6c0,0.6-0.1,1.1-0.2,1.6h-27.2c-0.1-0.5-0.2-1-0.2-1.6
		v-13.1H118.4z"/>
	<path id="XMLID_16_" class="st4" d="M133.4,188.1c0,0.4-0.1,0.8-0.2,1.3h-27.2c-0.1-0.4-0.2-0.8-0.2-1.3H133.4z"/>
</g>
<g id="XMLID_12_">
	<path id="XMLID_14_" class="st3" d="M79.9,169.6l-4.6,5.4l6.9,5.9c2.5,2.1,2.8,5.8,0.7,8.3c-0.4,0.4-0.8,0.8-1.2,1.1l-20.5-17.5
		c0.2-0.5,0.5-0.9,0.9-1.4l8.4-9.9L79.9,169.6z"/>
	<path id="XMLID_13_" class="st4" d="M82.6,189.4c-0.3,0.3-0.6,0.6-1,0.8l-20.5-17.5c0.2-0.4,0.4-0.7,0.6-1.1L82.6,189.4z"/>
</g>
<g id="XMLID_5_">
	<path id="XMLID_11_" class="st5" d="M101.3,113.7V109h-9.6v4.8h-3.3v-6.6c0-0.8,0.7-1.5,1.5-1.5h13.3c0.8,0,1.5,0.7,1.5,1.5v6.6
		H101.3z"/>
	<path id="XMLID_10_" class="st5" d="M67.1,147.4c0,0.8,0.7,1.5,1.5,1.5h55.6c0.8,0,1.5-0.7,1.5-1.5v-32.2c0-0.8-0.7-1.5-1.5-1.5
		H68.7c-0.8,0-1.5,0.7-1.5,1.5V147.4z"/>
	<path id="XMLID_9_" class="st6" d="M67.6,119.5c3,0,5.4-2.4,5.4-5.4c0-0.1,0-0.2,0-0.4h47c0,0.1,0,0.2,0,0.4c0,3,2.4,5.4,5.4,5.4
		c0.2,0,0.3,0,0.5,0v23.8c-0.2,0-0.3,0-0.5,0c-3,0-5.4,2.4-5.4,5.4c0,0.1,0,0.3,0,0.4H73c0-0.1,0-0.2,0-0.4c0-3-2.4-5.4-5.4-5.4
		c-0.2,0-0.3,0-0.5,0v-23.8C67.3,119.5,67.4,119.5,67.6,119.5z"/>
	<g id="XMLID_6_">
		<rect id="XMLID_8_" x="111.1" y="113.7" class="st5" width="4.3" height="35.2"/>
		<rect id="XMLID_7_" x="77.4" y="113.7" class="st5" width="4.3" height="35.2"/>
	</g>
</g>
<path id="XMLID_4_" class="st7" d="M94,48c0,1,0.8,1.8,1.8,1.8h8.7c1,0,1.8-0.8,1.8-1.8l0,0c0-1-0.8-1.8-1.8-1.8h-8.7
	C94.8,46.2,94,47,94,48L94,48z"/>
<rect id="XMLID_3_" x="91.1" y="84.2" class="st7" width="22.4" height="4.1"/>
<path id="XMLID_2_" class="st0" d="M98.7,54.5c0,0-14.2,16.4-3.2,53.7"/>
</svg>
