<?xml version="1.0" encoding="utf-8"?>
<!-- Generator: Adobe Illustrator 19.0.0, SVG Export Plug-In . SVG Version: 6.00 Build 0)  -->
<svg version="1.1" id="Capa_1" xmlns="http://www.w3.org/2000/svg" xmlns:xlink="http://www.w3.org/1999/xlink" x="0px" y="0px"
	 viewBox="0 0 200 200" style="enable-background:new 0 0 200 200;" xml:space="preserve">
<style type="text/css">
	.st0{fill:#925F36;}
	.st1{fill:#6F4927;}
	.st2{fill:#B37344;}
	.st3{fill:#403329;}
	.st4{fill:#F1C447;}
	.st5{fill:#39230B;}
	.st6{fill:#6B4626;}
	.st7{fill:#482F15;}
	.st8{fill:#FCD8A9;}
	.st9{fill:#EAF5F9;}
	.st10{fill:#A4ABAD;}
	.st11{fill:#E8C7A7;}
	.st12{fill:#CEA364;}
	.st13{fill:#B08C56;}
	.st14{fill:#B3BBBE;}
	.st15{fill:#595958;}
	.st16{fill:#454443;}
	.st17{fill:#464949;}
	.st18{fill:#FFEBCF;}
	.st19{fill:#CCA587;}
	.st20{fill:#714D25;}
	.st21{fill:#AB793E;}
	.st22{fill:#5D411E;}
	.st23{fill:#7A562B;}
	.st24{fill:#FFFFFF;}
	.st25{fill:#1D1D1B;}
	.st26{fill:#FFEEDA;}
	.st27{fill:#402B0D;}
	.st28{fill:#973E28;}
	.st29{fill:#C74F37;}
	.st30{fill:#DF8675;}
	.st31{fill:#823521;}
	.st32{fill:#530A00;}
	.st33{fill:#422918;}
	.st34{fill:#794B35;}
	.st35{fill:#2D1A09;}
	.st36{fill:#ABABAB;}
	.st37{fill-rule:evenodd;clip-rule:evenodd;fill:#1D1D1B;}
	.st38{fill:#D9D9D9;}
	.st39{filter:url(#Adobe_OpacityMaskFilter);}
	.st40{filter:url(#Adobe_OpacityMaskFilter_1_);}
	.st41{mask:url(#XMLID_256_);fill:url(#XMLID_258_);}
	.st42{opacity:0.3;fill:url(#XMLID_259_);}
	.st43{filter:url(#Adobe_OpacityMaskFilter_2_);}
	.st44{filter:url(#Adobe_OpacityMaskFilter_3_);}
	.st45{mask:url(#XMLID_260_);fill:url(#XMLID_261_);}
	.st46{opacity:0.3;fill:url(#XMLID_262_);}
	.st47{filter:url(#Adobe_OpacityMaskFilter_4_);}
	.st48{filter:url(#Adobe_OpacityMaskFilter_5_);}
	.st49{mask:url(#XMLID_263_);fill:url(#XMLID_299_);}
	.st50{opacity:0.3;fill:url(#XMLID_308_);}
	.st51{filter:url(#Adobe_OpacityMaskFilter_6_);}
	.st52{filter:url(#Adobe_OpacityMaskFilter_7_);}
	.st53{mask:url(#XMLID_310_);fill:url(#XMLID_313_);}
	.st54{opacity:0.3;fill:url(#XMLID_315_);}
</style>
<g id="XMLID_34_">
	<g id="XMLID_718_">
		<g id="XMLID_719_">
			<path id="XMLID_255_" class="st0" d="M115,137.5c1.5,3.7,2.8,7.3,4.3,10.9c0-0.8,0-1.6,0-2.4c-0.5-2.2-1-4.5-1.7-6.7
				c-0.1-0.4-0.1-0.9-0.2-1.3c-1.2-3.9-2.9-7.8-6-10.4c1,2.3,1.6,4.7,2.5,7.1C114.1,135.6,114.6,136.5,115,137.5z"/>
			<path id="XMLID_254_" class="st1" d="M115,137.5c-0.4-1-0.9-1.9-1.2-2.8c-0.9-2.4-1.5-4.8-2.5-7.1c-0.2-0.2-0.4-0.3-0.6-0.5
				c0.4,1,0.7,2,1.1,3c2,5.6,4.1,11.3,6.1,16.9c0.4,1.2,0.8,2.4,1.2,3.6c0.1-0.7,0.1-1.4,0.2-2.1C117.8,144.8,116.4,141.1,115,137.5
				z"/>
			<path id="XMLID_253_" class="st2" d="M117.3,137.9c0.1,0.4,0.1,0.9,0.2,1.3c0.7,2.3,1.2,4.5,1.7,6.7c-0.2-2.8-0.8-5.6-1.5-8.2
				c-1.2-4-3-9.2-7.2-11.1c0,0.1,0.1,0.3,0.1,0.4c0.2,0.2,0.4,0.3,0.6,0.5c0-0.1-0.1-0.2-0.1-0.3c0,0.1,0.1,0.2,0.1,0.3
				C114.3,130.2,116.1,134,117.3,137.9z"/>
			<path id="XMLID_720_" class="st3" d="M119.1,150.9l-0.1-0.4c-0.4-1.2-0.8-2.4-1.2-3.6c-1.7-4.7-3.4-9.4-5-13.9l-2.4-6.5l0.2,0.1
				c4.1,1.9,6,7,7.2,11.2c1.4,5,1.9,9.1,1.4,12.7L119.1,150.9z M110.7,126.8l2.2,6.1c1.7,4.6,3.4,9.3,5,13.9
				c0.4,1.1,0.7,2.1,1.1,3.2c0.4-3.5-0.1-7.5-1.5-12.2C116.4,133.7,114.6,128.8,110.7,126.8z"/>
		</g>
	</g>
	<g id="XMLID_708_">
		<path id="XMLID_250_" class="st2" d="M89.6,167.5c-0.5-3.1-1.5-6-2.2-9c-0.2-0.2-0.5-0.4-0.7-0.6c0.8,3.4,1.4,6.8,2.1,10.2
			c0.8,4.4,1.6,8.9,2.3,13.3c0.1,0,0.2,0,0.2,0c-0.5-3.9-0.9-7.7-1.6-11.7C89.6,169,89.7,168.3,89.6,167.5z"/>
		<path id="XMLID_249_" class="st1" d="M110.1,170.7c-0.1-1.1-0.1-2.4-0.6-3.4c-0.3-0.1-0.7-0.1-1-0.2c0.5,1.3,0.6,2.8,0.8,4.1
			c0.2,1.5,0.4,3,0.6,4.6c0.2,1.9,0.3,3.7,0.5,5.6c0.3,0,0.6,0,1-0.1c0-0.1,0-0.2,0-0.3C110.8,177.6,110.6,174.2,110.1,170.7z"/>
		<path id="XMLID_248_" class="st1" d="M96,181.4c0.2,0,0.4,0,0.6,0c0,0,0,0,0,0c0.3-2.5,0.7-5,1-7.4c0.3-2.2,0.4-4.4,0.8-6.5
			c-0.4,0.1-0.9,0.2-1.3,0.3C96,172.2,95.8,176.8,96,181.4z"/>
		<path id="XMLID_247_" class="st0" d="M111.7,163.4L111.7,163.4L111.7,163.4c-0.1,0-0.1,0.1-0.2,0.1
			C111.5,163.4,111.6,163.4,111.7,163.4L111.7,163.4c-2.6-1.9-5.5-3.4-8.5-4.5c0,0.1,0,0.1,0.1,0.1c-0.1,0-0.1,0-0.1-0.1
			c-2.7,1.3-4.8,3.3-7.5,4.6c-0.1,0.2-0.1,0.4-0.3,0.5c0.2-0.1,0.2-0.3,0.3-0.5c0,0,0,0,0,0c0,0,0,0,0,0c0,0,0,0,0-0.1
			c-2.7-1.7-5.8-2.7-8.3-4.8c0.7,3,1.6,5.9,2.2,9c0.1,0.7,0,1.5,0.1,2.2c0.7,4,1.1,7.9,1.6,11.7c1.6-0.1,3.1-0.2,4.7-0.1
			c-0.3-4.6-0.1-9.2,1.1-13.7c-0.2,0-0.4,0.1-0.7,0.1c0,0-0.1,0,0-0.1c4.3-1.4,9-1.8,13.4-0.6c0.1,0,0.1,0.2,0,0.2
			c-0.1,0-0.2,0-0.3-0.1c0.5,1.1,0.5,2.3,0.6,3.4c0.5,3.5,0.7,6.8,1.1,10.3c0,0.1,0,0.2,0,0.3c1.2-0.1,2.5-0.1,3.7-0.1
			c0.3-7,1.7-13.7,2.8-20.8c0-0.4,0-0.8,0.1-1.3C116,160.9,114.1,162.4,111.7,163.4z"/>
		<path id="XMLID_246_" class="st2" d="M117.9,159.2c0,0.4,0,0.9-0.1,1.3c-1.1,7-2.5,13.8-2.8,20.8c0.3,0,0.6,0,0.8,0
			c0.4-4.5,0.8-9,1.3-13.5c0.4-3.1,0.8-6.2,1.6-9.3C118.4,158.7,118.2,159,117.9,159.2z"/>
		<path id="XMLID_245_" class="st1" d="M86.1,155.2c0.3,0.9,0.5,1.8,0.7,2.7c2.6,2.5,6,3.6,8.9,5.4c0,0,0,0,0,0.1
			c2.7-1.3,4.8-3.3,7.5-4.6c3,1.1,5.9,2.6,8.5,4.5v0.1c2.7-1.1,4.9-2.9,7-4.8c0.3-1,0.5-2,0.9-3L86.1,155.2z"/>
		<path id="XMLID_709_" class="st3" d="M119.6,155.3l0-0.2L86,154.9l0,0.2c0,0,0,0,0,0c0,0,0,0.1,0,0.1l0,0h0
			c0.8,4.3,1.8,8.6,2.6,13c0.8,4.4,1.6,8.9,2.4,13.3c0,0,0.1,0,0.1,0c1.9,0,3.7,0.2,5.6,0c0.1,0,0.1-0.1,0-0.1c0,0,0,0,0,0
			c0.4-2.3,0.7-4.7,1-7.1c0.3-2.3,0.7-4.6,0.7-6.9c1.4-0.3,2.9-0.6,4.4-0.7c1.9-0.1,3.7,0.1,5.5,0.4c0.1,1.3,0.4,2.5,0.6,3.7
			c0.2,1.7,0.4,3.3,0.6,5c0.2,1.9,0.4,3.7,0.6,5.6c0,0.1,0.1,0.1,0.1,0c1.8,0,3.7,0.1,5.6-0.1c0,0,0.1,0,0.1,0
			c0.6-4.3,0.9-8.6,1.3-12.9c0.5-4.4,1.2-8.7,2.3-13h0v0C119.6,155.4,119.7,155.4,119.6,155.3C119.7,155.3,119.6,155.3,119.6,155.3z
			 M117.1,167.8c-0.5,4.5-0.9,9-1.3,13.5c-1.8-0.1-3.7,0-5.5,0.1c-0.1-1.9-0.3-3.7-0.5-5.6c-0.2-1.5-0.3-3-0.6-4.6
			c-0.2-1.3-0.3-2.9-0.8-4.1c0.4,0.1,0.9,0.1,1.3,0.2c0.1,0,0.1-0.1,0-0.2c-4.4-1.3-9.1-0.9-13.4,0.6c0,0,0,0.1,0,0.1
			c0.7-0.1,1.3-0.3,2-0.4c-0.4,2.1-0.6,4.4-0.8,6.5c-0.3,2.5-0.7,5-1,7.4c0,0,0,0,0,0c-1.8-0.1-3.7,0-5.5,0.1
			c-0.7-4.5-1.5-8.9-2.3-13.3c-0.8-4.3-1.5-8.7-2.8-12.9l33.5,0.3C118.3,159.5,117.6,163.6,117.1,167.8z"/>
	</g>
	<g id="XMLID_691_">
		<g id="XMLID_698_">
			<path id="XMLID_242_" class="st4" d="M66.3,185.7c-0.2,0-0.4,0-0.5-0.1c0,0.3,0.1,0.7,0.1,1c0.3,0,0.7,0,1,0c0-0.3,0-0.7,0-1
				C66.6,185.7,66.5,185.7,66.3,185.7z"/>
			<path id="XMLID_241_" class="st5" d="M66.8,144.5c-1.3,0.2-2.8,0.5-4.2,0.5c0,0,0,0,0,0c0.1,0.6,0.1,1.3,0.2,1.9
				c0.2,0,0.4,0,0.6,0c0-0.1,0-0.1,0-0.2c0,0.1,0,0.1,0,0.2c0.9,0,1.9,0.1,2.8,0.1c0-0.1,0-0.2,0-0.2c0,0.1,0,0.2,0,0.2
				c0.2,0,0.4,0,0.6,0C66.8,146.2,66.8,145.3,66.8,144.5z"/>
			<path id="XMLID_240_" class="st6" d="M64.2,156.5c-0.1-1.3-0.1-2.5-0.1-3.8c-0.1-2-0.6-3.8-0.7-5.8c-0.2,0-0.4,0-0.6,0
				c0,0.1,0,0.2,0,0.3c0.3,3.5,0.5,7,0.8,10.4c0.7,9.3,1.4,18.7,2.1,28c0,0,0,0,0.1,0c-0.1-6-0.6-12-0.7-18
				C65,163.8,64.6,160.2,64.2,156.5z"/>
			<path id="XMLID_239_" class="st7" d="M66.3,171.1c0.1-8-0.7-16.1-0.2-24.1c-0.9,0-1.9-0.1-2.8-0.1c0,2,0.5,3.8,0.7,5.8
				c0.1,1.3,0,2.5,0.1,3.8c0.4,3.8,0.8,7.4,0.9,11.1c0.1,6,0.5,12,0.7,18c0.2,0,0.3,0,0.5,0c0,0,0,0,0,0
				C66.2,180.7,66.3,175.9,66.3,171.1z"/>
			<path id="XMLID_238_" class="st6" d="M66.8,185.6c0-3.1-0.1-6.2-0.1-9.3c0-6.8,0-13.6,0-20.4c0-2.9,0-5.7,0.1-8.6
				c0-0.1,0-0.1,0-0.2c-0.2,0-0.4,0-0.6,0c-0.5,8,0.2,16.1,0.2,24.1c0,4.8-0.1,9.6-0.1,14.5C66.5,185.5,66.6,185.5,66.8,185.6z"/>
			<path id="XMLID_699_" d="M67,144.4c0-0.1,0-0.1,0-0.2c-0.1,0-0.1,0-0.2,0c0,0,0,0.1,0,0.1c-1.3-0.1-2.9,0.3-4.2,0.6
				c0-0.1,0-0.2,0-0.3c-0.1,0-0.1,0-0.2,0c0.1,2.7,0.4,5.3,0.6,8c0.5,6.4,1,12.9,1.5,19.3c0.4,4.9,0.8,9.8,1.2,14.7
				c0,0.1,0.1,0.1,0.1,0c0.3,0,0.7,0,1,0c0,0,0.1,0,0.1,0c-0.1-10.4,0-20.7,0-31.1C66.9,151.9,66.9,148.2,67,144.4
				C67,144.5,67,144.5,67,144.4C67.1,144.5,67.1,144.4,67,144.4z M63.6,157.6c-0.3-3.5-0.5-7-0.8-10.4c-0.1-0.7-0.1-1.5-0.2-2.2
				c0,0,0,0,0,0c1.3,0,2.8-0.2,4.2-0.5c0,0.9,0,1.8-0.1,2.7c0,2.9-0.1,5.7-0.1,8.6c0,6.8,0,13.6,0,20.4c0,3.1,0.1,6.2,0.1,9.3
				c-0.2,0-0.4,0-0.5,0c-0.2,0-0.4,0-0.5,0.1C65,176.3,64.4,166.9,63.6,157.6z M65.8,186.7c0-0.3-0.1-0.7-0.1-1
				c0.2,0.1,0.4,0.1,0.5,0.1c0.2,0,0.4,0,0.5,0c0,0.3,0,0.7,0,1C66.5,186.6,66.1,186.6,65.8,186.7z"/>
		</g>
		<g id="XMLID_692_">
			<path id="XMLID_234_" class="st6" d="M57.2,141.3C57.2,141.3,57.2,141.3,57.2,141.3c-0.2-0.1-0.3-0.2-0.4,0
				c-0.3,0.4-0.5,1-0.6,1.5c0,0.5,0.1,1,0.5,1.4c0.3,0.3,0.7,0.5,1.2,0.6C57,143.8,56.5,142.5,57.2,141.3z"/>
			<path id="XMLID_233_" class="st7" d="M58,142.9c-0.1-0.4-0.2-1-0.1-1.4c-0.2-0.1-0.5-0.1-0.7-0.2c-0.7,1.2-0.2,2.5,0.7,3.4
				c0.2,0.1,0.4,0.1,0.6,0.2C58.2,144.3,58.1,143.5,58,142.9z"/>
			<path id="XMLID_693_" d="M62.7,145.5c0-0.6-1.1-2-1.2-2.6c-0.1-0.5-3.4-0.9-3.5-1.4c0,0,0,0,0,0c0-0.1,0-0.1,0-0.2c0,0,0,0-0.1,0
				c0,0,0,0,0,0c0,0,0,0,0,0c0,0,0,0,0,0c-0.4-0.1-0.7-0.2-1-0.4c0,0-0.1,0-0.1,0c-1.4,1.2-0.9,3.3,0.7,3.9c0.4,0.2,4.9,0.8,5.4,0.9
				C62.8,145.7,62.8,145.6,62.7,145.5z M56.7,144.1c-0.4-0.4-0.5-0.8-0.5-1.4c0-0.5,0.3-1.1,0.6-1.5c0.1-0.2,0.2,0,0.4,0
				c0.2,0.1,0.5,0.2,0.7,0.2c-0.1,0.4,0.1,1,0.1,1.4c0.1,0.6,0.2,1.4,0.5,2C57.9,144.7,57.2,144.5,56.7,144.1z"/>
		</g>
	</g>
	<g id="XMLID_671_">
		<g id="XMLID_677_">
			<path id="XMLID_230_" class="st3" d="M76.6,144.7c0,0.1,0.1,0.2,0.1,0.3c0-0.2,0-0.3,0-0.5c0,0-0.1,0-0.1,0.1
				C76.6,144.6,76.6,144.6,76.6,144.7z"/>
			<path id="XMLID_229_" class="st8" d="M69.9,144.5C69.9,144.5,69.9,144.5,69.9,144.5C69.8,144.5,69.8,144.5,69.9,144.5
				C69.8,144.5,69.8,144.5,69.9,144.5z"/>
			<path id="XMLID_228_" class="st3" d="M76.6,136.3C76.6,136.3,76.6,136.3,76.6,136.3C76.6,136.3,76.6,136.3,76.6,136.3
				C76.6,136.3,76.6,136.3,76.6,136.3c-0.1,0-0.1,0.1-0.1,0.1c-0.1,0.1-0.1,0.1-0.2,0.2c0.1,0,0.2,0.1,0.3,0.1
				C76.6,136.6,76.6,136.4,76.6,136.3z"/>
			<path id="XMLID_227_" class="st9" d="M76.7,140.3c-0.1-1.1-0.1-2.3-0.1-3.5c-0.1,0-0.3,0-0.4-0.1c-0.2,0-0.3-0.1-0.5-0.1
				c0.2,1.2,0.1,2.5,0.1,3.8c0,1.4,0.1,2.7,0,4.1c0.1,0,0.3-0.1,0.5-0.1c0,0,0,0,0,0c0,0,0,0,0,0c0.1,0,0.2,0,0.3,0
				c0-0.5-0.1-1.1,0-1.6C76.7,141.9,76.7,141.1,76.7,140.3z"/>
			<path id="XMLID_226_" class="st0" d="M83.1,136.2c-1.8,0.8-4.7,1.5-6.4,0.1c0.2,0.5,0.1,1.2,0.2,1.8c0,0.9,0.1,1.7,0.1,2.6
				c0,0.9,0,1.8,0,2.7c0,0.6,0.1,1.2,0,1.9c1.1-0.3,2.2-0.4,3.3-0.7c1.7-0.5,3.4-1.1,4.9-2.2c2-1.4,3.6-3.3,4.6-5.5
				c1.5-3.2,1.7-6.5,1.9-10C90.1,130.6,86.9,134.5,83.1,136.2z"/>
			<path id="XMLID_678_" d="M91.7,126.4C91.7,126.4,91.7,126.4,91.7,126.4C91.7,126.4,91.6,126.3,91.7,126.4c-1.3,2.1-2.3,4.2-4,6
				c-1.2,1.3-2.6,2.5-4.2,3.3c-2.1,1.1-4.7,1.6-6.8,0.3c0,0-0.1,0-0.1,0c0,0,0,0-0.1,0c-0.1,0.1-0.2,0.3-0.2,0.4c0,0,0,0,0,0
				c0,0,0,0,0,0c-0.2-0.1-0.4-0.1-0.6-0.1c0,0,0,0,0,0c0,0,0,0,0,0c-0.2,0.1-0.4,0.3-0.4,0.5c0,0,0,0.1,0.1,0
				c0.1-0.1,0.3-0.3,0.4-0.4c0,0.2,0,2.7,0,3.8c0,1.3,0,2.6,0.1,3.9c-0.1-0.1-0.5-0.4-0.6-0.5c0,0,0,0,0,0c0,0,0.5,0.6,0.6,0.7
				c0,0,0,0,0,0c0,0,0,0,0,0c0,0,0,0,0,0c0.1,0.1,0.3,0,0.4,0c0,0,0.1,0,0.1,0c0,0.1,0.1,0.3,0.1,0.4c0,0.1,0.1,0.3,0.2,0.4
				c0,0.1,0.1,0.1,0.2,0.1c3.1-0.7,6-1.2,8.7-3.1C90.3,138.7,92.1,132.1,91.7,126.4z M76.5,136.4c0,0,0-0.1,0.1-0.1c0,0,0,0,0,0
				c0,0,0,0,0,0c0,0,0,0,0,0c0,0.1,0,0.3,0,0.4c-0.1,0-0.2-0.1-0.3-0.1C76.4,136.5,76.5,136.5,76.5,136.4z M76.7,144.9
				c0-0.1-0.1-0.2-0.1-0.3c0,0,0-0.1,0-0.2c0.1,0,0.1,0,0.1-0.1C76.7,144.6,76.7,144.8,76.7,144.9z M76.5,144.3
				C76.5,144.3,76.5,144.3,76.5,144.3C76.5,144.3,76.5,144.3,76.5,144.3c-0.2,0-0.4,0.1-0.6,0.1c0.1-1.3,0-2.7,0-4.1
				c0-1.2,0-2.5-0.1-3.8c0.1,0.1,0.3,0.1,0.5,0.1c0.1,0,0.3,0.1,0.4,0.1c0,1.2,0,2.3,0.1,3.5c0,0.8,0,1.6,0,2.4c0,0.5,0,1.1,0,1.6
				C76.7,144.3,76.6,144.3,76.5,144.3z M89.6,136.8c-1,2.2-2.6,4.1-4.6,5.5c-1.5,1-3.2,1.7-4.9,2.2c-1.1,0.3-2.2,0.4-3.3,0.7
				c0.1-0.6,0.1-1.2,0-1.9c0-0.9,0-1.8,0-2.7c0-0.9-0.1-1.7-0.1-2.6c0-0.6,0.1-1.2-0.2-1.8c1.7,1.4,4.7,0.7,6.4-0.1
				c3.8-1.7,7-5.6,8.4-9.4C91.3,130.2,91.1,133.6,89.6,136.8z"/>
		</g>
		<path id="XMLID_220_" class="st1" d="M81.4,141c-1.4,0.8-2.9,1.2-4.5,1.4c0,0.3,0,0.6,0,0.8c0,0.6,0.1,1.3,0,1.9
			c1.5-0.3,3-0.6,4.5-1.1c1.3-0.4,2.8-1.2,4-2c2.9-1.8,4.9-5.9,5.5-9.2c0,0,0-0.1,0-0.1C89.2,136.3,84.7,139.1,81.4,141z"/>
		<path id="XMLID_219_" class="st2" d="M85.5,135.6c3.2-2.4,4.8-5,6-8.7c0-0.1,0-0.1,0-0.2c-2.2,5.7-9.2,12.6-14.9,9.6
			c0.1,0.2,0.1,0.4,0.1,0.5C78.9,138.4,83.1,137.4,85.5,135.6z"/>
		<g id="XMLID_672_">
			<polygon id="XMLID_218_" class="st10" points="75.4,143.9 75.8,143.9 75.8,144.3 			"/>
			<polygon id="XMLID_217_" class="st10" points="75.7,136.6 75.7,137.1 75.2,137.1 			"/>
		</g>
	</g>
	<g id="XMLID_644_">
		<path id="XMLID_216_" class="st11" d="M92.1,125.8c-0.1,0.2-0.1,0.3-0.2,0.5c1.5,6.2,2.6,12.5,3.9,18.7c0,0,0,0,0,0
			c0.1,0.1,0.3,0.2,0.4,0.3c-1.2-6.5-2.5-12.9-4.1-19.4C92.1,125.9,92.1,125.8,92.1,125.8z"/>
		<path id="XMLID_215_" class="st12" d="M92.1,125.7C92.1,125.8,92.1,125.8,92.1,125.7c0,0.1,0,0.1,0,0.2c1.6,6.4,2.9,12.9,4.1,19.4
			c2.3,1.9,4.4,4.2,6.6,6.2c0-0.4,0-0.8,0-1.2c0,0,0,0.1,0,0.1c0,0,0-0.1,0-0.1c0-0.3,0-0.5,0-0.8C97.2,142.5,94.3,134.1,92.1,125.7
			z"/>
		<path id="XMLID_214_" class="st13" d="M102.9,149.2C102.9,149.2,102.8,149.2,102.9,149.2c-0.9-1.3-1.5-2.8-2.2-4.1
			c-1.2-2.5-2.4-4.9-3.5-7.4c-1.2-2.5-2.3-5.1-3.4-7.6c-0.6-1.4-1.3-2.8-1.7-4.3c0,0,0,0,0,0c2.2,8.4,5.1,16.8,10.7,23.8
			C102.9,149.5,102.9,149.3,102.9,149.2z"/>
		<path id="XMLID_213_" class="st1" d="M94.4,146.2v-0.4V146.2c3.3,1.1,5.5,3.9,8.4,5.9c0-0.1,0-0.2,0-0.4c-2.3-2.2-4.8-4.3-7-6.7
			c0,0-0.1,0-0.1,0c-0.7-3.4-1.4-6.8-2.2-10.1C93.4,138.7,94.4,142.3,94.4,146.2z"/>
		<path id="XMLID_212_" class="st1" d="M84.6,154.4c1.9,1,3.6,2.4,5.3,3.7c1.8,1.3,3.7,2.6,5.4,4c0,0,0,0,0,0c0.9-1,2.2-1.7,3.3-2.5
			c1.1-0.8,2.2-1.7,3.3-2.5c-2.3,1.2-4.4,2.8-6.8,3.8C91.5,158.8,88.5,155.7,84.6,154.4z"/>
		<path id="XMLID_211_" class="st2" d="M87.3,145.4c1.6-6.2,3.2-12,4.7-17.9c-0.1-0.3-0.1-0.7-0.2-1c-1.2,3.6-2.2,7.2-3.2,10.9
			c-1.4,5.7-2.6,11.4-4.3,17c0,0,0,0,0,0c0,0,0,0,0-0.1C85.6,151.2,86.5,148.4,87.3,145.4z"/>
		<path id="XMLID_210_" class="st0" d="M102.8,152.1c-2.9-1.9-5.1-4.8-8.4-5.9c0-3.9-1-7.5-0.8-11.4c-0.5-2.5-1-4.9-1.5-7.4
			c-1.6,5.9-3.2,11.8-4.7,17.9c-0.8,3.1-1.8,5.9-2.9,8.9c0,0,0,0,0,0.1c0.1,0,0.1,0.1,0.2,0.1c3.9,1.3,6.9,4.4,10.5,6.4
			c2.4-1,4.4-2.6,6.8-3.8c0.3-0.2,0.6-0.5,0.9-0.7C102.8,154.9,102.7,153.5,102.8,152.1z"/>
		<path id="XMLID_209_" class="st12" d="M103,149.9c0,0,0-0.1,0.1-0.1c0,0,0-0.1-0.1-0.1C103,149.8,103,149.9,103,149.9z"/>
		<path id="XMLID_208_" class="st13" d="M107.3,137.7c-0.6,2-1.2,4-1.9,6c-0.7,1.8-1.3,3.7-2.3,5.4c0,0.1,0,0.1-0.1,0.2
			c0,0.2,0,0.3,0,0.5c0,0,0,0.1,0.1,0.1c3.3-7.3,6.5-15,7-23.4C109.3,130.2,108.3,134,107.3,137.7z"/>
		<path id="XMLID_207_" class="st12" d="M110.3,126.4c-0.1-0.2-0.1-0.3-0.2-0.5c0,0.2-0.1,0.3-0.1,0.5c-0.5,8.4-3.7,16-7,23.4
			c0.2,0.2,0.3,0.4,0.5,0.6c-0.2-0.2-0.3-0.4-0.5-0.6c0,0,0,0.1-0.1,0.1c0,0.5,0.1,1.1,0.1,1.6c1-1.4,2.3-2.6,3.5-3.9
			c0.7-0.7,1.4-1.5,2.2-2.2c0.3-6,0.6-12.1,1.4-18.1C110.2,127.1,110.2,126.7,110.3,126.4z"/>
		<path id="XMLID_206_" class="st11" d="M109.2,145c0.3-5.9,0.4-11.6,0.9-17.5c-0.8,6-1.1,12.1-1.4,18.1
			C108.9,145.3,109.1,145.2,109.2,145C109.3,145,109.2,145,109.2,145z"/>
		<path id="XMLID_205_" class="st1" d="M109.9,134.9c-0.2,3.3-0.4,6.7-0.5,10.1c0,0,0,0,0,0c0,0,0,0,0,0c-2.1,2.3-4.1,4.6-6.3,6.8
			c0,0.1,0,0.2,0,0.3c0,0,0.1-0.1,0.1-0.1V152v0.1c2.5-1.9,4.7-4.4,7.6-5.8C110.8,142.3,110.1,138.6,109.9,134.9z"/>
		<path id="XMLID_204_" class="st0" d="M103.2,152.1c0,0-0.1,0.1-0.1,0.1c0,0,0,0.1,0,0.1c0,0,0.1,0,0.1,0.1V152.1z"/>
		<path id="XMLID_203_" class="st1" d="M111.9,160.7v0.4c-2.2-1.9-5-3-7.7-4c2.7,1.6,5.2,3.3,7.8,4.9c0,0,0,0,0,0
			c2.8-2.3,5.7-4.4,7.9-7.3C117.7,157.1,114.5,158.6,111.9,160.7z"/>
		<path id="XMLID_202_" class="st0" d="M112.9,135.8c-1.2-2.9-1.7-6-2.6-8.9c-0.1,2.7-0.3,5.4-0.4,8c0.2,3.8,0.9,7.5,0.9,11.4
			c-2.9,1.5-5.1,3.9-7.6,5.8v0.3c0,0-0.1,0-0.1-0.1c0,1.4-0.1,2.7-0.1,4c0,0,0,0,0,0.1c0.4,0.2,0.9,0.5,1.3,0.8c2.6,1,5.4,2.1,7.7,4
			v-0.4c2.5-2.1,5.6-3.6,7.8-5.9C117.6,148.5,115.5,142,112.9,135.8z"/>
		<path id="XMLID_201_" class="st2" d="M119.8,154.9c0.1-0.1,0.1-0.1,0.2-0.2c0.1-0.1,0.2-0.3,0.3-0.4c-0.3-0.8-0.6-1.6-0.9-2.4
			c-1-2.9-2.1-5.9-3.1-8.8c-1-2.9-2.1-5.8-3.1-8.7c-0.8-2.1-1.5-4.2-2.3-6.4c-0.2-0.5-0.3-0.9-0.5-1.4c0,0.1,0,0.2,0,0.3
			c0.9,2.9,1.4,6,2.6,8.9C115.5,142,117.6,148.5,119.8,154.9z"/>
		<path id="XMLID_200_" class="st14" d="M94,123.2c0.2,0.7,1.1,1,1.6,1.7c2.3,2.5,4.1,5.2,6.6,7.4c1.5-3.1,3.5-5.8,5-8.9
			c0.5-1.1,0.5-2.2,0.6-3.4L94,120.3c0,0.1-0.1,0.3-0.1,0.4C93.8,121.6,93.8,122.4,94,123.2z"/>
		<path id="XMLID_199_" class="st14" d="M103.4,146.8C103.4,146.7,103.4,146.7,103.4,146.8c0-0.1,0-0.1,0-0.1
			C103.4,146.7,103.4,146.7,103.4,146.8c0.4-1.7,0.7-3.4,1.4-5c0,0-0.1,0-0.1,0.1c-0.7-3.8-1.4-7.6-1.4-11.5c-0.4,0.6-0.7,1.3-1,2
			c-0.2-0.2-0.3-0.3-0.5-0.5c0,0,0,0,0,0c0,0,0,0,0,0c0,0,0,0,0,0c0,4.7,0.3,9.5,1.6,14.1C103.4,146.2,103.2,146.5,103.4,146.8z"/>
		<path id="XMLID_198_" class="st9" d="M108,120l-0.1,0c-0.1,1.2-0.1,2.3-0.6,3.4c-1.2,2.4-2.6,4.7-3.9,7c0,3.9,0.7,7.7,1.4,11.5
			c0-0.1,0-0.1,0.1-0.1v0v0c0.1,0,0.1,0,0.1-0.1c0,0.1,0,0.1-0.1,0.1c-0.7,1.6-1,3.3-1.4,4.9c0,0,0,0,0,0.1c-0.2-0.2,0-0.5-0.1-0.8
			c-1.3-4.6-1.6-9.4-1.6-14.1c-2.3-2.1-3.9-4.6-6.1-6.9c-0.5-0.7-1.4-1-1.6-1.7c-0.2-0.8-0.3-1.7-0.2-2.6c-0.6,1.6-1.1,3.3-1.7,4.9
			c3.3,7.9,6.8,15.7,10.8,23.3c0.7-1.9,1.6-3.7,2.3-5.6c0.7-2,1.4-4,1.9-6c1.1-3.8,1.8-7.7,2.9-11.5C109.3,123.9,108.6,122,108,120z
			"/>
		<path id="XMLID_645_" class="st3" d="M120.4,154.3c-0.5-2-1.2-4-1.9-5.9c-0.1-0.2-0.1-0.4-0.2-0.5c0-0.1-0.1-0.2-0.1-0.4
			c-0.1-0.3-0.2-0.7-0.4-1c-2-5.6-4.1-11.3-6.1-16.9c0,0,0-0.1,0-0.1c0,0,0,0,0,0c-0.1-0.2-0.2-0.5-0.2-0.7c0,0,0,0,0,0
			c-0.5-1.3-0.9-2.5-1.4-3.8c-0.6-1.7-1.1-3.4-1.9-5l0-0.2l-14.2,0.3l0,0.2c-2.3,5.4-3.9,11.1-5.3,16.8c-1.5,5.8-2.9,11.6-4.3,17.4
			c0,0.1,0,0.1,0.1,0.1c1.6,1.3,3.4,2.5,5.1,3.7c1.9,1.4,3.7,2.9,5.7,4c0,0,0.1,0,0.1,0c1.2-0.7,2.3-1.6,3.4-2.4c1.4-1,3-2,4.2-3.3
			c2.9,2.1,6.1,3.9,9.1,5.8c0.1,0.1,0.1,0,0.1-0.1C115.1,160,118.7,157.6,120.4,154.3C120.4,154.3,120.4,154.3,120.4,154.3
			C120.4,154.3,120.4,154.3,120.4,154.3C120.4,154.3,120.4,154.3,120.4,154.3z M110.3,126.4c-0.6,6.2-0.7,12.3-1,18.5c0,0,0,0,0,0
			c-0.9,0.9-1.8,1.8-2.7,2.7c-1.2,1.2-2.6,2.4-3.5,3.9c0-0.8,0-1.6-0.1-2.3c0.1,0,0.1-0.1,0.1-0.2c1-1.7,1.6-3.6,2.3-5.4
			c0.7-2,1.4-4,1.9-6c1.1-3.9,2.1-7.8,2.8-11.7C110.2,126.1,110.2,126.3,110.3,126.4z M98.6,159.5c-1.1,0.8-2.4,1.6-3.3,2.5
			c0,0,0,0,0,0c-1.7-1.4-3.6-2.6-5.4-4c-1.7-1.3-3.5-2.8-5.5-3.8c1.7-5.6,2.9-11.3,4.3-17c0.9-3.7,2-7.3,3.2-10.9
			c1.1,6.2,2.5,12.4,3.8,18.6c0,0,0,0,0.1,0c2.2,2.4,4.7,4.5,7,6.7c0,1.5,0,3.1,0.1,4.6C101.4,157.3,100,158.4,98.6,159.5z
			 M102.8,151.6c-2.3-2.2-4.5-4.5-7-6.6c0,0,0,0,0,0c-1.3-6.2-2.4-12.5-3.9-18.7c0.1-0.2,0.1-0.4,0.2-0.5c0.3,1.5,1.1,2.9,1.7,4.3
			c1.1,2.6,2.3,5.1,3.4,7.6c1.1,2.5,2.3,5,3.5,7.4c0.7,1.4,1.2,2.9,2.1,4.1c0,0,0,0,0.1,0C102.8,150,102.8,150.8,102.8,151.6z
			 M92.2,125.6c0.6-1.8,1.2-3.5,1.8-5.3L108,120c0.5,1.9,1.3,3.9,2,5.8c-1.1,3.8-1.8,7.7-2.9,11.5c-0.6,2-1.2,4-1.9,6
			c-0.7,1.9-1.6,3.7-2.3,5.6C99,141.3,95.5,133.5,92.2,125.6z M112.1,162C112.1,162,112.1,162,112.1,162c-3-1.9-6-3.9-9.1-5.7
			c0,0,0,0,0-0.1c0.1-1.5,0.1-3,0.1-4.5c2.2-2.2,4.2-4.5,6.3-6.8c0,0,0,0,0,0c0,0,0,0,0,0c0.3-6.2,0.7-12.2,0.9-18.4
			c0.2,0.5,0.4,0.9,0.5,1.4c0.8,2.1,1.5,4.2,2.3,6.4c1,2.9,2.1,5.8,3.1,8.7c1.1,2.9,2.1,5.9,3.1,8.8c0.3,0.8,0.6,1.6,0.9,2.4
			C118.1,157.5,115,159.6,112.1,162z"/>
	</g>
	<g id="XMLID_634_">
		<path id="XMLID_191_" class="st9" d="M100.3,122.7c0-0.2,0-0.4,0-0.6c0,0,0,0,0,0c-1.2-1.3-2.2-2.7-3.3-4.1
			c-1.1-1.3-2.3-2.4-3.5-3.7c0,0-0.1,0-0.1,0c0.5,2.9,0.6,6,0.8,8.9c1.8,0.5,3.3,2.2,4.5,3.5c0.8,0.9,1.5,1.8,2.1,2.8
			c-0.2-1.5-0.3-3-0.4-4.5C100.4,124.3,100.3,123.5,100.3,122.7z"/>
		<path id="XMLID_190_" class="st9" d="M103,122c0.2,1,0.2,2.2,0.2,3.3c0,0,0,0,0,0c0.1,0,0,0.1,0,0.1c0,0.2,0,0.3,0,0.5
			c0,1.2,0,2.4,0,3.6c0.3-1,0.9-2,1.4-2.9c0.9-1.5,1.9-3.2,3.3-4.2c-0.2-1.4-0.1-2.8,0-4.2c0-1.1-0.1-2.6,0.3-3.7c0,0-0.1,0-0.1,0
			C106.3,116.9,104.8,119.5,103,122z"/>
		<path id="XMLID_189_" class="st15" d="M106.1,117c0.6-0.9,1.3-1.8,2-2.6c-2.5-0.6-4.9-1.3-7.5-1.3c-2.4,0-4.7,0.6-7,1.2
			c1,0.5,1.9,1.5,2.7,2.4C99.4,116,102.9,116,106.1,117z"/>
		<path id="XMLID_188_" class="st16" d="M102.9,122C102.9,122,102.9,122,102.9,122c0.9-1.7,2-3.4,3.2-5c-3.2-1-6.6-1-9.8-0.3
			c0.3,0.4,0.6,0.7,0.9,1.1c1.1,1.4,2.2,2.7,3.3,4.2c0,0,0,0.1,0,0.1c0.1,0.2,0.1,0.6,0.1,0.8c0.1,0.7,0.1,1.5,0.2,2.2
			c0,0.1,0,0.2,0,0.3c0.3-0.1,0.6-0.1,0.9-0.1c0.4,0,0.8,0,1.2,0C102.8,124.2,102.7,123,102.9,122C102.9,122,102.9,122,102.9,122z"
			/>
		<path id="XMLID_635_" class="st17" d="M108.3,114.3c-4.7-1.9-10.3-1.9-15,0c0,0-0.1,0-0.1,0c0.2,3,0.2,6,0.8,9c0,0,0.1,0,0.1,0
			c2.7,1.5,4.9,4,6.7,6.5c0.1,0.1,0.2,0,0.1-0.1c0,0,0,0,0,0c0-1.5-0.1-2.9-0.2-4.4c0.3-0.1,0.8,0,1.1,0c0.4,0,0.7,0,1.1,0
			c0,0.1,0,0.2,0,0.3c0,1.4,0.1,2.7,0.2,4.1c0,0.1,0.1,0.1,0.1,0c0,0,0,0,0,0c0.5-0.8,0.9-1.8,1.3-2.7c0.9-1.7,2-3.4,3.5-4.7
			c0,0,0,0,0-0.1c0-2.7,0.1-5.3,0.2-7.9C108.3,114.4,108.4,114.3,108.3,114.3z M100.8,129.6c-0.7-1-1.3-1.9-2.1-2.8
			c-1.2-1.3-2.7-3-4.5-3.5c-0.2-3-0.3-6-0.8-8.9c0,0,0.1,0,0.1,0c1.2,1.2,2.4,2.4,3.5,3.7c1.1,1.4,2.1,2.8,3.3,4.1c0,0,0,0,0,0
			c-0.1,0.2,0,0.4,0,0.6c0,0.8,0.1,1.6,0.1,2.3C100.5,126.6,100.6,128.1,100.8,129.6z M102.9,122C102.9,122,102.9,122,102.9,122
			C102.9,122,102.9,122,102.9,122c-0.2,1-0.1,2.2,0,3.2c-0.4-0.1-0.8,0-1.2,0c-0.3,0-0.6,0-0.9,0.1c0-0.1,0-0.2,0-0.3
			c-0.1-0.7-0.1-1.5-0.2-2.2c0-0.2,0-0.6-0.1-0.8c0,0,0,0,0-0.1c-1-1.4-2.1-2.8-3.3-4.2c-1-1.2-2.2-2.8-3.6-3.5
			c2.3-0.6,4.6-1.2,7-1.2c2.6,0,5,0.7,7.5,1.3C106.2,116.8,104.3,119.3,102.9,122z M107.9,118.1c0,1.4-0.1,2.8,0,4.2
			c-1.5,1-2.5,2.7-3.3,4.2c-0.5,0.9-1.1,1.9-1.4,2.9c0-1.2,0-2.4,0-3.6c0-0.2,0-0.3,0-0.5c0.1,0,0.1-0.1,0-0.1c0,0,0,0,0,0
			c0-1.1,0.1-2.2-0.2-3.3c1.8-2.5,3.3-5.2,5.2-7.7c0,0,0.1,0,0.1,0C107.8,115.5,107.9,116.9,107.9,118.1z"/>
	</g>
	<g id="XMLID_603_">
		<path id="XMLID_183_" class="st18" d="M70.7,43.3c0,0.3,0.1,0.5,0.1,0.8c1.5,8.7,3.2,17.4,5,26.1c1.7,8,3.5,15.9,5.6,23.8
			c0.7,0.7,1.3,1.5,1.9,2.3c-4.3-17.8-9.7-35.3-10.7-53.6C72,42.8,71.4,43,70.7,43.3z"/>
		<path id="XMLID_182_" class="st8" d="M101.6,104.2c1.5-0.4,2.7-1.5,3.4-3.1c0.7-1.9,1-3.8,1-5.8c-0.4-0.1-0.9-0.1-1.3,0
			c-0.4-0.4-1.1-0.4-1.5-1.1c-2.2,0.5-4.3,1.6-6.3,2.8c0.3,1.4,0.6,2.7,1,4.1C98.2,102.7,99.7,104.2,101.6,104.2z"/>
		<path id="XMLID_181_" class="st8" d="M109.3,98.5c0.8-1.1,0.4-2.7-1.1-2.7c-0.7,0-1.4-0.3-2.1-0.4c0,1.9-0.2,3.9-1,5.8
			c-0.8,1.5-1.9,2.7-3.4,3.1c-1.9,0-3.4-1.5-3.8-3.1c-0.4-1.4-0.7-2.7-1-4.1c-3.3,1.8-6.5,3.7-10.2,3.1c0.5,0.6,1,1.2,1.4,1.8
			c0.9,1.2,1.8,2.3,2.7,3.5c4.7,3.4,11.3,5.4,17.1,4.3c1.1-1.9,2.2-3.8,3.4-5.6c0.8-1.2,1.6-2.3,2.4-3.5
			C112,100.2,110.8,99.4,109.3,98.5z"/>
		<path id="XMLID_180_" class="st19" d="M101.2,87c-6.3,2.1-10.4,9-16.9,10.4c0.1,0.2,0.3,0.3,0.4,0.5c0.6,0.7,1.2,1.5,1.8,2.2
			c6.1,0.9,10.7-4.5,16.6-5.9c0.4,0.8,1.1,0.8,1.5,1.1c1.1-0.4,2.3,0.4,3.4,0.4c1.5,0,1.9,1.5,1.1,2.7c1.5,0.9,2.8,1.8,4.3,2.3
			c1.1-1.5,2.1-2.9,3.3-4.3c0.1-0.1,0.1-0.2,0.2-0.2c-4.6-1.2-7.9-5.3-11.6-8.5C104.3,87,102.8,86.6,101.2,87z"/>
		<path id="XMLID_179_" class="st19" d="M105.4,85.9c0,0.1,0,0.3,0.1,0.4C105.4,86.1,105.4,86,105.4,85.9c-0.3,0-0.3,0-0.3-0.4
			C105.1,85.8,105.1,85.9,105.4,85.9c-1.2-7.1-3.4-13.9-6.8-20.6v0.4C97,73.5,95.6,81.7,96,90c1.6-1.2,3.3-2.3,5.2-3
			c1.5-0.4,3.1,0,4.2,0.8c0,0,0,0,0.1,0.1C105.5,87.2,105.4,86.5,105.4,85.9C105.4,85.9,105.4,85.9,105.4,85.9z"/>
		<path id="XMLID_178_" class="st8" d="M86.7,42.7c-4.6-1.2-9.5-1.5-14.1-0.1c1,18.3,6.4,35.8,10.7,53.6c0.3,0.4,0.7,0.8,1,1.3
			c4.5-1,7.9-4.7,11.6-7.5c-0.4-8.2,1-16.5,2.6-24.3v-0.4c3.4,6.8,5.6,13.5,6.8,20.6c0,0,0,0,0.1,0c0,0.7,0,1.3,0.1,2
			c3.7,3.1,7,7.2,11.6,8.4c0.5-0.6,0.9-1.2,1.4-1.7c2.3-13.1,3.5-26.6,7.3-39.3C112.8,52.9,100.3,45.6,86.7,42.7z"/>
		<path id="XMLID_177_" class="st18" d="M125.8,55.2c-3.8,12.8-4.9,26.2-7.3,39.3c0.6-0.6,1.2-1.2,1.8-1.7c0.7-7.1,2-14.1,3.3-21.1
			c1-5.5,2-10.9,3-16.4C126.3,55.3,126.1,55.2,125.8,55.2z"/>
		<path id="XMLID_176_" class="st19" d="M90.7,105.5c1.1,1.4,2.1,2.9,3.1,4.4c1.8,2.7,3.5,5.5,5.1,8.3c0.7,1.2,1.4,2.5,1.6,3.9
			c0.1,0.6,0,1.2,0,1.7c0.1,0.6,1.9,0.3,2.4,0.2c0,0,0,0,0,0c0-1-0.2-1.9,0-2.9c0.2-0.8,0.4-1.7,0.7-2.5c0.6-1.6,1.2-3.2,1.9-4.7
			c0.7-1.4,1.4-2.7,2.1-4.1C102,110.9,95.4,108.9,90.7,105.5z"/>
		<path id="XMLID_175_" class="st19" d="M128.9,43.8c0.1-0.6,0.3-1.3,0.5-1.9c0-0.1,0.1-0.4,0.2-0.6c-9.9-2.5-19.8-4.9-30-5.9
			c-5-0.5-10.1-0.6-15.1-0.3c-5,0.3-9.8,1.3-14.7,2.5c0.3,1.9,0.6,3.8,0.9,5.7c5.1-2.1,10.7-2,16-0.6c13.8,2.9,26.6,10.5,39.9,12.6
			c0.3-1.5,0.6-3,0.9-4.5C127.9,48.5,128.4,46.1,128.9,43.8z"/>
		<path id="XMLID_604_" class="st20" d="M129.7,41.2c-9.6-3-19.7-5-29.7-6c-5.1-0.5-10.3-0.6-15.5-0.2c-4.9,0.3-10,1-14.7,2.6
			c0,0,0,0,0,0c0.3,3.5,1,7,1.6,10.4c0.8,4.4,1.6,8.7,2.4,13c1.7,8.7,3.6,17.5,5.7,26.1c0.6,2.2,1.2,4.5,1.8,6.7c0,0,0,0,0,0v0
			c0.7,1.5,2,2.7,3,4c1.2,1.4,2.3,2.9,3.4,4.3c2.3,2.9,4.5,5.9,6.5,9.1c0.9,1.5,1.8,3,2.7,4.5c0.9,1.4,1.8,2.9,2.6,4.4
			c0.4,0.8,0.8,1.7,0.8,2.6c0,0.4-0.1,0.9,0.1,1.3c0.3,0.6,2,0.3,2.5,0.2c0.1,0,0.1-0.1,0-0.1c0,0,0,0,0,0c-0.2-1.8-0.1-2,0.1-3.1
			c0.2-0.8,0.4-1.5,0.7-2.3c0.6-1.7,1.3-3.3,2-4.9c1.6-3.3,3.4-6.4,5.4-9.4c1.8-2.7,3.6-5.2,5.7-7.7c1-1.3,2.1-2.7,3.4-3.8
			c0,0,0,0,0,0c1.8-13.2,4.2-26.4,6.7-39.5c0.5-2.8,1.1-5.6,1.7-8.4c0.2-0.8,0.3-1.7,0.5-2.5c0-0.2,0.1-0.9,0.3-1.1
			C129.7,41.3,129.7,41.2,129.7,41.2z M129.4,41.9c-0.2,0.6-0.3,1.3-0.5,1.9c-0.5,2.3-1,4.7-1.4,7c-1.4,7-2.6,13.9-3.9,20.9
			c-1.2,7-2.6,14-3.3,21.1c-1.3,1-2.4,2.4-3.5,3.7c-2,2.5-3.9,5.1-5.7,7.7c-2.1,3.1-4,6.3-5.6,9.6c-0.7,1.5-1.4,3.1-1.9,4.7
			c-0.3,0.8-0.5,1.6-0.7,2.5c-0.3,1,0,1.9,0,2.9c0,0,0,0,0,0c-0.4,0.1-2.3,0.2-2.4-0.3c-0.1-0.5,0.1-1.1,0-1.6
			c-0.2-1.4-0.9-2.7-1.6-3.9c-1.6-2.8-3.3-5.6-5.1-8.3c-1.8-2.7-3.7-5.4-5.7-7.9c-1.1-1.4-2.1-2.7-3.2-4c-1.1-1.4-2.2-2.8-3.4-4.1
			c-2.1-7.8-3.9-15.8-5.6-23.8c-1.8-8.7-3.5-17.3-5-26.1c-0.4-2.1-0.7-4.3-1.1-6.4c4.9-1.2,9.7-2.2,14.7-2.5
			c5-0.3,10.1-0.2,15.1,0.3c10.2,0.9,20,3.4,30,5.9C129.5,41.5,129.4,41.8,129.4,41.9z"/>
	</g>
	<g id="XMLID_587_">
		<g id="XMLID_595_">
			<path id="XMLID_172_" class="st21" d="M86.9,89.7c1.9-3.3,3.6-8.1,6.9-9.6c0,0,0,0,0,0c-1.5,0.4-2.9,1.2-4,2.3
				c-1.1,1.2-1.8,2.8-2.6,4.2c-1.4,2.7-3.1,5.3-6.4,5.6c-0.4,0-0.8,0-1.2,0C82.2,92.9,85.3,92,86.9,89.7z"/>
			<path id="XMLID_171_" class="st22" d="M98.2,80.5c-0.1-0.1-0.2-0.1-0.3-0.2c-0.6-0.3-1.2-0.4-1.8-0.5c-0.7,3.8-1.4,7.2-0.3,11
				C98.3,88.1,99.3,84.1,98.2,80.5z"/>
			<path id="XMLID_170_" class="st23" d="M96,79.8c-0.8-0.1-1.5,0-2.3,0.2c-3.2,1.5-4.9,6.4-6.9,9.6c-1.5,2.3-4.7,3.2-7.4,2.5
				c-1.5-0.1-3.1-0.6-3.3-2.1c0,0,0,0,0-0.1c0,0,0,0,0,0.1c0-0.1,0-0.2,0-0.3c-0.1-1,0.5-2,1.3-2.5c-2.5-0.3-3.9,2.8-3.7,4.9
				c0,0.4,0.1,0.8,0.2,1.2c1.1,0.8,2.4,1.3,3.6,1.6c5.7,1.5,11.1,0,16-2.7c0.7-0.4,1.4-1,1.9-1.5C94.7,87.1,95.4,83.6,96,79.8z"/>
			<path id="XMLID_169_" class="st22" d="M100.7,84.4C100.7,84.4,100.7,84.3,100.7,84.4c-0.4-1.5-1.1-3-2.5-3.8
				c1.4,4.3-0.4,9.3-4.5,11.8c-5,2.7-10.3,4.2-16,2.7c-1.2-0.4-2.6-0.9-3.6-1.6c0.6,1.9,2.2,3.2,4.1,3.7c3.1,0.9,6.7,0.5,9.8-0.1
				c3.3-0.6,6.7-1.7,9.3-3.8C100.1,91,101.2,87.9,100.7,84.4z"/>
			<path id="XMLID_596_" class="st3" d="M100.8,84.4C100.8,84.3,100.8,84.3,100.8,84.4c-0.6-2.5-2.3-4.4-4.9-4.6
				c-2.5-0.2-5,1.2-6.6,3c-2.3,2.7-2.8,6.6-6,8.6c-2,1.2-6.7,1.5-7-1.5c0.1-1,0.5-1.8,1.3-2.5c0,0,0-0.1,0-0.1c0,0,0,0,0,0
				c-1.6-0.4-2.7,0.9-3.4,2.2c-0.7,1.5-0.7,3.3,0.1,4.9c1.6,3.1,5.6,3.5,8.6,3.4c5.7-0.2,13.1-1.5,16.6-6.6
				C100.9,89.1,101.2,86.7,100.8,84.4z M97.3,93.2c-2.6,2.1-6.1,3.2-9.3,3.8c-3.1,0.6-6.7,1-9.8,0.1c-2.3-0.7-4.2-2.4-4.4-4.9
				c-0.2-2.1,1.2-5.2,3.7-4.9c-0.8,0.6-1.4,1.6-1.3,2.5c0,2.2,2.8,2.5,4.6,2.4c3.3-0.3,5-2.8,6.4-5.6c0.7-1.5,1.4-3,2.6-4.2
				c1.1-1.1,2.5-1.9,4-2.3c1.4-0.4,2.9-0.3,4.2,0.3c1.6,0.8,2.4,2.4,2.8,4c0,0,0,0,0,0C101.2,87.9,100.1,91,97.3,93.2z"/>
		</g>
		<g id="XMLID_588_">
			<path id="XMLID_166_" class="st23" d="M123.9,87.3c0.7,0.5,1.2,1.3,1.3,2.1c0-0.3,0-0.6-0.1-0.9c0.1,0.3,0.2,0.5,0.1,0.9
				c0,0.2,0,0.3,0,0.5c0,0.6-0.2,1-0.6,1.4c-1.9,2.2-5.3,2.2-8,0.7c-4.4-2.9-4.9-11.4-10.9-12.2c-0.6,0-1.1,0.1-1.6,0.3
				c-1.5,4.1-0.2,9,3.4,11.9c5.3,3.4,11.5,6.5,17.6,2.7c1.4-1.1,2.1-2.3,2.5-3.7C127.2,89.1,126,87.1,123.9,87.3z"/>
			<path id="XMLID_165_" class="st21" d="M116.7,92c2.7,1.5,6.1,1.5,8-0.7c-0.9,1-2.8,1.1-4.2,0.9c-3.3-0.4-5-3-6.3-5.8
				c-0.8-1.5-1.5-3.1-2.8-4.3c-1.1-1-2.4-1.8-3.9-2.1c-0.6-0.1-1.2-0.2-1.8-0.2C111.8,80.6,112.3,89.1,116.7,92z"/>
			<path id="XMLID_164_" class="st22" d="M127.6,91c-0.4,1.4-1,2.6-2.5,3.7c-6.1,3.8-12.2,0.8-17.6-2.7c-3.6-2.9-4.8-7.8-3.4-11.9
				c-0.3,0.1-0.5,0.2-0.7,0.3c-1.5,0.9-2.3,2.3-2.7,3.9c0,0,0,0,0,0c-0.5,3.6,0.7,6.8,3.6,9c2.7,2,6,3.1,9.3,3.6
				c3,0.5,6.8,1.1,9.8,0c2.2-0.8,4.2-2.6,4.2-5.1C127.6,91.6,127.6,91.3,127.6,91z"/>
			<path id="XMLID_589_" class="st3" d="M123.9,87.3C123.9,87.3,123.9,87.2,123.9,87.3C123.8,87.2,123.8,87.3,123.9,87.3
				c0.7,0.8,1.1,1.6,1.2,2.6c-0.3,3-5,2.6-7,1.5c-3.2-1.8-3.8-5.9-6-8.6c-1.6-1.9-4.1-3.2-6.6-3c-2.6,0.1-4.3,2.2-4.9,4.6
				c0,0,0,0,0,0c-0.6,3,0.2,5.9,2.4,8.1c2.2,2.2,5.3,3.4,8.2,4.2c4.8,1.2,15.8,2.9,16.5-4.5C128,90.1,126.5,86.7,123.9,87.3z
				 M123.5,97c-3,1.1-6.8,0.5-9.8,0c-3.3-0.6-6.6-1.6-9.3-3.6c-2.9-2.2-4.1-5.5-3.6-9c0,0,0,0,0,0c0.4-1.6,1.2-3.1,2.7-3.9
				c1.2-0.7,2.8-0.8,4.1-0.4c1.4,0.3,2.8,1.1,3.9,2.1c1.3,1.2,2,2.8,2.8,4.3c1.4,2.8,3,5.4,6.3,5.8c1.8,0.2,4.7-0.1,4.8-2.3
				c0.1-1-0.5-2-1.3-2.6c2.5-0.3,3.7,2.6,3.7,4.6C127.6,94.5,125.7,96.2,123.5,97z"/>
		</g>
	</g>
	<g id="XMLID_571_">
		<path id="XMLID_161_" class="st23" d="M108.4,67.5c0.5,0.7,0.9,1.4,1.8,1.8c0.9,0.5,1.8,0.8,2.8,0.8c2.1,0.1,3.9-0.9,4.4-3
			c-0.9,0.2-1.8,0.3-2.6,0.4c-0.7,1.7-3.9,2.1-4.5,0.1C109.7,67.6,109,67.6,108.4,67.5z"/>
		<path id="XMLID_160_" class="st24" d="M113,70.3c-1.6-0.1-4.5-0.9-4.8-2.9c-0.9-0.1-1.7-0.3-2.5-0.5c0.2,2.1,0.8,4.2,1.8,6
			c2.2-0.4,4.4-0.5,6.7-0.2c1.9,0.2,3.7,0.8,5.5,1.4c1.1-2.9,2-5.8,2.5-8.8c-1.4,0.9-3.1,1.4-4.7,1.8
			C117.1,69.3,115.1,70.4,113,70.3z"/>
		<path id="XMLID_159_" class="st25" d="M114.7,67.5c-0.2,0-0.4,0-0.6,0.1c-1.2,0.1-2.5,0.1-3.7,0.1
			C111.4,69.1,113.8,69.2,114.7,67.5z"/>
		<path id="XMLID_158_" class="st19" d="M121.1,63.1c-2.6-1.9-5.7-3.1-8.9-2.4c-2.5,0.5-4.6,1.9-6,4
			C110.4,61.7,116.1,61.4,121.1,63.1z"/>
		<path id="XMLID_157_" class="st26" d="M106.1,64.7c-0.4,0.6-0.8,1.3-1,2c1,0.3,2.1,0.4,3.1,0.6c0,0,0.1,0,0.1,0
			c2,0.2,3.9,0.3,5.9,0.1c3-0.3,6.3-0.8,8.8-2.6c-0.6-0.6-1.2-1.1-1.9-1.6C116.1,61.4,110.4,61.7,106.1,64.7z"/>
		<path id="XMLID_572_" d="M123.1,64.7c-2.8-3-6.8-5-11-4.2c-3.3,0.6-6.1,3-7,6.2c-0.1,0-0.2,0-0.2-0.1c-0.1,0-0.1,0.1,0,0.1
			c0.3,0.1,0.6,0.2,0.9,0.3c0.1,2.1,0.7,4.3,1.8,6.1c-0.3,0.1-0.6,0.1-0.9,0.2c-0.1,0,0,0.1,0,0.1c2.4-0.3,4.8-0.6,7.3-0.3
			c2,0.2,3.9,0.7,5.8,1.2c0,0.1,0.1,0.1,0.1,0c0,0,0,0,0,0c0.4,0.1,0.9,0.3,1.3,0.4c0,0,0,0,0,0c-0.4-0.1-0.9-0.3-1.3-0.4
			c1.4-2.7,2.1-5.9,2.4-8.9C122.5,65.2,122.7,65,123.1,64.7C123,64.8,123,64.8,123.1,64.7C123,64.8,123.1,64.8,123.1,64.7z
			 M119.7,74.2c-1.8-0.6-3.6-1.1-5.5-1.4c-2.2-0.3-4.5-0.2-6.7,0.2c-1-1.9-1.6-4-1.8-6c0.8,0.2,1.7,0.4,2.5,0.5
			c0.3,1.9,3.2,2.8,4.8,2.9c2.1,0.1,4.1-1,4.4-3.2c1.7-0.3,3.3-0.9,4.7-1.8C121.7,68.4,120.8,71.3,119.7,74.2z M114.8,67.5
			c0.9-0.1,1.8-0.2,2.6-0.4c-0.5,2.1-2.3,3.1-4.4,3c-1,0-2-0.3-2.8-0.8c-0.8-0.5-1.3-1.1-1.8-1.8c0.6,0.1,1.2,0.1,1.9,0.1
			C110.9,69.6,114,69.2,114.8,67.5z M110.4,67.6c1.3,0,2.5,0,3.7-0.1c0.2,0,0.4,0,0.6-0.1C113.8,69.2,111.4,69.1,110.4,67.6z
			 M114.2,67.4c-2,0.2-3.9,0.1-5.9-0.1c0,0-0.1,0-0.1,0c-1-0.1-2.1-0.3-3.1-0.6c1.2-3.1,3.8-5.3,7-6c4.1-0.8,8,1.3,10.9,4.1
			C120.4,66.6,117.2,67.1,114.2,67.4z"/>
	</g>
	<g id="XMLID_555_">
		<path id="XMLID_151_" class="st23" d="M91.8,67.1c-0.5,0.7-0.9,1.4-1.7,1.8c-0.9,0.5-1.9,0.8-2.8,0.8c-2.1,0.1-3.9-0.9-4.4-3
			c0.9,0.2,1.8,0.3,2.6,0.4c0.7,1.7,3.9,2.1,4.5,0.1C90.5,67.3,91.2,67.2,91.8,67.1z"/>
		<path id="XMLID_150_" class="st24" d="M87.2,70c1.6-0.1,4.5-0.9,4.8-2.9c0.8-0.1,1.7-0.3,2.5-0.5c-0.2,2.1-0.8,4.2-1.8,6
			c-2.2-0.4-4.4-0.5-6.7-0.2c-1.9,0.2-3.7,0.8-5.5,1.4c-1.1-2.9-2-5.8-2.5-8.8c1.4,0.9,3.1,1.4,4.7,1.8C83.1,68.9,85.1,70.1,87.2,70
			z"/>
		<path id="XMLID_149_" class="st25" d="M85.4,67.1c0.2,0,0.4,0,0.6,0.1c1.2,0.1,2.5,0.1,3.7,0.1C88.8,68.8,86.3,68.9,85.4,67.1z"/>
		<path id="XMLID_148_" class="st19" d="M92.7,62.7c-1.3-1.2-2.9-2-4.7-2.4c-4.1-0.8-8,1.3-10.9,4.1c0,0,0,0,0,0
			C81.7,61.4,87.7,60.8,92.7,62.7z"/>
		<path id="XMLID_147_" class="st26" d="M92.7,62.7c-5-1.9-11-1.3-15.5,1.7c2.5,1.8,5.8,2.4,8.8,2.6c2,0.2,3.9,0.1,5.9-0.1
			c0,0,0.1,0,0.1,0c1-0.1,2.1-0.3,3.1-0.6C94.6,64.9,93.8,63.7,92.7,62.7z"/>
		<path id="XMLID_556_" d="M77.2,64.4C77.2,64.4,77.2,64.4,77.2,64.4c0.3,0.2,0.5,0.4,0.8,0.5c0.3,3,1,6.2,2.4,8.9
			c-0.4,0.1-0.9,0.3-1.3,0.4c0,0,0,0,0,0c0.4-0.1,0.9-0.3,1.3-0.4c0,0,0,0,0,0c0,0.1,0.1,0,0.1,0c1.9-0.5,3.8-1,5.8-1.2
			c2.5-0.3,4.9,0,7.3,0.3c0.1,0,0.1-0.1,0-0.1c-0.3-0.1-0.6-0.1-0.9-0.2c1.1-1.8,1.6-4,1.8-6.1c0.3-0.1,0.6-0.2,0.9-0.3
			c0,0,0-0.1,0-0.1c-0.1,0-0.2,0-0.2,0.1c-0.9-3.2-3.8-5.6-7-6.2C83.9,59.4,79.9,61.3,77.2,64.4C77.1,64.4,77.1,64.5,77.2,64.4z
			 M78,65c1.4,0.9,3.1,1.4,4.7,1.8c0.3,2.2,2.3,3.3,4.4,3.2c1.6-0.1,4.5-0.9,4.8-2.9c0.8-0.1,1.7-0.3,2.5-0.5
			c-0.2,2.1-0.8,4.2-1.8,6c-2.2-0.4-4.4-0.5-6.7-0.2c-1.9,0.2-3.7,0.8-5.5,1.4C79.4,70.9,78.5,68,78,65z M89.9,67.3
			c0.6,0,1.3-0.1,1.9-0.1c-0.5,0.7-0.9,1.4-1.7,1.8c-0.9,0.5-1.9,0.8-2.8,0.8c-2.1,0.1-3.9-0.9-4.4-3c0.9,0.2,1.8,0.3,2.6,0.4
			C86.2,68.8,89.3,69.3,89.9,67.3z M85.4,67.1c0.2,0,0.4,0,0.6,0.1c1.2,0.1,2.5,0.1,3.7,0.1C88.8,68.8,86.3,68.9,85.4,67.1z
			 M77.2,64.4c2.9-2.8,6.7-4.9,10.9-4.1c3.3,0.7,5.9,2.9,7,6c-1,0.3-2.1,0.4-3.1,0.6c0,0-0.1,0-0.1,0C90,67.2,88,67.2,86,67
			C83,66.8,79.7,66.2,77.2,64.4z"/>
	</g>
	<g id="XMLID_542_">
		<g id="XMLID_549_">
			<path id="XMLID_141_" class="st22" d="M77.5,59.1c3.1-0.6,6.3-1.1,9.5-1.7c1.6-0.3,3.2-0.6,4.9-0.8c0.8-0.1,1.6-0.3,2.4-0.4
				c0,0,0,0,0,0c0-0.1,0.1-0.3,0.1-0.4c0-0.4,0.1-0.8,0.1-1.2c-5.8,1-11.6,2-16.9,4.2C77.5,58.9,77.5,59,77.5,59.1z"/>
			<path id="XMLID_140_" class="st23" d="M77.6,57C77.6,57,77.6,57,77.6,57c0.1,0.5,0,0.9-0.1,1.4c0,0.1,0,0.3,0,0.5
				c5.3-2.2,11.1-3.2,16.9-4.2c0.2-1.9,0.6-3.9,1.2-5.8C90.3,52.9,83.8,54.9,77.6,57z"/>
			<path id="XMLID_550_" class="st27" d="M97.7,49.8c0,0.1-0.1,0.2-0.1,0.3c0,0,0,0,0,0c0,0.1-0.1,0.2-0.1,0.3
				c-0.2,0.7-0.4,1.3-0.6,2c0.3-1.3,0.5-2.5,0.6-3.8c0,0,0,0,0,0c-0.1,0.7-0.3,1.4-0.4,2.2c0,0,0,0-0.1,0c-0.5,1.5-0.8,3-1.3,4.5
				c0.1-1.1,0.3-2.1,0.5-3.2c0.1-0.6,0.3-1.1,0.4-1.7c0.1-0.3,0.2-0.7,0.2-1c0,0,0,0,0-0.1c0-0.1,0.1-0.2,0.1-0.3c0,0,0,0,0,0
				c0-0.1,0.1-0.1,0.1-0.2c0,0,0-0.1-0.1-0.1c-0.2,0.2-0.2,0.5-0.3,0.7c0,0.1-0.1,0.3-0.1,0.4c-0.6,1.5-1.2,3-1.7,4.5
				c0.5-2,1.1-4.1,1.5-6.2c0,0,0,0,0,0c-0.5,2.1-1.1,4.1-1.7,6.2c0.3-1.8,0.5-3.7,1-5.5c0,0,0,0,0,0c0,0,0-0.1,0-0.1
				c-2.8,1.8-5.6,3.4-8.6,4.7c-3.1,1.3-6.3,2.4-9.4,3.5c0,0-0.1,0-0.1,0c-0.1,0.4-0.1,0.8-0.2,1.3c0,0.1,0,0.2-0.1,0.4
				c-0.1-0.7-0.2-1.4-0.3-2c0-0.1-0.1-0.1-0.1,0c0,0.7-0.2,1.5-0.2,2.2c0-0.2,0-0.3-0.1-0.3c-0.1-0.4-0.1-0.8-0.2-1.2
				c0-0.1-0.2-0.1-0.2,0c0,0.2,0,0.4,0.1,0.5c0,0,0,0,0,0c0,0,0,0,0,0c0,0,0,0,0,0c0,0,0,0,0,0c0,0,0,0,0,0c0,0,0,0,0,0
				c-0.1,0.5,0.1,0.9,0.2,1.4c0,0.1,0.2,0.1,0.2,0c0-0.2,0-0.3,0-0.5c0.1,0.3,0.1,0.6,0.2,0.9c0,0,0,0,0,0c-0.1-0.8,0.1-1.7,0.1-2.6
				c0.1,0.5,0.2,1.1,0.3,1.6c0,0.1,0,0.3,0,0.4c0,0,0,0,0,0c3.1-0.4,6.3-1,9.4-1.6c2.5-0.5,5-0.8,7.5-1.4c0,0.1,0.2,0.1,0.2,0
				c0.6-1.7,1.2-3.3,1.8-5c0,0.2-0.1,0.3-0.1,0.5c-0.4,1.5-0.6,3-0.7,4.5c0,0.1,0.2,0.2,0.2,0c0.3-0.8,0.5-1.6,0.7-2.3
				c-0.1,0.5-0.2,1.1-0.3,1.6c0,0.1,0.1,0.2,0.2,0c0.3-1.1,0.6-2.2,0.9-3.3c-0.1,0.5-0.2,1.1-0.3,1.6c0,0.1,0.1,0.1,0.1,0
				c0.4-1.1,0.5-2.3,0.8-3.5c0.1-0.1,0.1-0.2,0.1-0.2c0-0.1,0.1-0.2,0.1-0.4C97.9,49.8,97.8,49.7,97.7,49.8z M94.3,55.8
				c0,0.1-0.1,0.3-0.1,0.4c0,0,0,0,0,0c-0.8,0-1.6,0.2-2.4,0.4c-1.6,0.3-3.2,0.6-4.9,0.8c-3.2,0.5-6.3,1.1-9.5,1.7
				c0.1-0.2,0.1-0.5,0.1-0.7c0.1-0.5,0.1-0.9,0.1-1.4c0,0,0,0,0,0c6.2-2.1,12.7-4.1,18-8.1C94.9,51.1,94.5,53.5,94.3,55.8z"/>
		</g>
		<g id="XMLID_543_">
			<path id="XMLID_137_" class="st23" d="M123.3,57.5C123.3,57.5,123.3,57.5,123.3,57.5c-6-2-12.4-4-17.5-7.9c0.6,2,1,4,1.2,6
				c5.4,0.8,11,1.1,16.3,2.4C123.3,57.8,123.3,57.7,123.3,57.5z"/>
			<path id="XMLID_136_" class="st22" d="M123.3,58c-5.3-1.3-10.9-1.6-16.3-2.4c0,0.2,0,0.5,0.1,0.7c0,0.1,0.1,0.3,0.1,0.4
				c0,0,0,0,0,0c0.8,0,1.6,0.2,2.4,0.4c1.5,0.3,3.1,0.5,4.6,0.8c3.1,0.5,6.2,1,9.2,1.6c-0.1-0.2-0.1-0.6-0.1-0.8
				C123.3,58.5,123.3,58.2,123.3,58z"/>
			<path id="XMLID_544_" class="st22" d="M124.6,58.4C124.6,58.4,124.6,58.4,124.6,58.4C124.6,58.4,124.6,58.3,124.6,58.4
				C124.6,58.3,124.6,58.3,124.6,58.4C124.6,58.3,124.6,58.3,124.6,58.4C124.6,58.3,124.6,58.3,124.6,58.4c0-0.2,0-0.4,0-0.6
				c0-0.1-0.2-0.1-0.2,0c-0.2,0.7-0.3,1.5-0.3,2.2c0.1-1,0-1.9-0.1-2.8c0-0.1-0.1-0.1-0.1,0c-0.1,0.7-0.2,1.3-0.3,2
				c0-0.1-0.1-0.3-0.1-0.4c-0.1-0.4-0.1-0.8-0.1-1.2c0,0-0.1,0-0.1,0c-3.1-1.1-6.2-2.2-9.2-3.4c-2.9-1.2-5.7-2.8-8.4-4.5
				c0,0-0.1,0,0,0.1c0,0,0,0,0,0c0.4,1.7,0.6,3.5,0.9,5.3c-0.5-2-1.1-4-1.6-5.9c0,0,0,0,0,0c0.4,2,1,4,1.5,5.9
				c-0.5-1.4-1.1-2.9-1.6-4.3c0,0,0,0,0,0c-0.1-0.3-0.1-0.9-0.4-1.1c0,0-0.1,0-0.1,0.1c0,0.1,0.1,0.2,0.1,0.2c0,0,0,0,0,0
				c0,0.1,0,0.1,0.1,0.2c0.1,0.3,0.2,0.7,0.2,1c0.1,0.6,0.3,1.2,0.4,1.7c0.2,1.1,0.4,2.2,0.5,3.3c-0.5-1.4-0.8-2.9-1.2-4.4
				c0,0,0,0-0.1,0c-0.2-0.7-0.3-1.4-0.4-2.1c0,0,0,0,0,0c0.1,1.3,0.4,2.6,0.7,3.9c-0.2-0.7-0.4-1.4-0.6-2.1c0-0.1-0.1-0.2-0.1-0.3
				c0,0,0,0,0,0c0-0.1-0.1-0.2-0.1-0.3c0-0.1-0.2-0.1-0.1,0c0,0.1,0.1,0.3,0.1,0.4c0,0.1,0,0.1,0.1,0.2c0.3,1.1,0.4,2.3,0.7,3.3
				c0,0.1,0.2,0.1,0.1,0c-0.1-0.6-0.2-1.1-0.3-1.7c0.3,1.1,0.7,2.2,0.9,3.4c0,0.1,0.2,0.1,0.2,0c-0.1-0.5-0.2-1-0.3-1.5
				c0.2,0.7,0.4,1.5,0.7,2.2c0,0.1,0.2,0.1,0.2,0c-0.1-1.4-0.3-2.8-0.6-4.2c0-0.2-0.1-0.4-0.1-0.6c0.6,1.6,1.2,3.2,1.7,4.8
				c0,0.1,0.2,0.1,0.2,0c2.4,0.6,4.9,0.9,7.3,1.3c3,0.6,6.1,1.2,9.1,1.5c0,0,0,0,0,0c0.1-0.1,0.1-0.2,0-0.4c0.1-0.5,0.2-1,0.3-1.6
				c0,0.8,0.2,1.7,0.1,2.5c0,0,0,0,0,0c0.1-0.3,0.1-0.6,0.2-0.9c0,0.1,0,0.3,0,0.4c0,0.1,0.2,0.1,0.2,0
				C124.5,59.3,124.6,58.8,124.6,58.4C124.6,58.4,124.6,58.4,124.6,58.4z M114.2,57.9c-1.5-0.3-3.1-0.5-4.6-0.8
				c-0.8-0.1-1.6-0.3-2.4-0.4c0,0,0,0,0,0c0-0.1-0.1-0.3-0.1-0.4c-0.2-2.3-0.6-4.5-1.3-6.7c5.2,3.9,11.5,5.9,17.5,7.9c0,0,0,0,0,0
				c0,0.4,0,0.8,0.1,1.2c0,0.2,0,0.6,0.1,0.8C120.4,58.9,117.3,58.4,114.2,57.9z"/>
		</g>
	</g>
	<g id="XMLID_534_">
		<path id="XMLID_133_" class="st21" d="M71.1,58c-4.6-5.3-10.3-9.9-9.9-17.2c0.4-3.9,3.4-8.2,7.8-8.1c-0.9-0.4-1.9-0.4-2.9,0
			c-1.6,0.7-2.9,1.9-3.9,3.4c-1.9,2.9-2.7,6.4-1.7,9.8c1.9,6.3,7.4,10.7,12.4,14.7C72.4,59.5,71.9,58.6,71.1,58z"/>
		<path id="XMLID_132_" class="st21" d="M141.1,39.6c-6.7-2.6-12.1-7.6-17.8-12c-2.9-2.2-5.9-4.3-9.3-5.8c-3.3-1.5-6.8-2.2-10.4-2.5
			c-6.8-0.5-14-0.3-20.5,1.7c-3.1,0.9-6.2,2.3-8.6,4.6c-1.4,1.4-2.4,3-3,4.8c9.9-11.6,29.3-12.8,42.7-5.8c8.8,4.6,16,11.5,24.8,16
			c3.8,2,7.9,2.2,12.1,1.9c1.1-0.5,2.1-1,3.2-1.6C149.9,41.8,145.3,41.3,141.1,39.6z"/>
		<path id="XMLID_131_" class="st22" d="M87.5,32.8c-6.1-1.5-11.5,1.9-15.3,6.9c-0.3,0.8,0,1.5,0.7,2c-0.1-0.2-0.2-0.5-0.4-0.7
			c0,0-0.1-0.1,0-0.1c3.8-3.2,8.9-3.8,13.7-3.3c6,0.7,11.8,2.6,17.6,4.4c7.8,2.4,15.7,4.6,23.9,5.1c4.4,0.2,8.9,0,13.2-0.9
			c1-0.2,2.1-0.5,3.1-0.8C124.6,48.3,106.4,37.6,87.5,32.8z"/>
		<path id="XMLID_130_" class="st23" d="M139.1,40.8c-8.8-4.6-16-11.5-24.8-16c-13.3-7-32.8-5.8-42.7,5.8c-0.4,1.1-0.6,2.4-0.6,3.6
			c0,0-0.1,0-0.1,0c0,0,0,0,0,0c-0.6-0.6-1.3-1.1-2-1.4c-4.4-0.1-7.4,4.2-7.8,8.1C60.8,48,66.5,52.6,71.1,58
			c0.8,0.7,1.4,1.5,1.8,2.5c0.1,0.1,0.3,0.2,0.4,0.3c1.9-4.5,2.6-9.3,1.4-14.2c-0.4-1.7-1-3.4-1.7-4.9c-0.6-0.6-1-1.2-0.7-2
			c3.8-5,9.2-8.4,15.3-6.9c18.9,4.9,37.1,15.5,56.4,12.6c2.5-0.7,4.9-1.6,7.2-2.7C147,43,142.9,42.8,139.1,40.8z"/>
		<path id="XMLID_535_" class="st27" d="M154.6,40.9c-4.1,0.4-8.1,0.2-12-1c-3.5-1.1-6.7-3-9.7-5.1c-5.9-4.2-11.2-9.4-17.8-12.6
			c-6.1-3-12.9-3.4-19.5-3.1c-6.5,0.3-13.7,1.3-19.2,5c-3.4,2.3-5.5,5.9-5.5,10c-1-1.2-2.3-2-3.9-1.8c-1.5,0.1-2.9,1.2-3.9,2.3
			c-2.4,2.5-3.6,6.1-3.2,9.6c0.4,3.5,2.5,6.6,4.8,9.2c2.5,2.9,5.5,5.4,8.5,7.6c0,0,0.1,0,0.1,0c2.2-4.2,2.6-9,1.7-13.6
			c-0.4-2.2-1.2-4.5-2.4-6.3c5-3.7,11-3.8,17-2.7c7.2,1.4,14.1,4,21.2,5.9c6.9,1.9,13.9,3.3,21,3.1c8-0.1,15.9-2.2,22.8-6.3
			c0,0,0.1,0,0.1,0C154.7,41.1,154.7,40.9,154.6,40.9z M140.8,46.2c-4.3,0.9-8.8,1.1-13.2,0.9c-8.2-0.5-16.1-2.7-23.9-5.1
			c-5.8-1.8-11.6-3.7-17.6-4.4c-4.8-0.5-9.9,0.1-13.7,3.3c0,0,0,0.1,0,0.1c1,1.7,1.6,3.7,2.1,5.6c1.2,4.8,0.5,9.6-1.4,14.2
			c-5-4.1-10.8-8.5-12.7-15c-1-3.4-0.3-6.9,1.7-9.8c1-1.4,2.3-2.7,3.9-3.4c1.9-0.8,3.7,0,4.9,1.4c0,0,0,0,0,0c0,0,0.1,0,0.1,0
			c0.1-3.2,1.3-6.1,3.6-8.4c2.4-2.3,5.5-3.6,8.6-4.6c6.6-2,13.7-2.3,20.5-1.7c3.6,0.3,7.1,1,10.4,2.5c3.3,1.5,6.4,3.6,9.3,5.8
			c5.7,4.3,11,9.3,17.8,12c4.2,1.6,8.8,2.2,13.3,1.5C150,43.4,145.6,45.2,140.8,46.2z"/>
	</g>
	<path id="XMLID_127_" class="st20" d="M109.7,96.7c-0.5-0.9-2-1.1-2.8-1.2c-2.6-0.4-5.5-0.3-8.1,0.1c0,0,0,0,0,0
		c2.3-0.2,4.6-0.3,7-0.1c1.1,0.1,2.5,0.2,3.4,0.8c1.2,0.7,0.1,1.9-0.5,2.6c-1.4-1-3.4,0.6-3.8,1.9c-0.3,1,0.5,1.9,0.9,2.7
		c1.2,2.3-2.1,2.5-2.3,1.3c0-0.1,0-0.2,0-0.3c0-0.1-0.2-0.1-0.2,0c-0.1,1.4-1,2.4-2.4,1.7c-0.4-0.2-0.8-0.5-1-1
		c-0.2-0.6,0.4-1.1,0.8-1.4c0,0,0-0.1,0-0.1c-1.4,0.5-1.2,1.9,0,2.5c0.5,0.3,1.2,0.4,1.8,0.1c0.5-0.3,0.8-0.8,0.9-1.4
		c0.2,0.3,0.7,0.5,1.1,0.6c0.8,0.1,1.5-0.5,1.6-1.4c0.1-1.4-1.6-2.2-1.1-3.7c0.4-1.4,2.3-2.3,3.6-1.7c0,0,0,0,0,0
		C109.4,98.6,110.2,97.6,109.7,96.7z"/>
	<g id="XMLID_528_">
		<path id="XMLID_126_" class="st28" d="M96.5,84.7c0,0.7-0.1,1.4-0.1,2.1c0.6,1.2,1.7,2.1,2.9,2.1h2.4c1.2,0,2.2-0.7,2.8-1.8
			c0-1,0-2.1-0.1-3.1C102.5,86.3,98.7,87.1,96.5,84.7z"/>
		<path id="XMLID_125_" class="st29" d="M104.5,83.9c-0.3-6.4-1.4-12.7-1.6-18.9c-0.4-0.8-1-1.3-1.9-1.3h-0.7
			c-0.8,0-1.5,0.4-1.9,1.1c0.3,6.7-1.4,13.2-1.8,19.8C98.7,87.1,102.5,86.3,104.5,83.9z"/>
		<path id="XMLID_124_" class="st30" d="M103.6,68.8c0-1.3-0.2-2.8-0.8-3.8c0.3,7.3,1.7,14.6,1.7,22c0.4-0.7,0.6-1.5,0.6-2.4
			L103.6,68.8z"/>
		<path id="XMLID_123_" class="st30" d="M98.3,64.8c-0.6,0.8-0.8,2-0.8,3.4l-1.6,16.4c0,0.8,0.2,1.6,0.5,2.2
			C96.5,79.4,98.6,72.2,98.3,64.8z"/>
	</g>
	<g id="XMLID_520_">
		<path id="XMLID_122_" class="st31" d="M102.5,128c0,0.1,0,0.2,0,0.2c0.1-0.1,0.2-0.2,0.2-0.3c0-0.5,0-0.9,0-1.2
			c-0.5,0.1-1.1,0-1.6-0.1c0,0.3,0,0.6,0,1c0.1,0.1,0.1,0.1,0.2,0.2c0-0.1,0-0.1,0-0.2c0,0.1,0,0.1,0,0.2c0.2,0.2,0.5,0.4,0.7,0.5
			c0.2,0,0.3,0,0.5-0.1C102.5,128.2,102.5,128.1,102.5,128z"/>
		<path id="XMLID_121_" class="st30" d="M101.2,130.6c0-0.9,0.2-1.8,0.2-2.7c-0.1-0.1-0.1-0.1-0.2-0.2c-0.1,2.5-0.1,6.6-0.2,8.3
			c-0.1,1.8-0.1,3.6-0.4,5.3c0,0,0,0,0,0c0.1,0.3,0.2,0.6,0.3,0.9C101.1,138.4,101.3,134.5,101.2,130.6z"/>
		<path id="XMLID_120_" class="st29" d="M102.1,128.4c-0.3,0-0.5-0.2-0.7-0.5c0,0.9-0.2,1.8-0.2,2.7c0.1,3.9-0.1,7.8-0.4,11.6
			c0.5,1.4,1.3,2.7,1.8,4.1c0.2-1.3,0.6-2.6,1.1-3.9c-0.6-4.7-1-9.5-1.2-14.2C102.4,128.3,102.3,128.4,102.1,128.4z"/>
		<path id="XMLID_119_" class="st30" d="M104.1,141.4c-0.3-0.7-0.4-1.6-0.5-2.4c-0.2-1.2-0.3-2.5-0.4-3.7c-0.1-1.4-0.3-5.1-0.4-7.3
			c-0.1,0.1-0.2,0.2-0.2,0.3c0.2,4.7,0.6,9.5,1.2,14.2C103.9,142.1,104,141.7,104.1,141.4C104.1,141.4,104.1,141.4,104.1,141.4z"/>
		<path id="XMLID_521_" class="st32" d="M103.4,135.1c-0.2-1.7-0.3-6.7-0.6-8.4c0,0,0,0,0,0c0,0,0,0,0,0c-0.5-0.2-1.1-0.1-1.6-0.1
			c0,0,0,0,0,0c0-0.1-0.1-0.1-0.1,0c0,0,0,0,0,0c0,0,0,0,0,0c0,0,0,0,0,0c-0.3,1.9-0.3,6.9-0.3,8.7c-0.1,2-0.2,4-0.3,6c0,0,0,0,0,0
			c0.2,1.9,1.4,3.5,2.1,5.2c0,0.1,0.1,0,0.1,0c0.7-1.6,1.1-3.5,1.5-5.2c0,0,0.1,0,0-0.1C103.6,139.3,103.6,137.1,103.4,135.1z
			 M102.6,146.4c-0.6-1.7-1.6-3.2-2.1-5c0,0,0,0,0,0c0.3-1.8,0.4-3.6,0.4-5.3c0.1-2,0.2-7.3,0.2-9.4c0.5,0.1,1.1,0.2,1.6,0.1
			c0,1.8,0.3,6.8,0.4,8.5c0.1,1.2,0.3,2.5,0.4,3.7c0.1,0.8,0.2,1.6,0.5,2.4c0,0,0,0,0,0C103.6,143,102.9,144.7,102.6,146.4z"/>
	</g>
	<g id="XMLID_513_">
		<path id="XMLID_116_" class="st29" d="M102.9,126.3c0-0.1,0.1-0.1,0.1-0.2c0.1-0.2,0.2-0.5,0.2-0.7c-0.1-0.6-0.2-1.1-0.7-1.4
			c-0.6-0.4-1.5-0.2-2.2,0.1c-0.3,0.8,0,1.4,0.4,2C101.4,126.3,102.1,126.5,102.9,126.3z"/>
		<path id="XMLID_115_" class="st31" d="M100.7,126c0.4,0.5,1,1,1.6,1.5c0.1-0.5,0.4-0.8,0.6-1.3C102.1,126.5,101.4,126.3,100.7,126
			z"/>
		<path id="XMLID_114_" class="st30" d="M103.1,123.6c-0.6,0-1.2,0.1-1.7,0.2c-0.4,0.1-0.7,0.1-1,0.1c0,0.1,0,0.1-0.1,0.2
			c0.7-0.2,1.6-0.4,2.2-0.1c0.5,0.3,0.6,0.9,0.7,1.4C103.3,124.8,103.3,124.3,103.1,123.6z"/>
		<path id="XMLID_514_" class="st32" d="M103.2,123.5C103.2,123.5,103.2,123.5,103.2,123.5C103.2,123.5,103.2,123.5,103.2,123.5
			c-1-0.3-2,0.1-2.9,0.3c-0.1,0-0.1,0.1-0.1,0.1c-1.1,1.1,0.8,3.6,2,3.8c0,0,0,0,0,0c0,0.1,0.1,0.1,0.1,0
			C103.1,126.5,104.2,124.9,103.2,123.5z M102.2,127.6c-1.1-1.1-2.6-1.9-1.9-3.7c0.4,0,0.6,0,1-0.1c0.6-0.1,1.2-0.2,1.7-0.2
			c0.2,1,0.2,1.6-0.2,2.5C102.7,126.7,102.4,127,102.2,127.6z"/>
	</g>
	<g id="XMLID_498_">
		<g id="XMLID_506_">
			<path id="XMLID_111_" class="st33" d="M91.2,181.7c-0.6,0.7-1.2,1.3-1.9,1.9c-0.6,0.6-1.1,1.1-1.7,1.7c0.1,0.6,0.2,1.3,0.2,1.9
				c3.3,0,7.2-1.3,7.5-5.1C94.1,182.2,92.6,181.7,91.2,181.7z"/>
			<path id="XMLID_110_" class="st34" d="M87.5,184.8c0,0.2,0.1,0.3,0.1,0.5c0.6-0.6,1.1-1.1,1.7-1.7
				C88.8,184.1,88.2,184.5,87.5,184.8z"/>
			<path id="XMLID_109_" class="st35" d="M96.4,181.6c-1.7,0.1-3.4,0-5,0c0,0.1-0.1,0.1-0.1,0.2c1.4,0,2.9,0.5,4.1,0.5
				c-0.3,3.7-4.2,5-7.5,5.1c0,0.1,0,0.2,0,0.3c1.7-0.1,3.3-0.4,5-0.5c0,0,0,0,0,0c1-1.4,2.3-2.7,3.6-3.8c0,0,0,0,0,0
				C96.4,182.7,96.3,182.2,96.4,181.6z"/>
			<path id="XMLID_507_" d="M96.7,181.4c-1.8-0.1-3.6,0-5.4,0.1c0,0,0,0,0,0c-0.1,0-0.2,0-0.2,0c0,0,0,0,0,0c0.1,0,0.1,0,0.2,0
				c-1.3,1.1-2.4,2.3-3.8,3.2c0,0,0,0,0,0.1c0,0.9,0.2,1.8,0.3,2.7c0,0,0,0,0.1,0c1.6,0.2,3.4-0.1,5-0.4c0,0,0,0,0-0.1
				c1.2-1.2,2.5-2.5,3.6-3.8c0,0,0,0,0-0.1c0-0.6,0.1-1.1,0.1-1.7c0.1,0,0.1,0,0.2,0C96.8,181.6,96.8,181.4,96.7,181.4z M96.4,183.3
				c-1.3,1.1-2.6,2.4-3.6,3.8c0,0,0,0,0,0c-1.7,0.1-3.3,0.4-5,0.5c0-0.9-0.1-1.8-0.3-2.7c1.5-0.8,2.8-2,3.9-3.3c1.7,0,3.4,0.1,5,0
				C96.3,182.2,96.4,182.7,96.4,183.3C96.4,183.3,96.4,183.3,96.4,183.3z"/>
		</g>
		<path id="XMLID_106_" class="st36" d="M96.3,183.3C96.3,183.3,96.4,183.3,96.3,183.3c0.1-0.6,0.1-1.2,0-1.8c0,0-1.6,0.1-3,0.1
			c-0.5,0-1.4,0-2-0.1c0,0-0.1,0.1-0.2,0.2c1.4,0,2.9,0.5,4.2,0.5c-0.1,1.1-0.6,2.1-1.2,2.8c0.1,0.1,0.1,0.2,0.2,0.3c0,0,0,0,0,0
			c0,0,0,0,0,0C94.7,185.1,96.1,183.7,96.3,183.3C96.4,183.3,96.4,183.3,96.3,183.3z"/>
		<path id="XMLID_105_" class="st24" d="M91.2,181.7c-0.5,0.5-1.8,1.7-1.9,1.9c0,0,0,0,0,0c0.3,0.3,0,0.6-0.1,0.9c0,0,0,0,0,0
			c-0.1,0.2,0.1,0.4,0.3,0.5c0.4,0.2,1,0.1,1.3-0.1c0,0,0,0,0,0c0.4-0.1,0.8-0.3,1.2-0.4c0.4-0.1,1-0.2,1.4-0.1
			c0.4,0.1,0.6,0.3,0.8,0.6c0.7-0.7,1.1-1.6,1.2-2.8C94.1,182.2,92.5,181.7,91.2,181.7z"/>
		<g id="XMLID_499_">
			<path id="XMLID_104_" class="st25" d="M91.6,182c0.2,0.1,0.4,0,0.5,0c0.3,0,0.6,0,0.9,0.1c0,0,0.1,0,0-0.1
				c-0.2-0.2-0.5-0.2-0.8-0.2C92.1,181.9,91.8,181.9,91.6,182C91.6,182,91.6,182,91.6,182L91.6,182z"/>
			<path id="XMLID_103_" class="st25" d="M91.3,182.5c0.3,0,0.5,0,0.8,0c0.2,0,0.4,0.1,0.7,0.2c0.1,0,0.1-0.1,0-0.1
				C92.4,182.3,91.8,182.3,91.3,182.5C91.3,182.5,91.3,182.5,91.3,182.5L91.3,182.5z"/>
			<path id="XMLID_102_" class="st25" d="M90.9,183.1c0.4-0.1,0.7,0,1.1,0.2c0,0,0.1,0,0-0.1C91.8,182.9,91.3,182.8,90.9,183.1
				C90.9,183,90.9,183.1,90.9,183.1L90.9,183.1z"/>
			<path id="XMLID_101_" class="st25" d="M90.6,183.6c0.2,0,0.4,0,0.5,0.1c0.2,0.1,0.3,0.2,0.5,0.2c0,0,0.1,0,0-0.1
				C91.4,183.5,91,183.4,90.6,183.6C90.6,183.5,90.6,183.6,90.6,183.6L90.6,183.6z"/>
		</g>
	</g>
	<g id="XMLID_483_">
		<g id="XMLID_491_">
			<path id="XMLID_100_" class="st35" d="M111.1,182.2c1.7,0.3,3.1-0.5,4.8-0.5c-0.1-0.1-0.2-0.2-0.3-0.4c0,0,0,0,0,0
				c-1.7,0.1-3.4,0.1-5,0.1c0.1,0.5,0,1.1,0,1.6c0,0,0,0,0,0c1.3,1.1,2.6,2.4,3.6,3.8c0,0,0,0,0,0c1.7,0.1,3.3,0.4,5,0.5
				c0-0.1,0-0.1,0-0.2C115.7,187.6,112.4,185.2,111.1,182.2z"/>
			<path id="XMLID_99_" class="st33" d="M118,183.8c-0.8-0.6-1.5-1.3-2.2-2c-1.7-0.1-3.1,0.8-4.8,0.5c1.3,3,4.7,5.4,8,5
				c0-0.5,0.1-1,0.1-1.6C119,185,118.6,184.4,118,183.8z"/>
			<path id="XMLID_98_" class="st34" d="M119.4,184.7c-0.5-0.2-1-0.5-1.4-0.9c0.5,0.6,0.9,1.2,1.2,1.8
				C119.3,185.3,119.3,185,119.4,184.7z"/>
			<path id="XMLID_492_" d="M119.5,184.6c-1.4-0.9-2.5-2.1-3.8-3.2c0.1,0,0.2,0,0.2,0c0.1,0,0.1-0.1,0-0.1c-1.8-0.1-3.6,0-5.4,0.1
				c0,0,0,0,0,0c0-0.1-0.1-0.1-0.1,0c0,0,0,0,0,0c-0.1,0-0.1,0-0.2,0c-0.1,0-0.1,0.1,0,0.1c0,0,0.1,0,0.1,0c-0.1,0.5,0,1.1,0.1,1.7
				c0,0,0,0,0,0.1c1.1,1.3,2.4,2.5,3.6,3.8c0,0,0,0.1,0,0.1c1.6,0.3,3.4,0.6,5,0.4c0,0,0.1,0,0.1,0
				C119.3,186.5,119.4,185.6,119.5,184.6C119.5,184.7,119.5,184.6,119.5,184.6z M119.1,187.4c-1.7-0.1-3.3-0.4-5-0.5c0,0,0,0,0,0
				c-1-1.4-2.3-2.7-3.6-3.8c0,0,0,0,0,0c0-0.5,0.1-1.1,0-1.6c1.7,0,3.4,0.1,5-0.1c0,0,0,0,0,0c1.1,1.3,2.4,2.5,3.9,3.3
				C119.2,185.5,119.1,186.5,119.1,187.4z"/>
		</g>
		<path id="XMLID_95_" class="st36" d="M115.9,181.8c-0.2-0.2-0.4-0.3-0.4-0.3c-0.6,0-1.5,0.1-2,0.1c-1.4,0-3-0.1-3-0.1
			c-0.1,0.6-0.1,1.2,0,1.7c0,0,0,0,0,0c0,0,0,0,0,0c0.3,0.4,1.6,1.7,2,2c0,0,0,0,0,0c0,0,0,0,0,0c0.1-0.1,0.2-0.3,0.3-0.4
			c-0.7-0.8-1.4-1.6-1.8-2.6C112.8,182.6,114.3,181.6,115.9,181.8z"/>
		<path id="XMLID_94_" class="st24" d="M117.7,184.4c-0.1-0.3-0.4-0.6-0.1-0.9c0,0,0,0,0,0c-0.1-0.1-1.1-1.2-1.7-1.7
			c-1.7-0.1-3.1,0.8-4.9,0.4c0.4,0.9,1,1.8,1.8,2.6c0.2-0.3,0.4-0.5,0.7-0.5c0.5-0.1,1,0,1.4,0.1c0.4,0.1,0.8,0.3,1.2,0.4
			c0,0,0,0,0,0c0.4,0.2,0.9,0.3,1.3,0.1C117.7,184.8,117.8,184.7,117.7,184.4C117.7,184.4,117.7,184.4,117.7,184.4z"/>
		<g id="XMLID_484_">
			<path id="XMLID_93_" class="st25" d="M115.1,181.8c-0.2-0.1-0.5-0.1-0.7-0.1c-0.3,0-0.6,0-0.8,0.2c0,0,0,0.1,0,0.1
				c0.3-0.1,0.6-0.1,0.9-0.1C114.7,181.8,114.9,181.9,115.1,181.8C115.1,181.8,115.1,181.8,115.1,181.8L115.1,181.8z"/>
			<path id="XMLID_92_" class="st25" d="M115.4,182.3c-0.5-0.2-1.1-0.1-1.5,0.2c0,0,0,0.1,0,0.1c0.2-0.1,0.4-0.1,0.7-0.2
				C114.9,182.3,115.1,182.3,115.4,182.3C115.4,182.3,115.4,182.3,115.4,182.3L115.4,182.3z"/>
			<path id="XMLID_91_" class="st25" d="M115.8,182.8c-0.4-0.2-0.9-0.1-1.2,0.2c0,0,0,0.1,0,0.1C115,182.9,115.4,182.8,115.8,182.8
				C115.8,182.9,115.8,182.9,115.8,182.8L115.8,182.8z"/>
			<path id="XMLID_90_" class="st25" d="M116.1,183.3c-0.4-0.1-0.8,0-1.1,0.3c0,0,0,0.1,0,0.1c0.2,0,0.3-0.1,0.5-0.2
				C115.7,183.4,115.9,183.4,116.1,183.3C116.1,183.4,116.1,183.3,116.1,183.3L116.1,183.3z"/>
		</g>
	</g>
	<g id="XMLID_480_">
		<path id="XMLID_89_" class="st22" d="M127.6,52c-0.2,0.9-0.3,1.9-0.5,2.8c-0.2,1-0.4,1.9-0.5,2.8c-0.2,0.9-0.3,1.7-0.5,2.5
			c-0.3,1.2-0.4,2.1-0.5,2.3c4-3.5,6.9-9.8,5.3-15.1l-2.4-0.1l0-0.1c0,0-0.2,1-0.4,2.4C127.9,50.3,127.7,51.1,127.6,52z"/>
		<path id="XMLID_88_" class="st27" d="M130.9,47.2C130.9,47.2,130.8,47.2,130.9,47.2L130.9,47.2l-2.5-0.1l0,0.1l0,0.1l2.4,0
			c1.7,5.3-1.2,11.4-5.2,14.9c0.1-0.2,0.2-1.1,0.5-2.3c0.1-0.7,0.3-1.6,0.5-2.5c0.2-0.9,0.4-1.9,0.5-2.8c0.2-1,0.3-1.9,0.5-2.8
			c0.2-0.9,0.3-1.7,0.4-2.5c0.2-1.4,0.3-2.3,0.3-2.3s-0.1,0.8-0.4,2.3c-0.1,0.7-0.3,1.6-0.5,2.5c-0.2,0.9-0.4,1.9-0.5,2.8
			c-0.2,1-0.3,1.9-0.5,2.8c-0.2,0.9-0.3,1.7-0.4,2.5c-0.2,1.2-0.3,2.1-0.4,2.3c0,0,0,0,0,0c0,0,0,0.1,0.1,0.1
			c2.3-1.7,3.8-4.3,4.9-6.9C131.4,52.9,132,49.8,130.9,47.2z"/>
	</g>
	<g id="XMLID_455_">
		<path id="XMLID_87_" class="st18" d="M70,135.8c-1.1-1-2.6-1.6-4.1-1.8c-2-0.3-4.3-0.1-5.9,1.4c-0.2,0.2-0.3,0.3-0.5,0.5
			c1.4-0.9,3-1.5,4.7-1.5C66.3,134.2,68.2,134.9,70,135.8z"/>
		<path id="XMLID_86_" class="st8" d="M70,135.8c0,0,0.1,0.1,0.1,0.1c0.2,0.1,0.3,0.1,0.5,0.2C70.4,136,70.2,135.9,70,135.8z"/>
		<path id="XMLID_85_" class="st19" d="M75.8,143.2c0-0.3,0-0.7,0-1.1c-1,0.6-2.3,0.2-3.3,0.6c-0.3,0.8-0.6,1.5-0.8,2.3
			c1.1-0.9,2.8-1.5,4.1-1.2C75.7,143.7,75.7,143.4,75.8,143.2z"/>
		<path id="XMLID_84_" class="st19" d="M58.4,144.1c0.3,0.9,0.6,1.9,1.1,2.7c1.5-0.2,3.1-0.3,4.6-0.5c1.6-0.2,3.3-0.5,5-0.4
			c0,0,0,0,0,0c0.4-0.1,0.6-0.5,0.8-1c-0.2,0.1-0.3,0.2-0.5,0.3c0.2-0.1,0.3-0.2,0.5-0.3c0.2-0.5,0.2-1,0.2-1.3c0-0.5,0-1.1-0.1-1.6
			c0,0.1-0.1,0.1-0.1,0.2C67.7,145.7,62.3,145.4,58.4,144.1z"/>
		<path id="XMLID_83_" class="st8" d="M75.7,137.7c-1.5-0.1-2.8-0.6-4.2-1.1c-0.3-0.1-0.6-0.3-0.9-0.4c-0.2-0.1-0.3-0.2-0.6-0.4
			c-1.8-0.8-3.7-1.6-5.7-1.4c-1.7,0-3.3,0.6-4.7,1.5c-2,2.3-1.9,5.4-1.1,8.2c3.9,1.3,9.3,1.6,11.6-1.8c0-0.1,0-0.2,0.1-0.2
			c-0.1-0.5-0.2-1-0.5-1.4c0,0,0-0.1,0.1-0.1c0.3,0.4,0.5,0.8,0.6,1.2c0.1-0.1,0.3-0.2,0.4-0.2c-0.1,0-0.3,0.1-0.4,0.2
			c0.2,0.7,0.1,1.5,0,2.2c0,0.2-0.1,0.5-0.2,0.8c0.8-0.6,1.6-1.3,2.1-2c0.1,0,0.1-0.1,0.2-0.1c0.1-0.2,0.2-0.3,0.2-0.5c0,0,0,0,0,0
			c-0.1,0.2-0.1,0.3-0.2,0.5c1-0.4,2.3,0,3.3-0.6c0-0.3,0-0.6,0-0.8C75.8,140.1,75.7,138.9,75.7,137.7z"/>
		<path id="XMLID_82_" class="st19" d="M72.1,142.9c-0.5,0.7-1.3,1.4-2.1,2c-0.2,0.5-0.4,1.1-0.9,1.1c0,0,0,0,0,0
			c-1.2,0.1-2.5,0.2-3.7,0.3c-0.2,0.7-0.2,1.5,0.1,2.2c1.4-1.1,3.2-1.3,4.9-1.7c0.6-0.1,0.8-0.2,0.9-0.8c0.1-0.4,0.2-0.8,0.3-1.2
			c0.2-0.7,0.5-1.3,0.8-2C72.3,142.8,72.2,142.8,72.1,142.9z"/>
		<path id="XMLID_81_" class="st18" d="M75.7,137.1c-1.4,0.1-2.9-0.1-4.2-0.6c1.3,0.6,2.7,1.1,4.2,1.1
			C75.7,137.5,75.7,137.3,75.7,137.1z"/>
		<path id="XMLID_456_" d="M75.9,143.2c0-0.6,0-1.3,0-1.9c0-1.4,0.1-2.8-0.1-4.2c0,0,0,0,0,0c0,0,0,0,0,0c0,0,0,0,0,0c0,0,0,0,0,0
			c0,0,0,0,0,0c0,0,0,0,0,0c-1-0.1-2-0.1-3-0.3c-1.2-0.3-2.3-0.8-3.3-1.5c-1-0.8-2.2-1.2-3.5-1.4c-1.9-0.3-4.2-0.1-5.7,1.2
			c-3.4,2.7-3,8.4-0.8,11.8c0,0,0,0,0.1,0c1.4,0.2,3-0.1,4.4-0.3c0.5-0.1,0.9-0.1,1.4-0.2c-0.4,0.7-0.2,1.5,0.2,2.2
			c0,0,0,0.1,0.1,0.1c1.9-1,3.8-1.4,5.8-1.9c0,0,0.1,0,0.1-0.1c0-0.5,0.1-0.9,0.2-1.4c1.4-0.8,2.6-1.3,4.2-1.3c0,0,0,0,0,0
			c0,0,0,0,0,0c0,0,0,0,0,0c0,0,0,0,0,0C75.9,143.7,75.9,143.4,75.9,143.2z M71.6,145.1c0.3-1,0.7-1.9,1-2.8c0,0,0,0,0,0
			c-0.4,0.8-0.7,1.7-1,2.5c-0.1,0.4-0.2,0.8-0.3,1.2c-0.1,0.7-0.3,0.7-0.9,0.8c-1.7,0.4-3.5,0.7-4.9,1.7c-0.3-0.7-0.4-1.5-0.1-2.2
			c1.2-0.1,2.5-0.2,3.7-0.3c0,0,0,0,0,0c0.8-0.1,1-1.4,1.1-2c0.2-1.1,0.1-2.5-0.6-3.4c0,0-0.1,0-0.1,0.1c0.5,0.9,0.6,1.9,0.6,3
			c0,0.6-0.2,2.2-1,2.3c0,0,0,0,0,0c-1.7-0.1-3.4,0.1-5,0.4c-1.5,0.2-3.1,0.3-4.6,0.5c-1.7-3.5-2.7-8.4,0.5-11.4
			c1.6-1.4,3.9-1.7,5.9-1.4c2.1,0.3,3.9,1.7,4.2,1.8c1.6,1.1,3.8,1.5,5.7,1.3c-0.1,1.4,0,2.8,0,4.2c0,0.6,0,1.3,0,1.9
			c0,0.2,0,0.5,0,0.7C74.4,143.6,72.7,144.2,71.6,145.1z"/>
	</g>
	<g id="XMLID_449_">
		<path id="XMLID_78_" class="st7" d="M71.4,141.9c-0.2-0.2-0.7-0.1-1.1-0.1c0,0.4,0,0.8-0.1,1.1c0,0.4-0.1,0.8-0.1,1.2
			c0.6-0.2,1.2-0.6,1.5-1.1C71.7,142.7,71.6,142.3,71.4,141.9z"/>
		<path id="XMLID_77_" class="st6" d="M71.8,141.3c-0.4,0.2-0.9,0.3-1.5,0.3c0,0.1,0,0.1,0,0.2c0.5,0,0.9-0.1,1.1,0.1
			c0.2,0.3,0.3,0.7,0.2,1.1C71.9,142.6,72,142,71.8,141.3z"/>
		<path id="XMLID_450_" d="M71.9,141.2C71.9,141.2,71.9,141.2,71.9,141.2C71.9,141.2,71.9,141.2,71.9,141.2c0.1,0,0-0.1,0-0.1
			c-0.4,0.2-1.6,0.2-1.6,0.3c-0.3,0.3-0.1,1-0.2,1.4c0,0.4-0.1,1-0.1,1.7c0,0,0.1,0,0.1,0c0,0,0,0,0-0.1
			C71.6,143.9,72.6,142.9,71.9,141.2z M70.1,144.1c0-0.4,0-0.8,0.1-1.2c0.1-0.4,0.1-0.9,0.1-1.3c0.5-0.1,1-0.1,1.5-0.3
			C72.2,142.8,71.4,143.7,70.1,144.1z"/>
	</g>
	<g id="XMLID_338_">
		<g id="XMLID_396_">
			<g id="XMLID_422_">
				<g id="XMLID_447_">
					<path id="XMLID_74_" class="st20" d="M92.3,128.8c0,0,0-0.1,0-0.1c-1.2,4.3-2.3,8.6-3.5,12.8c-1.3,4.4-2.6,8.8-3.7,13.2
						c0,0,0,0,0.1,0c1.3-4.3,2.5-8.6,3.7-12.8C90.1,137.5,91.4,133.2,92.3,128.8C92.3,128.8,92.3,128.8,92.3,128.8z"/>
				</g>
				<g id="XMLID_445_">
					<path id="XMLID_73_" class="st20" d="M92.8,131.3c0-0.1,0-0.1,0-0.1c-1.1,4-2.2,8-3.4,11.9c-1.2,4-2.5,7.9-3.6,12
						c0,0,0,0,0.1,0c1.2-4,2.4-8,3.6-12C90.7,139.3,92,135.4,92.8,131.3C92.8,131.4,92.8,131.4,92.8,131.3z"/>
				</g>
				<g id="XMLID_443_">
					<path id="XMLID_72_" class="st20" d="M93.2,132.9c-1,3.7-1.9,7.4-2.9,11c-1.1,4-2.3,7.9-3.3,11.9c0,0,0,0,0,0.1c0,0,0,0,0,0
						c1.1-3.8,2.2-7.7,3.3-11.5c1-3.7,2.1-7.4,2.9-11.2C93.2,133.1,93.2,133,93.2,132.9z"/>
				</g>
				<g id="XMLID_441_">
					<path id="XMLID_71_" class="st20" d="M93.6,135c-0.9,3.5-1.7,7.1-2.6,10.6c-0.9,3.7-2,7.4-2.9,11.1c0,0,0,0,0.1,0
						c1.1-3.7,2-7.4,3-11.1c0.9-3.5,1.8-6.9,2.5-10.4C93.6,135.1,93.6,135,93.6,135z"/>
				</g>
				<g id="XMLID_439_">
					<path id="XMLID_70_" class="st20" d="M93.9,136.7c-0.9,3.1-1.5,6.4-2.1,9.5c-0.8,3.8-1.8,7.6-2.2,11.5c0,0.1,0.1,0.1,0.1,0
						c0.8-3.8,1.5-7.7,2.3-11.5C92.6,143.1,93.3,139.9,93.9,136.7C93.9,136.7,93.9,136.7,93.9,136.7z"/>
				</g>
				<g id="XMLID_437_">
					<path id="XMLID_69_" class="st20" d="M91,158.7c1.2-6.5,2.6-13,3.5-19.5c0,0,0,0,0-0.1C93.3,145.7,91.6,152.1,91,158.7
						C90.9,158.7,90.9,158.7,91,158.7z"/>
				</g>
				<g id="XMLID_435_">
					<path id="XMLID_68_" class="st20" d="M92.4,159.7c1-6,2.2-12,2.6-18.1c0,0,0-0.1,0-0.1c0,0,0,0,0,0
						C94.4,147.6,93.1,153.6,92.4,159.7C92.4,159.7,92.4,159.7,92.4,159.7z"/>
				</g>
				<g id="XMLID_433_">
					<path id="XMLID_67_" class="st20" d="M95.8,145.1c-0.7,2.5-0.9,5.1-1.3,7.7c-0.4,2.5-0.8,5-1,7.5c0,0,0,0,0,0
						c0.4-2.6,0.8-5.2,1.2-7.8C95.1,150,95.7,147.6,95.8,145.1C95.9,145.1,95.8,145.1,95.8,145.1z"/>
				</g>
				<g id="XMLID_431_">
					<path id="XMLID_66_" class="st20" d="M96.8,146.2c-0.3,2.7-0.6,5.3-1,8c-0.4,2.5-0.8,5-0.9,7.5c0,0,0,0,0.1,0
						c0.3-2.6,0.6-5.2,1-7.9C96.4,151.3,96.8,148.8,96.8,146.2C96.8,146.2,96.8,146.2,96.8,146.2z"/>
				</g>
				<g id="XMLID_429_">
					<path id="XMLID_65_" class="st20" d="M98,147.3C98,147.3,98,147.3,98,147.3c-0.2,2.2-0.3,4.4-0.6,6.7c-0.3,2.4-0.7,4.7-1,7.1
						c0,0,0,0,0,0c0,0,0,0,0,0c0,0,0,0,0,0c0,0,0,0,0,0c0.4-2.2,0.7-4.5,1-6.7C97.8,152.1,98.1,149.6,98,147.3z"/>
				</g>
				<g id="XMLID_427_">
					<path id="XMLID_64_" class="st20" d="M99.2,148.4C99.2,148.4,99.2,148.4,99.2,148.4c-0.3,1.6-0.3,3.4-0.5,5.1
						c-0.2,2.2-0.6,4.3-0.7,6.5c0,0,0,0,0.1-0.1c0.4-2,0.5-4.1,0.7-6.2c0.1-1.1,0.2-2.3,0.3-3.4C99.2,149.7,99.3,149,99.2,148.4z"/>
				</g>
				<g id="XMLID_425_">
					<path id="XMLID_63_" class="st20" d="M99.5,158.8C99.5,158.8,99.5,158.8,99.5,158.8c0.2-1.7,0.2-3.3,0.4-4.9
						c0.1-1.5,0.3-3,0.4-4.5c0,0,0,0,0,0c0,0,0,0,0,0c0,0,0,0,0,0c-0.2,1.5-0.3,3-0.4,4.5C99.6,155.5,99.4,157.1,99.5,158.8
						C99.5,158.8,99.5,158.8,99.5,158.8z"/>
				</g>
				<g id="XMLID_423_">
					<path id="XMLID_62_" class="st20" d="M100.9,157.7C100.9,157.7,100.9,157.7,100.9,157.7c0.1-2.5,0.5-4.9,0.4-7.3c0,0,0,0,0,0
						C101.2,152.8,100.8,155.2,100.9,157.7C100.9,157.7,100.9,157.7,100.9,157.7z"/>
				</g>
			</g>
			<g id="XMLID_397_">
				<g id="XMLID_420_">
					<path id="XMLID_61_" class="st20" d="M111.7,130.5c0,0,0-0.1,0-0.1c1.2,4.3,2.3,8.6,3.5,12.8c1.3,4.4,2.5,8.5,3.7,12.9
						c0,0,0,0-0.1,0c-1.3-4.3-2.4-8.3-3.6-12.6C113.9,139.2,112.6,134.9,111.7,130.5C111.7,130.5,111.7,130.5,111.7,130.5z"/>
				</g>
				<g id="XMLID_418_">
					<path id="XMLID_60_" class="st20" d="M110.1,128.8c0-0.1,0-0.1,0-0.1c1.1,4,3.3,12.2,4.5,16.1c1.2,4,2.5,7.9,3.6,12
						c0,0,0,0-0.1,0c-1.2-4-2.4-8-3.6-12C113.3,141,110.9,132.9,110.1,128.8C110.1,128.9,110.1,128.9,110.1,128.8z"/>
				</g>
				<g id="XMLID_416_">
					<path id="XMLID_59_" class="st20" d="M110,131.3c1,3.7,2.7,10.7,3.7,14.4c1.1,4,2.3,8.1,3.4,12.1c0,0,0,0,0,0.1c0,0,0,0,0,0
						c-1.1-3.8-2.3-7.9-3.3-11.8c-1-3.7-2.9-10.8-3.7-14.5C110,131.5,110,131.4,110,131.3z"/>
				</g>
				<g id="XMLID_414_">
					<path id="XMLID_58_" class="st20" d="M109.8,133.8c0.9,3.5,2.3,10,3.2,13.5c0.9,3.7,2.2,7.7,3.1,11.4c0,0,0,0-0.1,0
						c-1.1-3.7-2.2-7.7-3.2-11.4c-0.9-3.5-2.4-9.8-3.1-13.3C109.8,133.9,109.8,133.8,109.8,133.8z"/>
				</g>
				<g id="XMLID_412_">
					<path id="XMLID_57_" class="st20" d="M109.8,136.7c0.9,3.1,1.8,8.1,2.4,11.3c0.8,3.8,1.9,8.1,2.4,12c0,0.1-0.1,0.1-0.1,0
						c-0.8-3.8-1.6-8.1-2.4-12C111.5,144.8,110.4,139.9,109.8,136.7C109.8,136.7,109.8,136.7,109.8,136.7z"/>
				</g>
				<g id="XMLID_410_">
					<path id="XMLID_56_" class="st20" d="M113.3,161.1c-1.2-6.5-2.8-13.6-3.7-20.1c0,0,0,0,0-0.1
						C110.7,147.4,112.6,154.5,113.3,161.1C113.3,161,113.3,161.1,113.3,161.1z"/>
				</g>
				<g id="XMLID_408_">
					<path id="XMLID_55_" class="st20" d="M111.7,161.7c-1-6-2.2-10.3-2.5-16.4c0,0,0-0.1,0-0.1c0,0,0,0,0,0
						C109.7,151.4,111,155.6,111.7,161.7C111.7,161.7,111.7,161.7,111.7,161.7z"/>
				</g>
				<g id="XMLID_406_">
					<path id="XMLID_54_" class="st20" d="M108.2,146.3c0.7,2.5,0.9,5.6,1.3,8.2c0.4,2.5,0.6,3.8,0.9,6.3c0,0,0,0,0,0
						c-0.4-2.6-0.6-4.1-1-6.7C108.9,151.7,108.3,148.8,108.2,146.3C108.1,146.3,108.1,146.3,108.2,146.3z"/>
				</g>
				<g id="XMLID_404_">
					<path id="XMLID_53_" class="st20" d="M107.2,147.4c0.3,2.7,0.4,4,0.8,6.7c0.4,2.5,0.6,3.2,0.7,5.7c0,0,0,0-0.1,0
						c-0.3-2.6-0.4-3.4-0.8-6.1C107.4,151.2,107.2,150,107.2,147.4C107.2,147.4,107.2,147.4,107.2,147.4z"/>
				</g>
				<g id="XMLID_402_">
					<path id="XMLID_52_" class="st20" d="M106,148.7C106,148.7,106,148.7,106,148.7c0.2,2.2,0.1,3,0.4,5.2c0.3,2.4,0.4,2.6,0.7,5
						c0,0,0,0,0,0c0,0,0,0,0,0c0,0,0,0,0,0c0,0,0,0,0,0c-0.4-2.2-0.4-2.3-0.7-4.6C106,151.9,105.9,151,106,148.7z"/>
				</g>
				<g id="XMLID_400_">
					<path id="XMLID_51_" class="st20" d="M104.8,150C104.8,150,104.8,150,104.8,150c0.3,1.6,0.1,1.7,0.3,3.4
						c0.2,2.2,0.3,2.4,0.5,4.5c0,0,0,0-0.1-0.1c-0.4-2-0.3-2.2-0.5-4.2c-0.1-1.1,0-0.4-0.1-1.6C104.8,151.5,104.7,150.6,104.8,150z"
						/>
				</g>
				<g id="XMLID_398_">
					<path id="XMLID_50_" class="st20" d="M104.1,156.9C104.1,156.9,104.1,156.9,104.1,156.9c-0.2-1.7,0-1.6-0.2-3.2
						c-0.1-1.5-0.1-1.1-0.1-2.6c0,0,0,0,0,0c0,0,0,0,0,0c0,0,0,0,0,0c0.2,1.5,0.1,1.2,0.2,2.7C104.2,155.4,104.1,155.3,104.1,156.9
						C104.1,156.9,104.1,156.9,104.1,156.9z"/>
				</g>
			</g>
		</g>
		<g id="XMLID_353_">
			<g id="XMLID_394_">
				<path id="XMLID_49_" class="st20" d="M86.5,156.9C86.5,156.9,86.5,156.9,86.5,156.9l0-0.9c0,0-0.1-0.1-0.1-0.1
					c0,0,0-0.1-0.1-0.1v0.7c0.1,0.1,0.1,0.1,0.1,0.2C86.5,156.7,86.5,156.8,86.5,156.9z"/>
			</g>
			<g id="XMLID_392_">
				<path id="XMLID_48_" class="st20" d="M88.2,164.2v-7.1c-0.1-0.1-0.1-0.1-0.2-0.2v6.3C88,163.6,88.1,163.9,88.2,164.2z"/>
			</g>
			<g id="XMLID_390_">
				<path id="XMLID_47_" class="st20" d="M89.8,173.6v-15.2c-0.1,0-0.1-0.1-0.2-0.1v14C89.7,172.5,89.8,173.5,89.8,173.6z"/>
			</g>
			<g id="XMLID_388_">
				<path id="XMLID_46_" class="st20" d="M91.4,181.4v-21.9c0,0,0,0,0,0c0,0-0.1-0.1-0.1-0.1v22.1C91.3,181.4,91.4,181.4,91.4,181.4
					z"/>
			</g>
			<g id="XMLID_386_">
				<path id="XMLID_45_" class="st20" d="M93.1,181.5v-20.7c-0.1-0.1-0.1-0.1-0.2-0.2v20.8C92.9,181.5,93,181.5,93.1,181.5z"/>
			</g>
			<g id="XMLID_384_">
				<path id="XMLID_44_" class="st20" d="M94.7,181.5v-19.6c-0.1,0-0.1-0.1-0.2-0.1v19.7C94.6,181.5,94.6,181.5,94.7,181.5z"/>
			</g>
			<g id="XMLID_382_">
				<path id="XMLID_43_" class="st20" d="M96.3,181.4v-19.8c-0.1,0-0.1,0.1-0.2,0.1v19.8C96.2,181.5,96.3,181.4,96.3,181.4z"/>
			</g>
			<g id="XMLID_380_">
				<path id="XMLID_42_" class="st20" d="M98,171v-10.6c-0.1,0-0.1,0.1-0.2,0.2V172C97.8,171.7,97.9,171.4,98,171z"/>
			</g>
			<g id="XMLID_378_">
				<path id="XMLID_41_" class="st20" d="M99.6,167v-8c-0.1,0.1-0.1,0.1-0.2,0.2v7.9C99.5,167.1,99.6,167.1,99.6,167z"/>
			</g>
			<g id="XMLID_376_">
				<path id="XMLID_40_" class="st20" d="M101.3,166.7v-8.9c0,0.1-0.1,0.1-0.2,0.1v8.9C101.1,166.7,101.2,166.7,101.3,166.7z"/>
			</g>
			<g id="XMLID_374_">
				<path id="XMLID_39_" class="st20" d="M102.9,166.6v-10.2c0,0,0,0,0,0c-0.1,0-0.1,0.1-0.2,0.1v10.1
					C102.8,166.6,102.8,166.6,102.9,166.6z"/>
			</g>
			<g id="XMLID_372_">
				<path id="XMLID_33_" class="st20" d="M104.5,166.5v-9.1c0,0,0,0,0,0c0,0-0.1,0-0.1-0.1c0,0,0,0,0,0v9.2
					C104.4,166.5,104.5,166.5,104.5,166.5z"/>
			</g>
			<g id="XMLID_370_">
				<path id="XMLID_32_" class="st20" d="M106.2,166.5v-7.9c-0.1,0-0.1-0.1-0.2-0.1c0,0,0,0,0,0v8
					C106,166.5,106.1,166.5,106.2,166.5z"/>
			</g>
			<g id="XMLID_368_">
				<path id="XMLID_31_" class="st20" d="M107.8,166.8v-7.3c-0.1,0-0.1-0.1-0.2-0.1v7.3C107.7,166.8,107.7,166.8,107.8,166.8z"/>
			</g>
			<g id="XMLID_366_">
				<path id="XMLID_30_" class="st20" d="M109.4,171.5c0,0.1,0,0.2,0,0.3v-11.1c-0.1,0-0.1-0.1-0.2-0.1v10.7
					C109.3,171.3,109.4,171.4,109.4,171.5z"/>
			</g>
			<g id="XMLID_364_">
				<path id="XMLID_29_" class="st20" d="M111.1,181.3v-19.7c-0.1,0-0.2-0.1-0.2-0.2c0,0,0,0,0,0v19.9
					C110.9,181.3,111,181.3,111.1,181.3z"/>
			</g>
			<g id="XMLID_362_">
				<path id="XMLID_27_" class="st20" d="M112.7,181.3v-19.7c-0.1,0.1-0.1,0.1-0.2,0.2v19.6C112.6,181.3,112.6,181.3,112.7,181.3z"
					/>
			</g>
			<g id="XMLID_360_">
				<path id="XMLID_26_" class="st20" d="M114.2,181.4c0,0,0.1,0,0.1,0v-20.8c-0.1,0-0.1,0.1-0.2,0.1L114.2,181.4
					C114.2,181.4,114.2,181.4,114.2,181.4z"/>
			</g>
			<g id="XMLID_358_">
				<path id="XMLID_25_" class="st20" d="M116,181.3v-21.9c-0.1,0.1-0.1,0.1-0.2,0.2v21.9C115.8,181.3,115.9,181.3,116,181.3z"/>
			</g>
			<g id="XMLID_356_">
				<path id="XMLID_24_" class="st20" d="M117.6,164.4v-6.5c-0.1,0.1-0.1,0.1-0.2,0.2v7C117.5,164.8,117.5,164.6,117.6,164.4z"/>
			</g>
			<g id="XMLID_354_">
				<path id="XMLID_23_" class="st20" d="M119.1,157.2L119.1,157.2c0-0.2,0.1-0.3,0.1-0.3v-0.9c-0.1,0.1-0.1,0.2-0.2,0.3
					L119.1,157.2C119.1,157.2,119.1,157.2,119.1,157.2z"/>
			</g>
		</g>
		<g id="XMLID_344_">
			<g id="XMLID_351_">
				<path id="XMLID_22_" class="st23" d="M90.4,129.7c-1.2,2.9-1.3,3.9-3.7,5.9c-1.3,1.1-2.9,1.9-4.6,2.2c-1.7,0.4-3.4,0.3-5.1,0.5
					c-0.1,0-0.1,0.1,0,0.1c3.4,0,6.8-0.4,9.5-2.6c1.3-1,2.5-2.4,3.1-3.9C90.2,130.8,90.1,131.3,90.4,129.7
					C90.5,129.7,90.4,129.7,90.4,129.7z"/>
			</g>
			<g id="XMLID_349_">
				<path id="XMLID_21_" class="st23" d="M89.9,132.5c-1.8,3-2.9,4.1-6,5.8c-1.1,0.6-2.3,1-3.5,1.2c-1.1,0.2-2.2,0.2-3.3,0.4
					c0,0,0,0.1,0,0.1c2.2,0.3,5-0.6,6.9-1.6C88.7,135.8,89.9,132.5,89.9,132.5z"/>
			</g>
			<g id="XMLID_347_">
				<path id="XMLID_20_" class="st23" d="M88.9,135.6c-1.1,1.6-1.1,1.5-2.7,2.6c-2.7,2-5.9,2.9-9.1,3.9c0,0,0,0.1,0,0
					C82,141.3,87.8,138.3,88.9,135.6C88.9,135.5,88.9,135.6,88.9,135.6z"/>
			</g>
			<g id="XMLID_345_">
				<path id="XMLID_19_" class="st23" d="M88.4,137.5c-1.5,2-3.4,2.9-5.5,4c-1.8,1-3.7,2-5.7,2.6c0,0,0,0.1,0,0.1
					c2.1-0.4,4.2-1.6,6-2.6C85.2,140.4,87.2,139.5,88.4,137.5C88.4,137.5,88.4,137.5,88.4,137.5z"/>
			</g>
		</g>
		<g id="XMLID_339_">
			<g id="XMLID_342_">
				<path id="XMLID_18_" class="st23" d="M112.2,127.8c1.9,2.6,3.2,5.6,4.3,8.5c0.6,1.7,1.1,3.4,1.5,5.1c0.4,1.8,0.6,3.7,1.1,5.5
					c0,0,0.1,0,0.1,0c-0.5-3.6-1.3-7.3-2.5-10.7c-0.6-1.5-1.2-3-1.9-4.4C114.1,130.5,113.3,129,112.2,127.8
					C112.2,127.8,112.2,127.8,112.2,127.8L112.2,127.8z"/>
			</g>
			<g id="XMLID_340_">
				<path id="XMLID_17_" class="st23" d="M111.2,127.1c0.4,1.3,1.1,2.6,1.6,3.8c0.6,1.5,1.2,2.9,1.7,4.4c0.7,1.9,1.3,3.8,1.9,5.8
					c0.9,2.8,1.5,5.8,2.5,8.6c0,0.1,0.1,0.1,0.1,0c-0.6-2.8-1.5-5.6-2.4-8.3c-0.6-2-1.3-4-2-6c-0.5-1.5-1.1-2.9-1.7-4.3
					C112.5,129.7,112,128.3,111.2,127.1C111.3,127.1,111.2,127.1,111.2,127.1L111.2,127.1z"/>
			</g>
		</g>
	</g>
	<g id="XMLID_334_">
		<path id="XMLID_16_" class="st4" d="M87.8,168.5c1.9,1.6,4-0.2,4.7-2.1c0.6-1.8,0.9-3.7,0.7-5.7c-0.1,0-0.2-0.1-0.2-0.2
			c0,2-0.3,3.9-1.1,5.8c-0.5,1.1-1.7,2.9-3.2,2.2c-1.5-0.7-1.6-2.7-1.8-4.1c-0.3-2.8-0.4-5.6-0.3-8.4c-0.1,0-0.1-0.1-0.2-0.1
			c-0.1,2.4-0.3,4.7-0.1,7c0,0.6,0.1,1.4,0.2,2.2c0,0.3,0.1,0.6,0.1,0.9C86.7,167,87.1,168,87.8,168.5z"/>
		<path id="XMLID_15_" d="M86.6,165.9c-0.1-0.3-0.1-0.6-0.1-0.9C86.5,165.3,86.5,165.6,86.6,165.9z"/>
		<path id="XMLID_14_" d="M93.3,160.8C93.3,160.8,93.3,160.8,93.3,160.8c-0.1-0.1-0.2-0.2-0.3-0.3c0,0,0,0,0,0c0,0,0,0,0,0
			c0,0,0,0,0,0c0,1.8-0.3,3.3-0.9,5c-0.5,1.5-2.2,4.3-4.1,2.5c-1.2-1.2-1.2-3.8-1.3-5.4c-0.2-2.2-0.1-4.4-0.2-6.6c0,0,0,0,0,0
			c0,0,0,0,0,0c0,0,0-0.1-0.1-0.1c0,0,0,0,0,0c0,0,0,0,0,0c0,0,0,0,0,0c-0.1,0-0.1-0.1-0.1-0.2c0,0,0,0,0-0.1c0,0,0,0,0,0
			c0,0,0,0,0,0c0,0,0,0,0,0c0,0,0,0,0,0c0,0,0,0.1,0,0.1c-0.4,2.9-0.4,5.9,0,8.8c0,0.1,0,0.3,0.1,0.4c-0.1-0.8-0.1-1.6-0.2-2.2
			c-0.2-2.4,0-4.7,0.1-7c0,0.1,0.1,0.1,0.2,0.1c-0.1,2.8,0,5.6,0.3,8.4c0.2,1.4,0.3,3.4,1.8,4.1c1.5,0.7,2.7-1,3.2-2.2
			c0.9-1.9,1.2-3.7,1.1-5.8C93,160.7,93.1,160.8,93.3,160.8c0.1,2-0.2,3.9-0.8,5.7c-0.7,1.9-2.8,3.7-4.7,2.1c-0.7-0.6-1-1.6-1.2-2.6
			c0.2,1.3,0.7,2.7,2,3.2c1.6,0.5,3.2-0.6,3.8-2C93.2,165.2,93.6,162.8,93.3,160.8z"/>
	</g>
	<g id="XMLID_35_">
		<path id="XMLID_324_" class="st37" d="M130,59.3c-5.9-2.3-15.1-2.3-21.6-0.9c-1.1,0.2-5,1.6-5.3,1.7c-0.9,0.3-1.8,0.4-2.6,0.4v0
			c-0.1,0-0.3,0-0.4,0c-0.1,0-0.3,0-0.4,0v0c-0.9,0-1.8-0.1-2.6-0.4c-0.3-0.1-4.2-1.4-5.3-1.7c-6.5-1.4-15.7-1.4-21.6,0.9
			c0,1.6-0.4,3.7,0,5.4c0.2,0.8,1.2,1.8,1.6,2.6c1.4,2.5,2.1,6.4,3.9,8.4c2.2,2.4,7.3,2.6,11.5,2.4c6.2-0.4,7.8-3.8,9.8-8.6
			c0.7-1.6,1.2-3.8,2.7-4.1v0c0.1,0,0.3,0,0.4,0c0.1,0,0.2,0,0.4,0v0c1.6,0.3,2.1,2.5,2.7,4.1c2,4.9,3.6,8.2,9.8,8.6
			c4.2,0.3,9.3,0.1,11.5-2.4c1.8-1.9,2.5-5.8,3.9-8.4c0.4-0.8,1.4-1.7,1.6-2.6C130.4,63.1,129.9,61,130,59.3z M95.2,69.3
			c-0.8,3-1.9,5.1-3.9,6.3c-3,1.8-10.4,1.9-13.3,0c-2-1.3-2.8-3.8-3.3-7c-0.3-2.1-0.6-5.1,0.3-6.5c1.5-2.4,7.9-2.4,11.7-2.2
			c3.6,0.3,8.2,1.2,8.9,3.7C96.2,65.4,95.6,67.8,95.2,69.3z M125.4,68.6c-0.5,3.2-1.2,5.7-3.3,7c-2.9,1.9-10.3,1.8-13.3,0
			c-2-1.2-3.1-3.3-3.9-6.3c-0.4-1.4-1-3.9-0.5-5.6c0.7-2.5,5.3-3.5,8.9-3.7c3.9-0.3,10.2-0.2,11.7,2.2
			C126,63.5,125.8,66.5,125.4,68.6z"/>
		<g id="XMLID_36_">
			<g id="XMLID_321_">
				<path id="XMLID_10_" class="st38" d="M125.1,62.1c-1.5-2.4-7.9-2.4-11.7-2.2c-3.6,0.3-8.2,1.2-8.9,3.7c-0.5,1.7,0.1,4.2,0.5,5.6
					c0.8,3,1.9,5.1,3.9,6.3c3,1.8,10.4,1.9,13.3,0c2-1.3,2.8-3.8,3.3-7C125.7,66.5,126,63.5,125.1,62.1z"/>
				<path id="XMLID_9_" class="st38" d="M86.7,59.9c-3.9-0.3-10.2-0.2-11.7,2.2c-0.8,1.4-0.6,4.4-0.3,6.5c0.5,3.2,1.2,5.7,3.3,7
					c2.9,1.9,10.3,1.8,13.3,0c2-1.2,3.1-3.3,3.9-6.3c0.4-1.4,1-3.9,0.5-5.6C94.9,61.1,90.3,60.2,86.7,59.9z"/>
			</g>
			<g id="XMLID_37_">
				<g id="XMLID_312_">
					<defs>
						<filter id="Adobe_OpacityMaskFilter" filterUnits="userSpaceOnUse" x="75.7" y="59.8" width="14.4" height="16.9">
							<feFlood  style="flood-color:white;flood-opacity:1" result="back"/>
							<feBlend  in="SourceGraphic" in2="back" mode="normal"/>
						</filter>
					</defs>
					<mask maskUnits="userSpaceOnUse" x="75.7" y="59.8" width="14.4" height="16.9" id="XMLID_256_">
						<g id="XMLID_318_" class="st39">
							<defs>
								<filter id="Adobe_OpacityMaskFilter_1_" filterUnits="userSpaceOnUse" x="75.7" y="59.8" width="14.4" height="16.9">
									<feFlood  style="flood-color:white;flood-opacity:1" result="back"/>
									<feBlend  in="SourceGraphic" in2="back" mode="normal"/>
								</filter>
							</defs>
							<mask maskUnits="userSpaceOnUse" x="75.7" y="59.8" width="14.4" height="16.9" id="XMLID_256_">
								<g id="XMLID_320_" class="st40">
								</g>
							</mask>
							<linearGradient id="XMLID_258_" gradientUnits="userSpaceOnUse" x1="86.4958" y1="59.9559" x2="77.8193" y2="75.4795">
								<stop  offset="0" style="stop-color:#FFFFFF"/>
								<stop  offset="8.569065e-002" style="stop-color:#F4F4F4"/>
								<stop  offset="0.2341" style="stop-color:#D8D8D8"/>
								<stop  offset="0.4275" style="stop-color:#AAAAAA"/>
								<stop  offset="0.6585" style="stop-color:#6B6B6B"/>
								<stop  offset="0.9184" style="stop-color:#1B1B1B"/>
								<stop  offset="1" style="stop-color:#000000"/>
							</linearGradient>
							<path id="XMLID_7_" class="st41" d="M86.7,59.9c-1.3-0.1-2.9-0.2-4.4-0.1l-6.6,12.6c0.5,1.4,1.2,2.4,2.3,3.1
								c0.8,0.6,2.1,0.9,3.4,1.2l8.6-16.4C88.9,60.1,87.8,60,86.7,59.9z"/>
						</g>
					</mask>
					<linearGradient id="XMLID_259_" gradientUnits="userSpaceOnUse" x1="86.4958" y1="59.9559" x2="77.8193" y2="75.4795">
						<stop  offset="0" style="stop-color:#F7F7F7"/>
						<stop  offset="1" style="stop-color:#FFFFFF"/>
					</linearGradient>
					<path id="XMLID_8_" class="st42" d="M86.7,59.9c-1.3-0.1-2.9-0.2-4.4-0.1l-6.6,12.6c0.5,1.4,1.2,2.4,2.3,3.1
						c0.8,0.6,2.1,0.9,3.4,1.2l8.6-16.4C88.9,60.1,87.8,60,86.7,59.9z"/>
					<defs>
						<filter id="Adobe_OpacityMaskFilter_2_" filterUnits="userSpaceOnUse" x="84.2" y="61" width="9.4" height="15.9">
							<feFlood  style="flood-color:white;flood-opacity:1" result="back"/>
							<feBlend  in="SourceGraphic" in2="back" mode="normal"/>
						</filter>
					</defs>
					<mask maskUnits="userSpaceOnUse" x="84.2" y="61" width="9.4" height="15.9" id="XMLID_260_">
						<g id="XMLID_314_" class="st43">
							<defs>
								<filter id="Adobe_OpacityMaskFilter_3_" filterUnits="userSpaceOnUse" x="84.2" y="61" width="9.4" height="15.9">
									<feFlood  style="flood-color:white;flood-opacity:1" result="back"/>
									<feBlend  in="SourceGraphic" in2="back" mode="normal"/>
								</filter>
							</defs>
							<mask maskUnits="userSpaceOnUse" x="84.2" y="61" width="9.4" height="15.9" id="XMLID_260_">
								<g id="XMLID_316_" class="st44">
								</g>
							</mask>
							<linearGradient id="XMLID_261_" gradientUnits="userSpaceOnUse" x1="74.4265" y1="68.9856" x2="95.8576" y2="68.9856">
								<stop  offset="0" style="stop-color:#FFFFFF"/>
								<stop  offset="8.569065e-002" style="stop-color:#F4F4F4"/>
								<stop  offset="0.2341" style="stop-color:#D8D8D8"/>
								<stop  offset="0.4275" style="stop-color:#AAAAAA"/>
								<stop  offset="0.6585" style="stop-color:#6B6B6B"/>
								<stop  offset="0.9184" style="stop-color:#1B1B1B"/>
								<stop  offset="1" style="stop-color:#000000"/>
							</linearGradient>
							<path id="XMLID_5_" class="st45" d="M92.6,61l-8.4,15.9c0.4,0,0.8,0,1.2,0l8.2-15.4C93.3,61.3,92.9,61.2,92.6,61z"/>
						</g>
					</mask>
					<linearGradient id="XMLID_262_" gradientUnits="userSpaceOnUse" x1="74.4265" y1="68.9856" x2="95.8576" y2="68.9856">
						<stop  offset="0" style="stop-color:#F7F7F7"/>
						<stop  offset="1" style="stop-color:#FFFFFF"/>
					</linearGradient>
					<path id="XMLID_6_" class="st46" d="M92.6,61l-8.4,15.9c0.4,0,0.8,0,1.2,0l8.2-15.4C93.3,61.3,92.9,61.2,92.6,61z"/>
				</g>
				<g id="XMLID_38_">
					<defs>
						<filter id="Adobe_OpacityMaskFilter_4_" filterUnits="userSpaceOnUse" x="106" y="59.8" width="14.5" height="16.7">
							<feFlood  style="flood-color:white;flood-opacity:1" result="back"/>
							<feBlend  in="SourceGraphic" in2="back" mode="normal"/>
						</filter>
					</defs>
					<mask maskUnits="userSpaceOnUse" x="106" y="59.8" width="14.5" height="16.7" id="XMLID_263_">
						<g id="XMLID_309_" class="st47">
							<defs>
								<filter id="Adobe_OpacityMaskFilter_5_" filterUnits="userSpaceOnUse" x="106" y="59.8" width="14.5" height="16.7">
									<feFlood  style="flood-color:white;flood-opacity:1" result="back"/>
									<feBlend  in="SourceGraphic" in2="back" mode="normal"/>
								</filter>
							</defs>
							<mask maskUnits="userSpaceOnUse" x="106" y="59.8" width="14.5" height="16.7" id="XMLID_263_">
								<g id="XMLID_311_" class="st48">
								</g>
							</mask>
							<linearGradient id="XMLID_299_" gradientUnits="userSpaceOnUse" x1="107.9923" y1="75.1622" x2="117.162" y2="59.5396">
								<stop  offset="0" style="stop-color:#FFFFFF"/>
								<stop  offset="8.569065e-002" style="stop-color:#F4F4F4"/>
								<stop  offset="0.2341" style="stop-color:#D8D8D8"/>
								<stop  offset="0.4275" style="stop-color:#AAAAAA"/>
								<stop  offset="0.6585" style="stop-color:#6B6B6B"/>
								<stop  offset="0.9184" style="stop-color:#1B1B1B"/>
								<stop  offset="1" style="stop-color:#000000"/>
							</linearGradient>
							<path id="XMLID_3_" class="st49" d="M113.4,59.9c-0.3,0-0.6,0.1-1,0.1L106,72.1c0.7,1.5,1.6,2.7,2.9,3.4
								c0.7,0.4,1.7,0.7,2.8,1l8.8-16.5C118.1,59.7,115.4,59.8,113.4,59.9z"/>
						</g>
					</mask>
					<linearGradient id="XMLID_308_" gradientUnits="userSpaceOnUse" x1="107.9923" y1="75.1622" x2="117.162" y2="59.5396">
						<stop  offset="0" style="stop-color:#F7F7F7"/>
						<stop  offset="1" style="stop-color:#FFFFFF"/>
					</linearGradient>
					<path id="XMLID_4_" class="st50" d="M113.4,59.9c-0.3,0-0.6,0.1-1,0.1L106,72.1c0.7,1.5,1.6,2.7,2.9,3.4c0.7,0.4,1.7,0.7,2.8,1
						l8.8-16.5C118.1,59.7,115.4,59.8,113.4,59.9z"/>
					<defs>
						<filter id="Adobe_OpacityMaskFilter_6_" filterUnits="userSpaceOnUse" x="114.3" y="60.6" width="9.7" height="16.3">
							<feFlood  style="flood-color:white;flood-opacity:1" result="back"/>
							<feBlend  in="SourceGraphic" in2="back" mode="normal"/>
						</filter>
					</defs>
					<mask maskUnits="userSpaceOnUse" x="114.3" y="60.6" width="9.7" height="16.3" id="XMLID_310_">
						<g id="XMLID_257_" class="st51">
							<defs>
								<filter id="Adobe_OpacityMaskFilter_7_" filterUnits="userSpaceOnUse" x="114.3" y="60.6" width="9.7" height="16.3">
									<feFlood  style="flood-color:white;flood-opacity:1" result="back"/>
									<feBlend  in="SourceGraphic" in2="back" mode="normal"/>
								</filter>
							</defs>
							<mask maskUnits="userSpaceOnUse" x="114.3" y="60.6" width="9.7" height="16.3" id="XMLID_310_">
								<g id="XMLID_307_" class="st52">
								</g>
							</mask>
							<linearGradient id="XMLID_313_" gradientUnits="userSpaceOnUse" x1="123.6268" y1="60.886" x2="114.8382" y2="76.8282">
								<stop  offset="0" style="stop-color:#FFFFFF"/>
								<stop  offset="8.569065e-002" style="stop-color:#F4F4F4"/>
								<stop  offset="0.2341" style="stop-color:#D8D8D8"/>
								<stop  offset="0.4275" style="stop-color:#AAAAAA"/>
								<stop  offset="0.6585" style="stop-color:#6B6B6B"/>
								<stop  offset="0.9184" style="stop-color:#1B1B1B"/>
								<stop  offset="1" style="stop-color:#000000"/>
							</linearGradient>
							<path id="XMLID_1_" class="st53" d="M123,60.6l-8.7,16.3c0.4,0,0.8,0,1.3,0l8.5-15.9C123.7,60.9,123.4,60.7,123,60.6z"/>
						</g>
					</mask>
					<linearGradient id="XMLID_315_" gradientUnits="userSpaceOnUse" x1="123.6268" y1="60.886" x2="114.8382" y2="76.8282">
						<stop  offset="0" style="stop-color:#F7F7F7"/>
						<stop  offset="1" style="stop-color:#FFFFFF"/>
					</linearGradient>
					<path id="XMLID_2_" class="st54" d="M123,60.6l-8.7,16.3c0.4,0,0.8,0,1.3,0l8.5-15.9C123.7,60.9,123.4,60.7,123,60.6z"/>
				</g>
			</g>
		</g>
	</g>
</g>
</svg>
