<?xml version="1.0" encoding="utf-8"?>
<!-- Generator: Adobe Illustrator 19.0.0, SVG Export Plug-In . SVG Version: 6.00 Build 0)  -->
<svg version="1.1" id="Capa_1" xmlns="http://www.w3.org/2000/svg" xmlns:xlink="http://www.w3.org/1999/xlink" x="0px" y="0px"
	 viewBox="0 0 200 200" style="enable-background:new 0 0 200 200;" xml:space="preserve">
<style type="text/css">
	.st0{fill:#845E2F;}
	.st1{fill:#4C3515;}
	.st2{fill:#3B2709;}
	.st3{fill:#644621;}
	.st4{fill:#EBE7DE;}
</style>
<g id="XMLID_2_">
	<path id="XMLID_13_" class="st0" d="M153.9,113.1c2.9-1.3,5.9-2,8.9-2.4c-8.8-2.4-21.2,4.1-23.9,5.2c-2.6,1.1-19.3,3.7-38.9,3.6
		c-19.6,0.1-36.2-2.5-38.9-3.6c-2.1-0.9-10.1-5-17.7-5.7c10.9,5.9,23,9.2,35.3,10.4C103.9,122.6,130.4,123.6,153.9,113.1z"/>
	<path id="XMLID_12_" class="st1" d="M74.8,164.1c17.3,4.2,33.7,2.3,51-1.3c0,0,1.3-0.7,1.6-0.7c1.6-0.7,3.6-1,5.2-1.3
		c1.3-0.7,2.6-1.3,3.6-1.6c17.8-4.4,32.4-16.9,35.7-34.3c-0.6-8.9-4.4-12.8-9.1-14.2c-3,0.4-6,1.1-8.9,2.4
		c-23.5,10.5-50,9.5-75.2,7.5c-12.4-1.2-24.5-4.5-35.3-10.4c-7.7-0.6-15.1,2.4-15.4,16.2c-0.1,5.4,1.3,10.4,4,15
		c1.3,1.1,2.6,2.1,3.9,3.1C47.4,154,60.1,160.5,74.8,164.1z"/>
	<path id="XMLID_11_" class="st2" d="M172,124.9c-3.3,17.4-17.9,29.9-35.7,34.3c-1,0.3-2.3,1-3.6,1.6c-1.6,0.3-3.6,0.7-5.2,1.3
		c-0.3,0-1.6,0.7-1.6,0.7c-17.3,3.6-33.7,5.6-51,1.3c-14.7-3.6-27.5-10.1-38.9-19.6c-1.3-1-2.6-2-3.9-3.1c10.8,18,41.2,28.7,68,29
		c33.5-0.5,72.7-17,72-44C172,125.9,172,125.4,172,124.9z"/>
	<g id="XMLID_3_">
		<path id="XMLID_10_" class="st1" d="M138.7,127.8c0-3.3,0-6.4,0.1-9.6c-19.4,4.9-40.2,3.9-60.1,2.4c-6.2-0.6-12.2-1.7-18.2-3.4
			c-0.5,6.6-1.1,10.6-1.1,10.6C102.3,156.1,138.7,127.8,138.7,127.8z"/>
		<path id="XMLID_9_" class="st0" d="M61.1,64.4c-0.6-5.8-2.7-11.3-4.6-16.8c-1.8-0.8-2.8-1.7-2.8-2.6c-0.2,0.7,0,1.1,0,1.1
			c8.5,27,8,56,6.8,71.2c1.1,0.3,2.3,0.6,3.4,0.9C65,100.3,62.6,82.6,61.1,64.4z"/>
		<path id="XMLID_8_" class="st1" d="M99.9,52.7c-20,0-37-2.1-43.5-5.1c1.9,5.5,3.9,11,4.6,16.8c1.6,18.2,3.9,35.9,2.9,53.7
			c4.8,1.2,9.8,2,14.8,2.5c19,1.5,38.8,2.4,57.5-1.8c0.7-24,2.9-48,7.6-71.5C137.7,50.5,120.4,52.7,99.9,52.7z"/>
		<path id="XMLID_7_" class="st0" d="M146.1,45.4c-0.3,0.7-1,1.3-2.3,2c-4.7,23.5-6.9,47.5-7.6,71.5c0.9-0.2,1.7-0.4,2.6-0.6
			C139.7,75.8,146,45.8,146.1,45.4z"/>
		<path id="XMLID_6_" class="st3" d="M131,41.9c-18.3-3.6-36.3-3.3-54.3-2.3c-7.9,0.3-15.8,2.1-23,5.2c0,0,0,0.1,0,0.1
			c0,4.3,20.7,7.7,46.2,7.7c24.5,0,44.6-3.2,46.1-7.3c0-0.1,0-0.2,0-0.3C141.2,43.8,136.3,42.7,131,41.9z"/>
		<path id="XMLID_5_" class="st0" d="M131,41.9c5.2,0.8,10.2,1.9,15,3.3c0-0.5-0.2-1.1-1-1.9c-4.4-3.4-22.5-6-44.3-6.1
			c-2.8,0-5.5,0-8,0.1c-16.9,0.4-30.8,2.4-36.4,5c-1.7,0.9-2.4,1.8-2.7,2.5c7.2-3.1,15.1-5,23-5.2C94.8,38.6,112.7,38.3,131,41.9z"
			/>
		<path id="XMLID_4_" class="st4" d="M61.1,108.7c-0.5,11.9-1.6,19.1-1.6,19.1c42.8,28.3,79.2,0,79.2,0s0.1-10.3,0.4-20.4
			C133.6,111.3,99.2,132.4,61.1,108.7z"/>
	</g>
</g>
</svg>
