<?xml version="1.0" encoding="utf-8"?>
<!-- Generator: Adobe Illustrator 19.0.0, SVG Export Plug-In . SVG Version: 6.00 Build 0)  -->
<svg version="1.1" id="Capa_1" xmlns="http://www.w3.org/2000/svg" xmlns:xlink="http://www.w3.org/1999/xlink" x="0px" y="0px"
	 viewBox="0 0 200 200" style="enable-background:new 0 0 200 200;" xml:space="preserve">
<style type="text/css">
	.st0{fill:#8B6239;}
	.st1{fill:#754C24;}
	.st2{fill:#603813;}
	.st3{fill:#42210B;}
	.st4{fill:#57D4D9;}
	.st5{fill:#333333;}
	.st6{fill:none;stroke:#E5E5E5;stroke-width:1.1999;stroke-miterlimit:10;}
	.st7{fill:#B2B2B2;}
	.st8{fill:#F1F1F1;}
	.st9{fill:#E5E5E5;}
	.st10{fill:#FFDAA2;}
	.st11{fill:none;stroke:#B2B2B2;stroke-width:0.4906;stroke-miterlimit:10;}
	.st12{fill:#FF7257;}
	.st13{fill:#F7D197;}
	.st14{fill:#1A1A1A;}
</style>
<g id="XMLID_83_">
	<g id="XMLID_91_">
		<g id="XMLID_92_">
			<rect id="XMLID_31_" x="44.5" y="120.3" class="st0" width="111.3" height="57.8"/>
			<rect id="XMLID_30_" x="44.5" y="120.3" class="st1" width="8.4" height="57.8"/>
			<rect id="XMLID_29_" x="147.3" y="120.3" class="st1" width="8.4" height="57.8"/>
			<g id="XMLID_114_">
				<g id="XMLID_119_">
					<path id="XMLID_28_" class="st2" d="M97.2,189.1c0,0.5-0.4,0.9-0.9,0.9H84.6c-0.5,0-0.9-0.4-0.9-0.9v-6.4
						c0-0.5,0.4-0.9,0.9-0.9h11.7c0.5,0,0.9,0.4,0.9,0.9V189.1z"/>
					<path id="XMLID_27_" class="st3" d="M83.7,189.4c0.1,0.4,0.4,0.6,0.8,0.6h11.7c0.4,0,0.7-0.3,0.8-0.6H83.7z"/>
					<path id="XMLID_26_" class="st4" d="M97.8,183.2c0,1.2-1.2,2.2-2.7,2.2h-8.7c-1.5,0-2.7-1-2.7-2.2v-30c0-1.2,1.2-2.2,2.7-2.2
						h8.7c1.5,0,2.7,1,2.7,2.2V183.2z"/>
				</g>
				<g id="XMLID_115_">
					<path id="XMLID_25_" class="st2" d="M116.2,189.1c0,0.5-0.4,0.9-0.9,0.9h-11.7c-0.5,0-0.9-0.4-0.9-0.9v-6.4
						c0-0.5,0.4-0.9,0.9-0.9h11.7c0.5,0,0.9,0.4,0.9,0.9V189.1z"/>
					<path id="XMLID_24_" class="st3" d="M102.8,189.4c0.1,0.4,0.4,0.6,0.8,0.6h11.7c0.4,0,0.7-0.3,0.8-0.6H102.8z"/>
					<path id="XMLID_23_" class="st4" d="M116.5,183.2c0,1.2-1.2,2.2-2.7,2.2h-8.7c-1.5,0-2.7-1-2.7-2.2v-30c0-1.2,1.2-2.2,2.7-2.2
						h8.7c1.5,0,2.7,1,2.7,2.2V183.2z"/>
				</g>
			</g>
			<path id="XMLID_22_" class="st5" d="M102.7,191.1c0,1.5-0.9-1.1-1.9-1.1h-1.4c-1.1,0-1.9,2.6-1.9,1.1v-39.3
				c0-1.5,0.9-2.7,1.9-2.7h1.4c1.1,0,1.9,1.2,1.9,2.7V191.1z"/>
			<path id="XMLID_21_" class="st2" d="M163.1,119c0,0.9-0.7,1.5-1.5,1.5H38.7c-0.9,0-1.5-0.7-1.5-1.5l0,0c0-0.9,0.7-1.5,1.5-1.5
				h122.9C162.4,117.5,163.1,118.2,163.1,119L163.1,119z"/>
			<g id="XMLID_107_">
				<path id="XMLID_20_" class="st6" d="M142.5,110.2c0,0,1.8-1.3,2.3,0c0.5,1.3-0.3,3.1-1.1,3.5c-0.8,0.4-2.5-0.4-2.5-0.4"/>
				<path id="XMLID_19_" class="st7" d="M131.3,116.7c0,0.4,0.4,0.7,0.8,0.7h11.1c0.4,0,0.8-0.3,0.8-0.7H131.3z"/>
				<path id="XMLID_18_" class="st8" d="M132.6,108.8v2.7c0,2.8,2.3,5.1,5.1,5.1c2.8,0,5.1-2.3,5.1-5.1v-2.7H132.6z"/>
				<rect id="XMLID_17_" x="130.6" y="116.3" class="st9" width="14.2" height="0.7"/>
			</g>
			<g id="XMLID_96_">
				<path id="XMLID_16_" class="st10" d="M104.3,90.7c0,0-0.6,2.3-4.5,2.3c-3.8,0-4.5-2.3-4.5-2.3V79.9h8.9V90.7z"/>
				<path id="XMLID_15_" class="st11" d="M99.9,95.6"/>
				<path id="XMLID_14_" class="st11" d="M99.9,93"/>
				<path id="XMLID_13_" class="st12" d="M133.5,118.6c-4-8-12.5-25.7-14.1-27c-1.6-1.4-10.1-2.7-15-2.7h-8.9
					c-4.9,0-13.4,1.4-15,2.7c-1.6,1.4-10.1,19-14.1,27c-4,8,1.1,8.6,1.1,8.6h14v-6.7c-2.1-0.7-6.5-1.5-6.5-1.5
					c1.4-3.3,9.2-18.3,9.2-18.3l0.8,25.9h15h15l0.8-25.9c0,0,7.9,15,9.2,18.3c0,0-4.5,0.8-6.5,1.5v6.7h14
					C132.4,127.2,137.5,126.6,133.5,118.6z"/>
				<g id="XMLID_97_">
					<path id="XMLID_12_" class="st13" d="M87.9,67.6c0,0-2.2-2.2-2.9-0.9c-1.7,2.8,1.3,3.9,1.5,6.6c0.1,1.9,1.4,1.9,2,1
						C88.9,73.3,88.7,68.2,87.9,67.6z"/>
					<path id="XMLID_11_" class="st13" d="M111.8,67.6c0,0,2.2-2.2,2.9-0.9c1.7,2.8-1.3,3.9-1.5,6.6c-0.1,1.9-1.4,1.9-2,1
						C110.8,73.3,111,68.2,111.8,67.6z"/>
					<path id="XMLID_98_" class="st3" d="M113.4,53.9c-2.6-2.7-6.3-4.4-9.5-4.7c-3.1-0.3-6.6-1-8.3-2.8c0,0,0.8,2.3,1.9,2.4
						c0,0-7.3,1.3-12-0.3c0,0,1.3,3.5,4.3,4.2c0,0-6.2,1.5-9.9,0.2c0,0,2,4.1,5.3,6.7c-0.1,2.1,0.7,6.7,0.7,6.7C86.3,70,88,76,88,76
						v0c0.2,1.4,0.7,3,1.5,4.1c3.1,4.4,10.3,4.4,10.3,4.4s7.2,0,10.3-4.4c1.2-1.6,1.6-3.9,1.7-5.8c0,0,0.4-2.6,1.1-7.7
						C113,66.7,116,56.6,113.4,53.9z M104.6,59.7C104.6,59.7,104.6,59.7,104.6,59.7C104.6,59.7,104.6,59.7,104.6,59.7L104.6,59.7z"
						/>
				</g>
			</g>
			<path id="XMLID_8_" class="st14" d="M125.2,154.2c0,1.1-0.9,1.9-1.9,1.9H76.5c-1.1,0-1.9-0.9-1.9-1.9v-4.9c0-1.1,0.9-1.9,1.9-1.9
				h46.8c1.1,0,1.9,0.9,1.9,1.9V154.2z"/>
			<path id="XMLID_7_" class="st5" d="M125.4,144.2c0,3.7-3.1,6.7-7,6.7H81.7c-3.9,0-7-3-7-6.7V93.8c0-3.7,3.1-6.7,7-6.7h36.7
				c3.9,0,7,3,7,6.7V144.2z"/>
			<path id="XMLID_6_" class="st14" d="M127.9,192.2c-1.1-2.5-13.2-4.4-28-4.4c-14.8,0-26.9,1.9-28,4.4H127.9z"/>
		</g>
	</g>
</g>
</svg>
