<?xml version="1.0" encoding="utf-8"?>
<!-- Generator: Adobe Illustrator 19.0.0, SVG Export Plug-In . SVG Version: 6.00 Build 0)  -->
<svg version="1.1" id="Capa_1" xmlns="http://www.w3.org/2000/svg" xmlns:xlink="http://www.w3.org/1999/xlink" x="0px" y="0px"
	 viewBox="0 0 200 200" style="enable-background:new 0 0 200 200;" xml:space="preserve">
<style type="text/css">
	.st0{fill:#FFFFFF;}
	.st1{fill:#F0D6BB;}
	.st2{fill:#E3E3E3;}
	.st3{fill:#C49A6D;}
	.st4{fill:#6498B9;}
	.st5{fill:#2D688D;}
	.st6{fill:#8AC43F;}
	.st7{fill:#C0F083;}
	.st8{fill:#C05749;}
	.st9{fill:#603813;}
	.st10{fill:#57D4D9;}
	.st11{fill:#F6921E;}
	.st12{fill:#FF7257;}
	.st13{fill:#F1F1F1;}
	.st14{font-family:'Roboto-Black';}
	.st15{font-size:10.5993px;}
</style>
<g id="XMLID_2_">
	<g id="XMLID_17_">
		<polygon id="XMLID_35_" class="st0" points="146.5,111.8 123.4,141.8 100.7,48.9 123.8,18.9 		"/>
		<polygon id="XMLID_34_" class="st1" points="145.2,106.8 122.2,136.8 101.9,53.9 125,23.9 		"/>
		
			<rect id="XMLID_33_" x="65.3" y="53.1" transform="matrix(0.9715 -0.2369 0.2369 0.9715 -21.3841 23.9564)" class="st2" width="47.5" height="95.7"/>
		
			<rect id="XMLID_32_" x="65.3" y="58.3" transform="matrix(0.9715 -0.2369 0.2369 0.9715 -21.3808 23.9509)" class="st3" width="47.5" height="85.4"/>
		<polygon id="XMLID_31_" class="st0" points="77.3,153 43.2,181.1 20.6,88.2 54.6,60.1 		"/>
		<polygon id="XMLID_30_" class="st1" points="76,148 42,176.1 21.8,93.2 55.8,65.1 		"/>
		<polygon id="XMLID_29_" class="st4" points="120.4,129.7 143.6,100.2 127.2,32.8 117.3,116.9 		"/>
		
			<rect id="XMLID_28_" x="58.6" y="70.4" transform="matrix(0.9715 -0.2368 0.2368 0.9715 -15.1117 21.5995)" class="st5" width="47.5" height="6.7"/>
		<polygon id="XMLID_27_" class="st4" points="26.1,110.8 60.1,82.6 58.5,76.1 24.5,104.3 		"/>
		<polygon id="XMLID_26_" class="st4" points="106.2,71.3 128.8,39.3 127.2,32.8 104.6,64.8 		"/>
		
			<rect id="XMLID_25_" x="73.6" y="127.4" transform="matrix(-0.9715 0.2369 -0.2369 -0.9715 223.7999 243.1439)" class="st6" width="47.5" height="15.2"/>
		<polygon id="XMLID_24_" class="st5" points="74.3,140.9 120.4,129.7 117.3,116.9 71.2,128.2 		"/>
		<polygon id="XMLID_23_" class="st7" points="42.1,97.7 71.2,128.2 76,148 58.1,163.1 		"/>
		<polygon id="XMLID_22_" class="st4" points="74.3,140.9 40.4,169.7 37.3,156.9 71.2,128.2 		"/>
		<polygon id="XMLID_21_" class="st4" points="58.1,163.1 50.6,169.2 30.4,86.3 37.8,80.2 		"/>
		<path id="XMLID_18_" class="st8" d="M95.7,72.8c-1.9,0.5-3.1,2.3-2.7,4.1c0.4,1.8,3,5.6,4.9,5.2c1.9-0.5,2.4-5,2-6.8
			C99.5,73.4,97.6,72.3,95.7,72.8z M96.9,77.8c-1.1,0.3-2.1-0.3-2.4-1.3c-0.2-1,0.4-2,1.5-2.3c1.1-0.3,2.1,0.3,2.4,1.4
			C98.7,76.5,98,77.6,96.9,77.8z"/>
	</g>
	<g id="XMLID_13_">
		<polygon id="XMLID_16_" class="st9" points="116.4,146.1 115.1,147.2 101,87.1 102.5,87.5 		"/>
		
			<rect id="XMLID_15_" x="106.6" y="86.4" transform="matrix(0.9734 -0.2292 0.2292 0.9734 -24.0252 27.72)" class="st10" width="1.5" height="61.7"/>
		
			<rect id="XMLID_14_" x="108.9" y="81.2" transform="matrix(0.9733 -0.2296 0.2296 0.9733 -22.2652 32.7544)" class="st10" width="41.4" height="61.7"/>
	</g>
	<g id="XMLID_9_">
		<polygon id="XMLID_12_" class="st9" points="139,148.5 137.7,149.6 123.5,89.6 125.1,90 		"/>
		
			<rect id="XMLID_11_" x="129.2" y="88.9" transform="matrix(0.9732 -0.2299 0.2299 0.9732 -24.0515 33.077)" class="st11" width="1.5" height="61.7"/>
		
			<rect id="XMLID_10_" x="131.5" y="83.6" transform="matrix(0.9733 -0.2296 0.2296 0.9733 -22.2266 38.0094)" class="st11" width="41.4" height="61.7"/>
	</g>
	<g id="XMLID_3_">
		<g id="XMLID_5_">
			<polygon id="XMLID_8_" class="st9" points="131.6,161 130.3,162.1 116.2,102 117.8,102.5 			"/>
			
				<rect id="XMLID_7_" x="121.8" y="101.4" transform="matrix(0.9733 -0.2296 0.2296 0.9733 -27.0862 31.6621)" class="st12" width="1.5" height="61.7"/>
			
				<rect id="XMLID_6_" x="124.1" y="96.1" transform="matrix(0.9733 -0.2296 0.2296 0.9733 -25.2911 36.6448)" class="st12" width="41.4" height="61.7"/>
		</g>
		<text id="XMLID_4_" transform="matrix(0.9733 -0.2296 0.2296 0.9733 129.3309 126.658)"><tspan x="0" y="0" class="st13 st14 st15">GUIDE</tspan><tspan x="1.2" y="12.7" class="st13 st14 st15">BOOK</tspan></text>
	</g>
</g>
</svg>
