<?xml version="1.0" encoding="utf-8"?>
<!-- Generator: Adobe Illustrator 19.0.0, SVG Export Plug-In . SVG Version: 6.00 Build 0)  -->
<svg version="1.1" id="Capa_1" xmlns="http://www.w3.org/2000/svg" xmlns:xlink="http://www.w3.org/1999/xlink" x="0px" y="0px"
	 viewBox="0 0 200 200" style="enable-background:new 0 0 200 200;" xml:space="preserve">
<style type="text/css">
	.st0{fill:#EFE5C0;}
	.st1{fill:#FCCE7B;}
	.st2{fill:#AB8F57;}
	.st3{fill:#CBA866;}
	.st4{fill:#5E4F2D;}
	.st5{fill:#9E8450;}
</style>
<g id="XMLID_85_">
	<g id="XMLID_167_">
		<g id="XMLID_172_">
			<circle id="XMLID_179_" class="st0" cx="142" cy="130" r="31.5"/>
			<path id="XMLID_178_" class="st1" d="M142.8,96.7c-0.3,0-0.5,0-0.8,0c-18.4,0-33.4,15-33.4,33.4c0,1,0.1,2,0.1,3
				C109.6,114.2,124,98.4,142.8,96.7z"/>
			<path id="XMLID_177_" class="st2" d="M124.7,158.5c5.1,3.1,11,4.9,17.4,4.9c9.9,0,18.8-4.3,24.9-11.2
				C155.1,161.5,137.7,164.9,124.7,158.5z"/>
			<path id="XMLID_174_" class="st3" d="M142.9,96.7C142.8,96.7,142.8,96.7,142.9,96.7c-18.9,1.8-33.3,17.6-34.1,36.3
				c1,10.8,7.1,20.2,15.9,25.6c13,6.4,30.4,2.9,42.3-6.3c4.7-5.3,7.8-12.1,8.4-19.5c0-0.2,0-0.4,0-0.7c0-8.5-3.1-16.9-8.9-23.9
				C160,101.7,151.9,98.7,142.9,96.7z M142,159.6c-16.3,0-29.6-13.3-29.6-29.6s13.3-29.6,29.6-29.6c16.3,0,29.6,13.3,29.6,29.6
				S158.3,159.6,142,159.6z"/>
			<path id="XMLID_173_" class="st1" d="M155.9,99.6c-4-1.8-8.4-2.9-13-3c9,2,17.1,5.1,23.6,11.5c5.8,7,8.9,15.4,8.9,23.9
				c0-0.7,0.1-1.3,0.1-2C175.4,116.6,167.4,104.9,155.9,99.6z"/>
		</g>
		<g id="XMLID_168_">
			<path id="XMLID_169_" class="st4" d="M142,156.6c-14.6,0-26.6-11.9-26.6-26.6c0-14.6,11.9-26.6,26.6-26.6
				c14.6,0,26.6,11.9,26.6,26.6C168.6,144.7,156.7,156.6,142,156.6z M142,105.4c-13.6,0-24.6,11.1-24.6,24.6
				c0,13.6,11.1,24.6,24.6,24.6c13.6,0,24.6-11.1,24.6-24.6C166.7,116.4,155.6,105.4,142,105.4z"/>
		</g>
	</g>
	<g id="XMLID_156_">
		<path id="XMLID_166_" class="st4" d="M157,129l-11.5,0c-0.4-1.2-1.3-2.1-2.5-2.5v-16c0-0.6-0.5-1-1-1c-0.6,0-1,0.5-1,1v16
			c-1.5,0.5-2.6,1.8-2.6,3.5c0,2,1.6,3.7,3.7,3.7c1.7,0,3.1-1.1,3.5-2.6H157c0.4,0,0.8-0.5,0.8-1C157.8,129.5,157.4,129,157,129z"/>
		<rect id="XMLID_165_" x="141.6" y="106.4" class="st4" width="1" height="2.1"/>
		<rect id="XMLID_164_" x="163.6" y="129.6" class="st4" width="2.1" height="1"/>
		<rect id="XMLID_163_" x="141.6" y="151.6" class="st4" width="1" height="2.1"/>
		<rect id="XMLID_162_" x="118.4" y="129.6" class="st4" width="2.1" height="1"/>
		
			<rect id="XMLID_161_" x="125.1" y="113.5" transform="matrix(0.7034 0.7108 -0.7108 0.7034 118.4184 -55.8528)" class="st4" width="2.1" height="1"/>
		
			<rect id="XMLID_160_" x="157.8" y="113.3" transform="matrix(0.6951 0.7189 -0.7189 0.6951 130.419 -78.9334)" class="st4" width="1" height="2.1"/>
		
			<rect id="XMLID_159_" x="156.6" y="145.9" transform="matrix(0.6889 0.7249 -0.7249 0.6889 155.1697 -68.7018)" class="st4" width="2.1" height="1"/>
		
			<rect id="XMLID_158_" x="125" y="144.4" transform="matrix(0.6813 0.732 -0.732 0.6813 146.4684 -45.5116)" class="st4" width="1" height="2.1"/>
		<rect id="XMLID_157_" x="134.6" y="141.1" class="st4" width="14.4" height="1"/>
	</g>
	<g id="XMLID_152_">
		<path id="XMLID_155_" class="st1" d="M99,96.5C93.3,99,89,113.1,89,130c0,15.8,3.8,29.1,8.9,32.9C88.7,142.3,88.6,116.5,99,96.5z"
			/>
		<path id="XMLID_154_" class="st3" d="M112.6,130c0-18.8-5.3-34-11.8-34c-0.6,0-1.2,0.1-1.8,0.4c-10.4,20.1-10.3,45.9-1.1,66.4
			c0.9,0.7,1.9,1.1,3,1.1C107.3,164,112.6,148.8,112.6,130z"/>
		<path id="XMLID_153_" class="st4" d="M112.6,130c0,18.8-5.1,34-11.8,34c-3.3,0-5.9-15.2-5.9-34c0-18.8,2.6-34,5.9-34
			C106.9,96.1,112.6,111.3,112.6,130z"/>
	</g>
	<g id="XMLID_86_">
		<path id="XMLID_151_" class="st2" d="M141,98.5c-0.9-0.3-1.9-1-2.2-2c0.3,1.6,1.7,2.8,3.3,2.8c1.3,0,2.4-0.7,3-1.8
			C144,98.5,142.5,98.9,141,98.5z"/>
		<path id="XMLID_150_" class="st1" d="M139.9,85.6c-2.1,0.9-3.6,3-3.6,5.4c0,0.7,0.1,1.4,0.4,2C136.2,90.2,137.2,87.2,139.9,85.6z"
			/>
		<path id="XMLID_149_" class="st2" d="M143.5,86.4c2,0.6,3.5,2.5,3.5,4.7c0,1.1-0.4,2.2-1,3c0.7-0.7,1.3-1.4,1.4-2.4
			C147.6,89.4,146,86.6,143.5,86.4z"/>
		<path id="XMLID_148_" class="st2" d="M137.2,91.1c0-0.2,0-0.4,0-0.5c-0.3,1.8-0.2,3.6,1.6,4.6c0-0.1,0-0.3,0-0.4
			C137.9,93.8,137.2,92.5,137.2,91.1z"/>
		<path id="XMLID_145_" class="st3" d="M144.6,85.8c-0.8-0.4-1.6-0.6-2.5-0.6c-0.8,0-1.5,0.2-2.2,0.4c-2.7,1.6-3.7,4.5-3.3,7.4
			c0.4,1.1,1.1,2,2.1,2.7c0,0,0-0.1,0-0.1c0,0,0,0.1,0,0.1c0,0,0,0,0.1,0c0,0,0,0,0,0c0,0.2,0,0.4,0.1,0.6c0.3,1,1.4,1.7,2.2,2
			c1.5,0.5,3,0,4.1-1c0.3-0.5,0.4-1,0.4-1.6c0,0,0,0,0,0c1.1-0.8,2-2,2.3-3.4C147.9,89.8,147,87.1,144.6,85.8z M147.4,91.7
			c-0.2,1-0.7,1.7-1.4,2.4c-0.2,0.2-0.3,0.4-0.5,0.6c0,0,0,0,0,0c0,0,0,0,0,0c-0.1,0-0.1,0.1-0.2,0.1c-0.1-0.3-0.2-0.5-0.4-0.7
			c-1.5-1.4-4-1.5-5.6-0.1c-0.2,0.3-0.3,0.5-0.4,0.8c0,0,0,0-0.1-0.1c0,0.1,0,0.2,0,0.4c-1.8-1-2-2.8-1.6-4.6c0-0.4,0.2-0.8,0.3-1.2
			c0-0.1,0-0.1,0.1-0.2c0.3-0.8,0.7-1.4,1.4-1.8c0.8-0.7,1.9-1.1,3.1-1.1c0.5,0,0.9,0.1,1.4,0.2C146,86.6,147.6,89.4,147.4,91.7z"/>
		<path id="XMLID_144_" class="st3" d="M139,87.3c-0.7,0.5-1.2,1.1-1.4,1.8c0,0.1,0,0.1-0.1,0.2C137.8,88.5,138.4,87.8,139,87.3z"/>
		<path id="XMLID_143_" class="st1" d="M148,91.1c0-2.3-1.4-4.4-3.3-5.3c2.3,1.3,3.3,4,3.2,6.7C147.9,92,148,91.5,148,91.1z"/>
		<path id="XMLID_142_" class="st1" d="M142.1,92.5c-1.1,0-2.1,0.6-2.7,1.4c1.6-1.4,4.1-1.3,5.6,0.1
			C144.3,93.1,143.3,92.5,142.1,92.5z"/>
		<g id="XMLID_127_">
			<path id="XMLID_141_" class="st3" d="M140.6,49.2c0.1,0.2,0.1,0.3,0.2,0.4C140.8,49.5,140.7,49.3,140.6,49.2
				C140.7,49.2,140.6,49.2,140.6,49.2z"/>
			<path id="XMLID_140_" class="st2" d="M141.6,49c-0.1-0.1-0.1-0.3-0.2-0.4c-0.3,0.1-0.5,0.3-0.7,0.5c0,0.2,0.1,0.3,0.1,0.5
				c0,0.1,0.1,0.1,0.1,0.2C141.1,49.5,141.3,49.2,141.6,49z"/>
			<path id="XMLID_139_" class="st1" d="M141.1,42.7c0.2-0.4,0.6-0.7,1-0.6c0.3,0.1,0.5,0.2,0.6,0.5c0,0,0,0,0,0
				c-0.2-0.4-0.5-0.7-1-0.7c-1.3,0-1.6,2.6-1.6,4.2c0,0.9,0.1,2.2,0.5,3.1c0,0,0-0.1,0.1-0.1C140.2,47,140,44.7,141.1,42.7z"/>
			<path id="XMLID_138_" class="st3" d="M143,43.8C143,43.8,143,43.8,143,43.8C143,43.8,143,43.7,143,43.8
				C143,43.7,143,43.7,143,43.8C143,43.8,143,43.8,143,43.8z"/>
			<path id="XMLID_137_" class="st2" d="M140.9,48c0.1-0.1,0.3,0,0.4-0.1c-0.1-0.3-0.1-0.7-0.1-1.1c0-0.2,0-0.4,0-0.7
				c0-1.6,0.3-2.7,0.5-3.1C140.5,44.4,141,46.4,140.9,48z"/>
			<path id="XMLID_136_" class="st1" d="M141.9,43.1C141.9,43.1,141.9,43.2,141.9,43.1c0.1,0.2,0.2,0.5,0.3,0.9
				c0.1,0.5,0.2,1.2,0.2,2.1c0,1-0.1,1.7-0.3,2.3c0.1-0.2,0.1-0.3,0.1-0.5c0,0.2-0.1,0.3-0.1,0.5c0,0.1-0.1,0.2-0.1,0.3
				c0.2-0.5,0.5-1,0.5-1.6C142.5,45.9,142.8,44.3,141.9,43.1z"/>
			<path id="XMLID_135_" class="st3" d="M142.8,42.8c0,0,0-0.1-0.1-0.1c0,0,0,0,0,0c-0.1-0.3-0.3-0.5-0.6-0.5
				c-0.5-0.1-0.9,0.2-1,0.6c-1,2-0.9,4.3-0.4,6.5c0.2-0.2,0.5-0.4,0.7-0.5c-0.1-0.2-0.1-0.4-0.2-0.7c-0.1,0.1-0.3,0-0.4,0.1
				c0,0,0,0,0,0c0,0,0,0,0,0c0,0,0,0,0,0c0,0,0,0,0,0c0.1-1.6-0.4-3.6,0.7-4.9c0-0.1,0.1-0.2,0.1-0.2c0,0,0.1,0.1,0.2,0.2
				c0.9,1.1,0.6,2.7,0.6,4.1c0,0.6-0.2,1.1-0.5,1.6c-0.1,0.3-0.2,0.5-0.3,0.6c0,0,0,0,0,0c-0.1-0.1-0.1-0.2-0.2-0.3
				c-0.3,0.2-0.5,0.5-0.7,0.8c0.2,0.3,0.5,0.5,0.9,0.5c0.2,0,0.4-0.1,0.6-0.2c0,0,0-0.1,0.1-0.1c0,0,0,0.1-0.1,0.1
				c0.2-0.2,0.3-0.4,0.5-0.7C143.5,47.3,143.4,45,142.8,42.8z"/>
			<path id="XMLID_134_" class="st1" d="M143.1,43.6c-0.1-0.3-0.2-0.6-0.3-0.9c0.6,2.2,0.7,4.5,0,6.7c0.4-0.9,0.6-2.3,0.6-3.3
				C143.4,45.4,143.3,44.5,143.1,43.6z"/>
			<path id="XMLID_133_" class="st1" d="M141.8,47.8c-1.6,0-2.8,1.8-2.8,4.2c0,1.2,0.3,2.2,0.8,3c-0.5-1.3-0.8-2.7-0.5-4.1
				c0.2-1.5,1.3-3.1,2.9-2.8h0c0-0.1,0.1-0.2,0.1-0.3C142.1,47.9,142,47.8,141.8,47.8z"/>
			<path id="XMLID_132_" class="st2" d="M140,52c0-1.8,0.8-3.2,1.8-3.2c0.1,0,0.2,0,0.3,0c0-0.1,0.1-0.2,0.1-0.3v0
				c-0.8,0-1.5,0.4-1.9,1.1c-0.8,1.5-0.7,3.4,0.1,4.8c0.2,0.4,0.6,0.7,1.1,0.9c0.1,0,0.2,0,0.3-0.1C140.8,55.3,140,53.8,140,52z"/>
			<path id="XMLID_131_" class="st1" d="M144.6,52c0-1.4-0.4-2.6-1.1-3.4c0,0.1-0.1,0.2-0.1,0.3c0.8,0.8,0.9,2.1,1,3.2
				c0.1,0.6,0,1.3-0.1,1.9C144.5,53.4,144.6,52.8,144.6,52z"/>
			<path id="XMLID_130_" class="st2" d="M143.2,48.4c-0.1,0.3-0.2,0.7-0.3,1.1c0,0.1,0.1,0.1,0.1,0.2c0.1-0.3,0.4-0.4,0.4-0.7
				c0-0.1,0.1-0.2,0.1-0.3C143.4,48.6,143.3,48.5,143.2,48.4z"/>
			<path id="XMLID_129_" class="st1" d="M142.9,54.9C142.9,54.9,142.9,54.9,142.9,54.9c0.8-0.9,0.9-2.1,0.7-3.3c0,0.1,0,0.3,0,0.5
				c0,1.1-0.3,2.1-0.8,2.7C142.8,54.8,142.8,54.9,142.9,54.9z"/>
			<path id="XMLID_128_" class="st3" d="M144.4,52.2c-0.1-1.1-0.2-2.4-1-3.2c0,0.3-0.3,0.4-0.4,0.7c0.3,0.5,0.5,1.2,0.6,1.9
				c0.2,1.2,0.1,2.4-0.7,3.3c0,0,0,0,0,0c0,0,0,0,0,0c0,0,0,0,0,0c0,0,0,0,0,0c0,0,0,0,0,0c0,0-0.1-0.1-0.1-0.1
				c-0.3,0.3-0.6,0.5-1,0.5c0,0,0,0,0,0c-0.1,0.1-0.2,0.1-0.3,0.1c-0.5-0.2-0.9-0.5-1.1-0.9c-0.8-1.5-0.9-3.3-0.1-4.8
				c0.4-0.6,1.1-1.1,1.9-1.1v0v0c0,0,0,0,0,0c0,0,0,0,0,0v0c0,0.1-0.1,0.2-0.1,0.3c0.3,0.1,0.6,0.3,0.8,0.6c0.1-0.4,0.2-0.7,0.3-1.1
				c-0.3-0.2-0.6-0.4-0.9-0.5c0,0.1-0.1,0.2-0.1,0.3h0h0c0,0,0,0,0,0c0,0,0,0,0,0h0c-1.6-0.3-2.7,1.3-2.9,2.8
				c-0.2,1.4,0,2.8,0.5,4.1c0.5,0.7,1.2,1.2,2,1.2c1.1,0,2-0.9,2.5-2.2C144.4,53.4,144.5,52.8,144.4,52.2z"/>
		</g>
		<g id="XMLID_87_">
			<path id="XMLID_126_" class="st3" d="M140.7,61.3c0.1,0.2,0.1,0.3,0.2,0.4C140.9,61.6,140.8,61.4,140.7,61.3
				C140.7,61.3,140.7,61.3,140.7,61.3z"/>
			<path id="XMLID_125_" class="st2" d="M141.7,61.2c-0.1-0.1-0.1-0.3-0.2-0.4c-0.3,0.1-0.5,0.3-0.7,0.5c0,0.2,0.1,0.3,0.1,0.5
				c0,0.1,0.1,0.1,0.1,0.2C141.1,61.6,141.4,61.3,141.7,61.2z"/>
			<path id="XMLID_124_" class="st2" d="M141.9,54.7c-0.9,1.2-1.1,2.8-0.7,4.3c0-0.2,0-0.4,0-0.7c0-2.1,0.5-3.1,0.6-3.2
				c0.1,0,0.1,0.1,0.2,0.3c0.1,0,0.2-0.1,0.3-0.2C142.3,54.9,142,54.6,141.9,54.7z"/>
			<path id="XMLID_123_" class="st1" d="M141.1,54.8c0.2-0.4,0.6-0.7,1-0.6c0.3,0.1,0.5,0.2,0.6,0.5c0,0,0,0,0,0
				c-0.2-0.4-0.5-0.7-1-0.7c-1.3,0-1.6,2.6-1.6,4.2c0,0.9,0.1,2.2,0.5,3.1c0,0,0-0.1,0.1-0.1C140.3,59.1,140.1,56.8,141.1,54.8z"/>
			<path id="XMLID_122_" class="st1" d="M142.5,56.1L142.5,56.1c-0.1,0.1-0.1,0.1-0.2,0.1c0.1,0.5,0.2,1.2,0.2,2.1
				c0,1-0.1,1.7-0.3,2.3C142.8,59.1,142.8,57.5,142.5,56.1z"/>
			<path id="XMLID_121_" class="st3" d="M143.1,55.9C143.1,55.9,143.1,55.9,143.1,55.9C143.1,55.9,143.1,55.8,143.1,55.9
				C143.1,55.8,143.1,55.9,143.1,55.9C143.1,55.9,143.1,55.9,143.1,55.9z"/>
			<path id="XMLID_120_" class="st3" d="M141.9,54.7c0.1-0.1,0.4,0.2,0.5,0.4c0,0,0,0,0,0c0,0,0,0,0,0c0,0,0,0,0,0c0,0,0,0,0,0
				c-0.1,0.1-0.2,0.1-0.3,0.2c0.1,0.2,0.2,0.5,0.3,0.9c0.1,0,0.2,0,0.2-0.1h0c0,0,0,0,0,0c0,0,0,0,0,0h0h0c0,0,0,0,0,0.1
				c0.2-0.1,0.4-0.1,0.5-0.2c0,0,0,0,0,0c0,0,0,0,0,0c0,0,0,0,0.1,0c0,0,0.1-0.1,0.1-0.1c-0.1-0.4-0.2-0.7-0.4-1c0,0,0,0,0,0
				c-0.1-0.3-0.3-0.5-0.6-0.5c-0.5-0.1-0.9,0.2-1,0.6c-1,2-0.9,4.3-0.4,6.5c0.2-0.2,0.5-0.4,0.7-0.5c-0.1-0.4-0.2-1-0.3-1.8
				C140.8,57.5,141,55.9,141.9,54.7z"/>
			<path id="XMLID_119_" class="st2" d="M143.1,55.9C143,55.9,143,55.9,143.1,55.9C143,55.9,143,55.9,143.1,55.9
				C143.1,55.9,143.1,55.9,143.1,55.9c-0.2,0.1-0.3,0.2-0.5,0.2c0,0.1,0,0.2,0,0.3c0.2-0.1,0.3-0.2,0.5-0.3
				C143.1,56.1,143.1,56,143.1,55.9z"/>
			<path id="XMLID_118_" class="st3" d="M142.6,56.4c0.2,1.4,0.1,2.8-0.3,4.1c-0.1,0.5-0.3,0.8-0.4,0.9c0,0,0,0.1,0,0.1
				c0,0,0-0.1,0-0.1c0,0,0,0,0,0c-0.1-0.1-0.1-0.2-0.2-0.3c-0.3,0.2-0.5,0.5-0.7,0.8c0.2,0.3,0.5,0.5,0.9,0.5c0.2,0,0.4-0.1,0.6-0.2
				c1.1-1.8,0.9-4,0.6-6.1C142.9,56.3,142.8,56.4,142.6,56.4z"/>
			<path id="XMLID_117_" class="st1" d="M143.2,55.7c-0.1,0-0.1,0.1-0.1,0.1c0,0,0,0,0,0c0.3,2.1,0.5,4.5-0.6,6.4c0.8-0.7,1-2.7,1-4
				C143.5,57.5,143.4,56.6,143.2,55.7z"/>
			<path id="XMLID_116_" class="st1" d="M141.9,59.9c-1.6,0-2.8,1.8-2.8,4.2c0,1.2,0.3,2.2,0.8,3c-0.5-1.3-0.8-2.7-0.5-4.1
				c0.2-1.5,1.3-3.1,2.9-2.8h0c0-0.1,0.1-0.2,0.1-0.3C142.2,60,142,59.9,141.9,59.9z"/>
			<path id="XMLID_115_" class="st2" d="M140.1,64.2c0-1.8,0.8-3.2,1.8-3.2c0.1,0,0.2,0,0.3,0c0-0.1,0.1-0.2,0.1-0.3v0
				c-0.8,0-1.5,0.4-1.9,1.1c-0.8,1.5-0.7,3.4,0.1,4.8c0.2,0.4,0.6,0.7,1.1,0.9c0.1,0,0.2,0,0.3-0.1
				C140.9,67.4,140.1,65.9,140.1,64.2z"/>
			<path id="XMLID_114_" class="st1" d="M144.6,64.2c0-1.4-0.4-2.6-1.1-3.4c0,0.1-0.1,0.2-0.1,0.3c0.8,0.8,0.9,2.1,1,3.2
				c0.1,0.6,0,1.3-0.1,1.9C144.5,65.5,144.6,64.9,144.6,64.2z"/>
			<path id="XMLID_113_" class="st2" d="M143.3,60.5c-0.1,0.3-0.2,0.7-0.3,1.1c0,0.1,0.1,0.1,0.1,0.2c0.1-0.3,0.4-0.4,0.4-0.7
				c0-0.1,0.1-0.2,0.1-0.3C143.5,60.7,143.4,60.6,143.3,60.5z"/>
			<path id="XMLID_112_" class="st1" d="M142.9,67C142.9,67,142.9,67,142.9,67c0.8-0.9,0.9-2.1,0.7-3.3c0,0.1,0,0.3,0,0.5
				c0,1.1-0.3,2.1-0.8,2.7C142.9,66.9,142.9,67,142.9,67z"/>
			<path id="XMLID_111_" class="st3" d="M144.5,64.3c-0.1-1.1-0.2-2.4-1-3.2c0,0.3-0.3,0.4-0.4,0.7c0.3,0.5,0.5,1.2,0.6,1.9
				c0.2,1.2,0.1,2.4-0.7,3.3c0,0,0,0,0,0c0,0,0,0,0,0c0,0,0,0,0,0c0,0,0,0,0,0c0,0,0,0,0,0c0,0-0.1-0.1-0.1-0.1
				c-0.3,0.3-0.6,0.5-1,0.5c0,0,0,0,0,0c-0.1,0.1-0.2,0.1-0.3,0.1c-0.5-0.2-0.9-0.5-1.1-0.9c-0.8-1.5-0.9-3.3-0.1-4.8
				c0.4-0.6,1.1-1.1,1.9-1.1v0v0c0,0,0,0,0,0c0,0,0,0,0,0v0c0,0.1-0.1,0.2-0.1,0.3c0.3,0.1,0.6,0.3,0.8,0.6c0.1-0.4,0.2-0.7,0.3-1.1
				c-0.3-0.2-0.6-0.4-0.9-0.5c0,0.1-0.1,0.2-0.1,0.3h0h0c0,0,0,0,0,0c0,0,0,0,0,0h0c-1.6-0.3-2.7,1.3-2.9,2.8
				c-0.2,1.4,0,2.8,0.5,4.1c0.5,0.7,1.2,1.2,2,1.2c1.1,0,2-0.9,2.5-2.2C144.5,65.5,144.5,64.9,144.5,64.3z"/>
			<path id="XMLID_110_" class="st1" d="M142.5,70.4c0,1.9-0.4,2.9-0.6,3.2c0.3-0.1,0.5-0.3,0.6-0.5c0.5-1.5,0.3-3.1-0.1-4.6
				C142.5,68.9,142.5,69.6,142.5,70.4z"/>
			<path id="XMLID_109_" class="st3" d="M143,68.2c-0.2,0.2-0.4,0.2-0.7,0.3c0.4,1.5,0.6,3.1,0.1,4.5c-0.1,0.2-0.3,0.4-0.6,0.5
				c0,0,0,0,0,0c-0.1-0.1-0.3-0.4-0.4-0.8c-0.1,0-0.2,0.1-0.3,0.1c0,0,0,0,0,0c0,0,0,0,0,0c0,0,0,0,0,0c0,0,0,0,0,0c0,0,0,0,0,0
				c-0.3-1.7-0.4-3.8,0.4-5.3c0.1-0.2,0.2-0.3,0.2-0.4c0,0,0,0,0,0c0,0,0,0,0,0c0,0,0,0,0,0c0.1,0.1,0.3,0.5,0.5,1.2
				c0.2-0.1,0.4-0.2,0.7-0.3c0,0,0,0,0,0c0,0,0,0,0,0c0,0,0,0,0,0c0,0,0,0,0,0c0,0,0,0,0,0c0.1,0,0.1-0.1,0.2-0.2
				c-0.1-0.4-0.2-0.7-0.4-1c0,0.1-0.1,0.1-0.1,0.1c0,0-0.1,0-0.1,0c0,0,0,0,0,0c-0.2-0.4-0.7-0.7-0.9-0.5c-1.8,1.6-1.4,4.4-0.9,6.6
				c-0.1,0.1-0.1,0.1-0.2,0.2c0.2,0.8,0.6,1.4,1.3,1.4c0.7,0,1.1-0.8,1.4-1.9C143.4,71.2,143.6,69.7,143,68.2z"/>
			<path id="XMLID_108_" class="st2" d="M142.3,68.4C142.4,68.4,142.4,68.5,142.3,68.4c0.3,0,0.5,0,0.7-0.2c0,0,0-0.1,0-0.1
				C142.8,68.1,142.5,68.2,142.3,68.4C142.3,68.3,142.3,68.4,142.3,68.4z"/>
			<path id="XMLID_107_" class="st1" d="M143.2,67.9c-0.1,0-0.1,0.1-0.2,0.2c0.6,1.5,0.4,3.1,0.3,4.7c0.2-0.8,0.2-1.7,0.2-2.4
				C143.5,69.6,143.4,68.7,143.2,67.9z"/>
			<path id="XMLID_106_" class="st2" d="M141.6,67.5c-0.9,1.6-0.7,3.6-0.4,5.3c0,0,0,0,0,0c0.1,0,0.2-0.1,0.3-0.1
				c-0.2-0.5-0.3-1.3-0.3-2.4C141.2,69,141.4,68,141.6,67.5z"/>
			<path id="XMLID_105_" class="st3" d="M142.6,67C142.6,67,142.7,66.9,142.6,67C142.7,66.9,142.6,66.9,142.6,67z"/>
			<path id="XMLID_104_" class="st1" d="M141.7,66.4c0.2-0.2,0.7,0.1,0.9,0.5c0,0,0,0,0,0c0,0,0,0,0,0s0,0,0,0c0,0,0.1-0.1,0.1,0
				c0,0,0.1,0,0.1-0.1c-0.2-0.4-0.5-0.7-0.9-0.7c-1.3,0-1.6,2.6-1.6,4.2c0,0.8,0.1,1.9,0.4,2.8c0.1-0.1,0.1-0.1,0.2-0.2
				C140.3,70.9,139.9,68,141.7,66.4z"/>
			<path id="XMLID_103_" class="st1" d="M139.3,76.4c0.2-1.6,1.2-3.4,2.9-3.6c-0.1,0-0.2,0-0.4,0c-1.6,0-2.8,1.8-2.8,4.2
				c0,1.7,0.6,3.1,1.5,3.8C139.7,79.5,139.1,78,139.3,76.4z"/>
			<path id="XMLID_102_" class="st1" d="M143.6,73.6c1.1,2,1.1,4.4,0.2,6.4c0.5-0.8,0.9-1.8,0.9-3.1
				C144.6,75.6,144.2,74.4,143.6,73.6z"/>
			<path id="XMLID_101_" class="st1" d="M143.3,74.9c0.3,0.6,0.4,1.3,0.4,2c0,1.1-0.4,2.2-0.9,2.8c0.1,0.1,0.1,0.2,0.2,0.3
				C144,78.5,144.1,76.5,143.3,74.9z"/>
			<path id="XMLID_100_" class="st2" d="M141.2,73.7c-1.6,1.3-1.9,4-0.5,5.6c-0.4-0.6-0.6-1.4-0.6-2.4c0-1.8,0.8-3.2,1.8-3.2
				c0,0,0.1,0,0.1,0c0-0.1,0.1-0.1,0.1-0.2C141.8,73.4,141.5,73.5,141.2,73.7z"/>
			<path id="XMLID_99_" class="st2" d="M142.9,74.3c0.1,0.2,0.3,0.4,0.4,0.6c0,0.1,0.1,0.1,0.1,0.2c-0.1-0.4-0.3-0.8-0.5-1.1
				c0,0.1-0.1,0.1-0.1,0.1c0,0,0.1,0.1,0.1,0.1C142.9,74.2,142.9,74.3,142.9,74.3z"/>
			<path id="XMLID_98_" class="st3" d="M142.8,74C142.8,74,142.8,74,142.8,74C142.8,74,142.8,74,142.8,74z"/>
			<path id="XMLID_95_" class="st3" d="M143.6,73.6c-0.4-0.4-0.8-0.7-1.3-0.8c-1.8,0.2-2.8,2-2.9,3.6c-0.2,1.6,0.4,3.1,1.3,4.3
				c0.4,0.3,0.8,0.5,1.3,0.5c0.7,0,1.4-0.4,1.9-1.1C144.7,78,144.7,75.6,143.6,73.6z M143,80c-0.1-0.1-0.1-0.2-0.2-0.3
				c-0.3,0.3-0.6,0.5-0.9,0.5c-0.5,0-0.9-0.3-1.2-0.9c-1.3-1.6-1.1-4.3,0.5-5.6c0.3-0.2,0.6-0.2,0.8-0.2c0,0.1,0,0.1-0.1,0.2
				c0.3,0,0.5,0.2,0.8,0.4c0-0.1,0.1-0.1,0.1-0.1c0,0,0,0,0,0c0,0,0,0,0,0c0.3,0.3,0.4,0.7,0.5,1.1C144.1,76.7,144,78.5,143,80z"/>
			<path id="XMLID_94_" class="st2" d="M141.7,79.8c0.1,0.1-0.1,0.2,0,0.3c0.1-0.1,0.1-0.2,0.1-0.2c0.2,0.1,0.7,1.2,0.7,3.2
				c0,0.8-0.1,1.5-0.2,2c0,0,0.1,0,0.1,0C142.9,83.5,142.9,81,141.7,79.8z"/>
			<path id="XMLID_93_" class="st2" d="M141.4,81.1c-0.1-0.1-0.3-0.1-0.4-0.1c-0.5,1.6-0.3,3.4,0.6,4.9c-0.2-0.5-0.4-1.4-0.4-2.7
				C141.2,82.3,141.3,81.6,141.4,81.1z"/>
			<path id="XMLID_92_" class="st3" d="M141.9,86.3C141.9,86.3,141.9,86.3,141.9,86.3C141.9,86.3,141.9,86.3,141.9,86.3
				C141.9,86.3,141.9,86.3,141.9,86.3C141.9,86.4,141.9,86.4,141.9,86.3c-0.1,0-0.3-0.2-0.4-0.4c-0.9-1.5-1.1-3.3-0.6-4.9
				c0.1,0.1,0.3,0.1,0.4,0.1c0.1-0.5,0.2-0.8,0.3-1c-0.1-0.1,0.1-0.3,0-0.3c1.2,1.2,1.2,3.7,0.7,5.4c0,0-0.1,0-0.1,0
				c-0.1,0.4-0.2,0.8-0.3,1c0.3,0,0.7,0,1,0.1c0.1-0.3,0.2-0.6,0.3-1h0h-0.1c0.3-1.2,0.1-2.4,0.1-3.6c-0.1-0.9-0.1-1.8-0.9-2.4
				c-0.5-0.1-1,0.1-1.4,0.5c0,0,0,0,0-0.1c-0.2,0.3-0.3,0.6-0.4,1c0.1,0,0.1,0.2,0.2,0.2c-0.6,1.4-0.2,2.9-0.3,4.4
				c0.2,1.2,0.6,2.2,1.5,2.2c0.5,0,0.8-0.4,1.1-0.9C142.6,86.4,142.3,86.3,141.9,86.3z"/>
			<path id="XMLID_91_" class="st2" d="M142,86.2c0,0.1-0.1,0.1-0.1,0.2c0.3,0,0.7,0.1,1,0.1c0-0.1,0.1-0.1,0.1-0.2
				C142.7,86.2,142.4,86.1,142,86.2z"/>
			<path id="XMLID_89_" class="st1" d="M143.2,80.8c-0.1-0.6-0.3-1.1-0.6-1.4c-0.2-0.3-0.5-0.4-0.8-0.4c-0.4,0-0.7,0.3-1,0.7
				c0,0,0,0,0,0.1c0.3-0.4,1-0.6,1.4-0.5c0.8,0.6,0.8,1.5,0.9,2.4c0,1.2,0.3,2.4-0.1,3.6h0.1h0c0.1-0.7,0.2-1.5,0.2-2.1
				C143.5,82.5,143.4,81.6,143.2,80.8z"/>
			<path id="XMLID_88_" class="st1" d="M140.7,80.8c-0.1,0-0.1-0.1-0.2-0.2c-0.2,0.8-0.3,1.8-0.3,2.6c0,0.6,0,1.3,0.2,2
				C140.5,83.7,140.2,82.2,140.7,80.8z"/>
		</g>
	</g>
</g>
<g id="XMLID_2_">
	<path id="XMLID_84_" class="st1" d="M20.6,115.1c8.6-13.9,24.9-17.4,39.2-12.8c-4.3-2-9-3.1-14-3.1c-18.4,0-33.4,15-33.4,33.4
		c0,9.3,3.8,17.8,10,23.8C13.7,144.9,12.5,128.2,20.6,115.1z"/>
	<path id="XMLID_83_" class="st3" d="M68.8,152.9c4.2-5.2,8.1-10.8,10.3-16.9c0.1-1.1,0.2-2.2,0.2-3.3c0-13.4-8-25-19.4-30.3
		c-14.3-4.7-30.6-1.1-39.2,12.8c-8.1,13-6.9,29.7,1.8,41.4c1.5,1.5,3.2,2.9,5,4.1C41.1,166.4,59,165.2,68.8,152.9z"/>
	<path id="XMLID_82_" class="st2" d="M68.8,152.9c-9.8,12.3-27.7,13.5-41.3,7.7c5.3,3.5,11.6,5.5,18.3,5.5
		c17.3,0,31.6-13.3,33.2-30.1C76.9,142.1,73,147.7,68.8,152.9z"/>
	<g id="XMLID_75_">
		<path id="XMLID_81_" class="st2" d="M60.5,152.2c-10.5,6.5-23.7,6-34,0.1c5,4.9,11.8,7.9,19.3,7.9c12.4,0,23-8.3,26.4-19.6
			C69.7,145.5,65.3,149.3,60.5,152.2z"/>
		<path id="XMLID_80_" class="st3" d="M60.5,152.2c4.8-2.9,9.2-6.8,11.7-11.5c0.8-2.5,1.2-5.2,1.2-8c0-7.9-3.4-15.1-8.8-20.2
			c-9.5-5.7-21.7-5.1-31.6,0.5c-8.5,4.7-13.5,13.5-14.6,22.8c0.7,6.4,3.7,12.2,8.1,16.5C36.7,158.3,49.9,158.7,60.5,152.2z"/>
		<path id="XMLID_79_" class="st1" d="M33,113c9.9-5.6,22.2-6.1,31.6-0.5c-4.9-4.6-11.5-7.4-18.8-7.4c-15.2,0-27.6,12.4-27.6,27.6
			c0,1.1,0.1,2.1,0.2,3.1C19.4,126.5,24.5,117.7,33,113z"/>
		<path id="XMLID_76_" class="st5" d="M45.8,104.1c-15.7,0-28.5,12.8-28.5,28.5c0,15.7,12.8,28.5,28.5,28.5
			c15.7,0,28.5-12.8,28.5-28.5C74.3,116.9,61.5,104.1,45.8,104.1z M45.8,160.3c-15.2,0-27.6-12.4-27.6-27.6
			c0-15.2,12.4-27.6,27.6-27.6c15.2,0,27.6,12.4,27.6,27.6C73.4,147.9,61,160.3,45.8,160.3z"/>
	</g>
	<g id="XMLID_9_">
		<path id="XMLID_74_" class="st2" d="M44.7,100.4c-0.9-0.3-1.9-1-2.2-2c0.3,1.6,1.7,2.8,3.3,2.8c1.3,0,2.4-0.7,3-1.8
			C47.7,100.5,46.2,100.9,44.7,100.4z"/>
		<path id="XMLID_73_" class="st1" d="M43.6,87.6c-2.1,0.9-3.6,3-3.6,5.4c0,0.7,0.1,1.4,0.4,2C39.9,92.1,40.9,89.2,43.6,87.6z"/>
		<path id="XMLID_72_" class="st2" d="M47.2,88.3c2,0.6,3.5,2.5,3.5,4.7c0,1.1-0.4,2.2-1,3c0.7-0.7,1.3-1.4,1.4-2.4
			C51.3,91.4,49.7,88.5,47.2,88.3z"/>
		<path id="XMLID_71_" class="st2" d="M40.9,93c0-0.2,0-0.4,0-0.5c-0.3,1.8-0.2,3.6,1.6,4.6c0-0.1,0-0.3,0-0.4
			C41.6,95.7,40.9,94.5,40.9,93z"/>
		<path id="XMLID_68_" class="st3" d="M48.3,87.7c-0.8-0.4-1.6-0.6-2.5-0.6c-0.8,0-1.5,0.2-2.2,0.4c-2.7,1.6-3.7,4.5-3.3,7.4
			c0.4,1.1,1.1,2,2.1,2.7c0,0,0-0.1,0-0.1c0,0,0,0.1,0,0.1c0,0,0,0,0.1,0c0,0,0,0,0,0c0,0.2,0,0.4,0.1,0.6c0.3,1,1.4,1.7,2.2,2
			c1.5,0.5,3,0,4.1-1c0.3-0.5,0.4-1,0.4-1.6c0,0,0,0,0,0c1.1-0.8,2-2,2.3-3.4C51.6,91.7,50.6,89,48.3,87.7z M51.1,93.6
			c-0.2,1-0.7,1.7-1.4,2.4c-0.2,0.2-0.3,0.4-0.5,0.6c0,0,0,0,0,0c0,0,0,0,0,0c-0.1,0.1-0.1,0.1-0.2,0.1c-0.1-0.3-0.2-0.5-0.4-0.7
			c-1.5-1.4-4-1.5-5.6-0.1c-0.2,0.3-0.3,0.5-0.4,0.8c0,0,0,0-0.1-0.1c0,0.1,0,0.2,0,0.4c-1.8-1-2-2.8-1.6-4.6c0-0.4,0.2-0.8,0.3-1.2
			c0-0.1,0-0.1,0.1-0.2c0.3-0.8,0.7-1.4,1.4-1.8c0.8-0.7,1.9-1.1,3.1-1.1c0.5,0,0.9,0.1,1.4,0.2C49.7,88.5,51.3,91.4,51.1,93.6z"/>
		<path id="XMLID_67_" class="st3" d="M42.7,89.2c-0.7,0.5-1.2,1.1-1.4,1.8c0,0.1,0,0.1-0.1,0.2C41.5,90.4,42.1,89.7,42.7,89.2z"/>
		<path id="XMLID_66_" class="st1" d="M51.7,93c0-2.3-1.4-4.4-3.3-5.3c2.3,1.3,3.3,4,3.2,6.7C51.6,93.9,51.7,93.5,51.7,93z"/>
		<path id="XMLID_65_" class="st1" d="M45.8,94.4c-1.1,0-2.1,0.6-2.7,1.4c1.6-1.4,4.1-1.3,5.6,0.1C48,95,47,94.4,45.8,94.4z"/>
		<g id="XMLID_50_">
			<path id="XMLID_64_" class="st3" d="M44.3,51.2c0.1,0.2,0.1,0.3,0.2,0.4C44.5,51.4,44.4,51.3,44.3,51.2
				C44.4,51.1,44.3,51.1,44.3,51.2z"/>
			<path id="XMLID_63_" class="st2" d="M45.3,51c-0.1-0.1-0.1-0.3-0.2-0.4c-0.3,0.1-0.5,0.3-0.7,0.5c0,0.2,0.1,0.3,0.1,0.5
				c0,0.1,0.1,0.1,0.1,0.2C44.8,51.4,45,51.2,45.3,51z"/>
			<path id="XMLID_62_" class="st1" d="M44.8,44.6c0.2-0.4,0.6-0.7,1-0.6c0.3,0.1,0.5,0.2,0.6,0.5c0,0,0,0,0,0
				c-0.2-0.4-0.5-0.7-1-0.7c-1.3,0-1.6,2.6-1.6,4.2c0,0.9,0.1,2.2,0.5,3.1c0,0,0-0.1,0.1-0.1C43.9,48.9,43.7,46.6,44.8,44.6z"/>
			<path id="XMLID_61_" class="st3" d="M46.7,45.7C46.7,45.7,46.7,45.7,46.7,45.7C46.7,45.7,46.7,45.7,46.7,45.7
				C46.7,45.7,46.7,45.7,46.7,45.7C46.7,45.7,46.7,45.7,46.7,45.7z"/>
			<path id="XMLID_60_" class="st2" d="M44.6,50c0.1-0.1,0.3,0,0.4-0.1c-0.1-0.3-0.1-0.7-0.1-1.1c0-0.2,0-0.4,0-0.7
				c0-1.6,0.3-2.7,0.5-3.1C44.2,46.4,44.7,48.3,44.6,50z"/>
			<path id="XMLID_59_" class="st1" d="M45.6,45.1C45.6,45.1,45.6,45.1,45.6,45.1c0.1,0.2,0.2,0.5,0.3,0.9c0.1,0.5,0.2,1.2,0.2,2.1
				c0,1-0.1,1.7-0.3,2.3c0.1-0.2,0.1-0.3,0.1-0.5c0,0.2-0.1,0.3-0.1,0.5c0,0.1-0.1,0.2-0.1,0.3c0.2-0.5,0.5-1,0.5-1.6
				C46.2,47.8,46.5,46.2,45.6,45.1z"/>
			<path id="XMLID_58_" class="st3" d="M46.5,44.7c0,0,0-0.1-0.1-0.1c0,0,0,0,0,0c-0.1-0.3-0.3-0.5-0.6-0.5c-0.5-0.1-0.9,0.2-1,0.6
				c-1,2-0.9,4.3-0.4,6.5c0.2-0.2,0.5-0.4,0.7-0.5c-0.1-0.2-0.1-0.4-0.2-0.7c-0.1,0.1-0.3,0-0.4,0.1c0,0,0,0,0,0c0,0,0,0,0,0
				c0,0,0,0,0,0c0,0,0,0,0,0c0.1-1.6-0.4-3.6,0.7-4.9c0-0.1,0.1-0.2,0.1-0.2c0,0,0.1,0.1,0.2,0.2c0.9,1.1,0.6,2.7,0.6,4.1
				c0,0.6-0.2,1.1-0.5,1.6c-0.1,0.3-0.2,0.5-0.3,0.6c0,0,0,0,0,0c-0.1-0.1-0.1-0.2-0.2-0.3c-0.3,0.2-0.5,0.5-0.7,0.8
				c0.2,0.3,0.5,0.5,0.9,0.5c0.2,0,0.4-0.1,0.6-0.2c0,0,0-0.1,0.1-0.1c0,0,0,0.1-0.1,0.1c0.2-0.2,0.3-0.4,0.5-0.7
				C47.2,49.2,47.1,46.9,46.5,44.7z"/>
			<path id="XMLID_57_" class="st1" d="M46.8,45.6c-0.1-0.3-0.2-0.6-0.3-0.9c0.6,2.2,0.7,4.5,0,6.7c0.4-0.9,0.6-2.3,0.6-3.3
				C47.1,47.4,47,46.4,46.8,45.6z"/>
			<path id="XMLID_56_" class="st1" d="M45.5,49.8c-1.6,0-2.8,1.8-2.8,4.2c0,1.2,0.3,2.2,0.8,3c-0.5-1.3-0.8-2.7-0.5-4.1
				c0.2-1.5,1.3-3.1,2.9-2.8h0c0-0.1,0.1-0.2,0.1-0.3C45.8,49.8,45.7,49.8,45.5,49.8z"/>
			<path id="XMLID_55_" class="st2" d="M43.7,54c0-1.8,0.8-3.2,1.8-3.2c0.1,0,0.2,0,0.3,0c0-0.1,0.1-0.2,0.1-0.3v0
				c-0.8,0-1.5,0.4-1.9,1.1c-0.8,1.5-0.7,3.4,0.1,4.8c0.2,0.4,0.6,0.7,1.1,0.9c0.1,0,0.2,0,0.3-0.1C44.5,57.2,43.7,55.7,43.7,54z"/>
			<path id="XMLID_54_" class="st1" d="M48.3,54c0-1.4-0.4-2.6-1.1-3.4c0,0.1-0.1,0.2-0.1,0.3c0.8,0.8,0.9,2.1,1,3.2
				c0.1,0.6,0,1.3-0.1,1.9C48.1,55.4,48.3,54.7,48.3,54z"/>
			<path id="XMLID_53_" class="st2" d="M46.9,50.3c-0.1,0.3-0.2,0.7-0.3,1.1c0,0.1,0.1,0.1,0.1,0.2c0.1-0.3,0.4-0.4,0.4-0.7
				c0-0.1,0.1-0.2,0.1-0.3C47.1,50.5,47,50.4,46.9,50.3z"/>
			<path id="XMLID_52_" class="st1" d="M46.6,56.8C46.6,56.8,46.6,56.8,46.6,56.8c0.8-0.9,0.9-2.1,0.7-3.3c0,0.1,0,0.3,0,0.5
				c0,1.1-0.3,2.1-0.8,2.7C46.5,56.8,46.5,56.8,46.6,56.8z"/>
			<path id="XMLID_51_" class="st3" d="M48.1,54.1c-0.1-1.1-0.2-2.4-1-3.2c0,0.3-0.3,0.4-0.4,0.7c0.3,0.5,0.5,1.2,0.6,1.9
				c0.2,1.2,0.1,2.4-0.7,3.3c0,0,0,0,0,0c0,0,0,0,0,0c0,0,0,0,0,0c0,0,0,0,0,0c0,0,0,0,0,0c0,0-0.1-0.1-0.1-0.1
				c-0.3,0.3-0.6,0.5-1,0.5c0,0,0,0,0,0c-0.1,0.1-0.2,0.1-0.3,0.1c-0.5-0.2-0.9-0.5-1.1-0.9c-0.8-1.5-0.9-3.3-0.1-4.8
				c0.4-0.6,1.1-1.1,1.9-1.1v0v0c0,0,0,0,0,0c0,0,0,0,0,0v0c0,0.1-0.1,0.2-0.1,0.3c0.3,0.1,0.6,0.3,0.8,0.6c0.1-0.4,0.2-0.7,0.3-1.1
				c-0.3-0.2-0.6-0.4-0.9-0.5c0,0.1-0.1,0.2-0.1,0.3h0h0c0,0,0,0,0,0c0,0,0,0,0,0h0c-1.6-0.3-2.7,1.3-2.9,2.8
				c-0.2,1.4,0,2.8,0.5,4.1c0.5,0.7,1.2,1.2,2,1.2c1.1,0,2-0.9,2.5-2.2C48.1,55.3,48.2,54.7,48.1,54.1z"/>
		</g>
		<g id="XMLID_10_">
			<path id="XMLID_49_" class="st3" d="M44.4,63.3c0.1,0.2,0.1,0.3,0.2,0.4C44.5,63.5,44.5,63.4,44.4,63.3
				C44.4,63.2,44.4,63.2,44.4,63.3z"/>
			<path id="XMLID_48_" class="st2" d="M45.4,63.1c-0.1-0.1-0.1-0.3-0.2-0.4c-0.3,0.1-0.5,0.3-0.7,0.5c0,0.2,0.1,0.3,0.1,0.5
				c0,0.1,0.1,0.1,0.1,0.2C44.8,63.5,45.1,63.3,45.4,63.1z"/>
			<path id="XMLID_47_" class="st2" d="M45.6,56.6c-0.9,1.2-1.1,2.8-0.7,4.3c0-0.2,0-0.4,0-0.7c0-2.1,0.5-3.1,0.6-3.2
				c0.1,0,0.1,0.1,0.2,0.3c0.1,0,0.2-0.1,0.3-0.2C46,56.8,45.7,56.5,45.6,56.6z"/>
			<path id="XMLID_46_" class="st1" d="M44.8,56.7c0.2-0.4,0.6-0.7,1-0.6c0.3,0.1,0.5,0.2,0.6,0.5c0,0,0,0,0,0
				c-0.2-0.4-0.5-0.7-1-0.7c-1.3,0-1.6,2.6-1.6,4.2c0,0.9,0.1,2.2,0.5,3.1c0,0,0-0.1,0.1-0.1C44,61,43.8,58.8,44.8,56.7z"/>
			<path id="XMLID_45_" class="st1" d="M46.2,58L46.2,58c-0.1,0.1-0.1,0.1-0.2,0.1c0.1,0.5,0.2,1.2,0.2,2.1c0,1-0.1,1.7-0.3,2.3
				C46.4,61.1,46.5,59.5,46.2,58z"/>
			<path id="XMLID_44_" class="st3" d="M46.7,57.8C46.8,57.8,46.8,57.8,46.7,57.8C46.8,57.8,46.8,57.8,46.7,57.8
				C46.8,57.8,46.8,57.8,46.7,57.8C46.7,57.8,46.7,57.8,46.7,57.8z"/>
			<path id="XMLID_43_" class="st3" d="M45.6,56.6c0.1-0.1,0.4,0.2,0.5,0.4c0,0,0,0,0,0c0,0,0,0,0,0c0,0,0,0,0,0c0,0,0,0,0,0
				c-0.1,0.1-0.2,0.1-0.3,0.2c0.1,0.2,0.2,0.5,0.3,0.9c0.1,0,0.2,0,0.2-0.1h0c0,0,0,0,0,0c0,0,0,0,0,0h0h0c0,0,0,0,0,0.1
				c0.2-0.1,0.4-0.1,0.5-0.2c0,0,0,0,0,0c0,0,0,0,0,0c0,0,0,0,0.1,0c0,0,0.1-0.1,0.1-0.1c-0.1-0.4-0.2-0.7-0.4-1c0,0,0,0,0,0
				c-0.1-0.3-0.3-0.5-0.6-0.5c-0.5-0.1-0.9,0.2-1,0.6c-1,2-0.9,4.3-0.4,6.5c0.2-0.2,0.5-0.4,0.7-0.5c-0.1-0.4-0.2-1-0.3-1.8
				C44.5,59.5,44.7,57.8,45.6,56.6z"/>
			<path id="XMLID_42_" class="st2" d="M46.7,57.8C46.7,57.8,46.7,57.8,46.7,57.8C46.7,57.8,46.7,57.8,46.7,57.8
				C46.7,57.8,46.7,57.8,46.7,57.8c-0.2,0.1-0.3,0.2-0.5,0.2c0,0.1,0,0.2,0,0.3c0.2-0.1,0.3-0.2,0.5-0.3
				C46.8,58,46.8,57.9,46.7,57.8z"/>
			<path id="XMLID_41_" class="st3" d="M46.3,58.4c0.2,1.4,0.1,2.8-0.3,4.1c-0.1,0.5-0.3,0.8-0.4,0.9c0,0,0,0.1,0,0.1
				c0,0,0-0.1,0-0.1c0,0,0,0,0,0c-0.1-0.1-0.1-0.2-0.2-0.3c-0.3,0.2-0.5,0.5-0.7,0.8c0.2,0.3,0.5,0.5,0.9,0.5c0.2,0,0.4-0.1,0.6-0.2
				c1.1-1.8,0.9-4,0.6-6.1C46.6,58.2,46.5,58.3,46.3,58.4z"/>
			<path id="XMLID_40_" class="st1" d="M46.9,57.7c-0.1,0-0.1,0.1-0.1,0.1c0,0,0,0,0,0c0.3,2.1,0.5,4.5-0.6,6.4c0.8-0.7,1-2.7,1-4
				C47.2,59.5,47.1,58.5,46.9,57.7z"/>
			<path id="XMLID_39_" class="st1" d="M45.6,61.9c-1.6,0-2.8,1.8-2.8,4.2c0,1.2,0.3,2.2,0.8,3c-0.5-1.3-0.8-2.7-0.5-4.1
				c0.2-1.5,1.3-3.1,2.9-2.8h0c0-0.1,0.1-0.2,0.1-0.3C45.9,61.9,45.7,61.9,45.6,61.9z"/>
			<path id="XMLID_38_" class="st2" d="M43.7,66.1c0-1.8,0.8-3.2,1.8-3.2c0.1,0,0.2,0,0.3,0c0-0.1,0.1-0.2,0.1-0.3v0
				c-0.8,0-1.5,0.4-1.9,1.1c-0.8,1.5-0.7,3.4,0.1,4.8c0.2,0.4,0.6,0.7,1.1,0.9c0.1,0,0.2,0,0.3-0.1C44.6,69.3,43.7,67.8,43.7,66.1z"
				/>
			<path id="XMLID_37_" class="st1" d="M48.3,66.1c0-1.4-0.4-2.6-1.1-3.4c0,0.1-0.1,0.2-0.1,0.3c0.8,0.8,0.9,2.1,1,3.2
				c0.1,0.6,0,1.3-0.1,1.9C48.2,67.5,48.3,66.8,48.3,66.1z"/>
			<path id="XMLID_36_" class="st2" d="M47,62.4c-0.1,0.3-0.2,0.7-0.3,1.1c0,0.1,0.1,0.1,0.1,0.2c0.1-0.3,0.4-0.4,0.4-0.7
				c0-0.1,0.1-0.2,0.1-0.3C47.1,62.6,47.1,62.5,47,62.4z"/>
			<path id="XMLID_35_" class="st1" d="M46.6,68.9C46.6,68.9,46.6,68.9,46.6,68.9c0.8-0.9,0.9-2.1,0.7-3.3c0,0.1,0,0.3,0,0.5
				c0,1.1-0.3,2.1-0.8,2.7C46.6,68.9,46.6,68.9,46.6,68.9z"/>
			<path id="XMLID_34_" class="st3" d="M48.2,66.2c-0.1-1.1-0.2-2.4-1-3.2c0,0.3-0.3,0.4-0.4,0.7c0.3,0.5,0.5,1.2,0.6,1.9
				c0.2,1.2,0.1,2.4-0.7,3.3c0,0,0,0,0,0c0,0,0,0,0,0c0,0,0,0,0,0c0,0,0,0,0,0c0,0,0,0,0,0c0,0-0.1-0.1-0.1-0.1
				c-0.3,0.3-0.6,0.5-1,0.5c0,0,0,0,0,0c-0.1,0.1-0.2,0.1-0.3,0.1c-0.4-0.2-0.9-0.5-1.1-0.9c-0.8-1.5-0.9-3.3-0.1-4.8
				c0.4-0.6,1.1-1.1,1.9-1.1v0v0c0,0,0,0,0,0c0,0,0,0,0,0v0c0,0.1-0.1,0.2-0.1,0.3c0.3,0.1,0.6,0.3,0.8,0.6c0.1-0.4,0.2-0.7,0.3-1.1
				c-0.3-0.2-0.6-0.4-0.9-0.5c0,0.1-0.1,0.2-0.1,0.3h0h0c0,0,0,0,0,0c0,0,0,0,0,0h0c-1.6-0.3-2.7,1.3-2.9,2.8
				c-0.2,1.4,0,2.8,0.5,4.1c0.5,0.7,1.2,1.2,2,1.2c1.1,0,2-0.9,2.5-2.2C48.2,67.5,48.2,66.8,48.2,66.2z"/>
			<path id="XMLID_33_" class="st1" d="M46.2,72.3c0,1.9-0.4,2.9-0.6,3.2c0.3-0.1,0.5-0.3,0.6-0.5c0.5-1.5,0.3-3.1-0.1-4.6
				C46.1,70.8,46.2,71.5,46.2,72.3z"/>
			<path id="XMLID_32_" class="st3" d="M46.7,70.1c-0.2,0.2-0.4,0.2-0.7,0.3c0.4,1.5,0.6,3.1,0.1,4.5c-0.1,0.2-0.3,0.4-0.6,0.5
				c0,0,0,0,0,0c-0.1-0.1-0.3-0.4-0.4-0.8c-0.1,0-0.2,0.1-0.3,0.1c0,0,0,0,0,0c0,0,0,0,0,0c0,0,0,0,0,0c0,0,0,0,0,0c0,0,0,0,0,0
				c-0.3-1.7-0.4-3.8,0.4-5.3c0.1-0.2,0.2-0.3,0.2-0.4c0,0,0,0,0,0c0,0,0,0,0,0c0,0,0,0,0,0c0.1,0.1,0.3,0.5,0.5,1.2
				c0.2-0.1,0.4-0.2,0.7-0.3c0,0,0,0,0,0c0,0,0,0,0,0c0,0,0,0,0,0c0,0,0,0,0,0c0,0,0,0,0,0c0.1,0,0.1-0.1,0.2-0.2
				c-0.1-0.4-0.2-0.7-0.4-1c0,0.1-0.1,0.1-0.1,0.1c0,0-0.1,0-0.1,0c0,0,0,0,0,0c-0.2-0.4-0.7-0.7-0.9-0.5c-1.8,1.6-1.4,4.4-0.9,6.6
				c-0.1,0.1-0.1,0.1-0.2,0.2c0.3,0.8,0.6,1.4,1.3,1.4c0.7,0,1.1-0.8,1.4-1.8C47.1,73.1,47.3,71.6,46.7,70.1z"/>
			<path id="XMLID_31_" class="st2" d="M46,70.3C46,70.4,46.1,70.4,46,70.3c0.3,0,0.5,0,0.7-0.2c0,0,0-0.1,0-0.1
				C46.5,70.1,46.2,70.2,46,70.3C46,70.3,46,70.3,46,70.3z"/>
			<path id="XMLID_30_" class="st1" d="M46.9,69.8c-0.1,0-0.1,0.1-0.2,0.2c0.6,1.5,0.4,3.1,0.3,4.7c0.2-0.8,0.2-1.7,0.2-2.4
				C47.2,71.6,47.1,70.6,46.9,69.8z"/>
			<path id="XMLID_29_" class="st2" d="M45.3,69.4c-0.9,1.6-0.7,3.6-0.4,5.3c0,0,0,0,0,0c0.1,0,0.2-0.1,0.3-0.1
				c-0.2-0.5-0.3-1.3-0.3-2.4C44.9,70.9,45.1,69.9,45.3,69.4z"/>
			<path id="XMLID_28_" class="st3" d="M46.3,68.9C46.3,68.9,46.4,68.9,46.3,68.9C46.4,68.8,46.3,68.9,46.3,68.9z"/>
			<path id="XMLID_27_" class="st1" d="M45.4,68.4c0.2-0.2,0.7,0.1,0.9,0.5c0,0,0,0,0,0c0,0,0,0,0,0c0,0,0,0,0,0c0,0,0.1-0.1,0.1,0
				c0,0,0.1,0,0.1-0.1c-0.2-0.4-0.5-0.7-0.9-0.7c-1.3,0-1.6,2.6-1.6,4.2c0,0.8,0.1,1.9,0.4,2.8c0.1-0.1,0.1-0.1,0.2-0.2
				C44,72.8,43.6,69.9,45.4,68.4z"/>
			<path id="XMLID_26_" class="st1" d="M43,78.3c0.2-1.6,1.2-3.4,2.9-3.6c-0.1,0-0.2,0-0.4,0c-1.6,0-2.8,1.8-2.8,4.2
				c0,1.7,0.6,3.1,1.5,3.8C43.4,81.4,42.8,79.9,43,78.3z"/>
			<path id="XMLID_25_" class="st1" d="M47.3,75.6c1.1,2,1.1,4.4,0.2,6.4c0.5-0.8,0.9-1.8,0.9-3.1C48.3,77.5,47.9,76.3,47.3,75.6z"
				/>
			<path id="XMLID_24_" class="st1" d="M47,76.9c0.3,0.6,0.4,1.3,0.4,2c0,1.1-0.4,2.2-0.9,2.8c0.1,0.1,0.1,0.2,0.2,0.3
				C47.7,80.4,47.8,78.5,47,76.9z"/>
			<path id="XMLID_23_" class="st2" d="M44.9,75.6c-1.6,1.3-1.9,4-0.5,5.6c-0.4-0.6-0.6-1.4-0.6-2.4c0-1.8,0.8-3.2,1.8-3.2
				c0,0,0.1,0,0.1,0c0-0.1,0.1-0.1,0.1-0.2C45.4,75.4,45.2,75.4,44.9,75.6z"/>
			<path id="XMLID_22_" class="st2" d="M46.6,76.3c0.1,0.2,0.3,0.4,0.4,0.6c0,0.1,0.1,0.1,0.1,0.2c-0.1-0.4-0.3-0.8-0.5-1.1
				c0,0.1-0.1,0.1-0.1,0.1c0,0,0.1,0.1,0.1,0.1C46.5,76.2,46.6,76.2,46.6,76.3z"/>
			<path id="XMLID_21_" class="st3" d="M46.5,75.9C46.5,75.9,46.5,75.9,46.5,75.9C46.5,75.9,46.5,75.9,46.5,75.9z"/>
			<path id="XMLID_18_" class="st3" d="M47.3,75.6c-0.4-0.4-0.8-0.7-1.3-0.8c-1.8,0.2-2.8,2-2.9,3.6c-0.2,1.6,0.4,3.1,1.3,4.3
				c0.4,0.3,0.8,0.4,1.3,0.4c0.7,0,1.4-0.4,1.9-1.1C48.4,79.9,48.3,77.5,47.3,75.6z M46.7,81.9c-0.1-0.1-0.1-0.2-0.2-0.3
				c-0.3,0.3-0.6,0.5-0.9,0.5c-0.5,0-0.9-0.3-1.2-0.9c-1.3-1.6-1.1-4.3,0.5-5.6c0.3-0.2,0.6-0.2,0.8-0.2c0,0.1,0,0.1-0.1,0.2
				c0.3,0,0.5,0.2,0.8,0.4c0-0.1,0.1-0.1,0.1-0.1c0,0,0,0,0,0c0,0,0,0,0,0c0.3,0.3,0.4,0.7,0.5,1.1C47.8,78.6,47.7,80.5,46.7,81.9z"
				/>
			<path id="XMLID_17_" class="st2" d="M45.4,81.7c0.1,0.1-0.1,0.2,0,0.3c0.1-0.1,0.1-0.2,0.1-0.2c0.2,0.1,0.7,1.2,0.7,3.2
				c0,0.8-0.1,1.5-0.2,2c0,0,0.1,0,0.1,0C46.6,85.4,46.6,82.9,45.4,81.7z"/>
			<path id="XMLID_16_" class="st2" d="M45.1,83C45,83,44.8,83,44.7,82.9c-0.5,1.6-0.3,3.4,0.6,4.9c-0.2-0.5-0.4-1.4-0.4-2.7
				C44.9,84.2,45,83.6,45.1,83z"/>
			<path id="XMLID_15_" class="st3" d="M45.6,88.2C45.6,88.3,45.6,88.3,45.6,88.2C45.6,88.3,45.6,88.3,45.6,88.2
				C45.6,88.3,45.6,88.3,45.6,88.2C45.6,88.3,45.6,88.3,45.6,88.2c-0.1,0-0.3-0.2-0.4-0.4c-0.9-1.5-1.1-3.3-0.6-4.9
				C44.8,83,45,83,45.1,83c0.1-0.5,0.2-0.8,0.3-1c-0.1-0.1,0.1-0.3,0-0.3c1.2,1.2,1.2,3.7,0.7,5.4c0,0-0.1,0-0.1,0
				c-0.1,0.5-0.2,0.8-0.3,1c0.3,0,0.7,0,1,0.1c0.1-0.3,0.2-0.6,0.3-1h0h-0.1c0.3-1.2,0.1-2.4,0.1-3.6c-0.1-0.9-0.1-1.8-0.9-2.4
				c-0.5-0.1-1,0.1-1.4,0.5c0,0,0,0,0-0.1c-0.2,0.3-0.3,0.6-0.4,1c0.1,0,0.1,0.2,0.2,0.2c-0.6,1.4-0.2,2.9-0.3,4.4
				c0.2,1.2,0.6,2.2,1.5,2.2c0.5,0,0.8-0.4,1.1-0.9C46.3,88.3,46,88.3,45.6,88.2z"/>
			<path id="XMLID_14_" class="st2" d="M45.7,88.1c0,0.1-0.1,0.1-0.1,0.2c0.3,0,0.7,0.1,1,0.1c0-0.1,0.1-0.1,0.1-0.2
				C46.4,88.1,46.1,88.1,45.7,88.1z"/>
			<path id="XMLID_12_" class="st1" d="M46.9,82.7c-0.1-0.6-0.3-1.1-0.6-1.4c-0.2-0.3-0.5-0.4-0.8-0.4c-0.4,0-0.7,0.3-1,0.7
				c0,0,0,0,0,0.1c0.3-0.4,1-0.6,1.4-0.5c0.8,0.6,0.8,1.5,0.9,2.4c0,1.2,0.3,2.4-0.1,3.6H47h0c0.1-0.7,0.2-1.5,0.2-2.1
				C47.2,84.4,47.1,83.5,46.9,82.7z"/>
			<path id="XMLID_11_" class="st1" d="M44.4,82.7c-0.1,0-0.1-0.1-0.2-0.2c-0.2,0.8-0.3,1.8-0.3,2.6c0,0.6,0,1.3,0.2,2
				C44.2,85.6,43.9,84.1,44.4,82.7z"/>
		</g>
	</g>
	<g id="XMLID_3_">
		<rect id="XMLID_8_" x="40.8" y="126.8" class="st5" width="10" height="1"/>
		<rect id="XMLID_7_" x="39.2" y="129.5" class="st5" width="13.2" height="1"/>
		<rect id="XMLID_6_" x="35.2" y="132.2" class="st5" width="21.2" height="1"/>
		<rect id="XMLID_5_" x="35.2" y="134.9" class="st5" width="21.2" height="1"/>
		<rect id="XMLID_4_" x="40.8" y="137.6" class="st5" width="10" height="1"/>
	</g>
</g>
</svg>
