<?xml version="1.0" encoding="utf-8"?>
<!-- Generator: Adobe Illustrator 19.0.0, SVG Export Plug-In . SVG Version: 6.00 Build 0)  -->
<svg version="1.1" id="Capa_1" xmlns="http://www.w3.org/2000/svg" xmlns:xlink="http://www.w3.org/1999/xlink" x="0px" y="0px"
	 viewBox="0 0 200 200" style="enable-background:new 0 0 200 200;" xml:space="preserve">
<style type="text/css">
	.st0{fill:#603813;}
	.st1{fill:#42210B;}
	.st2{fill:#FED09A;}
	.st3{fill:none;stroke:#FED09A;stroke-width:14.2311;stroke-linecap:round;stroke-miterlimit:10;}
	.st4{fill:#285C7D;}
	.st5{fill:#2D688D;}
	.st6{fill:#FF7257;}
	.st7{fill:#C05749;}
	.st8{fill:#333333;}
	.st9{fill:#666666;}
</style>
<g id="XMLID_22_">
	<g id="XMLID_51_">
		<path id="XMLID_20_" class="st0" d="M125.6,167.9v6h7.7c2.8,0,5,2.2,5,5c0,0.5-0.1,0.9-0.2,1.3h-22.9c-0.1-0.4-0.2-0.9-0.2-1.3
			v-11H125.6z"/>
		<path id="XMLID_19_" class="st1" d="M138.2,179.2c0,0.4-0.1,0.7-0.2,1.1h-22.9c-0.1-0.3-0.2-0.7-0.2-1.1H138.2z"/>
	</g>
	<g id="XMLID_48_">
		<path id="XMLID_18_" class="st0" d="M93.1,163.6l-3.9,4.5l5.8,4.9c2.1,1.8,2.3,4.9,0.6,7c-0.3,0.4-0.6,0.6-1,0.9l-17.2-14.7
			c0.2-0.4,0.4-0.8,0.7-1.1l7.1-8.3L93.1,163.6z"/>
		<path id="XMLID_17_" class="st1" d="M95.4,180.3c-0.3,0.3-0.5,0.5-0.8,0.7l-17.2-14.7c0.1-0.3,0.3-0.6,0.5-0.9L95.4,180.3z"/>
	</g>
	<path id="XMLID_16_" class="st0" d="M119.7,28.1c0,0,3.3-2.2,3.7-4.9c0,0-2.6,2-3.7,1.9c0,0,2.2-2.7,0.9-5.1c0,0-0.7,3-2.1,3
		c0,0,0.8-4-2.1-5.6c0,0,0.5,3.8-3,3.7c-3.5-0.1-19-1.1-19.6,9.6c0,0-5.3,5.4,1.7,14.4c7.1,9.1,8.3,5.7,9,10.4l0.9-0.9l0.8,0.4
		l0.6-0.8l1.1,0.2L119.7,28.1z"/>
	<path id="XMLID_15_" class="st2" d="M106.4,40.8l2.2,2.8l1.3-0.9l-1.2-4.8c0,0-1.7-7.9,1.7-8.6c0,0,5.9,2,9.4-1.3
		c0,0,1.5,2.1,1.4,4.7c-0.1,2.6,1.3,3.1,2.6,3.8c1.3,0.7-0.5,2.3-0.5,2.3s1.6,6.1,1,8.1c-0.5,1.6-4.6,3-9.1,2.8
		c-0.3,1.2-0.9,4-0.5,5.2h-6.5c0,0-1.5-3.3-0.8-7.6c-0.6-0.6-0.5-1-0.5-1s-6.4,1.4-7-3.8C99.3,37.5,106.4,40.8,106.4,40.8z"/>
	<path id="XMLID_14_" class="st3" d="M109.6,63.3c0,0,9.2,23.3,29.8,36.9"/>
	<g id="XMLID_43_">
		<polygon id="XMLID_13_" class="st4" points="92.6,165.4 110.4,135.2 115,109.3 102.5,107.1 98.3,130.7 81.6,158.9 		"/>
	</g>
	<path id="XMLID_12_" class="st5" d="M112.4,91.7c6,0,10.9,4.9,10.9,10.9v11l6.4,22.3l-2.7,34.9l-12.7-1l2.5-32.6l-8.5-13.4
		c-4-1.6-6.8-5.5-6.8-10.1v-11.2C101.5,96.6,106.4,91.7,112.4,91.7z"/>
	<path id="XMLID_11_" class="st6" d="M107.8,54.9h8.3c4.7,1.7,8.1,6.2,8.1,11.6v32.9c0,0,0,0,0,7.7H99.7c0-7.7,0-7.7,0-7.7V66.5
		C99.7,61.2,103.1,56.6,107.8,54.9z"/>
	<g id="XMLID_39_">
		<path id="XMLID_10_" class="st0" d="M100.5,100.2c10.6-5.2,18-20.2,19.1-31.6c0.5-5.4-0.5-9.4-2.9-11.2c-7.6-5.7-16.9,2.6-17,2.7
			l1,1.1c0.1-0.1,8.5-7.6,15.1-2.6c1.9,1.4,2.8,5,2.3,9.9c-1,11-8.1,25.4-18.2,30.4L100.5,100.2z"/>
	</g>
	<path id="XMLID_9_" class="st0" d="M94,59.6h4.7c0.7,0,1.4,0.1,2,0.4v44.5c-0.6,0.3-1.3,0.4-2,0.4H94c-3,0-5.4-2.4-5.4-5.4V65
		C88.6,62,91.1,59.6,94,59.6z"/>
	<path id="XMLID_8_" class="st3" d="M110.5,65c0,0-5.8,26.5-4.6,51.1"/>
	<path id="XMLID_7_" class="st7" d="M113.2,58.5c4.7,1.3,5.4,7.8,1.8,16.4c-2.1,5-2.2,5.5-2.2,5.5l-10.3-0.2
		C102.5,80.2,98.1,54.1,113.2,58.5z"/>
	<g id="XMLID_23_">
		<g id="XMLID_34_">
			<path id="XMLID_6_" class="st8" d="M84.4,124.6l8.9,6L62,177.2l-8.9-6c-5.4-3.6-6.8-10.9-3.2-16.3l18.2-27
				C71.8,122.4,79.1,121,84.4,124.6z"/>
		</g>
		<g id="XMLID_32_">
			
				<rect id="XMLID_5_" x="45.6" y="145.1" transform="matrix(-0.5589 0.8293 -0.8293 -0.5589 250.5045 159.4579)" width="74.4" height="2.4"/>
		</g>
		<g id="XMLID_30_">
			<circle id="XMLID_4_" class="st8" cx="103.6" cy="115.5" r="3.2"/>
		</g>
		<g id="XMLID_26_">
			<path id="XMLID_27_" class="st9" d="M56.7,177.2c0-2.9,2.4-5.3,5.3-5.3c2.9,0,5.3,2.4,5.3,5.3c0,2.9-2.4,5.3-5.3,5.3
				C59.1,182.6,56.7,180.2,56.7,177.2z M59,177.2c0,1.7,1.4,3.1,3.1,3.1c1.7,0,3.1-1.4,3.1-3.1c0-1.7-1.4-3.1-3.1-3.1
				C60.4,174.1,59,175.5,59,177.2z"/>
		</g>
		<g id="XMLID_24_">
			
				<rect id="XMLID_1_" x="43.5" y="149.3" transform="matrix(-0.56 0.8285 -0.8285 -0.56 235.6423 174.3892)" class="st9" width="56.1" height="1"/>
		</g>
	</g>
</g>
</svg>
