<?xml version="1.0" encoding="utf-8"?>
<!-- Generator: Adobe Illustrator 19.0.0, SVG Export Plug-In . SVG Version: 6.00 Build 0)  -->
<svg version="1.1" id="Capa_1" xmlns="http://www.w3.org/2000/svg" xmlns:xlink="http://www.w3.org/1999/xlink" x="0px" y="0px"
	 viewBox="0 0 200 200" style="enable-background:new 0 0 200 200;" xml:space="preserve">
<style type="text/css">
	.st0{fill:#754C28;}
	.st1{fill:#EACFAB;}
</style>
<g id="XMLID_8_">
	<g id="XMLID_9_">
		<polygon id="XMLID_6_" class="st0" points="161.6,143.6 180.5,143.6 157.5,110.7 151.1,115.4 140.5,102.8 137.9,106.6 		"/>
		<polygon id="XMLID_5_" class="st1" points="156.7,108.9 146.7,93.3 141.3,101.4 151.1,113.1 		"/>
		<polygon id="XMLID_4_" class="st0" points="103.5,82.2 98.1,87.1 94.4,74.5 78.9,103 103.3,143.6 158.7,143.6 123.1,87.2 
			118.7,93.7 		"/>
		<polygon id="XMLID_3_" class="st1" points="95.3,72.9 98.7,84.7 103.5,79.9 118.5,91.5 122.5,85.6 105.1,56.4 		"/>
		<polygon id="XMLID_2_" class="st0" points="50.6,96.9 19.5,143.6 100.4,143.6 72,96.9 61.3,105.9 		"/>
		<polygon id="XMLID_1_" class="st1" points="51.9,95.1 61.3,103.5 71.1,95.3 61.9,79.9 		"/>
	</g>
</g>
</svg>
