<?xml version="1.0" encoding="utf-8"?>
<!-- Generator: Adobe Illustrator 19.0.0, SVG Export Plug-In . SVG Version: 6.00 Build 0)  -->
<svg version="1.1" id="Capa_1" xmlns="http://www.w3.org/2000/svg" xmlns:xlink="http://www.w3.org/1999/xlink" x="0px" y="0px"
	 viewBox="0 0 200 200" style="enable-background:new 0 0 200 200;" xml:space="preserve">
<style type="text/css">
	.st0{fill:#FFFFFF;}
	.st1{fill:#71471C;}
	.st2{fill:#3B2314;}
	.st3{fill:#D2CDA7;}
	.st4{fill:#EACFAB;}
	.st5{fill:#C9B5A7;}
	.st6{fill:#231F20;}
	.st7{fill:#FFF100;}
	.st8{fill:#786C59;}
	.st9{fill:#618DA1;}
	.st10{fill:#96D9F7;}
	.st11{fill:#0087A5;}
	.st12{fill:#262261;}
	.st13{fill:#F48755;}
	.st14{fill:#B2B4B7;}
	.st15{fill:#AB5F3A;}
	.st16{fill:#754C28;}
	.st17{fill:#B3B2A6;}
	.st18{fill:#945E25;}
	.st19{fill:#603813;}
</style>
<g>
	<g>
		<g>
			<g>
				<g>
					<path id="XMLID_202_" class="st0" d="M86.3,174.8c0,0,0,0.4,0,0.4c0,0.1,0,0.1,0,0.2c-0.2,0.2-0.5,0.4-0.8,0.5
						c0-0.2,0-0.4,0-0.4c-1-0.1-2,0.1-3,0c-1.2,0-2.3,0-3.5,0c-1,0-1.9,0.1-2.9,0.2c-0.5,0-1.1,0-1.6-0.1c-0.3-0.1-0.7-0.4-1-0.6
						c0-0.1,0-0.2,0-0.2c0,0-0.1,0-0.1-0.1c0,0,0,0,0,0c0,0-0.1,0-0.1,0c0,0,0,0,0,0c0,0.1-0.1,0.4,0,0.6c0,0.3,0,0.6,0.1,0.9
						c0,0.1,0,0.2,0,0.3c0,0,0,0.1,0,0.1c0,0.1-0.1,0.4,0,0.5c1,1.2,3.1,1.1,4.4,1c2.1-0.1,4.2-0.1,6.4-0.4c0.5-0.1,1.9,0.1,2.2-0.2
						c0.2-0.3,0.2-0.7,0.2-1C86.6,176.3,86.7,174.9,86.3,174.8z"/>
					<g>
						<path class="st1" d="M86.2,174.9c0-0.1-0.2-1.1-0.2-1.2c0,0,0,0.1,0,0.1c0,0,0,0,0,0c0-0.2-0.1-0.5-0.2-0.7
							c0,0-0.1-0.4-0.2-0.6c-0.1-0.4-0.3-0.7-0.6-1c0,0,0,0,0-0.1c0,0,0,0-0.1-0.1c0.2-0.7,0.4-1.4,0.4-2.1c0,0,0,0,0-0.1
							c0-0.4,0.1-1-0.1-1.4c-0.1-0.1-0.1-0.2-0.2-0.3c-0.3-0.5-0.7-1-1.4-1.3c0,0,0,0.1,0,0.1c0-0.3,0-0.6-0.1-0.9
							c0-0.1-0.2-0.3-0.2-0.4c-0.2-0.3-0.6-0.6-1-0.7c0,0,0,0,0,0c-0.4-0.2-0.8-0.3-1.2-0.2c-1.4-0.2-3,0.3-3.4,1.9c0,0,0,0.1,0,0.3
							c-0.1,0-0.1,0-0.2,0c-0.2,0-0.4,0.1-0.6,0.1c0,0,0,0,0,0c-0.4,0-0.8,0.1-1.1,0.3c-0.2,0.1-0.4,0.3-0.5,0.5
							c-0.2,0.2-0.3,0.4-0.4,0.7c0,0,0,0.1,0,0.1c0,0,0,0,0,0c0,0,0,0.4,0,0.5c0,0.1,0,0.1,0,0.2c0,0,0,0.1,0,0.1c0,0.1,0,0.2,0,0.3
							c0,0.1,0,0.3,0,0.4c0,0.1,0,0.1,0,0.1c0.1,0.4,0.1,0.7,0.2,0.9c-0.2,0.2-0.4,0.3-0.6,0.5c-0.8,0.9-1.2,1.8-1.3,2.7
							c0,0,0,0.5,0,0.5c0,0.1,0,0.1,0,0.2c0,0.1,0,0.5,0.1,0.8c0.2,0.4,0.3,0.6,0.8,0.9c0.6,0.3,1.6,0.3,2.2,0.2
							c1.9-0.2,3.7-0.5,5.6-0.4c0.9,0.1,3.9,0.3,4.1-0.4C86.2,175.5,86.3,175,86.2,174.9z M85.3,169.6
							C85.3,169.6,85.3,169.6,85.3,169.6C85.3,169.7,85.3,169.7,85.3,169.6C85.3,169.7,85.3,169.7,85.3,169.6z"/>
					</g>
					<g>
						<g>
							<path id="XMLID_199_" class="st2" d="M74,172.2c1.1-1.2,2.1-1.7,3.7-1.9c1.8-0.2,3.2,0.7,4.9,1.4c0,0,0-0.3,0-0.3
								C80.5,169.1,75.5,169,74,172.2C74,172.1,74,172.2,74,172.2L74,172.2z"/>
						</g>
						<g>
							<g>
								<path id="XMLID_198_" class="st2" d="M77.8,166.3c-0.3-0.1-0.7,0-1,0.1c0,0,0,0.1,0,0.1c0,0,0,0.2,0,0.3
									c0,0.1,0.2,0.2,0.2,0.3c0.3,0.2,0.6,0.4,0.7,0.8c0,0,0-0.2,0-0.3c0-0.1,0-0.3,0-0.4c0,0.3,0,0.1,0,0c0-0.1,0-0.2,0-0.3
									c0-0.1,0-0.7,0-0.7c-0.2,0-0.3,0.1-0.4,0.2c-0.1,0.1,0.1,0.7,0,0.7c0.1,0,0.2,0,0.3,0c0-0.2,0-0.4,0-0.7
									c-0.1,0.2,0,0.4,0,0.6c0,0.2,0,0.3,0.1,0.5c0-0.1,0-0.3,0-0.3c0-0.1,0-0.2,0-0.3c-0.1-0.2-0.2-0.3-0.4-0.5c0,0,0,0.3,0,0.3
									c0,0.1,0,0.3,0,0.3c0.1,0.1,0.1,0.2,0.2,0.3c0-0.2,0-0.4,0-0.6c-0.1-0.1-0.1-0.2-0.2-0.2c0,0.2,0,0.4,0,0.6
									c0,0,0.2,0.1,0.2,0.1c0,0,0-0.6,0-0.6c-0.1-0.2-0.4-0.2-0.7-0.3c0,0,0,0.5,0,0.5c0.1,0,0.2,0.1,0.3,0.2
									c0.1,0.1,0.3,0.1,0.4,0.2c0-0.2,0-0.4,0-0.6c0,0-0.1-0.1-0.2-0.1c0,0,0,0.3,0,0.3c0,0.1,0,0.2,0,0.3
									c0.1,0.1,0.1,0.2,0.2,0.2c0,0,0-0.3,0-0.3c0-0.1,0-0.3,0-0.3c-0.1-0.1-0.1-0.2-0.2-0.4c0,0.2,0,0.5,0,0.7
									c0.2,0.1,0.3,0.2,0.4,0.4c0-0.2,0-0.5,0-0.7c0,0,0-0.1-0.1-0.1c0,0.2,0,0.3,0,0.5c0-0.1,0-0.1,0-0.2c0-0.1,0-0.7,0-0.7
									c-0.1,0-0.2,0-0.3,0c0,0.2,0,0.5,0,0.7c0.1-0.1,0.3-0.2,0.4-0.2c0-0.2,0-0.5,0-0.7c-0.1,0.5-0.1,1.1,0,1.7
									c0-0.2,0-0.5,0-0.7c-0.1-0.4-0.6-0.5-0.9-0.7c0,0.1,0,0.1,0,0.2c0,0,0,0,0,0c0,0.1,0,0.1,0,0.2
									C77.1,166.6,77.5,166.6,77.8,166.3C77.8,166.3,77.8,166.3,77.8,166.3L77.8,166.3z"/>
							</g>
							<path id="XMLID_197_" class="st2" d="M84.3,166.5C84.3,166.5,84.3,166.5,84.3,166.5C84.3,166.5,84.3,166.5,84.3,166.5
								c-0.1-0.2-0.5-0.4-0.6-0.3c-0.1,0.1-0.1,1.2-0.1,1.2C83.6,167.3,84.2,166.7,84.3,166.5C84.3,166.6,84.3,166.5,84.3,166.5z"/>
						</g>
					</g>
					<g>
						<path id="XMLID_196_" class="st3" d="M79,165.8c0.6,0.1,1.3-0.1,1.9-0.1c0.7,0,1.3,0.2,1.9,0.3c0,0,0-0.5,0-0.5
							c-1.1-0.6-2.9-0.6-3.9,0.1C79,165.6,79,165.8,79,165.8L79,165.8z"/>
					</g>
					<g>
						<path id="XMLID_195_" class="st2" d="M86,173.5c-0.3-0.8-0.8-2.1-1.5-2.8c-0.2-0.4-0.4-0.7-0.8-0.9c0,0,0,0.3,0,0.4
							c0.6,0.5,1.1,1.6,0.8,2.4c-0.2,0.7-0.8,1.1-1.4,1.5c-0.4,0.2-0.8,0.4-1.3,0.4c-0.1,0-0.1,0-0.2,0c-1,0.2-2.1,0.2-3.1,0.3
							c-1,0.1-2,0.2-3,0.2c-0.4,0-0.9-0.1-1.3-0.1c-0.2,0-0.4-0.1-0.5-0.2c-0.4-0.2-0.2-0.5-0.3,0.3c0-0.2-0.1-0.7-0.1-0.8
							c-0.9,2.9,4.9,1.8,6.1,1.7c0.3,0,0.7-0.1,1.1-0.1c0,0.1,0,0.2,0.1,0.2c1.2-0.2,2.3-0.2,3.6,0c0.5,0,1.7,0.2,1.9-0.5
							c0,0,0,0,0,0c0,0,0,0,0,0c0,0,0-0.1,0-0.1C86.3,174.7,86.2,174.1,86,173.5z"/>
						<path class="st2" d="M83.1,170.8C83.1,170.8,83.1,170.8,83.1,170.8C83.1,170.8,83.1,170.8,83.1,170.8c0.7-0.8,0.5-2.1,1.1-3
							c0,0,0-0.1,0-0.1c0.2,0.1,0.5,0.3,0.6,0.4c0.2,0.2,0.4,0.3,0.5,0.6c0-0.1,0-0.1,0-0.2c0,0.1,0,0.2,0,0.3c0,0.1,0,0.3,0,0.4
							c0,0,0,0.4,0.1,0.4c0,0,0,0,0,0c0,0,0,0,0-0.1c0.1-0.4,0.1-0.9,0-1.3c0-0.2-0.1-0.2-0.1-0.1c0-0.4-0.1-0.7-0.4-1
							c-0.2-0.1-0.5-0.5-0.8-0.6c0,0,0,0,0,0c0,0,0,0,0,0c-0.2-0.1-0.4,0-0.4,0.3c0,0,0,0.1,0,0.2c-0.1,0.3-0.1,0.6-0.2,0.9
							c0,0.2-0.1,0.4-0.1,0.7c0,0.2-0.1,0.7-0.2,0.9c0,0.1-0.1,0.1-0.1,0.1c-0.1,0.1,0,0.4,0,0.6C83,170.3,83.1,170.8,83.1,170.8z
							 M85.4,168.7c0,0.1,0,0.2,0,0.3c0-0.2,0-0.3,0-0.5C85.4,168.6,85.4,168.6,85.4,168.7z"/>
					</g>
				</g>
				<g>
					<path id="XMLID_192_" class="st0" d="M112.8,174.8c0,0,0,0.4,0,0.4c0,0.1,0,0.1,0,0.2c0.2,0.2,0.5,0.4,0.8,0.5
						c0-0.2,0-0.4,0-0.4c1-0.1,2,0.1,3,0c1.2,0,2.3,0,3.5,0c1,0,1.9,0.1,2.9,0.2c0.5,0,1.1,0,1.6-0.1c0.3-0.1,0.7-0.4,1-0.6
						c0-0.1,0-0.2,0-0.2c0,0,0.1,0,0.1-0.1c0,0,0,0,0,0c0,0,0.1,0,0.1,0c0,0,0,0,0,0c0,0.1,0.1,0.4,0,0.6c0,0.3,0,0.6-0.1,0.9
						c0,0.1,0,0.2,0,0.3c0,0,0,0.1,0,0.1c0,0.1,0.1,0.4,0,0.5c-1,1.2-3.1,1.1-4.4,1c-2.1-0.1-4.2-0.1-6.4-0.4
						c-0.5-0.1-1.9,0.1-2.2-0.2c-0.2-0.3-0.2-0.7-0.2-1C112.5,176.2,112.4,174.9,112.8,174.8z"/>
					<g>
						<path class="st1" d="M112.9,175.5c0.2,0.7,3.3,0.4,4.1,0.4c1.9-0.1,3.7,0.2,5.6,0.4c0.6,0.1,1.6,0.1,2.2-0.2
							c0.5-0.2,0.6-0.5,0.8-0.9c0.1-0.3,0.1-0.7,0.1-0.8c0-0.1,0-0.1,0-0.2c0,0,0-0.5,0-0.5c-0.2-0.9-0.5-1.8-1.3-2.7
							c-0.2-0.2-0.4-0.3-0.6-0.5c0.1-0.3,0.2-0.6,0.2-0.9c0,0,0-0.1,0-0.1c0-0.1,0-0.3,0-0.4c0-0.1,0-0.2,0-0.3c0,0,0-0.1,0-0.1
							c0-0.1,0-0.1,0-0.2c0-0.1,0-0.5,0-0.5c0,0,0,0,0,0c0,0,0,0,0-0.1c-0.1-0.3-0.2-0.5-0.4-0.7c-0.1-0.2-0.2-0.4-0.5-0.5
							c-0.3-0.1-0.7-0.3-1.1-0.3c0,0,0,0,0,0c-0.2-0.1-0.4-0.1-0.6-0.1c-0.1,0-0.1,0-0.2,0c0-0.1,0-0.2,0-0.3
							c-0.4-1.6-2-2.1-3.4-1.9c-0.4-0.1-0.9,0-1.2,0.2c0,0,0,0,0,0c-0.4,0.2-0.8,0.4-1,0.7c-0.1,0.1-0.2,0.3-0.2,0.4
							c-0.1,0.3-0.1,0.6-0.1,0.9c0,0,0-0.1,0-0.1c-0.7,0.3-1.1,0.8-1.4,1.3c-0.1,0.1-0.2,0.1-0.2,0.3c-0.2,0.4-0.2,1-0.1,1.4
							c0,0.1,0,0.1,0,0.1c0,0.7,0.2,1.4,0.4,2.1c0,0,0,0-0.1,0.1c0,0,0,0,0,0.1c-0.2,0.3-0.4,0.7-0.6,1c-0.1,0.2-0.2,0.6-0.2,0.6
							c-0.1,0.2-0.1,0.5-0.2,0.7c0,0,0,0,0,0c0,0,0-0.1,0-0.1c0,0.1-0.2,1.2-0.2,1.2C112.8,175,112.9,175.5,112.9,175.5z
							 M113.8,169.7C113.8,169.7,113.8,169.6,113.8,169.7C113.8,169.6,113.8,169.6,113.8,169.7C113.8,169.6,113.8,169.6,113.8,169.7
							z"/>
					</g>
					<g>
						<g>
							<path id="XMLID_189_" class="st2" d="M125.1,172.1c-1.5-3.1-6.5-3-8.6-0.8c0,0,0,0.3,0,0.3c0.9-0.3,1.8-0.9,2.8-1.2
								c0.7-0.2,1.4-0.2,2.1-0.2C122.9,170.3,124,171,125.1,172.1C125.1,172.1,125.1,172.1,125.1,172.1L125.1,172.1z"/>
						</g>
						<g>
							<g>
								<path id="XMLID_188_" class="st2" d="M121.3,166.3c0.3,0.3,0.7,0.3,1,0.5c0-0.1,0-0.2,0-0.3c0-0.1-0.5,0.2-0.5,0.2
									c-0.2,0.1-0.3,0.2-0.4,0.4c0,0.2,0,0.5,0,0.7c0.1-0.5,0-1.1-0.1-1.7c0,0.2,0,0.5,0,0.7c0.2,0,0.3,0.1,0.4,0.2
									c0-0.2,0-0.5,0-0.7c-0.1,0-0.2,0-0.3,0c0,0,0,0.6,0,0.7c0.1,0.3,0.1-0.4,0-0.2c0,0.2,0,0.5,0,0.7c0.1-0.2,0.2-0.3,0.4-0.4
									c0-0.2,0-0.5,0-0.7c-0.1,0.1-0.1,0.2-0.2,0.4c0,0.1,0,0.3,0,0.3c0,0,0,0.3,0,0.3c0.1-0.1,0.1-0.1,0.2-0.2c0-0.1,0-0.2,0-0.3
									c0,0,0-0.3,0-0.3c0,0-0.2,0.1-0.2,0.1c0,0.2,0,0.4,0,0.6c0.1-0.1,0.2-0.1,0.3-0.2c0.1,0,0.2-0.1,0.4-0.2c0,0,0-0.5,0-0.5
									c-0.2,0-0.5,0-0.7,0.3c0,0.1,0,0.6,0,0.6c0,0,0.1-0.1,0.2-0.1c0-0.2,0-0.4,0-0.6c-0.1,0.1-0.1,0.2-0.2,0.2
									c0,0.2,0,0.4,0,0.6c0.1-0.1,0.1-0.2,0.2-0.3c0-0.1,0-0.3,0-0.3c0,0,0-0.3,0-0.3c-0.2,0.1-0.3,0.2-0.4,0.5c0,0.1,0,0.2,0,0.3
									c0,0.1,0,0.3,0,0.3c0.1-0.2,0.1-0.3,0.1-0.5c0-0.2,0-0.4-0.1-0.6c0,0.2,0,0.4,0,0.7c0.1,0,0.2,0,0.3,0c-0.1,0,0.1-0.7,0-0.7
									c-0.1-0.1-0.3-0.2-0.4-0.2c0,0,0,0.7,0,0.7c0,0.1,0,0.1,0,0.2c0,0,0,0.1,0,0.1c0,0.1,0,0.1,0,0c0,0.1,0,0.3,0,0.4
									c0,0,0,0.3,0,0.2c0.1-0.3,0.3-0.5,0.6-0.7c0.1-0.1,0.2-0.2,0.3-0.3c0,0,0-0.1,0-0.1c0,0,0-0.2,0-0.1c0,0,0-0.3,0-0.3
									C122,166.3,121.6,166.2,121.3,166.3C121.3,166.3,121.3,166.3,121.3,166.3L121.3,166.3z"/>
							</g>
							<path id="XMLID_187_" class="st2" d="M114.8,166.5C114.8,166.5,114.8,166.5,114.8,166.5C114.8,166.5,114.8,166.5,114.8,166.5
								c0.1-0.2,0.5-0.4,0.6-0.3c0.1,0.1,0.1,1.2,0.1,1.2C115.5,167.3,114.9,166.7,114.8,166.5C114.8,166.5,114.8,166.5,114.8,166.5
								z"/>
						</g>
					</g>
					<g>
						<path id="XMLID_186_" class="st3" d="M120.1,165.5c-1-0.7-2.8-0.7-3.9-0.1c0,0,0,0.5,0,0.5c0.7-0.1,1.3-0.3,1.9-0.3
							c0.6,0,1.3,0.2,1.9,0.1C120.1,165.8,120.1,165.6,120.1,165.5L120.1,165.5z"/>
					</g>
					<g>
						<path id="XMLID_185_" class="st2" d="M113.1,173.5c0.3-0.8,0.8-2.1,1.5-2.8c0.2-0.4,0.4-0.7,0.8-0.9c0,0,0,0.3,0,0.4
							c-0.6,0.5-1.1,1.6-0.8,2.4c0.2,0.7,0.8,1.1,1.4,1.5c0.4,0.2,0.9,0.4,1.3,0.4c0.1,0,0.1,0,0.2,0c1,0.2,2.1,0.2,3.1,0.3
							c1,0.1,2,0.2,3,0.2c0.4,0,0.9-0.1,1.3-0.1c0.2,0,0.4-0.1,0.5-0.2c0.4-0.2,0.2-0.5,0.3,0.3c0-0.2,0.1-0.7,0.1-0.8
							c0.9,2.9-4.9,1.8-6.1,1.7c-0.3,0-0.7-0.1-1.1-0.1c0,0.1,0,0.2-0.1,0.2c-1.2-0.2-2.3-0.2-3.6,0c-0.5,0-1.7,0.2-1.9-0.5
							c0,0,0,0,0,0c0,0,0,0,0,0c0,0,0-0.1,0-0.1C112.8,174.7,112.9,174.1,113.1,173.5z"/>
						<path class="st2" d="M116.1,170.2c0-0.1,0-0.4,0-0.6c0,0-0.1-0.1-0.1-0.1c-0.1-0.2-0.1-0.7-0.2-0.9c0-0.2-0.1-0.4-0.1-0.7
							c-0.1-0.3-0.1-0.6-0.2-0.9c0-0.1,0-0.2,0-0.2c-0.1-0.3-0.2-0.3-0.4-0.3c0,0,0,0,0,0c0,0,0,0,0,0c-0.3,0.1-0.7,0.4-0.8,0.6
							c-0.3,0.3-0.4,0.6-0.4,1c0-0.1,0-0.1-0.1,0.1c-0.1,0.4-0.1,0.9,0,1.3c0,0,0,0.1,0,0.1c0,0,0,0,0,0c0.1,0,0.1-0.4,0.1-0.4
							c0-0.1,0-0.3,0-0.4c0-0.1,0-0.2,0-0.3c0,0.1,0,0.1,0,0.2c0.1-0.3,0.3-0.4,0.5-0.6c0.1-0.1,0.4-0.3,0.6-0.4c0,0,0,0.1,0,0.1
							c0.6,0.9,0.4,2.2,1.1,3c0,0,0,0,0,0c0,0,0,0,0,0C116,170.8,116.1,170.2,116.1,170.2z M113.7,168.5c0,0.2,0,0.3,0,0.5
							c0-0.1,0-0.2,0-0.3C113.7,168.6,113.7,168.5,113.7,168.5z"/>
					</g>
				</g>
			</g>
			<g>
				<g>
					<g>
						<g>
							<path class="st4" d="M81,152.3c-1,0-3.9-0.3-3.9,0c-0.1,0.8,0.1,2.4,0.2,3.1c0.1,1.2,0.1,2.5,0.2,3.7c0,1,0.3,6.3,0.4,6.5
								c0,0,0,0,0,0.1c0,0,0.1,0.1,0.1,0c0-0.1,0.1-0.2,0.1-0.2c0-0.1,0-0.1,0.1-0.2c0.1-0.1,0.2-0.2,0.3-0.3
								c0.1-0.1,0.2-0.2,0.3-0.3c0.1,0,0.2-0.1,0.3-0.1c0.8-0.4,2.3-0.6,3.1-0.3c0.7,0.3,1.2,0.9,1.3,1c0,0.1,0.1,0.2,0.1,0.3
								c0,0,0,0,0,0c0-0.2,0.4-5.9,0.5-7.3c0-0.9,0.1-1.8,0.1-2.7c0-0.8,0.1-2.3,0.1-3.1C84.5,152.4,81.4,152.3,81,152.3z"/>
						</g>
						<path id="XMLID_181_" class="st5" d="M81,152.3c-1.3,0.1-4.2-0.7-3.9,0c0,0.2,0,1.3,0,1.5c0.7,0.1,1.5,0,2.1,0
							c0.3,0,3.2,0.1,3.2,0.1s0,2.4,0,3.2c0,0.9-0.1,1.8-0.1,2.7c-0.1,1.3-0.1,2.7-0.3,4c0,0.1,0,0.3,0,0.4c0.1,0,0.2,0.1,0.3,0.1
							c0.7,0.2,1.2,0.9,1.3,1c0,0.1,0.1,0.2,0.1,0.3c0,0,0,0,0,0c0-0.2,0.4-5.9,0.5-7.3c0-0.9,0.1-1.8,0.1-2.7
							c0-0.8,0.2-2.3,0.2-3.2C84.5,152.3,81.4,152.2,81,152.3z"/>
					</g>
					<g>
						<g>
							<g>
								<path id="XMLID_180_" class="st6" d="M82.1,171.1c-2.1-1.4-4.6-1.9-6.8-0.5c-1.3,0.8-2,2.3-2,3.9c0,1.8,1.5,1.9,2.8,1.8
									c3.1-0.2,6.2-0.4,9.3-0.2c0,0,0-0.2,0-0.2c-2.3-0.4-4.7-0.2-7.1,0c-1.2,0.1-3.9,0.9-4.8-0.4c-0.9-1.3,0.2-3.3,1.1-4.2
									c0.5-0.6,1.2-0.9,1.9-1.1C78.5,169.6,80.5,170.1,82.1,171.1C82.1,171.2,82.1,171.2,82.1,171.1L82.1,171.1z"/>
							</g>
							<g>
								<path id="XMLID_179_" class="st6" d="M83.7,170c1.4,1.2,2.3,2.8,2.5,4.7c0,0,0-0.1,0-0.1C86,172.8,85.2,171.1,83.7,170
									C83.7,170,83.7,170,83.7,170L83.7,170z"/>
							</g>
							<g>
								<path id="XMLID_178_" class="st6" d="M78.2,168.2c-0.9-1.3-0.3-2.8,0.8-3.5c0.7-0.4,1.5-0.4,2.2-0.5c0.8,0,1.5,0.1,2.1,0.7
									c0.8,0.9,0.1,2.7,0,3.8c0,0.1,0,0.4,0,0.2c0.1-1.1,0.6-2.3,0.3-3.4c-0.4-1.7-1.7-1.8-3.1-1.6c-1.3,0.1-2.4,0.6-2.8,2
									C77.6,166.7,77.6,167.6,78.2,168.2C78.2,168.2,78.2,168.2,78.2,168.2L78.2,168.2z"/>
							</g>
							<g>
								<path id="XMLID_177_" class="st6" d="M77.4,166.3c-1.1,0.2-2.1,0.3-2.4,1.7c-0.1,0.7,0,1.4,0.1,2.1c0,0.1,0-0.1,0-0.1
									c-0.1-0.9-0.3-1.8,0.2-2.6C75.7,166.8,76.8,166.7,77.4,166.3C77.4,166.4,77.4,166.3,77.4,166.3L77.4,166.3z"/>
							</g>
							<g>
								<path id="XMLID_176_" class="st6" d="M84.1,166.5c0.3,0.5,0.8,0.8,1.2,1.2c0.6,0.7,0,2.2-0.2,3c0,0,0,0.2,0,0.2
									c0.3-0.8,0.5-1.8,0.4-2.6c0-0.9-0.8-1.4-1.5-1.9C84.1,166.4,84.1,166.5,84.1,166.5L84.1,166.5z"/>
							</g>
							<g>
								<path id="XMLID_175_" class="st7" d="M77.1,167.7c1.2-0.5,2.5-0.7,3.8-0.7c1.4,0,2.4,0.6,3.6,1.2c0,0,0-0.2,0-0.2
									C82.7,165.8,79.2,166.3,77.1,167.7C77.1,167.6,77.1,167.7,77.1,167.7L77.1,167.7z"/>
							</g>
							<g>
								<path id="XMLID_174_" class="st7" d="M77.3,168.1c1-0.4,2-0.5,3.1-0.4c1.1,0.1,2,0.6,3,1c0,0,0-0.2,0-0.2
									C81.6,166.9,79.2,166.9,77.3,168.1C77.3,168.1,77.3,168.1,77.3,168.1L77.3,168.1z"/>
							</g>
							<g>
								<path id="XMLID_173_" class="st7" d="M77.8,168.4c1.7-0.3,3.4-0.2,4.8,0.9c0,0,0-0.2,0-0.2c-1.1-1.6-3.3-1.4-4.8-0.9
									C77.8,168.3,77.8,168.4,77.8,168.4L77.8,168.4z"/>
							</g>
							<g>
								<path id="XMLID_172_" class="st6" d="M86.1,174.4c0.1,0.4,0.2,0.8-0.1,1.2c-0.3,0.3-0.8,0.2-1.1,0.4c0,0,0,0.1,0,0.2
									c0.4,0.2,1.1,0,1.3-0.6C86.3,175.2,86.3,174.7,86.1,174.4C86.1,174.4,86.1,174.4,86.1,174.4L86.1,174.4z"/>
							</g>
							<g>
								<path id="XMLID_171_" class="st6" d="M73.4,174.9c-0.1-0.1-0.1-0.1-0.2-0.1c0,0,0,0.2,0,0.2c0.1,0.6,0.1,1.3,0.1,2
									c0,0,0,0.1,0,0.1c0.1-0.7,0-1.5-0.1-2.2c0,0.1,0,0.1,0,0.2C73.3,175,73.3,175,73.4,174.9C73.4,175,73.4,174.9,73.4,174.9
									L73.4,174.9z"/>
							</g>
							<g>
								<path id="XMLID_170_" class="st6" d="M86.3,174.8C86.3,174.8,86.3,174.8,86.3,174.8C86.3,174.8,86.3,174.8,86.3,174.8
									c-0.1,0.1,0.1,0.3,0.1,0.4c0.2,0.3,0.1,1,0,1.4c0,0.2,0,0.5-0.1,0.7c0,0,0,0.1,0,0.1c0.1-0.5,0.1-1,0.1-1.6
									C86.6,175.3,86.6,175.1,86.3,174.8C86.3,174.8,86.3,174.9,86.3,174.8C86.3,174.9,86.3,174.9,86.3,174.8
									C86.3,174.9,86.3,174.8,86.3,174.8L86.3,174.8z"/>
							</g>
							<g>
								<path id="XMLID_169_" class="st6" d="M73.3,177.1c0.1,0.7,1.1,0.9,1.6,1c1.4,0.3,2.8,0.3,4.3,0.3c1.3,0,2.5,0,3.8-0.1
									c0.9-0.1,3.1,0,3.5-1c0,0,0-0.1,0-0.1c-0.3,0.4-1.3,0.5-1.8,0.5c-0.5,0.1-1,0.1-1.5,0.2c-1.1,0.1-2.2,0.1-3.3,0.2
									c-1.4,0-2.8,0-4.2-0.1C75.1,177.9,73.4,177.8,73.3,177.1C73.3,176.9,73.3,177.1,73.3,177.1L73.3,177.1z"/>
							</g>
						</g>
					</g>
					<g>
						<path id="XMLID_168_" class="st8" d="M79.4,153.2c-0.6,0-0.4,1.1-0.3,1.5c0.5,1.1,1.6,1.1,2.3,0.2c0,0,0-0.2,0-0.2
							c-0.6,0.4-1.3,0.8-1.9,0.3C79,154.6,78.8,153.7,79.4,153.2C79.4,153.3,79.4,153.2,79.4,153.2L79.4,153.2z"/>
					</g>
					<g>
						
							<rect id="XMLID_167_" x="70.4" y="158.9" transform="matrix(5.267310e-002 0.9986 -0.9986 5.267310e-002 232.1411 73.2143)" class="st8" width="14.1" height="0.2"/>
					</g>
					<g>
						
							<rect id="XMLID_166_" x="84" y="152.2" transform="matrix(0.998 6.303561e-002 -6.303561e-002 0.998 10.221 -4.9847)" class="st8" width="0.2" height="14.5"/>
					</g>
				</g>
				<g>
					<g>
						<g>
							<path class="st4" d="M121.9,152c-0.9-0.1-6.6,0.3-7.4-0.2c0,0,0.4,5.9,0.4,7.2c0,1,0.1,2,0.1,3c0,0.6,0.3,3.3,0.3,3.4
								c0,0,0,0,0,0.1c0,0,0.1,0.1,0.1,0c0-0.1,0-0.2,0-0.3c0-0.1,0-0.1,0.1-0.2c0.1-0.1,0.2-0.3,0.3-0.4c0.1-0.1,0.2-0.2,0.3-0.3
								c0.1,0,0.3,0,0.4-0.1c0.8-0.4,2.3-0.3,3.1,0.1c0.2,0.1,1.4,1,1.4,1.1c0,0,0,0,0,0c0-0.2,0.1-0.5,0.1-0.7c0,0,0-0.1,0-0.2
								c0-0.1,0.4-5.1,0.4-6.4c0-0.9,0.1-1.8,0.1-2.7C121.8,154.7,121.9,152,121.9,152z"/>
						</g>
						<path id="XMLID_164_" class="st5" d="M116.4,163.6c0-1,0-2-0.1-3c0-1.2-0.4-7.2-0.4-7.2c0.6,0.3,3.9,0.2,5.9,0.2
							c0-0.8,0.1-1.5,0.1-1.5c-0.9-0.1-6.6,0.3-7.4-0.2c0,0,0.4,5.9,0.4,7.2c0,1,0.1,2,0.1,3c0,0.6,0.3,3.3,0.3,3.4c0,0,0,0,0,0.1
							c0,0,0.1,0.1,0.1,0c0.2-1,0.9-1.3,1-1.3C116.4,163.8,116.4,163.7,116.4,163.6z"/>
					</g>
					<g>
						<g>
							<g>
								<path id="XMLID_163_" class="st6" d="M117.6,169.4c2.9-1.8,7.1,0.9,8,4.1c0.9,3.4-2.3,2.6-4.1,2.5c-2.6-0.2-5.3-0.5-7.9,0
									c0,0,0,0.2,0,0.2c3.1-0.2,6.2,0,9.3,0.2c1.6,0.1,2.9-0.1,2.8-2C125.6,170.4,120.7,167.3,117.6,169.4
									C117.6,169.3,117.6,169.4,117.6,169.4L117.6,169.4z"/>
							</g>
							<g>
								<path id="XMLID_162_" class="st6" d="M115.4,170c-1.5,1.1-2.3,2.8-2.5,4.6c0,0,0,0.1,0,0.1
									C113.1,172.8,113.9,171.2,115.4,170C115.4,170,115.4,170,115.4,170L115.4,170z"/>
							</g>
							<g>
								<path id="XMLID_161_" class="st6" d="M120.9,168.2c0.6-0.6,0.5-1.4,0.4-2.2c-0.2-1.3-1.4-1.8-2.5-2
									c-1.1-0.2-2.9-0.3-3.3,1.2c-0.3,1.3,0.2,2.4,0.2,3.7c0,0.2,0,0,0-0.1c0-1.1-0.5-2.6-0.1-3.6c0.3-0.8,1.2-0.9,1.9-1
									c0.7,0,1.4,0.1,2,0.3C121,164.9,122,166.7,120.9,168.2C120.9,168.2,120.9,168.2,120.9,168.2L120.9,168.2z"/>
							</g>
							<g>
								<path id="XMLID_160_" class="st6" d="M121.7,166.4c0.6,0.2,1.1,0.4,1.7,0.7c1,0.5,0.6,2,0.5,2.9c0,0,0,0.1,0,0.1
									c0.2-0.7,0.3-1.4,0.1-2.1C123.8,166.7,122.8,166.6,121.7,166.4C121.7,166.3,121.7,166.4,121.7,166.4L121.7,166.4z"/>
							</g>
							<g>
								<path id="XMLID_159_" class="st6" d="M115,166.4c-0.6,0.4-1.4,1-1.5,1.9c0,0.9,0.1,1.8,0.4,2.6c0,0,0-0.1,0-0.2
									c-0.2-0.9-0.6-2-0.3-2.8c0.2-0.6,1-0.8,1.3-1.4C115,166.5,115,166.4,115,166.4L115,166.4z"/>
							</g>
							<g>
								<path id="XMLID_158_" class="st7" d="M122,167.6c-2.1-1.2-5.6-1.8-7.4,0.4c0,0,0,0.2,0,0.2c1.2-0.6,2.2-1.2,3.6-1.2
									C119.5,166.9,120.8,167.2,122,167.6C122,167.7,122,167.6,122,167.6L122,167.6z"/>
							</g>
							<g>
								<path id="XMLID_157_" class="st7" d="M121.8,168.1c-1.9-1.2-4.3-1.2-6.1,0.4c0,0,0,0.2,0,0.2c1-0.3,1.9-0.8,3-1
									C119.8,167.5,120.8,167.8,121.8,168.1C121.8,168.1,121.8,168.1,121.8,168.1L121.8,168.1z"/>
							</g>
							<g>
								<path id="XMLID_156_" class="st7" d="M121.3,168.3c-1.5-0.6-3.7-0.7-4.8,0.9c0,0,0,0.2,0,0.2c1.5-1.1,3.1-1.2,4.8-0.9
									C121.3,168.4,121.3,168.3,121.3,168.3L121.3,168.3z"/>
							</g>
							<g>
								<path id="XMLID_155_" class="st6" d="M113,174.4c-0.2,0.3-0.2,0.8-0.1,1.1c0.1,0.6,0.8,0.8,1.3,0.6c0,0,0-0.2,0-0.2
									c-0.4-0.1-0.8,0-1.1-0.4C112.7,175.2,112.9,174.7,113,174.4C113,174.4,113,174.4,113,174.4L113,174.4z"/>
							</g>
							<g>
								<path id="XMLID_154_" class="st6" d="M125.7,175c0.1,0,0.1,0,0.2,0.1c0-0.1,0-0.1,0-0.2c-0.1,0.7-0.2,1.5-0.1,2.2
									c0,0.1,0,0,0,0c0-0.7,0-1.4,0.1-2c0,0,0-0.2,0-0.2C125.8,174.8,125.8,174.9,125.7,175C125.7,174.9,125.7,175,125.7,175
									L125.7,175z"/>
							</g>
							<g>
								<path id="XMLID_153_" class="st6" d="M112.7,174.9C112.8,174.9,112.8,174.9,112.7,174.9
									C112.8,174.9,112.8,174.8,112.7,174.9c-0.3,0.2-0.2,0.5-0.2,1c0,0.5,0,1,0.1,1.5c0,0,0,0,0-0.1c-0.1-0.6-0.2-1.4-0.1-2
									C112.6,175.1,112.8,175,112.7,174.9C112.8,174.8,112.8,174.8,112.7,174.9C112.8,174.8,112.8,174.8,112.7,174.9
									C112.7,174.8,112.7,174.9,112.7,174.9L112.7,174.9z"/>
							</g>
							<g>
								<path id="XMLID_152_" class="st6" d="M125.8,177c-0.1,0.8-1.8,0.9-2.4,1c-1.4,0.2-2.8,0.2-4.2,0.1c-1.1,0-2.2-0.1-3.3-0.2
									c-0.5,0-1-0.1-1.5-0.2c-0.4-0.1-1.5-0.1-1.8-0.5c0,0,0,0.1,0,0.1c0.4,1,2.4,0.9,3.3,1c1.2,0.1,2.4,0.1,3.6,0.1
									c1.5,0,2.9,0,4.4-0.3c0.6-0.1,1.9-0.2,2-1.1C125.8,177.1,125.8,177,125.8,177L125.8,177z"/>
							</g>
						</g>
					</g>
					<g>
						<path id="XMLID_151_" class="st8" d="M119.8,153.9c0.4,0.2,0.8,0.2,1.1,0.6c0.2,0.3,0.1,0.7-0.1,1c-0.4,0.7-1.2,0.8-1.8,0.4
							c0,0,0,0.1,0,0.2c0.7,0.8,1.7,0.3,2-0.7c0.3-0.8-0.2-1.9-1.2-1.7C119.8,153.8,119.8,153.9,119.8,153.9L119.8,153.9z"/>
					</g>
					<g>
						
							<rect id="XMLID_150_" x="121.5" y="151.7" transform="matrix(0.998 6.334200e-002 -6.334200e-002 0.998 10.2974 -7.3807)" class="st8" width="0.2" height="14.1"/>
					</g>
					<g>
						
							<rect id="XMLID_149_" x="107.7" y="159.2" transform="matrix(5.339355e-002 0.9986 -0.9986 5.339355e-002 267.8084 35.9822)" class="st8" width="14.5" height="0.2"/>
					</g>
				</g>
			</g>
			<g>
				<g>
					<g>
						<path id="XMLID_148_" class="st9" d="M90.7,145.7c-0.2-0.2-0.5-0.4-0.5-0.4s-0.1,0.6-0.1,0.7c0,0.1-0.1,0.1-0.2,0.2
							C90.3,146.2,90.5,146,90.7,145.7z"/>
						<path id="XMLID_147_" class="st10" d="M90.7,145.7c-0.3,0.2-0.4,0.2-0.8,0.5c-0.9,0.8-3.8,1.5-5.3,1.7
							c-2,0.3-7.8,1.5-12.5-1.3l0-0.1c-0.2-0.2-0.4-0.4-0.6-0.6c-0.1,0.1-0.1,0.1-0.1,0.2c0,0,0.2,3.4,0.3,3.9c0.6,1,5.4,2,6.5,2.2
							c1.8,0.2,3.7,0,5.6-0.2c1.2-0.2,7-1.9,7-2.2c0-0.5,0-1,0-1.6c0-0.8,0-1.5,0.1-2.3C90.9,145.9,90.8,145.8,90.7,145.7z"/>
						<path id="XMLID_146_" class="st9" d="M72.1,146.6l-0.1-1c0,0-0.3,0.1-0.5,0.3C71.7,146.2,71.9,146.4,72.1,146.6z"/>
					</g>
					<g>
						<path id="XMLID_145_" class="st9" d="M108.7,145.6c0.2-0.2,0.5-0.4,0.5-0.4s0.1,0.6,0.1,0.7c0,0.1,0.1,0.1,0.2,0.2
							C109.2,146.1,109,145.8,108.7,145.6z"/>
						<path id="XMLID_144_" class="st10" d="M108.7,145.6c0.3,0.2,0.4,0.3,0.8,0.5c0.9,0.8,3.8,1.5,5.3,1.8c2,0.3,7.8,1.6,12.5-1.3
							l0-0.1c0.2-0.2,0.4-0.4,0.6-0.7c0.1,0.1,0.1,0.1,0.1,0.2c0,0-0.2,3.5-0.3,4c-0.6,1-5.4,2.1-6.5,2.2c-1.8,0.2-3.8,0.1-5.7-0.1
							c-1.2-0.2-6.9-2-6.9-2.3c0-0.5,0-1.1,0-1.6c0-0.8,0-1.5-0.1-2.3C108.6,145.7,108.6,145.7,108.7,145.6z"/>
						<path id="XMLID_143_" class="st9" d="M127.3,146.5l0.1-1c0,0,0.3,0.1,0.5,0.3C127.7,146.1,127.5,146.3,127.3,146.5z"/>
					</g>
				</g>
				<g>
					<path class="st11" d="M127.5,123.4C127.5,123.4,127.5,123.4,127.5,123.4c-0.1-0.1-0.2-0.1-0.2-0.1c-0.1,0-0.1,0-0.1,0.1
						c0-0.1-0.1-0.1-0.2-0.1c-1.7-0.3-3.4-0.4-5.1-0.7c-0.1,0-0.2,0-0.3,0.1c-1.8-0.6-3.6-0.6-5.5-0.6c-2.5,0-5-0.3-7.5-0.6
						c-2.5-0.2-5-0.5-7.5-0.3c-2.5,0.2-5,0.5-7.5,0.8c-4,0.4-7.9,0.6-11.9,0.9c-0.7,0-1.3,0.1-2,0.2c-1.2,0.1-2.9,0.2-4,1
						c-0.6-0.1-1.2,0-1.8,0.1c-0.5,0.1-1,0.1-1.5,0.4c0,0-0.1-0.1-0.1-0.1c-0.1,0-0.2,0-0.3,0.1c0,0,0,0.1,0,0.1c0,0,0,0,0,0
						c-0.1,0.1-0.1,0.2-0.1,0.4c0,0.1,0,0.3,0.1,0.4c0,0,0,0.1,0,0.2c0,0.1,0,0.1,0.1,0.2c0,0,0,0,0,0c-0.1,0.4-0.1,0.9-0.1,1.3
						c0,0.3,0,0.6,0,1c0,0,0,0.1,0,0.1c0,0,0,0.1,0,0.1c0,0.8,0,1.5-0.1,2.3c0,0.1,0,0.2,0.1,0.2c-0.2,0.6,0,15.3,0.1,15.6
						c0,0,0,0.1,0,0.1c0,0.2,0.1,0.3,0.2,0.4c0.2,0.1,0.4,0.2,0.6,0.3c0,0,0,0,0.1,0c0.6,0.3,1.1,0.6,1.7,0.9c0.1,0.1,0.2,0,0.3-0.1
						c0,0,0.1,0,0.1,0c0.5,0.4,1.4,0.4,1.9,0.5c0.9,0.1,2.1,0.5,3.1,0.2c0.9,0.1,1.8,0.1,2.6-0.1c0.8,0.1,1.7-0.1,2.5-0.3
						c0.7,0.1,1.8-0.6,2.3-0.8c0.3-0.1,0.6-0.3,1-0.4c0.3,0,0.5-0.1,0.7-0.3c0.1-0.1,0.2-0.1,0.3-0.2c0.2-0.1,0.3-0.1,0.4-0.3
						c0,0,0.1,0,0.1-0.1c0,0,0,0,0,0c0,0,0,0,0,0c0,0,0,0,0,0c0,0,0-0.1,0-0.1c0,0,0,0,0,0c0,0,0-0.1,0-0.2c0-1,0.1-1.9,0.2-2.8
						c0.1-0.8,0.3-1.7,0.2-2.5c0.7-0.1,1.5-0.2,2.2-0.3c0.2,0,0.4-0.1,0.7-0.1c0.7-0.1,1.4-0.1,2.1-0.1c2.3,0.1,4.5,0.2,6.7,0
						c1-0.1,2.1-0.1,3.1-0.1c0.5,0,1,0,1.5,0.1c0.2,0,0.4,0.1,0.6,0.1c0.5,0.1,1,0.2,1.5,0.2c0,0.2,0.1,0.3,0.2,0.4
						c-0.1-0.1,0-0.1,0,0c0,0,0,0,0.1,0c0,0,0,0,0,0c0.1,0.2,0.1,0.4,0.1,0.5c0,0.5,0.1,1,0.1,1.4c0,0.9,0,1.8,0,2.6
						c0,0.1,0,0.2,0,0.2c0,0-0.1,0.1-0.1,0.1c0,0.6,0.4,0.6,0.9,0.8c0.8,0.4,1.6,0.8,2.5,1c1.8,0.6,3.8,0.8,5.7,0.8
						c0.1,0,0.1,0,0.2,0c1.2,0.3,2.8,0,4-0.2c0.3,0,0.6-0.1,0.9-0.2c0,0,0.1,0,0.1,0.1c1.1,0.2,2.7-0.6,3.6-1.3
						c0.3-0.3,0.3-1.1,0.2-1.5c-0.1-1,0.1-2-0.1-2.9c0-0.6,0.1-1.2,0.1-1.7c0-0.4,0-0.8,0-1.2c0.1-1.5,0.1-3.1,0.1-4.6
						c0-0.6,0.1-1.2,0.1-1.9c0-0.2,0-0.4,0-0.5c0-0.3,0-0.7,0-1c0-1.1,0-2.3,0-3.4c0-0.9,0-1.8,0-2.7
						C127.5,124.7,127.6,124,127.5,123.4z M89,140.8C89,140.8,89,140.8,89,140.8C89,140.8,89,140.8,89,140.8
						C89,140.8,89,140.8,89,140.8C89,140.8,89,140.8,89,140.8z M72.4,124.6C72.3,124.6,72.3,124.6,72.4,124.6
						C72.4,124.6,72.4,124.6,72.4,124.6C72.4,124.6,72.4,124.6,72.4,124.6z"/>
				</g>
			</g>
			<g>
				<g>
					<path id="XMLID_139_" class="st12" d="M72.8,96.5c-0.1,16.6-1.7,33.3-0.7,49.8c0,0.1,0,0,0,0c-0.2-8.4-0.2-16.8,0.1-25.2
						C72.5,112.9,72.9,104.7,72.8,96.5C72.9,96.5,72.8,96.5,72.8,96.5L72.8,96.5z"/>
				</g>
				<g>
					<path id="XMLID_138_" class="st12" d="M127.5,96.1c-0.1,8.4,0.1,16.8,0,25.2c-0.1,8.3-0.3,16.6-0.2,24.9c0,0.1,0,0.2,0,0
						c0.1-8.6,0.2-17.1,0.3-25.7C127.7,112.4,127.9,104.2,127.5,96.1C127.5,96.1,127.5,96.1,127.5,96.1L127.5,96.1z"/>
				</g>
				<g>
					<path id="XMLID_137_" class="st12" d="M87.6,140.6c3.7,0,7.5-0.3,11.2-0.3c3.7-0.1,7.5,0.1,11.2,0.6c0,0,0-0.2,0-0.2
						c-7.3-1.6-15-0.8-22.4-0.1C87.6,140.5,87.6,140.6,87.6,140.6L87.6,140.6z"/>
				</g>
				<g>
					<path id="XMLID_136_" class="st12" d="M90.3,140.5c-0.3,0.4-0.1,1.7-0.1,2.2c-0.1,1.1-0.1,2.2-0.1,3.2c0,0.1,0,0.2,0.1,0
						c0-1.1,0.1-2.1,0.1-3.2C90.3,142.1,90.4,141.3,90.3,140.5C90.3,140.5,90.3,140.5,90.3,140.5L90.3,140.5z"/>
				</g>
				<g>
					<path id="XMLID_135_" class="st12" d="M71.8,150.1c0.5,1,2.2,1.3,3.2,1.6c1.8,0.5,3.7,0.8,5.5,0.9c3.4,0.2,7.5-0.7,10.4-2.6
						c0,0,0-0.2,0-0.2c-1.6,0.5-3.1,1.3-4.7,1.8c-1.6,0.5-3.2,0.7-4.9,0.7c-1.7,0.1-3.4-0.2-5.1-0.6c-0.9-0.2-1.7-0.4-2.5-0.7
						C73.1,150.8,72.2,150.6,71.8,150.1C71.8,150,71.8,150,71.8,150.1L71.8,150.1z"/>
				</g>
				<g>
					<path id="XMLID_134_" class="st12" d="M71.4,146.1c0,1.3,0.1,2.6,0.3,3.9c0,0.1,0-0.1,0-0.1C71.7,148.7,71.6,147.4,71.4,146.1
						C71.4,146.1,71.4,146.1,71.4,146.1L71.4,146.1z"/>
				</g>
				<g>
					<path id="XMLID_133_" class="st12" d="M71.4,146.2c0-0.1,0.2-0.2,0.3-0.3c0.1-0.1,0.2-0.1,0.4-0.2c0,0,0,0,0,0
						c-0.1,0-0.3,0.1-0.4,0.2C71.6,145.9,71.5,146,71.4,146.2C71.4,146.1,71.4,146.2,71.4,146.2L71.4,146.2z"/>
				</g>
				<g>
					<path id="XMLID_132_" class="st12" d="M90.4,145.9c-2.9,1.8-6.3,2.3-9.6,2.5c-1.6,0.1-3.2,0-4.8-0.3c-1.7-0.3-3-1.1-4.4-1.9
						c0,0,0,0.2,0,0.2c2.3,2.2,6,2.3,8.9,2.2C83.9,148.5,87.5,148,90.4,145.9C90.4,146,90.4,145.9,90.4,145.9L90.4,145.9z"/>
				</g>
				<g>
					<path id="XMLID_131_" class="st12" d="M90.1,145.3c0.1,0.2,0.2,0.3,0.4,0.3c0.1,0,0.1,0.1,0.2,0.1c0.1,0,0.1,0.1,0.2,0.1
						c0,0,0-0.2,0-0.2c-0.1-0.2-0.2-0.3-0.4-0.4C90.4,145.3,90.2,145.1,90.1,145.3C90.1,145.2,90.1,145.3,90.1,145.3L90.1,145.3z"/>
				</g>
				<g>
					<path id="XMLID_130_" class="st12" d="M90.9,145.8c-0.1,1.4-0.1,2.8-0.1,4.2c0,0.1,0,0.1,0,0C90.9,148.6,91,147.2,90.9,145.8
						C90.9,145.8,90.9,145.7,90.9,145.8L90.9,145.8z"/>
				</g>
				<g>
					<path id="XMLID_129_" class="st12" d="M109.1,140.4c-0.1,0.6,0,1.4,0.1,2c0,1.1,0.1,2.3,0.1,3.4c0,0.1,0,0.2,0.1,0
						c0-1.1-0.1-2.1-0.1-3.2C109.2,142,109.4,141,109.1,140.4C109.1,140.4,109.1,140.4,109.1,140.4L109.1,140.4z"/>
				</g>
				<g>
					<path id="XMLID_128_" class="st12" d="M127.7,149.9c-0.6,1-2.6,1.2-3.6,1.4c-1.8,0.5-3.7,0.7-5.5,0.8c-1.7,0-3.3-0.2-4.9-0.6
						c-1.8-0.4-3.4-1.3-5.1-1.9c0,0,0,0.2,0,0.2c2.9,1.9,6.6,2.7,10,2.7c1.8,0,3.7-0.4,5.5-0.8C125.1,151.4,127.1,151,127.7,149.9
						C127.7,149.9,127.7,149.9,127.7,149.9L127.7,149.9z"/>
				</g>
				<g>
					<path id="XMLID_127_" class="st12" d="M128,146c-0.1,1.3-0.2,2.6-0.3,3.9c0,0,0,0.1,0,0.1C127.9,148.7,128,147.3,128,146
						C128,146,128,146,128,146L128,146z"/>
				</g>
				<g>
					<path id="XMLID_126_" class="st12" d="M128,146c0-0.1-0.1-0.3-0.3-0.3c-0.1,0-0.1-0.1-0.2-0.1c-0.1,0-0.1-0.1-0.2-0.1
						c0,0,0,0,0,0c0.1,0.1,0.2,0.1,0.4,0.2c0.1,0,0.1,0.1,0.2,0.1C127.9,145.9,128,146,128,146C128,146,128,146,128,146L128,146z"/>
				</g>
				<g>
					<path id="XMLID_125_" class="st12" d="M109,145.8c2.9,2,6.2,2.5,9.6,2.7c3,0.1,6.9,0.1,9.3-2.2c0,0,0-0.2,0-0.2
						c-1.4,0.8-2.5,1.5-4.1,1.9c-1.6,0.4-3.2,0.4-4.8,0.4C115.6,148.2,112,147.7,109,145.8C109,145.8,109,145.8,109,145.8L109,145.8
						z"/>
				</g>
				<g>
					<path id="XMLID_124_" class="st12" d="M109.3,145.1c-0.1-0.1-0.3,0.1-0.4,0.1c-0.2,0.1-0.3,0.2-0.4,0.4c0,0,0,0.2,0,0.2
						c0.1,0,0.1-0.1,0.2-0.1c0.1-0.1,0.2-0.1,0.2-0.2C109.1,145.4,109.3,145.3,109.3,145.1C109.4,145.1,109.4,145.1,109.3,145.1
						L109.3,145.1z"/>
				</g>
				<g>
					<path id="XMLID_123_" class="st12" d="M108.5,145.6c-0.1,1.4,0,2.8,0,4.2c0,0.1,0,0.1,0,0C108.7,148.5,108.6,147.1,108.5,145.6
						C108.6,145.6,108.6,145.6,108.5,145.6L108.5,145.6z"/>
				</g>
			</g>
			<g>
				<path id="XMLID_122_" class="st12" d="M98.9,123.3c-0.1,3.9-2.6,12.1,2.2,13.9c0,0,0-0.1,0-0.1
					C96.4,134.8,98.9,127.6,98.9,123.3C98.9,123.3,98.9,123.3,98.9,123.3L98.9,123.3z"/>
				<path id="XMLID_121_" class="st12" d="M101,122.3c-0.3,2.2-0.1,4.6-0.1,6.8c0,2.7,0,5.5,0.1,8.2c0,0.1,0,0.1,0,0
					c0-2.5,0-5,0-7.5C101,127.2,101.2,124.7,101,122.3C101.1,122.3,101,122.2,101,122.3L101,122.3z"/>
			</g>
		</g>
		<g>
			<path id="XMLID_120_" class="st4" d="M104.3,102.9c3.1-0.9,7.1-2.2,8.1-5.8h-10.8l-14.8,0C90.8,102.7,98.1,104.7,104.3,102.9z"/>
			<path id="XMLID_119_" class="st13" d="M127.5,97.1h-12.7c-1.2,4.8-5.9,6.5-9.5,7.6c-7.3,2.4-15.9-0.3-20.5-7.6l2.1,0h0l-14,0
				l-0.1,14.4l-0.5,12.8c0,0,23.2-3,32.4-3c9.2,0,23.1,2,23.1,2S128.1,107.1,127.5,97.1z"/>
			<g>
				<polygon id="XMLID_118_" class="st11" points="75.8,124.6 75.7,124.6 75.7,124.6 				"/>
				<path class="st11" d="M80.5,148.4c-0.5-0.1-4.5-1.5-4.7-1.6c-0.1-0.1-0.2-0.3-0.2-0.4c0,0-0.1-21.3-0.1-21.5
					c0-0.1-0.9-0.9-1.4-0.9c-0.5,0.1-1.9,0.5-1.9,0.5c-0.1,0.1-0.1,21.4,0,21.7c0,0,0,0.1,0,0.1c0,0.2,0.1,0.3,0.2,0.4
					c0.2,0.1,0.4,0.2,0.6,0.2c0,0,0,0,0.1,0c0.6,0.3,1.1,0.6,1.7,0.9c0.1,0.1,0.2,0,0.3-0.1c0,0,0.1,0,0.1,0
					c0.5,0.4,1.4,0.4,1.9,0.5c0.9,0.1,2.1,0.5,3.1,0.2c0.5,0.1,1,0.1,1.5,0C81.2,148.5,80.8,148.4,80.5,148.4z M72.3,124.6
					C72.3,124.6,72.3,124.6,72.3,124.6C72.3,124.6,72.3,124.6,72.3,124.6C72.3,124.6,72.3,124.6,72.3,124.6z"/>
				<path id="XMLID_115_" class="st11" d="M116,147.5c-0.9-0.3-3.3-1.2-3.3-1.9c0-0.1-0.1-4.8-0.2-4.9c0,0,0,0,0.1,0c0,0,0,0-0.1,0
					c0-0.1-0.1-0.1,0,0c-0.2-0.1-1.2-0.5-1.7-0.6c-0.2,0-0.4-0.1-0.6-0.1c-0.5,0-1-0.1-1.5-0.1c-0.8,0-1.6,0-2.3,0
					c0.1,0,0.3,0,0.4,0c0.2,0,0.4,0.1,0.6,0.1c0.5,0.1,1.5,0.5,1.7,0.6c-0.1-0.1,0-0.1,0,0c0,0,0,0,0.1,0c0,0,0,0-0.1,0
					c0.1,0.2,0.1,0.4,0.1,0.5c0,0.5,0.1,1,0.1,1.4c0,0.9,0,2.9,0,3c0,0.6,0.4,0.6,0.9,0.8c0.8,0.4,1.6,0.8,2.5,1
					c1.8,0.6,5.8,0.8,5.9,0.8c0.9,0.2,1.9,0.2,2.8,0C119.5,148.3,117.7,148,116,147.5z"/>
			</g>
			<g>
				<path id="XMLID_114_" class="st14" d="M108.6,104.7c3.6-1.2,8.3-2.9,9.5-7.6h-3.4c-1.2,4.8-5.9,6.5-9.5,7.6
					c-1.2,0.4-2.4,0.6-3.6,0.8C103.9,105.7,106.4,105.5,108.6,104.7z"/>
				<path id="XMLID_113_" class="st14" d="M76.1,111.5l0.1-14.4l-3.4,0l-0.1,14.4l-0.5,12.8c0,0,1.3-0.2,3.4-0.4L76.1,111.5z"/>
			</g>
			<path id="XMLID_112_" class="st13" d="M105.2,104.7c3.6-1.2,8.3-2.9,9.5-7.6h-2.3c-1,3.6-5,4.9-8.1,5.8
				c-6.2,1.8-13.5-0.2-17.5-5.8l-2.1,0C89.4,104.5,98,107.1,105.2,104.7z"/>
			<g>
				<path id="XMLID_111_" class="st15" d="M114.7,97.3c-1.3,4.6-5.9,6.3-9.5,7.5c-5.4,1.8-11.6,0.7-16.3-2.9c4.8,4,11,5.3,16.6,3.5
					c3.6-1.2,8.3-3.3,9.5-8H114.7z"/>
			</g>
		</g>
		<path id="XMLID_110_" class="st14" d="M127.4,97.1c0,0-6.1,6.8-4.8,14c1.3,7.1,5.8,12.3,5.8,12.3s-4.6-3.3-6.5-6.6
			c-2-3.3-3.3-10.5,0.4-15.7C125,97.5,127.4,97.1,127.4,97.1z"/>
		<path id="XMLID_109_" class="st14" d="M80,97.1c0,0,3.8,3.9,3.6,10.2c0,0,0.7,14.7-11.1,20.1c0,0,11.8-2.6,13.4-14.1
			C87.5,101.7,82.3,98.2,80,97.1z"/>
		<g>
			<g>
				<path id="XMLID_108_" class="st12" d="M72.3,124.4c4.7-0.4,9.3-1.2,14-1.7c4.4-0.5,8.9-0.9,13.3-1.1c9.3-0.4,18.5,0.3,27.7,1.7
					c0,0,0-0.2,0-0.2c-9-1.9-18.2-2.3-27.3-1.9c-4.4,0.2-8.9,0.6-13.3,1.1C81.9,123,77.1,123.5,72.3,124.4
					C72.3,124.4,72.3,124.4,72.3,124.4L72.3,124.4z"/>
			</g>
		</g>
	</g>
	<g>
		<g>
			<g>
				<path class="st16" d="M73.1,90.7c0-0.2-0.1-0.3-0.3-0.3c-4.9-0.7-5.1,6.1-4.9,10c0,0.5,0.5,0.4,0.7,0c0.5-1.1,1.5-1.7,2.4-2.3
					c0.7-0.4,1.9-0.6,1.9-0.8C73.3,95.5,73,91.2,73.1,90.7z"/>
				<path id="XMLID_106_" class="st16" d="M71.8,119.4c-0.5,0.1-2.4,0.4-2.7,0.5c0,0-0.1,3.1-0.1,3.7c0,1.5-0.1,3-0.2,4.6
					c-0.1,1.4-0.1,4-0.1,4c0.1,0.3,0.8,0.1,0.6,0.4l2.4,0.3c0.3,0.1,0.3-0.2,0.3-0.6c0.2-1.9,0.1-3.8,0-5.6
					c-0.1-2.2,0.4-4.3,0.4-6.5C72.5,119.5,72.2,119.3,71.8,119.4z"/>
			</g>
			<g>
				<path id="XMLID_105_" class="st16" d="M132.9,95.9c-0.1-0.9-0.4-2-0.6-2.8c-0.1-0.2-1.1-1.7-1.9-2.1c-0.7-0.3-2.7-1-2.8-0.8
					c-0.3,1-0.2,2-0.1,3c0,1-0.2,3.8,0.2,3.9c1.7,0.2,4,1.7,5,3.4l0.5,0.7C133.1,101.1,133,96.9,132.9,95.9z"/>
				<path id="XMLID_104_" class="st16" d="M133.8,121.5c-0.3-0.5-1-0.2-1.5-0.2c0.1-0.4,0.1-2,0.1-2s-0.4-0.4-0.9-0.2
					c-0.7,0.2-1.4,0.4-2.1,0.2c-0.2,0-0.6-0.2-0.7-0.4c-0.3-0.5-0.9-0.2-0.9,0.3c0,0.2-0.1,1.6-0.1,1.9c0,0.3-0.2,6.7-0.1,8
					c-0.1,1.1-0.1,2.1-0.1,3.2c0,0.4,0.3,0.8,0.7,0.8c0.9-0.1,1.8,0,2.7,0.1c0.3,0,0.5-0.2,0.7-0.4c0.7-1.1,1.5-2.1,1.9-3.3
					c0.5-1.4,0-3.1,0.2-4.6C133.8,123.9,134.1,122.1,133.8,121.5z"/>
			</g>
		</g>
		<g>
			<path id="XMLID_103_" class="st2" d="M132.3,119.1c-0.6,0.4-1.7,0.5-2.3,0.4c-0.5-0.1-2.2-0.6-2.2-0.6c0,2-0.1,3.8-0.1,5.6
				c0,1.1-0.1,2.4-0.2,3.5c0,1.3,0,3.4-0.2,4.7c0,0,3.7,0.5,3.8,0.4c0.1,0,0.1-0.1,0.2-0.1c0.2-0.2,0.2-0.4,0.1-0.6
				c-0.4-0.9-0.8-1.7-1.1-2.7c-0.2-1.1-0.2-2.3-0.3-3.4c0-0.7-0.1-1.4-0.1-2.1c0-1.3,0.6-1.6,1.3-2.5c0.1-0.1,0-0.2-0.1-0.2
				c-1.6,0.2-2,2.8-2.1,4.2c-0.1,1.9-0.2,4.1,0.6,5.9c-0.3-0.1-0.6-0.1-1-0.1c0.3-2,0-4.2,0-6.3c0-1.2-0.1-2.4-0.2-3.6
				c0-0.6-0.1-1.1-0.2-1.7c0.5,0.4,1.3,0.5,1.8,0.6c0.5,0.1,1,0.1,1.4-0.1c0.5-0.2,0.4-0.3,0.6-0.7
				C132.3,119.8,132.4,119,132.3,119.1z"/>
			<path id="XMLID_102_" class="st2" d="M130.6,97.2c-0.6-0.4-1.2-0.9-2-1.1c0-1.9,0.2-4.1-0.6-5.8l-0.5,0c-0.3,1.9,0.5,6.1-1.2,6.5
				c-0.3,0.1,1.4,0.4,1.7,0.5c0.7,0.2,1.4,0.6,1.9,1c0.8,0.6,2.2,2.3,3.1,2.9c0.1,0-0.5-1.3-0.5-1.4
				C132.3,98.4,131.7,97.9,130.6,97.2z"/>
		</g>
	</g>
	<g>
		<path id="XMLID_101_" class="st2" d="M72.5,119.4c0-0.2-0.3-0.2-0.3,0c-0.4,0-0.8,0.3-1.2,0.4c-0.4,0.1-1.2,0.3-1.5,0.1
			c-0.2-0.1-0.5,0.2-0.3,0.4c0.5,0.5,2,0.5,2.8,0c-0.1,0.8-0.1,1.7-0.1,2.5c0,1.3-0.1,2.5-0.2,3.8c-0.1,1.8-0.4,3.5-0.3,5.2
			c-0.7-0.2-1.4-0.5-2.1-0.7c-0.7-0.1-0.8,1.1-0.1,1.1c0.9,0,1.7,0.4,2.6,0.7c0.3,0.1,0.6-0.1,0.5-0.4c-0.2-2,0.2-3.9,0.2-5.8
			C72.6,124.3,73.1,121.7,72.5,119.4z"/>
		<path id="XMLID_100_" class="st2" d="M72.8,90.4c0-0.2-0.3-0.3-0.4-0.1c-0.3,1.1-0.2,2.3-0.1,3.4c0,0.8,0.3,2.9-0.5,3.1
			c-1.5,0.4-3.7,1.4-3.9,3.2c0,0,0.1,0.5,0.3,0.3c0.9-0.9,1.7-1.7,2.9-2.2c0.5-0.2,3-1.4,3-1.4C72.4,96.4,72.9,92.7,72.8,90.4z"/>
	</g>
	<g>
		<g>
			<g>
				<path id="XMLID_99_" class="st6" d="M73.1,90.2c-6-0.8-5.5,7.7-5.1,11.9c0.3,3.7,0.9,7.4,1.1,11.1c0.3,6.3-0.2,12.7-0.4,19
					c0,0,0,0.4,0.1,0.4c1.2,0.1,2.3,0.5,3.5,0.5c0.1,0,0.1-0.5,0-0.6c-1.2-0.1-2.3-0.5-3.5-0.5c0,0.1,0,0.2,0.1,0.4
					c0.1-5.3,0.5-10.6,0.5-15.9c0-3.9-0.4-7.7-0.8-11.6c-0.6-4.7-2-14.5,4.8-14.3C73.2,90.6,73.2,90.2,73.1,90.2L73.1,90.2z"/>
			</g>
			<g>
				<g>
					<path id="XMLID_98_" class="st6" d="M127.4,90.3c2.1,0.4,3.9,0.7,4.9,3c0.7,1.8,0.7,4.1,0.8,6c0.1,2.4,0.1,4.7,0,7.1
						c-0.2,4.2-0.4,8.4-0.7,12.6c-0.2,4-0.4,8-0.7,12c0,0.5-0.1,1-0.1,1.5c0,0.1,0,0.2,0,0.4c0,0.2,0.1-0.1-0.1-0.1
						c-1.4,0-2.7,0-4.1,0c0,0,0,0.5,0,0.5c1.4,0,2.8,0.1,4.2,0.1c0,0,0-0.1,0-0.2c0.4-6.5,0.7-13.1,1.1-19.6
						c0.2-4.6,0.5-9.2,0.4-13.8c-0.1-2.4,0-5.3-1.1-7.4c-0.9-1.8-2.9-2.3-4.6-2.3C127.4,90,127.4,90.3,127.4,90.3L127.4,90.3z"/>
				</g>
				<path class="st17" d="M134.8,96.2l-1.5-1l0.1-0.1c-0.3-1.1-0.3-1.6-0.3-1.6l-0.5,0.2c0.2,0.6,0.4,2,0.4,3l0.4,0l0.1,0.5
					l-0.4,0.1c0,0.3,0,0.5,0,0.5l0.9-0.2l-0.4-1.1l1.1,1.1L134.8,96.2z M134.5,96.9l-0.3-0.3l0.1-0.5l0.3,0.2L134.5,96.9z"/>
				<g>
					<g>
						<path id="XMLID_95_" class="st6" d="M132.5,93.7c0.2,0,0.4-0.1,0.6-0.1c0,0,0-0.1,0-0.1c0,0.6,0.2,1.1,0.3,1.7
							c0-0.1,0-0.1,0-0.2c-0.2,0.2-0.4,0.2-0.6,0.3c0,0,0,0.3,0,0.3c0.2,0,0.4-0.2,0.6-0.3c0,0,0-0.2,0-0.2c-0.1-0.5-0.3-1-0.3-1.5
							c0,0,0-0.1,0-0.1c-0.2,0.1-0.4,0.1-0.6,0.2C132.4,93.6,132.4,93.7,132.5,93.7L132.5,93.7z"/>
					</g>
					<g>
						<path id="XMLID_94_" class="st6" d="M133.3,95.2c0.2,0.2,0.5,0.4,0.8,0.5c0.2,0.2,0.5,0.4,0.8,0.5c0,0,0-0.1,0-0.1
							c-0.2-0.2-0.5-0.4-0.8-0.6C133.8,95.4,133.6,95.2,133.3,95.2C133.3,95.1,133.3,95.2,133.3,95.2L133.3,95.2z"/>
					</g>
					<g>
						<path id="XMLID_93_" class="st6" d="M133.5,96.3c0.1,0.2,0.3,0.4,0.5,0.6c0.1,0.1,0.2,0.2,0.3,0.3c0.1,0.1,0.2,0.2,0.3,0.3
							c0,0,0-0.1,0-0.1c-0.1-0.2-0.3-0.4-0.5-0.6c-0.1-0.1-0.2-0.2-0.3-0.3C133.7,96.5,133.6,96.3,133.5,96.3
							C133.5,96.3,133.5,96.3,133.5,96.3L133.5,96.3z"/>
					</g>
					<g>
						<path id="XMLID_92_" class="st6" d="M134.8,96.2c-0.1,0.4-0.2,0.8-0.2,1.2c0,0,0,0,0,0C134.7,97.1,134.7,96.7,134.8,96.2
							C134.8,96.2,134.8,96.2,134.8,96.2L134.8,96.2z"/>
					</g>
					<g>
						<path id="XMLID_91_" class="st6" d="M134.2,96.6C134.2,96.5,134.2,96.5,134.2,96.6C134.2,96.5,134.2,96.6,134.2,96.6
							c0,0.1,0,0.1,0.1,0.2c0.1,0.1,0.1,0.2,0.2,0.2c0,0,0-0.1,0-0.1c0-0.1-0.1-0.2-0.2-0.2C134.3,96.6,134.2,96.5,134.2,96.6
							C134.2,96.5,134.2,96.5,134.2,96.6C134.2,96.6,134.2,96.6,134.2,96.6C134.2,96.6,134.2,96.6,134.2,96.6L134.2,96.6z"/>
					</g>
					<g>
						<path id="XMLID_90_" class="st6" d="M134.6,96.2c-0.1,0.2-0.1,0.4-0.1,0.6c0,0,0,0.1,0,0C134.5,96.7,134.5,96.5,134.6,96.2
							C134.6,96.3,134.6,96.3,134.6,96.2L134.6,96.2z"/>
					</g>
					<g>
						<path id="XMLID_89_" class="st6" d="M134.3,96.2c0,0,0.1,0.1,0.2,0.1c0.1,0,0.1,0.1,0.2,0.1c0,0,0-0.1,0-0.1
							C134.5,96.2,134.3,96,134.3,96.2C134.3,96.1,134.3,96.2,134.3,96.2L134.3,96.2z"/>
					</g>
					<g>
						<path id="XMLID_88_" class="st6" d="M134.3,96c-0.1,0.2-0.1,0.4-0.1,0.6c0,0,0,0.1,0,0C134.2,96.5,134.3,96.3,134.3,96
							C134.3,96.1,134.3,96.1,134.3,96L134.3,96z"/>
					</g>
					<g>
						<path id="XMLID_87_" class="st6" d="M133.1,95.3c0.2,0.8,0.5,1.5,0.8,2.3c0-0.1,0-0.1,0-0.2c-0.3,0-0.7,0-0.9,0.2
							c0,0,0,0.1,0,0.1c0.1,0.1,0.2,0,0.4-0.1c0.2-0.1,0.4-0.1,0.6-0.1c0,0,0-0.2,0-0.2C133.7,96.6,133.4,95.9,133.1,95.3
							C133.1,95.2,133.1,95.2,133.1,95.3L133.1,95.3z"/>
					</g>
					<g>
						<path id="XMLID_86_" class="st6" d="M133.1,97.2c0.1,0.1,0.4,0.1,0.4,0c0,0,0-0.1,0-0.1c0,0-0.1,0-0.2,0
							C133.2,97.1,133.1,97.1,133.1,97.2C133,97.1,133.1,97.1,133.1,97.2L133.1,97.2z"/>
					</g>
					<g>
						<path id="XMLID_85_" class="st6" d="M133.4,96.6c0,0.1,0,0.2,0,0.3c0,0.1,0,0.2,0.1,0.3c0,0,0,0,0,0
							C133.5,97,133.4,96.8,133.4,96.6C133.4,96.6,133.4,96.6,133.4,96.6L133.4,96.6z"/>
					</g>
					<g>
						<path id="XMLID_84_" class="st6" d="M132.9,96.7c0.1,0,0.2,0,0.3,0c0.1,0,0.2,0,0.3-0.1c0,0,0-0.1,0-0.1c-0.1-0.1-0.2,0-0.3,0
							C133.1,96.6,133,96.6,132.9,96.7C132.9,96.7,132.9,96.7,132.9,96.7L132.9,96.7z"/>
					</g>
					<g>
						<path id="XMLID_83_" class="st6" d="M133,97.2c0.1,0,0.1,0,0.2,0c0,0,0-0.1,0-0.1C133.1,97.1,133.1,97.1,133,97.2
							C133,97.1,133,97.2,133,97.2L133,97.2z"/>
					</g>
				</g>
				<g>
					<path id="XMLID_82_" class="st6" d="M132,121.4c0.4,0.1,0.9,0,1.3,0.1c0.8,0.1,0.5,1.3,0.5,1.9c-0.1,0.8-0.2,1.6-0.2,2.4
						c-0.1,1.5,0.3,3-0.4,4.4c-0.5,1.1-1.5,1.8-1.9,3c0,0.1,0,0.3,0,0.3c0.7-1.4,1.9-2.4,2.2-3.9c0.3-1.5,0-3.1,0.2-4.7
						c0.1-0.9,0.2-1.9,0.2-2.8c-0.1-1.1-1.1-0.9-1.9-0.7C132,121.2,132,121.4,132,121.4L132,121.4z"/>
				</g>
				<g>
					<path id="XMLID_81_" class="st6" d="M129.9,123.9c0,1.9,0.1,3.8,0.2,5.8c0,0.5,0.1,1,0.2,1.5c0.2,0.8,0.9,1.4,1.2,2.2
						c0,0,0-0.1,0-0.2c-0.1-0.4-0.2-0.7-0.4-1c-0.2-0.3-0.4-0.5-0.6-0.8c-0.5-0.7-0.5-1.6-0.5-2.4
						C130.1,127.2,130,125.6,129.9,123.9C129.9,123.8,129.9,123.8,129.9,123.9L129.9,123.9z"/>
				</g>
				<g>
					<path id="XMLID_80_" class="st6" d="M131.6,121.4c-0.8,0.3-1.6,1-1.8,2c0,0,0,0.2,0,0.2c0.1-0.1,0.1-0.2,0.2-0.4
						c0.1-0.3,0.3-0.5,0.5-0.7C130.8,122.1,131.2,121.7,131.6,121.4C131.6,121.4,131.6,121.4,131.6,121.4L131.6,121.4z"/>
				</g>
			</g>
		</g>
	</g>
	<g>
		<g>
			<g>
				<path id="XMLID_79_" class="st4" d="M133.9,102.8c-0.8-1.7-1.9-3-3.3-4.3c-0.3-0.3-0.8-0.7-1.4-1c-1.4-0.7-1.8-0.8-1.7,0.3
					c0.1,1.2,0,2.4,0,3.5c0,1.2,0,2.5,0,3.7c0,1.2,0,2.3,0.1,3.5c-0.1,1.3,0.1,2.6,0.1,4c0,0.1,0,0.2,0,0.2c-0.7,0-1.5-0.2-2.2-0.4
					c-0.6-0.4-1.2-0.8-1.9-0.9c-0.2,0-0.4,0-0.5,0.1c-0.4-0.3-0.7-0.6-1.2-0.7c0,0-0.1,0-0.1,0c-0.2-0.1-0.3-0.2-0.5-0.3
					c-0.1-0.4-0.3-0.8-0.3-1.2c0-0.5-0.2-0.8,0-1.4c0,0,0,0,0-0.1c0-0.1,0-0.1,0-0.2c0.1-0.2-0.1-0.3-0.1-0.3
					c-0.1,0-0.1-0.1-0.2-0.1c0-0.1,0-0.2,0.1-0.2c0-0.1-0.1-0.3-0.1-0.4c0-0.2-0.1-0.4-0.2-0.5c-0.1,0-0.1,0-0.2,0
					c0-0.1,0-0.1-0.1-0.2c0,0,0,0,0,0c0,0,0,0,0,0c0,0,0,0,0,0c0-0.1-0.1-0.2-0.2-0.1c-0.1,0-0.1,0.2-0.1,0.2s-0.1,0.1-0.1,0.3
					c0,0.2-0.1,0.4-0.1,0.6c0,0.1,0,0.1,0,0.1c-0.5-0.1-0.8-0.1-1.1-0.1c-0.9-0.1-1.9-0.3-2.7,0.3c-0.4,0.2-0.5,0.6-0.6,1
					c0,0,0,0,0,0c-0.1,0.2-0.1,0.5,0,0.7c0,0,0.1,0.1,0.1,0.1c0,0.1,0.1,0.3,0.2,0.4c0,0.1,0.1,0.2,0.2,0.2
					c-0.1,0.1-0.2,0.2-0.3,0.4c0,0,0,0,0,0c0,0,0,0,0,0c0,0,0,0.1-0.1,0.1c0,0,0,0.1,0,0.1c0,0,0,0,0,0c0,0,0,0,0,0.1c0,0,0,0,0,0.1
					c0,0,0,0,0,0c0,0,0,0,0,0c-0.1,0.4,0.1,0.8,0.6,1.2c0.1,0.1,0.3,0.2,0.4,0.2c0,0.1,0,0.1-0.1,0.2c-0.1,0-0.1,0.1-0.1,0.1
					c-0.1,0.2-0.1,0.2-0.1,0.4c0,0,0,0,0,0.1c-0.2,1,2.3,2.1,3,0.6c0.5,0.3,1,0.4,1.5,0.5c0.2,0,0.5,0,0.7-0.1
					c0.4,0.5,1,0.9,1.6,1.3c1.8,1.3,3.2,2.9,5.3,3.8c1.8,0.9,3.9,1,5.5-0.4c1.3-1.1,1.7-2.7,2-4.5
					C136.1,110.2,135.5,106.2,133.9,102.8z"/>
				<g>
					<path id="XMLID_78_" class="st5" d="M124.6,112.6c4.6,1.5,6.9,0.4,6.8,0.3c-2.2-0.3-2.2-1.4-2.1-2.7c0-1.2-0.1-2.3-0.1-3.5
						c0-1.2,0-2.5,0-3.7c0-1.2-0.1-4.4,0.3-4.3c1.2,0.2,3.6,2.6,4.2,3.5c-0.8-1.4-1.8-2.6-3-3.7c-0.3-0.3-3.2-2.3-3.1-1.2
						c0.1,1.2,0,2.8,0,4c0,1.2,0,2.5,0,3.7c0,1.2,0,2.3,0.1,3.5c-0.1,1.3,0.1,2.6,0.1,4c0,0.1,0,0.2,0,0.2c-0.7,0-1.5-0.2-2.2-0.4
						c-0.6-0.4-1.2-0.8-1.9-0.9c-0.2,0-0.4,0-0.5,0.1c-0.4-0.3-0.7-0.6-1.2-0.7c0,0-0.1,0-0.1,0c0,0-0.5-0.3-0.5-0.3
						C121.4,110.9,123.4,112.2,124.6,112.6z"/>
					<path id="XMLID_77_" class="st5" d="M116,111.9C116,111.9,116,111.9,116,111.9c0,0,0.2,0,0.3,0c0.2-0.1,0.5-0.8,2-1
						c-0.1-0.1-3.2,0.6-2.3-1.3c0,0,0,0,0,0c-0.7-0.6-0.2-1.1,0.2-1.4c0.8-0.5,2.5-0.2,3.4-0.4c0.5-0.1,1-0.3,1-0.3
						c0,0-0.1-1-0.3-1.1c-0.1,0-0.3-0.2-0.3-0.2c0,0,0,0,0,0c0,0-0.1-0.2-0.2-0.2c-0.1,0.1-0.3,1.2-0.2,1.2
						c-0.5-0.1-0.8-0.1-1.1-0.1c-0.9-0.1-1.9-0.3-2.7,0.3c-0.4,0.2-1.1,1.2-0.3,2.2c0.1,0.1,0.1,0.2,0.2,0.2
						c-0.1,0.1-0.9,0.5,0.2,2.1c0,0.1,0.1,0.1,0.2,0.1C116,112,116,112,116,111.9z"/>
				</g>
				<g>
					<path id="XMLID_76_" class="st5" d="M133.9,102.6c-0.3-0.5-0.5-1-0.9-1.5c0.1,0.3,0.3,0.5,0.4,0.8c1.6,3.3,2.1,6.5,1.4,10.3
						c-0.3,1.7-0.7,3.4-2,4.5c-1.6,1.4-3.7,1.3-5.5,0.4c-2-0.9-2.9-2.1-4.7-3.4c-0.5-0.4-1.2-0.3-1.6-0.8c-0.2,0.1-0.9,0.1-1.1,0.1
						c-0.5-0.1-1-0.2-1.5-0.5c-0.3,0.6-1.1,0.7-1.5,0.8c-0.1,0-0.3,0-0.4-0.2c-0.3-0.3-0.5-0.6-0.6-0.8c0,0,0,0,0,0
						c-0.1,0.2-0.1,0.2-0.1,0.4c0,0,0,0,0,0.1c-0.1,0.4,0.3,0.8,0.8,1.1c0.5,0.1,1.6,0.3,2.2-0.7c0.5,0.3,1,0.6,1.5,0.7
						c0.2,0,0.5,0,0.7-0.1c0.4,0.5,1,0.7,1.6,1.1c1.8,1.3,3.2,2.9,5.3,3.8c1.8,0.9,3.9,1,5.5-0.4c1.3-1.1,1.7-2.7,2-4.5
						C136.1,110,135.5,106,133.9,102.6z"/>
				</g>
				<g>
					<path id="XMLID_75_" class="st8" d="M135,105.8c-1.1-3.8-3.3-8.5-7.5-8.8c0,0,0,0.1,0,0.1c3.7,1,5.7,4.1,7,7.7
						c1.1,3.1,1.5,6.6,0.7,9.8c-0.6,2.5-2.3,4.3-4.8,4.3c-1.7,0-3.4-0.8-4.9-1.8c-1.6-1.1-2.9-2.7-4.6-3.5c0,0,0,0.1,0,0.1
						c-0.2,0-0.4,0-0.7,0c-0.2,0-0.5-0.2-0.7-0.2c-0.3-0.1-1.1-0.5-1.1-0.9c0,0,0-0.1,0-0.1c-0.1,0.3,0,0.6,0.2,0.8
						c0,0,0.1,0.1,0.1,0.1c-0.7,0.6-2.2,0.7-2.7-0.1c-0.3-0.5,0-1.2,0.4-1.5c0.5-0.5,1.3-0.6,1.9-0.8c0,0,0-0.2,0-0.2
						c-0.8-0.1-1.7,0.3-2.2,1c0,0,0,0,0-0.1c-0.3-0.3-0.7-0.5-0.9-1c-0.2-0.6,0.2-1,0.7-1.1c0.4-0.1,0.7-0.2,1.1-0.3
						c0.4-0.1,0.9-0.1,1.2-0.4c0,0,0,0,0,0c-0.5-0.3-1.2,0.1-1.7,0.3c-0.3,0.1-0.7,0.1-1,0.3c-0.1-0.2-0.2-0.3-0.4-0.5
						c-0.2-0.2-0.2-0.4-0.1-0.7c0,0,0,0,0,0c0.3-0.6,0.4-1,1-1.1c0.7-0.2,1.5,0,2.2,0.1c0.4,0,2.3-0.2,2.6,0.2
						c-0.3,0.3-0.3,1-0.2,1.5c0,0.6,0.1,1.6,0.6,2c0,0,0-0.3,0-0.4c0-0.1,0-0.1-0.1-0.2c1.2,0.9,2.8,1.4,4.2,1.9
						c1.5,0.5,3.2,0.8,4.8,0.5c0,0,0-0.2,0-0.2c-1.6-0.3-3.2-0.3-4.8-0.8c-1.5-0.4-2.8-1.1-4.3-1.6c-0.1-0.2-0.1-0.4-0.2-0.6
						c-0.2-0.7-0.1-1.3,0-2c0,0,0-0.2,0-0.2c0,0,0,0,0,0c-0.1-0.2-0.2-0.3-0.4-0.4c0-0.3,0-0.6-0.2-0.9c-0.1-0.1-0.2-0.2-0.3-0.3
						c-0.1-0.1-0.2-0.3-0.3-0.3c0,0,0,0.1,0,0.1c0.1,0.3,0.2,0.5,0.4,0.7c0.2,0.2,0.2,0.4,0.3,0.6c-0.5-0.2-1.3,0-1.7-0.1
						c-1.3-0.2-3.1-0.8-3.6,0.8c-0.2,0.3-0.2,0.6-0.1,0.9c0,0.3,0.2,0.7,0.4,0.8c0,0,0,0,0,0c-0.3,0.3-0.3,0.6-0.2,1
						c0,0.3,0.5,1.3,0.8,1.3c-0.1,0.3-0.2,0.6-0.1,0.9c0.1,0.5,0.3,0.9,0.8,1c0.6,0.2,1.8,0.1,2.2-0.5c0.6,0.5,1.5,0.7,2.1,0.4
						c2.7,2.7,6.4,6.1,10.4,5.6c2.9-0.3,3.9-3.6,4.2-6.2C135.9,110.9,135.7,108.3,135,105.8z"/>
					<path id="XMLID_74_" class="st8" d="M117.6,112.3c-0.3,0.1-0.5,0.4-0.5,0.7c0,0,0,0.1,0,0c0-0.2,0.6-0.4,0.8-0.4
						c0.3-0.1,0.7-0.1,0.9-0.4c0,0,0-0.1,0-0.1C118.5,112,117.9,112.2,117.6,112.3z"/>
				</g>
			</g>
			<g>
				<path id="XMLID_73_" class="st6" d="M119.5,107.3c0,0,0-0.1,0-0.1C119.5,107.2,119.5,107.3,119.5,107.3c-0.1,0-0.1,0-0.2,0
					c-0.9-0.1-1.7-0.2-2.6-0.2c0,0,0,0,0,0c0,0,0,0,0,0c0,0-0.1,0-0.1,0c0-0.8,0-1.6,0.1-2.4c0-0.2,0-0.5,0.1-0.7
					c0.1-0.5,0.2-1,0.4-1.5c0.3-1.1,0.7-2.1,1.3-3c0.4-0.7,0.8-1.4,1.3-1.8c0.2-0.2,0.5-0.5,0.7-0.7c0,0,5.6-0.2,6.8,0
					c0.1,0,0.1,0.1,0,0.2c0,0,0.1,0,0.1,0c0,0,0,0,0,0c-0.1,0-0.1,0-0.2,0c0,0,0,0,0,0c-0.2,0.1-0.4,0.1-0.7,0.2
					c-0.7,0.4-1.3,0.7-1.9,1.1c-0.8,0.7-1.5,1.6-2.1,2.3c-1.5,1.9-2.6,4.2-3,6.6C119.6,107.3,119.5,107.3,119.5,107.3z"/>
				<path id="XMLID_72_" class="st6" d="M118.4,113.9C118.4,113.8,118.5,113.8,118.4,113.9c0.1,0,0.1,0,0.2,0c0,0,0-0.1,0-0.1
					c0.1-0.1,0.1-0.1,0.2-0.2c0,0,0.1,0,0.1,0c0.2,0.2,0.4,0.3,0.6,0.3c0.1,0.1,0.2,0.1,0.3,0.1c0.1,0,0.2,0,0.4,0c0,0,0,0,0.1,0
					c0,0,0,0,0,0c0,0,0.1,0,0.1,0c0.5,1.3,1.2,2.5,2,3.6c1.5,2.1,3.4,3.6,5.3,5.2c0,0,0.1,3.1,0.1,3.1c0,0,0,0,0,0c0,0,0,0.1,0,0.1
					c-4.9-1.4-8.2-6.4-9.8-11.3c0,0,0,0,0-0.1c0,0,0,0,0,0c-0.1-0.2-0.1-0.4-0.2-0.6C118,114.1,118.2,114,118.4,113.9z"/>
			</g>
		</g>
		<g>
			<path id="XMLID_71_" class="st6" d="M80.8,107.6L80.8,107.6L80.8,107.6c0.1,0,0.1,0,0.2,0c0.9-0.1,1.7-0.2,2.6-0.2c0,0,0,0,0-0.1
				c0,0,0,0,0,0.1c0,0,0.1,0,0.1,0c0-0.8,0-1.6-0.1-2.4c0-0.3,0-0.5-0.1-0.7c-0.1-0.5-0.2-1.1-0.4-1.6c-0.3-1.1-0.7-2.1-1.3-3.1
				c-0.4-0.7-0.8-1.4-1.3-1.9c-0.2-0.2-0.5-0.5-0.7-0.7c0,0-5.6-0.2-6.8,0c-0.1,0-0.1,0.1,0,0.2c0,0-0.1,0-0.1,0c0,0,0,0,0,0
				c0.1,0,0.1,0,0.2,0c0,0,0,0,0,0c0.2,0.1,0.4,0.1,0.7,0.2c0.7,0.4,1.3,0.7,1.9,1.2c0.8,0.7,1.5,1.6,2.1,2.3c1.5,1.9,2.6,4.3,3,6.8
				C80.7,107.6,80.8,107.6,80.8,107.6z"/>
			<path id="XMLID_70_" class="st6" d="M82,114.2C82,114.2,82,114.2,82,114.2c-0.1,0-0.1,0-0.2,0c0,0,0-0.1-0.1-0.1
				c-0.1-0.1-0.1-0.1-0.2-0.2c0,0-0.1,0-0.1,0c-0.2,0.2-0.4,0.3-0.7,0.4c-0.1,0.1-0.2,0.1-0.4,0.1c-0.1,0-0.3,0-0.4,0c0,0,0,0-0.1,0
				c0,0,0,0,0-0.1c0,0-0.1,0-0.1,0c-0.5,1.4-1.3,2.7-2.1,3.9c-1.6,2.3-3.6,3.9-5.6,5.8c0,0-0.1,3.4-0.1,3.4c0,0,0,0,0,0
				c0,0,0,0.1,0,0.1c5.2-1.6,8.7-7,10.4-12.4c0,0,0-0.1,0-0.1c0,0,0,0,0,0c0.1-0.2,0.1-0.4,0.2-0.7C82.5,114.3,82.2,114.3,82,114.2z
				"/>
		</g>
		<g>
			<path id="XMLID_69_" class="st4" d="M66.5,103.2c0.8-1.7,1.9-3,3.3-4.3c0.3-0.3,0.8-0.7,1.4-1c0.5-0.2,1.8-0.8,1.7,0.3
				c-0.1,1.2,0,2.4,0,3.5c0,1.2,0,2.5,0,3.7c0,1.2,0,2.3-0.1,3.5c0.1,1.3-0.1,2.6-0.1,4c0,0.1,0,0.2,0,0.2c0.7,0,1.5-0.2,2.2-0.4
				c0.6-0.4,1.2-0.8,1.9-0.9c0.2,0,0.4,0,0.5,0.1c0.4-0.3,0.7-0.6,1.2-0.7c0,0,0.1,0,0.1,0c0.2-0.1,0.3-0.2,0.5-0.3
				c0.1-0.4,0.3-0.8,0.3-1.2c0-0.5,0.2-0.8,0-1.4c0,0,0,0,0-0.1c0-0.1-0.1-0.2-0.1-0.2c-0.1-0.2,0.2-0.3,0.2-0.3s0.1,0,0.2,0
				c0-0.1,0-0.1,0-0.2c0-0.1,0.1-0.3,0.1-0.4c0-0.2,0.1-0.4,0.2-0.5c0.1,0,0.1,0,0.2,0c0-0.1,0-0.1,0.1-0.2c0,0,0,0,0,0l0,0
				c0,0,0,0,0,0c0-0.1,0.1-0.2,0.2-0.1c0.1,0,0,0.1,0,0.2c0,0,0.1,0.2,0.1,0.3c0,0.2,0.1,0.4,0.1,0.6c0,0.1,0.1,0.1,0,0.2
				c0.5-0.1,0.8-0.1,1.1-0.1c0.9-0.1,1.9-0.3,2.7,0.3c0.4,0.2,0.5,0.6,0.6,1c0,0,0,0,0,0c0.1,0.2,0.1,0.5,0,0.7c0,0-0.1,0.1-0.1,0.1
				c0,0.1-0.1,0.3-0.2,0.4c0,0.1-0.1,0.2-0.2,0.2c0.1,0.1,0.2,0.2,0.3,0.4c0,0,0,0,0,0c0,0,0,0,0,0c0,0,0,0.1,0.1,0.1
				c0,0,0,0.1,0,0.1c0,0,0,0,0,0c0,0,0,0,0,0.1c0,0,0,0,0,0.1c0,0,0,0,0,0c0,0,0,0,0,0c0.1,0.4-0.1,0.8-0.6,1.2
				c-0.1,0.1-0.3,0.2-0.4,0.2c0,0.1,0,0.1,0.1,0.2c0.1,0,0.1,0.1,0.1,0.1c0.1,0.2,0.1,0.2,0.1,0.4c0,0,0,0,0,0.1
				c0.2,1-1.7,1.7-3,0.6c-0.5,0.3-1,0.4-1.5,0.5c-0.2,0-0.5,0-0.7-0.1c-0.4,0.5-1,0.9-1.6,1.3c-1.8,1.3-3.2,2.9-5.3,3.8
				c-1.8,0.9-3.9,1-5.5-0.4c-1.3-1.1-1.7-2.7-2-4.5C64.3,110.6,64.9,106.5,66.5,103.2z"/>
			<g>
				<path id="XMLID_68_" class="st5" d="M75.8,112.9c-4.6,1.5-6.9,0.4-6.8,0.3c2.2-0.3,2.2-1.4,2.1-2.7c0-1.2,0.1-2.3,0.1-3.5
					c0-1.2,0-2.5,0-3.7c0-1.2,0.1-4.4-0.3-4.3c-1.2,0.2-3.6,2.6-4.2,3.5c0.8-1.4,1.8-2.6,3-3.7c0.3-0.3,3.2-2.3,3.1-1.2
					c-0.1,1.2,0,2.8,0,4c0,1.2,0,2.5,0,3.7c0,1.2,0,2.3-0.1,3.5c0.1,1.3-0.1,2.6-0.1,4c0,0.1,0,0.2,0,0.2c0.7,0,1.5-0.2,2.2-0.4
					c0.6-0.4,1.2-0.8,1.9-0.9c0.2,0,0.4,0,0.5,0.1c0.4-0.3,0.7-0.6,1.2-0.7c0,0,0.1,0,0.1,0c0,0,0.5-0.3,0.5-0.3
					C79,111.3,77,112.5,75.8,112.9z"/>
				<path id="XMLID_67_" class="st5" d="M84.3,112.2C84.3,112.2,84.3,112.2,84.3,112.2c0,0-0.2,0-0.3,0c-0.2-0.1-0.5-0.8-2-1
					c0.1-0.1,3.2,0.6,2.3-1.3c0,0,0,0,0,0c0.7-0.6,0.2-1.1-0.2-1.4c-0.8-0.5-2.5-0.2-3.4-0.4c-0.5-0.1-1-0.3-1-0.3
					c0,0,0.1-1,0.3-1.1c0.1,0,0.3-0.2,0.3-0.2c0,0,0,0,0,0c0,0,0.1-0.3,0.2-0.2c0.1,0.1,0.3,1.2,0.3,1.2c0.5-0.1,0.8-0.1,1.1-0.1
					c0.9-0.1,1.9-0.3,2.7,0.3c0.4,0.2,1.1,1.2,0.3,2.2c-0.1,0.1-0.1,0.2-0.2,0.2c0.1,0.1,0.9,0.5-0.2,2.1c0,0.1-0.1,0.1-0.2,0.1
					C84.3,112.3,84.3,112.3,84.3,112.2z"/>
			</g>
			<g>
				<path id="XMLID_66_" class="st5" d="M66.5,103c0.3-0.5,0.5-1,0.9-1.5c-0.1,0.3-0.3,0.5-0.4,0.8c-1.6,3.3-2.1,6.5-1.4,10.3
					c0.3,1.7,0.7,3.4,2,4.5c1.6,1.4,3.7,1.3,5.5,0.4c2-0.9,2.9-2.1,4.7-3.4c0.5-0.4,1.2-0.3,1.6-0.8c0.2,0.1,0.9,0.1,1.1,0.1
					c0.5-0.1,1-0.2,1.5-0.5c0.3,0.6,1.1,0.7,1.5,0.8c0.1,0,0.3,0,0.4-0.2c0.3-0.3,0.5-0.6,0.6-0.8c0,0,0,0,0,0
					c0.1,0.2,0.1,0.2,0.1,0.4c0,0,0,0,0,0.1c0.1,0.4-0.3,0.8-0.8,1.1c-0.5,0.1-1.6,0.3-2.2-0.7c-0.5,0.3-1,0.6-1.5,0.7
					c-0.2,0-0.5,0-0.7-0.1c-0.4,0.5-1,0.7-1.6,1.1c-1.8,1.3-3.2,2.9-5.3,3.8c-1.8,0.9-3.9,1-5.5-0.4c-1.3-1.1-1.7-2.7-2-4.5
					C64.3,110.4,64.9,106.3,66.5,103z"/>
			</g>
			<g>
				<path id="XMLID_65_" class="st8" d="M83.3,113.4C83.3,113.4,83.3,113.4,83.3,113.4c0-0.3-0.1-0.6-0.4-0.7
					c-0.4-0.2-0.9-0.4-1.3-0.2c0,0,0,0.1,0,0.1c0.2,0.3,0.6,0.3,0.9,0.4C82.6,113,83.3,113.2,83.3,113.4z"/>
				<path id="XMLID_64_" class="st8" d="M85.3,109.2c0-0.3,0-0.7-0.2-0.9c-0.4-1.3-1.5-1.1-2.8-0.9c-0.7,0.1-1.4,0.1-2.1,0.2
					c-0.1,0-0.3,0-0.4,0.1c0.1-0.2,0.1-0.4,0.3-0.6c0.2-0.3,0.4-0.5,0.5-0.8c0,0,0-0.1,0-0.1c-0.1,0.1-0.2,0.2-0.3,0.3
					c-0.1,0.1-0.2,0.2-0.3,0.3c-0.2,0.2-0.2,0.6-0.2,0.9c-0.2,0.1-0.3,0.2-0.4,0.4c0,0,0,0,0,0c0,0,0,0.1,0,0.2
					c0.1,0.6,0.2,1.2,0,1.7c-0.1,0.3-0.2,0.5-0.3,0.8c-1.4,0.5-2.8,1.1-4.3,1.6c-1.6,0.5-3.2,0.5-4.8,0.8c0,0,0,0.2,0,0.2
					c1.6,0.3,3.3-0.1,4.8-0.5c1.4-0.4,3-1,4.2-1.9c0,0.1,0,0.1,0,0.2c0,0,0,0.4,0,0.4c0.4-0.3,0.6-1.4,0.6-1.9
					c0-0.4,0.1-1.2-0.2-1.5c0.1-0.1,0.2-0.2,0.4-0.2c0,0,0,0,0,0c0.5-0.1,1.5,0.1,1.8,0c0.8-0.1,1.6-0.2,2.4-0.2
					c0.7,0,1,0.5,1.3,1.1c0,0,0,0,0,0c0,0.2,0,0.4-0.1,0.6c-0.1,0.2-0.3,0.3-0.4,0.5c-0.3-0.2-0.6-0.2-0.8-0.3
					c-0.5-0.1-1.3-0.6-1.8-0.3c0,0,0,0,0,0c0.3,0.3,0.7,0.3,1.1,0.4c0.4,0.1,0.8,0.2,1.2,0.3c0.3,0.1,0.5,0.2,0.7,0.5
					c0.1,0.1,0.1,0.2,0.1,0.3c0-0.2-0.1-0.4-0.2-0.6c0,0-0.1-0.1-0.1-0.1C85.1,109.9,85.2,109.5,85.3,109.2z"/>
				<path id="XMLID_63_" class="st8" d="M85.1,111.1c0-0.1,0-0.2,0-0.3C85.1,110.9,85.1,111,85.1,111.1z"/>
				<path id="XMLID_62_" class="st8" d="M84.2,112.1C84.2,112.2,84.2,112.2,84.2,112.1c-0.5-0.6-1.4-1-2.2-1c0,0,0,0.2,0,0.2
					c0.7,0.2,1.3,0.3,1.9,0.7c0.4,0.4,0.7,1,0.5,1.5c-0.4,0.9-2.1,0.8-2.7,0.2c0,0,0,0,0,0c0.3-0.2,0.4-0.6,0.3-0.9c0,0,0,0.1,0,0.1
					c0,0.4-0.8,0.8-1.1,0.9c-0.2,0.1-0.4,0.2-0.7,0.2c-0.2,0.1-0.4,0-0.7,0c0-0.1,0-0.1,0-0.1c-1.6,0.8-2.9,2.2-4.4,3.3
					c-1.5,1.1-3.1,1.8-4.9,2c-2.6,0.3-4.3-1.6-5-4c-0.9-3.1-0.4-6.7,0.6-9.7c1.3-3.8,3.3-7.1,7.1-8.1c0,0,0-0.1,0-0.1
					c-4.2,0.3-6.3,4.9-7.4,8.6c-0.8,2.5-0.9,5.3-0.6,8c0.3,2.6,1.3,5.4,4,6c3.9,0.8,7.9-3,10.6-5.6c0.7,0.3,1.5,0,2.1-0.4
					c0.8,0.7,2.9,0.9,3-0.5c0-0.4,0-0.7-0.2-1c0.4,0.1,0.8-0.9,0.9-1.2c0,0,0-0.1,0-0.1C85,111.5,84.4,111.9,84.2,112.1z"/>
			</g>
		</g>
	</g>
	<g>
		<g>
			<path id="XMLID_61_" class="st4" d="M127.5,94.2V52.8V36.3h-27.3H72.9v16.5v41.4c0,0-0.1,1.5,0.6,2.2c0.6,0.7,1.9,0.7,1.9,0.7
				h24.9H125c0,0,1.2,0,1.9-0.7C127.5,95.7,127.5,94.2,127.5,94.2z"/>
			<path class="st8" d="M125,97.1H75.3c-0.1,0-1.3,0-1.9-0.7c-0.6-0.7-0.6-2.2-0.6-2.2l0-58h54.8v58c0,0.1,0.1,1.6-0.6,2.2
				C126.4,97.1,125.2,97.1,125,97.1z M100.2,97H125c0,0,1.2,0,1.8-0.6c0.6-0.6,0.5-2.1,0.5-2.1V36.4H72.9v57.8c0,0-0.1,1.5,0.5,2.1
				c0.6,0.6,1.8,0.6,1.8,0.6H100.2z"/>
		</g>
		<path id="XMLID_58_" class="st5" d="M73.5,96.5C74,97,75,97,75,97h50.6c0,0,0.8-0.1,1.4-0.7c0.5-0.6,0.6-1.2,0.6-1.2H72.9
			C72.9,95.2,73.1,96,73.5,96.5z"/>
		<g>
			<g>
				<g>
					<path id="XMLID_57_" class="st4" d="M132.7,65.6c-0.5-1.4-2.4-2.4-3.7-2.5c-0.2,0-0.4,0-0.5,0c-0.5,0.1-0.8,0.3-0.8,0.8
						c0,0-0.1,4.9,0,5c1.7,0.6,3.1,1.1,4.6-0.3C133,68,133.1,66.6,132.7,65.6z"/>
					<g>
						<g>
							<path id="XMLID_56_" class="st8" d="M127.1,64.1c1.1-0.6,2.2-0.6,3.3-0.3c1.2,0.4,2.8,1.7,2.5,3.2c-0.4,2.6-3.7,2.7-5.4,1.7
								c0,0,0,0.3,0,0.3c1.8,1.6,5.5,0.7,5.4-2.2c-0.1-3-3.8-4.8-6-2.9C127,64,127.1,64.1,127.1,64.1L127.1,64.1z"/>
						</g>
						<g>
							<path id="XMLID_55_" class="st8" d="M127.5,65.4c0.6,0,1.2,0,1.8,0.1c0.6,0.1,1.1,0.5,1.7,0.8c0,0,0-0.2,0-0.2
								C130.4,64.9,128.5,64.6,127.5,65.4C127.5,65.3,127.5,65.4,127.5,65.4L127.5,65.4z"/>
						</g>
						<g>
							<path id="XMLID_54_" class="st8" d="M128.7,65.4c-0.3,0.5-0.1,1.4,0.2,1.9c0,0,0-0.1,0-0.1C128.7,66.7,128.5,66.1,128.7,65.4
								C128.7,65.5,128.7,65.4,128.7,65.4L128.7,65.4z"/>
						</g>
					</g>
				</g>
				<path id="XMLID_53_" class="st5" d="M132.9,66.5c-0.4,1.3-1.8,1.9-2.9,2c-0.5,0.1-0.9,0-1.3-0.1c-0.4-0.1-0.6-0.4-0.7-0.7
					c0-0.6,0-1.2,0.1-1.8c0,0,0,0,0-0.1c0.2,0,0.4,0,0.6,0.1c0,0.6,0.2,1.1,0.2,1.3c0,0,0.2-0.4,0.2-0.9c0,0,0.7-0.4,2.2,0.2
					c0.1,0.1-0.3-1-1.4-1.4c-0.4-0.2-1.1-0.4-1.6-0.2c0-0.5,0-1.1-0.1-1.6c0,0-0.4,0.3-0.4,0.3c0,1,0,4.3-0.1,5.3
					c0,0.1,0.2,0.1,0.3,0c0-0.1,0-0.2,0.1-0.2c0.1,0.2,0.2,0.3,0.3,0.5c0.6,0.7,1.9,0.5,2.7,0.3c1.1-0.3,1.8-1.1,2.1-2.2
					C133,67.1,132.9,66.6,132.9,66.5z"/>
			</g>
			<g>
				<g>
					<g>
						<path class="st4" d="M71,68.9c-0.4-0.8-1.1-1.5-1.4-2.3c0-0.1-0.1,0.1-0.1,0.3c-0.1,0-0.3,0-0.4,0.2c-0.6,0.7-0.7,2.2-0.4,3.1
							c0,0.1,0.1,0.1,0.1,0c0.1,0.2,0.1,0.3,0.2,0.5c0,0,0,0,0.1,0c0.1,0.2,0.2,0.3,0.4,0.5c0.2,0.2,0.5,0.4,0.8,0.4
							c0.3,0.2,0.7,0.2,1,0.3c0.5,0.1,0.9,0.4,1.4,0.3c0.2,0,0.1-0.9,0-1C71.9,70.6,71.4,69.8,71,68.9z"/>
					</g>
					<g>
						<g>
							<path id="XMLID_51_" class="st8" d="M70,66.6c-1.4-0.8-1.9,2.5-1.7,3.5c0.3,1.9,3,2.6,4.5,2.2c0,0,0-0.3,0-0.3
								c-1.2-0.2-2.4-0.2-3.5-1c-1.5-1.1-1-3.8,0.7-4.3C70,66.7,70,66.6,70,66.6L70,66.6z"/>
						</g>
						<g>
							<path id="XMLID_50_" class="st8" d="M70.7,68.7c-0.5-0.7-1.6-0.4-2,0.2c0,0,0,0.1,0,0.2c0.3-0.2,0.7-0.3,1-0.3
								C70,68.6,70.3,68.7,70.7,68.7C70.7,68.7,70.7,68.7,70.7,68.7L70.7,68.7z"/>
						</g>
						<g>
							<path id="XMLID_49_" class="st8" d="M70.8,68.8c-0.3-0.4-0.6,0.3-0.6,0.5c-0.1,0.3-0.2,0.6-0.1,0.9c0,0,0,0.1,0,0
								c0-0.3,0.1-0.5,0.2-0.8c0.1-0.1,0.1-0.3,0.2-0.4C70.6,69,70.7,68.9,70.8,68.8C70.8,68.9,70.8,68.8,70.8,68.8L70.8,68.8z"/>
						</g>
					</g>
				</g>
				<g>
					<path id="XMLID_48_" class="st5" d="M69.7,67.5C69.7,67.5,69.7,67.4,69.7,67.5C69.6,67.4,69.6,67.4,69.7,67.5z"/>
					<path id="XMLID_47_" class="st5" d="M72.7,71.3C72.7,71.4,72.7,71.4,72.7,71.3C72.7,71.3,72.7,71.3,72.7,71.3
						C72.7,71.3,72.7,71.3,72.7,71.3c-0.2-0.1-0.6-0.8-0.5-0.5c-0.1-0.3-0.3-0.5-0.4-0.8c-0.7-1.1-1.5-2.1-2.2-3.3
						c0,0.1-0.1,0.5,0,0.7c0,0.1,0.2,0.5,0.3,0.6c0.1,0.2,0.3,0.5,0.4,0.7c0,0,0,0,0,0c0,0,0,0,0,0c-0.3-0.3-0.9-0.1-1.2,0
						c-0.1,0-0.4,0.2-0.3,0.4c0.1,0.1,0.2,0,0.3,0c0.2,0,0.3,0,0.5,0c0.1,0,0.4,0,0.5,0c0,0.1-0.1,0.3-0.1,0.4c0,0.1,0,0.2,0,0.4
						c0,0,0,0.1,0,0c0-0.3,0.1-0.6,0.3-0.8c0.1-0.1,0.1-0.2,0.2-0.3c0.1,0.1,0.1,0.2,0.2,0.3c0.4,0.7,0.9,1.3,1.3,2
						c-0.5-0.1-1.1-0.1-1.6-0.3c-0.4-0.1-0.7-0.3-1-0.5c-0.2-0.1-0.9-0.7-0.9-0.9c0-0.1-0.1-0.7-0.1-0.8c-0.3,0.6-0.1,1.7,0.3,2.1
						c1.1,1.3,2.5,1.2,3.9,1.4c0,0,0-0.4,0-0.4C72.8,71.8,72.8,71.5,72.7,71.3z"/>
				</g>
			</g>
		</g>
	</g>
	<g>
		<g>
			<path id="XMLID_46_" class="st5" d="M115.8,64.8C115.8,64.6,115.8,64.6,115.8,64.8c-0.1,1.1-0.6,2.3-1.7,2.5
				c-0.5,0.1-1,0-1.4-0.3c-0.2-0.1-0.4-0.3-0.6-0.5c-0.1-0.1-0.1-0.2-0.2-0.3c0,0,0-0.1,0-0.2c0,0,0-0.2,0-0.2
				c-0.2-0.1-0.2,0.6-0.1,0.8c0.1,0.8,0.7,1.4,1.3,1.7c1.7,0.7,2.7-1.1,2.7-2.7C115.9,65.4,115.9,65.1,115.8,64.8z"/>
			<g>
				<g>
					<g>
						<path id="XMLID_45_" class="st6" d="M114.7,63.3c-1.4-0.3-2.7,0.7-2.7,2.3c0,1.7,1.6,2.2,2.9,1.6c1.1-0.5,1.3-2,0.7-3
							c-0.3-0.5-0.8-0.9-1.4-0.9c-0.9,0-1.4,1-1.7,1.8c0,0,0,0.3,0,0.2c0.6-0.9,1.5-1.8,2.5-1c1.1,0.8,0.8,2.2-0.3,2.7
							c-1.1,0.5-2.8,0.2-2.6-1.5c0.1-1.3,1.4-2.1,2.6-2C114.7,63.5,114.7,63.3,114.7,63.3L114.7,63.3z"/>
					</g>
					<g>
						<path id="XMLID_44_" class="st6" d="M113.9,63.8c-0.3-0.7-1-0.1-1.2,0.3c-0.3,0.6-0.5,1.1-0.5,1.8c0,0.6,0.1,1,0.7,1.3
							c0.7,0.4,1.5,0.4,2.1,0c1-0.6,1.1-2.4,0.3-3.1c-1-0.9-2.6,0.1-2.8,1.3c0,0.1-0.1,1.1,0.1,1.1c0.6,0.1,1-0.6,1.5-0.7
							c0.5-0.1,1.3,0,1.6,0.4c0-0.4,0-0.7,0-1.1c-0.5,0.2-1.1,0.3-1.6,0.4c-0.3,0.1-0.6,0.1-1,0.1c-0.1,0-0.2,0-0.4-0.1
							c-0.3-0.1-0.2-0.6-0.2,0.3c0-0.2,0-0.6-0.1-0.8c0,0-0.1,0.5-0.1,0.5c0,0.9,0.3,1.2,1.1,1.2c0.7,0,1.5-0.3,2.2-0.5
							c0.1,0,0-1,0-1.1c-0.3-0.5-0.9-0.5-1.4-0.5c-0.7,0-1.1,0.8-1.7,0.7c0,0.4,0,0.7,0.1,1.1c0.2-0.9,1-1.4,1.8-1.5
							c0.4,0,0.8,0.2,1.1,0.4c0.4,0.3,0,0.3-0.2,0.5c-0.2,0.2-0.4,0.3-0.6,0.4c-0.4,0.2-0.9,0.2-1.3,0.1c-0.2,0-0.3-0.1-0.5-0.2
							c-0.1,0-0.2-0.1-0.3-0.2c-0.2-0.3-0.2-0.3-0.2-0.1c0.1-0.5,0.4-1,0.7-1.4c0.2-0.2,0.7-0.4,0.9-0.2
							C113.9,64.2,114,63.9,113.9,63.8L113.9,63.8z"/>
					</g>
					<g>
						<path id="XMLID_43_" class="st6" d="M112.6,64.5c-0.2-0.4-0.5,0.3-0.5,0.5c-0.1,0.2-0.1,0.5,0,0.7c0,0.2,0,0.4,0.1,0.6
							c0,0.1,0.1-0.3,0.1-0.3c0-0.2,0-0.4,0-0.5c0,0.1,0,0.1,0,0.2c0-0.1,0-0.1,0-0.2c-0.1-0.4-0.1,0.5,0,0.2
							c0.1-0.2,0.2-0.4,0.3-0.6C112.5,64.9,112.7,64.6,112.6,64.5L112.6,64.5z"/>
					</g>
					<g>
						<path id="XMLID_42_" class="st6" d="M115.6,65.3C115.5,65.1,115.6,65.4,115.6,65.3c0,0.2,0,0.3,0.1,0.4c0,0.1,0,0.2,0.1,0.3
							c0.1,0.4,0.1-0.9,0-0.6c-0.1,0.2-0.1,0.4-0.1,0.6c0,0.1,0,0.2,0,0.3c0,0,0.1,0.1,0.1,0c0-0.1,0.1-0.3,0.1-0.4
							c0-0.1,0-0.3,0-0.4c0-0.2,0-0.2,0,0.3c0-0.1,0-0.2,0-0.2c0-0.3,0-0.6-0.2-0.9c0,0,0,0.1,0,0.1C115.5,65,115.5,65.2,115.6,65.3
							L115.6,65.3z"/>
					</g>
					<g>
						<path id="XMLID_41_" class="st6" d="M115.6,65.5c0-0.3,0-0.4,0-0.2C115.6,65.3,115.6,65.4,115.6,65.5c0,0,0,0.2,0.1,0.3
							c0,0.2,0.1,0.4,0.2,0.5c0-0.3,0-0.7,0-1c-0.1,0-0.1,0.1-0.2,0.1C115.6,65.4,115.5,65.5,115.6,65.5c-0.1,0.1-0.1,0.2-0.1,0.4
							c0,0.1,0,0.2,0,0.3c0.1,0.3,0.1,0.2,0.3,0.1c0,0,0-0.3,0-0.4c0-0.1,0-0.3,0-0.4c0-0.1,0-0.2,0-0.2c0-0.1-0.1-0.2-0.1-0.3
							c0-0.1,0-0.2-0.1-0.2C115.6,64.8,115.6,65.4,115.6,65.5L115.6,65.5z"/>
					</g>
				</g>
				<g>
					<path id="XMLID_40_" class="st0" d="M113.7,64.3c-0.1-0.2-0.2-0.4-0.4-0.3c-0.2,0-0.3,0.1-0.4,0.3c-0.1,0.1-0.1,0.3-0.1,0.4
						c0,0.2,0,0.6,0.1,0.8c0.1,0.2,0.4,0.2,0.5,0.2c0.2,0,0.4-0.1,0.5-0.4c0.1-0.2,0-0.4,0-0.6c0-0.1,0-0.3,0-0.4c0,0,0-0.1,0-0.2
						c-0.1-0.1-0.2-0.1-0.4-0.1c-0.2,0-0.2,0.5-0.2,0.6c0,0.1,0,0.7,0.2,0.6c0.1-0.1,0.3,0,0.4,0c0-0.4,0-0.8,0-1.1
						c-0.1,0.3-0.5,0.5-0.8,0.5c0,0-0.1,0-0.1-0.1c-0.1-0.2-0.1,1,0,0.7c0-0.1,0.1-0.1,0.1-0.2c0.1-0.1,0.2-0.2,0.3-0.3
						c0.2-0.1,0.2-0.2,0.3-0.4C113.7,64.4,113.7,64.3,113.7,64.3L113.7,64.3z"/>
				</g>
				<g>
					<path id="XMLID_39_" class="st0" d="M113,66c0.1,0.2,0.3,0.2,0.5,0.2c0,0,0.1,0,0.1,0c0.1,0,0.1,0,0.1-0.1c0,0,0-0.1,0-0.2
						c0-0.1,0-0.1,0-0.2c0-0.1-0.1,0-0.2,0C113.3,65.8,113.1,65.8,113,66C113,66,113,66,113,66L113,66z"/>
				</g>
			</g>
		</g>
		<g>
			<path id="XMLID_38_" class="st5" d="M87,65.9c-0.2,0.5-0.6,0.9-1.1,1.2c-0.4,0.2-0.9,0.2-1.3,0.1c-0.3-0.1-1.1-0.6-1-1
				c0,0,0-0.2,0-0.2c-0.2,0.2-0.1,0.6,0,0.9c0.1,0.7,0.7,1.2,1.3,1.4c1.6,0.5,2.6-1.4,2.6-2.8c0,0-0.1-0.5-0.1-0.5
				C87.2,65.2,87.1,65.6,87,65.9z"/>
			<g>
				<g>
					<g>
						<path id="XMLID_37_" class="st6" d="M86,63.3c-1.4-0.3-2.7,0.7-2.7,2.3c0,1.7,1.6,2.2,2.9,1.6c1.1-0.5,1.3-2,0.7-3
							c-0.3-0.5-0.8-0.9-1.4-0.9c-0.9,0-1.4,1-1.7,1.8c0,0,0,0.3,0,0.2c0.6-0.9,1.5-1.8,2.5-1c1.1,0.8,0.8,2.2-0.3,2.7
							c-1.1,0.5-2.8,0.2-2.7-1.5c0.1-1.3,1.4-2.1,2.6-2C86,63.5,86,63.3,86,63.3L86,63.3z"/>
					</g>
					<g>
						<path id="XMLID_36_" class="st6" d="M85.2,63.8c-0.3-0.7-1-0.1-1.2,0.3c-0.3,0.6-0.5,1.1-0.5,1.8c0,0.6,0.1,1,0.7,1.3
							c0.7,0.4,1.5,0.4,2.1,0c1-0.6,1.1-2.4,0.3-3.1c-1-0.9-2.6,0.1-2.8,1.3c0,0.1-0.1,1.1,0.1,1.1c0.6,0.1,1-0.6,1.5-0.7
							c0.5-0.1,1.3,0,1.6,0.4c0-0.4,0-0.7,0-1.1c-0.5,0.2-1.1,0.3-1.6,0.4c-0.3,0.1-0.6,0.1-1,0.1c-0.1,0-0.2,0-0.4-0.1
							c-0.3-0.1-0.2-0.6-0.2,0.3c0-0.2,0-0.6-0.1-0.8c0,0-0.1,0.5-0.1,0.5c0,0.9,0.3,1.2,1.1,1.2c0.7,0,1.5-0.3,2.2-0.5
							c0.1,0,0-1,0-1.1c-0.3-0.5-0.9-0.5-1.4-0.5c-0.7,0-1.1,0.8-1.7,0.7c0,0.4,0,0.7,0.1,1.1c0.2-0.9,1-1.4,1.8-1.5
							c0.4,0,0.8,0.2,1.1,0.4c0.4,0.3,0,0.3-0.2,0.5c-0.2,0.2-0.4,0.3-0.6,0.4c-0.4,0.2-0.9,0.2-1.3,0.1c-0.2,0-0.3-0.1-0.5-0.2
							c-0.1,0-0.2-0.1-0.3-0.2c-0.2-0.3-0.2-0.3-0.2-0.1c0.1-0.5,0.4-1,0.7-1.4c0.2-0.2,0.7-0.4,0.9-0.2
							C85.2,64.2,85.3,63.9,85.2,63.8L85.2,63.8z"/>
					</g>
					<g>
						<path id="XMLID_35_" class="st6" d="M84,64.5c-0.2-0.4-0.5,0.3-0.5,0.5c-0.1,0.2-0.1,0.5,0,0.7c0,0.2,0,0.4,0.1,0.6
							c0,0.1,0.1-0.3,0.1-0.3c0-0.2,0-0.4,0-0.5c0,0.1,0,0.1,0,0.2c0-0.1,0-0.1,0-0.2c-0.1-0.4-0.1,0.5,0,0.2
							c0.1-0.2,0.2-0.4,0.3-0.6C83.8,64.9,84,64.6,84,64.5L84,64.5z"/>
					</g>
					<g>
						<path id="XMLID_34_" class="st6" d="M86.9,65.3C86.9,65.1,86.9,65.4,86.9,65.3c0,0.2,0,0.3,0.1,0.4c0,0.1,0,0.2,0.1,0.3
							c0.1,0.4,0.1-0.9,0-0.6c-0.1,0.2-0.1,0.4-0.1,0.6c0,0.1,0,0.2,0,0.3c0,0,0.1,0.1,0.1,0c0-0.1,0.1-0.3,0.1-0.4
							c0-0.1,0-0.3,0-0.4c0-0.2,0-0.2,0,0.3c0-0.1,0-0.2,0-0.2c0-0.3,0-0.6-0.2-0.9c0,0,0,0.1,0,0.1C86.9,65,86.9,65.2,86.9,65.3
							L86.9,65.3z"/>
					</g>
					<g>
						<path id="XMLID_33_" class="st6" d="M86.9,65.5c0-0.3,0-0.4,0-0.2C86.9,65.3,86.9,65.4,86.9,65.5c0,0,0,0.2,0.1,0.3
							c0,0.2,0.1,0.4,0.2,0.5c0-0.3,0-0.7,0-1c-0.1,0-0.1,0.1-0.2,0.1C86.9,65.4,86.9,65.5,86.9,65.5c-0.1,0.1-0.1,0.2-0.1,0.4
							c0,0.1,0,0.2,0,0.3c0.1,0.3,0.1,0.2,0.3,0.1c0,0,0-0.3,0-0.4c0-0.1,0-0.3,0-0.4c0-0.1,0-0.2,0-0.2c0-0.1-0.1-0.2-0.1-0.3
							c0-0.1,0-0.2-0.1-0.2C86.9,64.8,86.9,65.4,86.9,65.5L86.9,65.5z"/>
					</g>
				</g>
				<g>
					<path id="XMLID_32_" class="st0" d="M85,64.3c-0.1-0.2-0.2-0.4-0.4-0.3c-0.2,0-0.3,0.1-0.4,0.3c-0.1,0.1-0.1,0.3-0.1,0.4
						c0,0.2,0,0.6,0.1,0.8c0.1,0.2,0.4,0.2,0.5,0.2c0.2,0,0.4-0.1,0.5-0.4c0.1-0.2,0-0.4,0-0.6c0-0.1,0-0.3,0-0.4c0,0,0-0.1,0-0.2
						c-0.1-0.1-0.2-0.1-0.4-0.1c-0.2,0-0.2,0.5-0.2,0.6c0,0.1,0,0.7,0.2,0.6c0.1-0.1,0.3,0,0.4,0c0-0.4,0-0.8,0-1.1
						c-0.1,0.3-0.5,0.5-0.8,0.5c0,0-0.1,0-0.1-0.1c-0.1-0.2-0.1,1,0,0.7c0-0.1,0.1-0.1,0.1-0.2c0.1-0.1,0.2-0.2,0.3-0.3
						c0.2-0.1,0.2-0.2,0.3-0.4C85,64.4,85,64.3,85,64.3L85,64.3z"/>
				</g>
				<g>
					<path id="XMLID_31_" class="st0" d="M84.3,66c0.1,0.2,0.3,0.2,0.5,0.2c0,0,0.1,0,0.1,0c0.1,0,0.1,0,0.1-0.1c0,0,0-0.1,0-0.2
						c0-0.1,0-0.1,0-0.2c0-0.1-0.1,0-0.2,0C84.6,65.8,84.4,65.8,84.3,66C84.3,66,84.3,66,84.3,66L84.3,66z"/>
				</g>
			</g>
		</g>
		<g>
			<path id="XMLID_30_" class="st5" d="M100.4,78.1c-0.2,0-0.4,0-0.6,0c-0.7-0.4-1.8-0.2-2.6-0.2c-0.4,0-0.9,0-1.1,0.3
				c-0.1,0-0.3,0-0.4-0.1c0,0,0,0.1,0,0.2c-0.1,0-0.1,0-0.2,0c-0.1,0,0,0.9,0,0.9c0.2,0,0.5,0,0.7,0c1.2,0.6,2.5,0.8,3.7,1.4
				c0,0,0,0,0,0c0-0.1,0-0.1,0-0.2c0,0,0.1,0,0.1,0.1c0,0,0-0.2,0-0.2c0-0.1,0-0.1,0-0.2c0,0,0,0.1,0,0.1c0,0,0,0,0,0
				c0,0.1,0,0.1,0,0.2c0,0,0,0,0-0.1c0,0,0,0,0,0.1c0-0.1,0-0.2,0.1-0.3c0,0,0,0,0,0c0,0,0,0,0-0.1c0-0.3,0.1-0.6,0.1-0.9
				c0-0.1,0-0.1,0-0.2C100.5,78.9,100.4,78.1,100.4,78.1z"/>
			<g>
				<path id="XMLID_29_" class="st8" d="M97.1,68.6c0.4,3.2-0.5,6.1-1.9,9c0,0,0,0.5,0,0.5c1.6,0.1,3.3,0.2,4.9,0c0,0,0-0.3,0-0.3
					c-1.6-0.3-3.3-0.1-4.9-0.2c0,0.2,0,0.3,0,0.5C96.6,75.3,97.9,71.8,97.1,68.6C97.1,68.6,97.1,68.6,97.1,68.6L97.1,68.6z"/>
			</g>
		</g>
		<g>
			<path id="XMLID_28_" class="st5" d="M108.2,81.8c-0.1-0.1-0.2-0.1-0.3-0.2c-0.4-0.4-0.9-0.6-1.3-0.6c0,0,0,0.6,0,0.6
				c0.3,0.3,0.7,0.6,1.1,0.9c0.1,0.1,0.1,0.2,0.3,0.3c0,0,0.1,0.1,0.1,0.1c0.3,0.3,0.6,0.7,0.7,1.3c0,0,0,0.1,0,0.1
				c0.2-0.5,0.2-1.3,0-1.8C108.7,82.1,108.4,81.9,108.2,81.8z"/>
			<g>
				<g>
					<path id="XMLID_27_" class="st8" d="M93.4,85.1c2.3,0.9,4.7,1,7.1,0.6c2.2-0.3,4.9-1.2,6.2-3.3c0-0.1,0-0.3,0-0.3
						C103.3,85.5,97.9,86,93.4,85.1C93.4,85,93.4,85.1,93.4,85.1L93.4,85.1z"/>
				</g>
				<g>
					<path id="XMLID_26_" class="st8" d="M105.8,81.1c1.5-0.2,2.6,0.5,3.2,1.9c0-0.1,0-0.2,0-0.2c-0.4-1.7-1.6-2.4-3.2-1.9
						C105.8,81,105.8,81.1,105.8,81.1L105.8,81.1z"/>
				</g>
			</g>
		</g>
		<g>
			<path id="XMLID_25_" class="st8" d="M117.6,72.9C117.6,72.9,117.6,72.8,117.6,72.9c-0.1-0.1-0.1,0-0.1,0c0,0,0,0.1-0.1,0.1
				c0,0,0,0,0,0c0,0,0,0,0,0c0,0,0,0.1,0,0.2c0,0,0,0.1,0,0.1c0,0,0,0,0,0c0,0,0,0,0.1-0.1c0,0,0,0,0.1-0.1c0.1-0.1,0.1-0.2,0.1-0.3
				C117.6,73,117.6,72.9,117.6,72.9z"/>
			<path id="XMLID_24_" class="st8" d="M117.8,76.4c0,0,0-0.1-0.1-0.1l0,0c0,0,0-0.1,0-0.1c0,0-0.1,0-0.1,0c0,0.1,0,0.1,0,0.2
				c0,0.1,0,0.2,0,0.3c0,0,0,0.1,0,0.1c0,0,0-0.1,0-0.1c0,0,0,0,0,0c0,0,0,0,0,0c0,0,0,0.3,0,0.3c0,0,0,0,0,0c0,0,0-0.1,0-0.1
				c0,0,0-0.1,0-0.1c0,0,0,0,0,0C117.8,76.5,117.8,76.4,117.8,76.4z"/>
			<path id="XMLID_23_" class="st8" d="M114,76.1C114,76.1,114,76.1,114,76.1C113.9,76.1,113.9,76.1,114,76.1
				c-0.1,0.2-0.1,0.3-0.1,0.4c0,0.1,0,0.2,0.1,0.1c0.1,0,0-0.1,0.1-0.1c0,0,0,0,0,0c0,0,0-0.1,0-0.1c0-0.1,0-0.1,0-0.2
				C114.1,76.2,114.1,76.1,114,76.1z"/>
		</g>
		<g>
			<path id="XMLID_22_" class="st2" d="M106.5,59.3c1.1-0.4,2.1-1.2,3.2-1.6c1.3-0.5,2.6-0.7,4-0.8c1.4-0.1,2.7,0.1,4.1,0.4
				c1.2,0.3,2.1,1.1,3.2,1.6c0.1,0,0.1-0.7,0-0.7c-2.8-5.1-12.1-3.9-14.5,1C106.5,59.1,106.5,59.3,106.5,59.3L106.5,59.3z"/>
		</g>
		<g>
			<path id="XMLID_21_" class="st8" d="M80.8,73.7C80.8,73.7,80.8,73.6,80.8,73.7c0-0.1-0.1-0.1-0.1-0.2c-0.1-0.1-0.1,0.1-0.1,0.2
				c0,0.1,0,0.2,0,0.3c0,0.1,0,0,0,0c0,0,0-0.1,0-0.1c0,0,0,0,0,0c0,0,0,0,0,0.1c0,0,0,0.1,0.1,0.1c0,0,0,0,0,0c0,0,0.1-0.1,0.1-0.1
				c0,0,0,0,0-0.1C80.8,73.8,80.8,73.7,80.8,73.7z"/>
			<path id="XMLID_20_" class="st8" d="M81.6,77.5c0-0.1,0-0.1,0-0.1c0,0-0.1,0-0.1,0c0,0,0,0,0,0c0,0,0,0,0,0
				c-0.1,0-0.1,0.2-0.2,0.3c0,0,0,0,0,0.1c0,0.1,0,0.2,0,0.2l0,0c0,0,0,0,0,0c0,0,0.1,0,0.1,0c0,0,0,0,0,0c0.1,0,0.2,0,0.2,0
				c0,0,0-0.2,0-0.2c0,0,0,0,0,0C81.6,77.7,81.7,77.6,81.6,77.5C81.6,77.6,81.6,77.5,81.6,77.5z"/>
			<path id="XMLID_19_" class="st8" d="M84.9,78C84.9,78,84.9,78,84.9,78C84.9,78,84.9,78.1,84.9,78z"/>
			<path id="XMLID_18_" class="st8" d="M85.1,77.9C85.1,77.9,85.1,77.9,85.1,77.9c0-0.1,0-0.1,0-0.1c0,0,0,0,0,0c0-0.1,0-0.2,0-0.2
				c0,0,0,0,0,0c0,0,0,0.1-0.1,0.1c0,0,0,0,0,0c0,0,0,0,0,0c0,0,0-0.1,0-0.1c0,0-0.1,0.1-0.1,0.1c0,0,0,0,0,0
				c-0.1,0-0.1,0.2-0.2,0.2c0,0,0,0.2,0,0.2c0,0,0.1,0,0.2,0c0,0,0,0,0,0c0,0,0,0.1,0.1,0.1c0,0,0,0,0-0.1c0,0,0,0,0,0c0,0,0,0,0,0
				c0,0,0,0,0,0c0,0,0,0,0,0c0,0,0,0,0,0C85,78,85,78,85.1,77.9C85,78,85,77.9,85.1,77.9C85.1,77.9,85.1,77.9,85.1,77.9
				C85.1,77.9,85.1,77.9,85.1,77.9C85.1,77.9,85.1,77.9,85.1,77.9z"/>
		</g>
	</g>
	<g>
		<g>
			<path class="st18" d="M136.4,37.4c0-0.1-0.1-0.2-0.1-0.2c-0.4-2.3-1.9-5-4.2-5.6c-1.5-0.3-2.9,0.6-4,1.9c0-1,0-2-0.4-3
				c-0.7-1.7-1.9-3-3.3-4c-0.3-0.2-0.6-0.3-0.9-0.3c-3-1.8-6.8-2.2-10.1-2.5c-1.4-0.2-2.9-0.3-4.4-0.4c-1-0.1-2.7-0.3-3.6,0.5
				c-3.4,0.1-6.8,0.7-10.2,1.4c-3.8,0.8-7.5,1.4-11.2,2.6c-3.5,1.2-7.2,2.6-10.3,4.7c-2.8,1.8-5.6,4.3-6.6,7.7c-1.5,2.7-1.8,6-1.8,9
				c0,3.4,0.5,6.9,1.5,10.2c0.9,3,2,6.3,3.8,8.8c0.1,0.2,0.3,0.4,0.5,0.5c0.1,0.3,0.4,0.6,0.6,1c0.2,0.4,0.5,0.7,0.7,1.1
				c0.2,0.3,0.3,0.6,0.6,0.9c0.1,0,0.1-0.1,0.1-0.1c0.1-0.5,0.2-0.9,0.3-1.4c0.1-0.2,0.2-0.5,0.2-0.7c0,0,0-0.1,0-0.1
				c0.1-0.4,0.3-0.8,0.4-1.2c0,0,0,0,0-0.1c0.2-0.2,0.4-0.4,0.5-0.7c0.3-0.6,0.6-1.3,1-1.9c0.8-0.9,1.8-1.7,2.8-2.4c0,0,0,0,0,0
				c-0.3,0.3-0.5,1-0.7,1.4c-0.3,0.8-0.6,1.7-0.7,2.6c-0.2,1.3-0.3,2.8-0.2,4.2c-0.1,0.6-0.1,1.2,0.1,1.7c0.1,0.2,0.1-0.2,0.1-0.4
				c0,0,0,0,0,0c0.1-0.3,0.2-0.6,0.2-1c0-0.1,0.1-0.2,0.1-0.3c0-0.1,0-0.1,0.1-0.2c0.1-0.2,0.2-0.4,0.2-0.6c0,0.1,0,0.2,0,0.2
				c0.2-0.6,0.5-1.2,0.8-1.7c0.3-0.5,0.7-1,1-1.5c0.3-0.4,0.7-0.8,1-1.1c0,0,0,0,0,0c-0.1,0.1-0.1,0.1-0.2,0.2
				c0.1-0.1,0.1-0.1,0.2-0.2c0.2-0.1,0.4-0.3,0.6-0.4c0.9-0.6,1.9-1,2.8-1.6c3.5-0.9,7-1.6,10.4-2.8c3.2-1.2,6.8-3.1,9.5-5.7
				c0.4-0.3,0.8-0.6,1.2-0.8c0,0,0,0,0,0.1c-0.1,0.1-0.2,0.3-0.3,0.5c-0.2,0.4-0.4,0.9-0.6,1.4c0,0,0,0,0,0
				c-0.1,0.1-0.1,0.1-0.2,0.2c0,0,0,0.1,0,0.1c0.8-0.4,1.5-0.9,2.3-1.3c0.8-0.4,1.7-0.8,2.4-1.3c0.5,0.1,1.1-0.1,1.6-0.5
				c0.6-0.5,1.3-0.8,1.9-1.2c0.8-0.4,1.4-1,2.1-1.6c1.4-1.3,3-2.4,4.4-3.7c2.1-1.8,4-3.9,5.8-6.1c-0.1,0.4-0.1,0.8-0.2,1.2
				c-0.2,1.9,0.4,3.8,1,5.5c0.6,1.7,1.3,3.9,2.6,5.1c0,0.3,0,0.6,0.1,0.9c0,0,0,0,0,0c0,0.1,0,0.3,0,0.4c0,0.2,0,0.3,0,0.5
				c0,0.4,0,0.7,0,1.1c0,0,0,0.6,0,0.6c0,0.4,0,0.8,0,1.2c0,0.1,0,0.3,0,0.4c0,0.2,0,0.3,0,0.5c-0.1,0.4,0,0.9-0.1,1.4
				c0,0.6,0,1.3,0,1.9c0,0,0,0,0,0c0,0.1,0,0.8,0,1c0,0,0,0,0,0c0,0.2,0,0.4,0.1,0.4c0.1,0,0.3,0,0.4-0.1c0.1,0,0.1-0.3,0.1-0.3
				c0.1-2.2,1-4.7,2-6.6c0,0,0,0,0,0c0.4-0.2,0.7-0.6,0.8-1.1c-0.3,0.7,0.3-0.5,0.4-0.7c0.3-0.6,0.6-1.1,1-1.7
				c0.7-1.2,1.4-2.3,2-3.5c0.9-1.6,1.6-3.6,1.9-5.4C136.7,42.1,137.1,39.4,136.4,37.4z M127.6,62.7
				C127.6,62.7,127.6,62.8,127.6,62.7C127.6,62.8,127.6,62.8,127.6,62.7z"/>
		</g>
		<g>
			<path class="st19" d="M126.8,37.4c0.2-0.2,0.3-0.4,0.5-0.6c0.1-0.1,0-0.4,0-0.3c-4,4.2-10.2,12.1-17,13.4c-0.6,0.1,0.9-4,1-4.5
				c0,0,0,0,0,0c0,0.1,0,0.1,0,0.2c0,0,0,0,0,0c0,0,0,0,0,0c0,0,0,0,0,0c-0.1,0.3-0.2,0.5-0.3,0.7c-0.2,0.4-0.4,0.7-0.6,1.1
				c0,0,0,0,0,0c-5,6.1-12.4,8.8-19.4,11.2c-3.5,1.2-7.7,2-10.7,4.5c-2.6,2.2-3.6,6-3.6,9.4c0,0.2,0.2,0.5,0.2,0.2
				c1-3.9,3.2-6.7,6.8-8c3.3-1.2,6.8-1.7,10.1-3c3-1.2,5.8-2.9,8.3-4.9c0.9-0.7,1.7-1.3,2.6-2.1c0,0,0,0.1,0,0.2
				c-0.1,0.2-0.1,0.3-0.2,0.5c-0.1,0.2-0.2,0.5-0.3,0.7c-0.1,0.1-0.2,0.2-0.3,0.3c-0.1,0.1-0.1,0.8,0.1,0.7c1.1-0.6,1.9-1.3,3-1.8
				c1.1-0.5,2.1-1,3.2-1.6c1-0.7,1.9-1.5,2.9-2.2c1.1-0.8,2.2-1.5,3.3-2.3c2.1-1.5,3.9-3.4,5.7-5.3c1.7-1.9,3.5-3.9,4.8-6.2
				C126.8,37.6,126.8,37.5,126.8,37.4z"/>
			<path class="st19" d="M77.9,63.1C77.9,63.1,77.9,63.1,77.9,63.1c0,0,0-0.2,0-0.2c0,0,0,0,0,0c0,0,0,0,0,0c0,0,0,0,0,0
				c-0.9-0.7-3.1,0.9-3.8,1.4c-0.8,0.7-1.4,1.5-2.1,2.3c-0.8,0.9-1.8-0.3-2.3-1.1c0,0,0,0,0,0c0-0.1-0.1-0.1-0.1-0.1
				c0-0.1-0.1-0.1-0.1-0.2c-0.1-0.2-0.2,0.5-0.1,0.6c0.1,0.1,0.1,0.2,0.2,0.3c0.2,0.8,0.6,1.6,1.1,2.3c0.3,0.4,0.5,0.9,0.8,1.3
				c0,0,0,0.1,0.1,0.1c0.1,0.1,0.1,0.2,0.2,0.3c0,0.1,0,0.2,0,0.2c0,0,0,0.2,0.1,0.1c0,0,0,0,0.1-0.1c0.2,0.2,0.3,0.4,0.5,0.7
				c0,0.1,0,0.2,0.1,0.3c0,0,0.1,0,0.1,0c0.1,0.1,0.1,0.2,0.2,0.4c0.1,0.3,0.2-0.2,0.2-0.4c-0.1-0.7,0.4-1.5,0.6-2.1
				c0.3-0.8,0.6-1.6,1-2.4C75.2,65.1,76.5,64.1,77.9,63.1C77.9,63.1,77.9,63.1,77.9,63.1z"/>
			<path class="st19" d="M136.3,37.3c-0.1-0.8-0.4-1.7-0.7-2.4c-0.5-1.1-2.2-4.2-3.7-3.7c-0.1,0-0.2,0.2-0.2,0.3c-0.1,0-0.2,0-0.4,0
				c-0.4-0.1-0.7,0-1.1,0.2c0,0,0,0.1,0,0.2c1.8,0.3,2.8,1.4,3.4,2.9c0.3,1.7,0.2,3.8,0,4.9c-0.4,2.6-1.4,5-2.5,7.3
				c-1,2.2-1.9,4.4-2.8,6.6c-0.4-3.2-2.9-5.3-3.8-8.3c-0.2-1.3-0.4-2.5-0.3-3.9c0,0,0-0.1,0,0c0,0,0,0,0,0c0,0,0,0,0-0.1
				c0,0,0-0.1,0,0c-0.3,1.1-0.3,2.5,0,3.7c0,0.1,0,0.2,0,0.2c0.2,1.7,0.9,3.2,1.7,4.6c0.2,1,0.8,1.9,1.3,2.8
				c0.7,1.5,0.2,3.3,0.3,4.9c0,0.2,0,0.3,0,0.5c-0.1,1.5,0.2,3.1,0,4.6c0,0.2,0,0.4,0.1,0.6c0,0.1,0.1,0.2,0.2,0.2
				c0.1,0,0.1,0,0.2,0c0.1,0,0.2-0.2,0.2-0.3c0.3-1.9,0.8-3.8,1.5-5.6c0.7-1.9,1.8-3.6,2.8-5.3c0.4-0.6,0.7-1.3,1.1-1.9
				c0,0,0.1,0,0.1-0.1c1.3-2.1,2.2-4.3,2.7-6.8C136.7,41.7,136.9,39.2,136.3,37.3z"/>
		</g>
		<g>
			<g>
				<path id="XMLID_12_" class="st2" d="M127.5,36.5c-1.7,2.2-3.2,4.5-5,6.7c-1.7,1.9-3.5,3.7-5.4,5.3c-4.2,3.5-9,6.1-13.6,8.9
					c0,0,0,0.2,0,0.2C112.8,53,122.1,46.2,127.5,36.5C127.5,36.6,127.5,36.5,127.5,36.5L127.5,36.5z"/>
			</g>
			<g>
				<path id="XMLID_11_" class="st2" d="M111.3,45.3c-1.6,4.1-4.7,7.5-7.9,10.3c-3.2,2.7-6.9,5.2-10.8,6.4c-3.2,1-6.6,1.3-9.8,2.7
					c-3.3,1.4-5.3,4.4-6.2,8.1c0,0.1,0,0.2,0,0.2c1-3.7,3-6.5,6.4-8c3.1-1.4,6.6-1.7,9.8-2.7c3.8-1.2,7.4-3.7,10.5-6.4
					C106.7,53.1,109.7,49.6,111.3,45.3C111.4,45.4,111.3,45.4,111.3,45.3L111.3,45.3z"/>
			</g>
			<g>
				<path id="XMLID_10_" class="st2" d="M78.1,62.8c-2,2.5-1.8,6.6-1.5,9.7c0,0.1,0,0.1,0,0c-0.1-3.2-0.3-6.8,1.5-9.6
					C78.2,62.9,78.1,62.8,78.1,62.8L78.1,62.8z"/>
			</g>
			<g>
				<path id="XMLID_9_" class="st2" d="M78.1,62.8C76.4,63,75,65.5,74.2,67c-0.9,1.7-1.4,3.7-1.4,5.7c0,0.1,0,0.2,0,0.1
					c0.1-2,0.7-3.8,1.5-5.5c0.9-1.9,2.2-3,3.7-4.3C78.2,63,78.2,62.8,78.1,62.8L78.1,62.8z"/>
			</g>
			<g>
				<path id="XMLID_8_" class="st2" d="M104.9,54.2c-0.6,1.2-1.2,2.4-1.8,3.7c0,0,0,0.1,0,0.2c0.7-1.1,1.3-2.4,1.8-3.7
					C104.9,54.3,104.9,54.2,104.9,54.2L104.9,54.2z"/>
			</g>
			<g>
				<path id="XMLID_7_" class="st2" d="M124.1,41.2c-0.6,1.7-0.1,3.7,0.3,5.4c0.6,2.3,1.6,4.7,2.9,6.6c0,0,0-0.2,0-0.2
					c-1.8-3.4-3.9-7.6-3.2-11.6C124.2,41.4,124.2,41.2,124.1,41.2L124.1,41.2z"/>
			</g>
			<g>
				<path id="XMLID_6_" class="st2" d="M127.9,35c0.6-3.6,4.2-4.3,6.4-1.9c2.5,2.7,2.7,7.6,1.9,11.1c-1.6,6.9-7.5,11.6-8.1,18.9
					c0,0,0,0.3,0,0.2c1.1-8.1,8.3-13.4,8.6-21.8c0.1-2.8-0.4-5.9-1.9-8.3c-0.9-1.5-2.4-2.2-4.1-2.1c-1.8,0.2-2.6,1.9-2.8,3.6
					C127.9,34.8,127.9,34.9,127.9,35L127.9,35z"/>
			</g>
			<g>
				<path id="XMLID_5_" class="st2" d="M127.5,36.3c1-2.6,1-5.6-0.8-7.9c-2.2-2.9-6.1-3.9-9.4-4.5c-8.6-1.6-17.3-0.1-25.8,1.7
					c-7.8,1.6-16.8,3.8-22.3,10.5c-5.3,6.5-4.7,16.4-2.3,24.1c1.3,4.1,3.3,8.4,5.9,11.8c0,0,0-0.2,0-0.3c-3.1-4.9-5.7-10.3-6.9-16.1
					c-1-5-1.1-10.3,0.9-15c3.4-7.8,11.8-11.1,19-13.1c4.9-1.4,9.9-2.2,14.9-3c3.9-0.6,7.7-0.9,11.6-0.7c3.8,0.2,7.9,0.8,11.3,2.7
					c1.4,0.7,2.6,1.8,3.5,3.2c1.2,2,0.9,4.4,0.2,6.5C127.5,36.2,127.5,36.3,127.5,36.3L127.5,36.3z"/>
			</g>
			<g>
				<path id="XMLID_4_" class="st2" d="M107.8,45.4c-3.9,5-9,8.4-14.4,11.4c0,0,0,0.1,0,0.1C98.8,54.1,103.9,50.5,107.8,45.4
					C107.8,45.5,107.8,45.4,107.8,45.4L107.8,45.4z"/>
			</g>
			<g>
				<path id="XMLID_3_" class="st2" d="M104.3,43.6c-1.9,2.1-3.6,4.5-5.6,6.6c-2,2.2-4.2,4-6.6,5.6c-3.4,2.3-7.3,3.6-10.6,6.3
					c0,0,0,0.1,0,0.1c3.3-2.5,7.1-3.9,10.6-6.2c2.3-1.5,4.4-3.3,6.3-5.3C100.6,48.5,102.3,46,104.3,43.6
					C104.3,43.7,104.3,43.6,104.3,43.6L104.3,43.6z"/>
			</g>
		</g>
	</g>
	<g>
		<path id="XMLID_2_" class="st5" d="M123.9,41.6c-0.3,0-0.5,0.5-0.7,0.8c-0.4,0.5-0.8,1-1.2,1.4c-0.8,0.8-1.6,1.6-2.4,2.3
			c-2,1.8-4,3.5-6.1,5.2c-2.1,1.6-4.2,3-6.4,4.2c-1.1,0.6-2.1,1.1-3.2,1.7c0.2-0.2,0.4-0.4,0.5-0.5c0.1,0,0.1-0.3,0.1-0.8
			c0-0.1,0.1-0.1,0.1-0.2c0.1-0.2-0.1-1.2,0-1.2c-0.1,0-0.1,0.1-0.2,0.1c0-0.2,0-0.4-0.1-0.4c0,0,0,0,0,0c0,0,0,0,0,0
			c-0.4,0.1-0.7,0.8-1,1.1c-0.6,0.5-1.2,1-1.9,1.5c-1.1,0.8-2.3,1.4-3.5,2c-2.6,1.4-5.3,2.6-8.1,3.4c-2.7,0.7-5.4,0.7-7.8,2.5
			c-1.9,1.4-3.2,3.4-3.6,5.8c-0.1,0.4-0.1,0.9,0,1.4c0,0.1,0.2,1,0.2,0.9c0.8-2.8,2.8-4.9,5.1-6.3c1-0.6,2.1-1,3.2-1.2
			c1-0.2,2-0.3,3-0.6c0.7-0.1,1.4-0.3,2-0.4c2.3-0.6,4.6-1.5,6.8-2.7c0.7-0.4,1.3-0.8,1.9-1.2c0,0.1,0,0.2,0.1,0.2
			c1,0.5,2.4-0.7,3.3-1.2c1.1-0.6,2.2-1.2,3.3-1.8c2.3-1.3,4.4-2.7,6.4-4.3c2.1-1.6,4.2-3.4,6.1-5.3c1.5-1.5,3.5-3.3,4-5.5
			C123.9,42.4,123.9,41.6,123.9,41.6z"/>
		<path id="XMLID_1_" class="st5" d="M74.5,66.5c-0.8,1.4-1.3,3.1-1.5,4.7c-0.1,0.5-0.1,1,0,1.4c0,0.1,0.2,0.9,0.3,0.4
			c0.4-1.6,0.8-3.1,1.5-4.6c0.9-1.7,2.3-2.9,3-4.7c0-0.1,0-0.5,0-0.5C76.8,62.5,75,65.7,74.5,66.5z"/>
	</g>
</g>
</svg>
