<?xml version="1.0" encoding="utf-8"?>
<!-- Generator: Adobe Illustrator 19.0.0, SVG Export Plug-In . SVG Version: 6.00 Build 0)  -->
<svg version="1.1" id="Capa_1" xmlns="http://www.w3.org/2000/svg" xmlns:xlink="http://www.w3.org/1999/xlink" x="0px" y="0px"
	 viewBox="0 0 200 200" style="enable-background:new 0 0 200 200;" xml:space="preserve">
<style type="text/css">
	.st0{fill:#AB5B24;}
	.st1{fill:#572300;}
	.st2{fill:#C5794C;}
	.st3{fill:#602203;}
	.st4{fill:#8B4722;}
	.st5{fill:#753311;}
	.st6{fill:#421100;}
	.st7{opacity:0.5;fill:#C5794C;}
	.st8{fill:#C5954C;}
	.st9{fill:#603903;}
	.st10{fill:#8B6022;}
	.st11{fill:#754B11;}
	.st12{fill:#422100;}
	.st13{opacity:0.5;fill:#C5954C;}
</style>
<g id="XMLID_2_">
	<g id="XMLID_109_">
		<path id="XMLID_115_" class="st0" d="M93.3,52.6v-9.9H73.2v9.9h-7V38.8c0-1.7,1.4-3.2,3.2-3.2h27.7c1.7,0,3.2,1.4,3.2,3.2v13.7
			H93.3z"/>
		<path id="XMLID_114_" class="st0" d="M22.1,122.8c0,1.7,1.4,3.2,3.2,3.2h116c1.7,0,3.2-1.4,3.2-3.2V55.7c0-1.7-1.4-3.2-3.2-3.2
			h-116c-1.7,0-3.2,1.4-3.2,3.2V122.8z"/>
		<path id="XMLID_113_" class="st1" d="M23.1,64.5c6.2,0,11.2-5,11.2-11.2c0-0.3,0-0.5,0-0.8h98.1c0,0.3,0,0.5,0,0.8
			c0,6.2,5,11.2,11.2,11.2c0.3,0,0.7,0,1,0v49.6c-0.3,0-0.6,0-1,0c-6.2,0-11.2,5-11.2,11.2c0,0.3,0,0.5,0,0.8H34.2
			c0-0.3,0-0.5,0-0.8c0-6.2-5-11.2-11.2-11.2c-0.3,0-0.6,0-1,0V64.5C22.4,64.5,22.7,64.5,23.1,64.5z"/>
		<g id="XMLID_110_">
			<rect id="XMLID_112_" x="113.9" y="52.6" class="st0" width="9" height="73.5"/>
			<rect id="XMLID_111_" x="43.6" y="52.6" class="st0" width="9" height="73.5"/>
		</g>
	</g>
	<g id="XMLID_56_">
		<path id="XMLID_108_" class="st2" d="M77.4,161.6c0,1.5,1.2,2.7,2.7,2.7h98.8c1.5,0,2.7-1.2,2.7-2.7V98.5c0-1.5-1.2-2.7-2.7-2.7
			H80.1c-1.5,0-2.7,1.2-2.7,2.7V161.6z"/>
		<g id="XMLID_106_">
			<rect id="XMLID_107_" x="77.4" y="150.9" class="st3" width="104.2" height="0.5"/>
		</g>
		<g id="XMLID_83_">
			<g id="XMLID_104_">
				<rect id="XMLID_105_" x="163.8" y="95.8" class="st4" width="5.4" height="68.6"/>
			</g>
			<g id="XMLID_102_">
				<circle id="XMLID_103_" class="st5" cx="166.2" cy="151.2" r="0.7"/>
			</g>
			<g id="XMLID_100_">
				<circle id="XMLID_101_" class="st5" cx="166.2" cy="148.3" r="0.7"/>
			</g>
			<g id="XMLID_98_">
				<circle id="XMLID_99_" class="st5" cx="166.2" cy="145.5" r="0.7"/>
			</g>
			<g id="XMLID_96_">
				<circle id="XMLID_97_" class="st5" cx="166.2" cy="142.7" r="0.7"/>
			</g>
			<g id="XMLID_94_">
				<circle id="XMLID_95_" class="st5" cx="166.2" cy="139.8" r="0.7"/>
			</g>
			<g id="XMLID_92_">
				<circle id="XMLID_93_" class="st5" cx="166.2" cy="158.4" r="0.7"/>
			</g>
			<g id="XMLID_90_">
				<circle id="XMLID_91_" class="st5" cx="166.2" cy="155.5" r="0.7"/>
			</g>
			<g id="XMLID_86_">
				<path id="XMLID_87_" class="st6" d="M161.1,147.5h10.2v7.4h-10.2V147.5 M160,146.4v9.6h12.4v-9.6H160L160,146.4z"/>
			</g>
			<g id="XMLID_84_">
				<path id="XMLID_85_" class="st6" d="M166.2,156.5c0.3,0,0.5-0.2,0.5-0.5v-4.8c0-0.3-0.2-0.5-0.5-0.5c-0.3,0-0.5,0.2-0.5,0.5v4.8
					C165.7,156.3,165.9,156.5,166.2,156.5z"/>
			</g>
		</g>
		<g id="XMLID_60_">
			<g id="XMLID_81_">
				<rect id="XMLID_82_" x="88.1" y="95.8" class="st4" width="5.4" height="68.6"/>
			</g>
			<g id="XMLID_79_">
				<circle id="XMLID_80_" class="st5" cx="91.1" cy="151.2" r="0.7"/>
			</g>
			<g id="XMLID_77_">
				<circle id="XMLID_78_" class="st5" cx="91.1" cy="148.3" r="0.7"/>
			</g>
			<g id="XMLID_75_">
				<circle id="XMLID_76_" class="st5" cx="91.1" cy="145.5" r="0.7"/>
			</g>
			<g id="XMLID_73_">
				<circle id="XMLID_74_" class="st5" cx="91.1" cy="142.7" r="0.7"/>
			</g>
			<g id="XMLID_71_">
				<circle id="XMLID_72_" class="st5" cx="91.1" cy="139.8" r="0.7"/>
			</g>
			<g id="XMLID_69_">
				<circle id="XMLID_70_" class="st5" cx="91.1" cy="158.4" r="0.7"/>
			</g>
			<g id="XMLID_67_">
				<circle id="XMLID_68_" class="st5" cx="91.1" cy="155.5" r="0.7"/>
			</g>
			<g id="XMLID_63_">
				<path id="XMLID_64_" class="st6" d="M96.2,147.5v7.4H86v-7.4H96.2 M97.3,146.4H85v9.6h12.4V146.4L97.3,146.4z"/>
			</g>
			<g id="XMLID_61_">
				<path id="XMLID_62_" class="st6" d="M91.1,156.5c-0.3,0-0.5-0.2-0.5-0.5v-4.8c0-0.3,0.2-0.5,0.5-0.5c0.3,0,0.5,0.2,0.5,0.5v4.8
					C91.7,156.3,91.4,156.5,91.1,156.5z"/>
			</g>
		</g>
		<path id="XMLID_59_" class="st7" d="M181.6,137.1v24.5c0,1.5-1.2,2.7-2.7,2.7H80.1c-1.5,0-2.7-1.2-2.7-2.7v-24.5H181.6z"/>
		<g id="XMLID_57_">
			<path id="XMLID_58_" class="st6" d="M116.5,160.6h24.4l2.7-2.7v-7.8c0-1.5-1.2-2.7-2.7-2.7c-1.5,0-2.7,1.2-2.7,2.7v5.1h-19.1
				v-5.1c0-1.5-1.2-2.7-2.7-2.7c-1.5,0-2.7,1.2-2.7,2.7v7.8L116.5,160.6z"/>
		</g>
	</g>
	<g id="XMLID_3_">
		<path id="XMLID_55_" class="st8" d="M83.3,128c0,1.1,0.9,2.1,2.1,2.1h75.8c1.1,0,2.1-0.9,2.1-2.1V79.5c0-1.1-0.9-2.1-2.1-2.1H85.3
			c-1.1,0-2.1,0.9-2.1,2.1V128z"/>
		<g id="XMLID_53_">
			<rect id="XMLID_54_" x="83.3" y="119.8" class="st9" width="79.9" height="0.4"/>
		</g>
		<g id="XMLID_30_">
			<g id="XMLID_51_">
				<rect id="XMLID_52_" x="149.5" y="77.5" class="st10" width="4.2" height="52.6"/>
			</g>
			<g id="XMLID_49_">
				<circle id="XMLID_50_" class="st11" cx="151.4" cy="120" r="0.5"/>
			</g>
			<g id="XMLID_47_">
				<circle id="XMLID_48_" class="st11" cx="151.4" cy="117.8" r="0.5"/>
			</g>
			<g id="XMLID_45_">
				<circle id="XMLID_46_" class="st11" cx="151.4" cy="115.6" r="0.5"/>
			</g>
			<g id="XMLID_43_">
				<circle id="XMLID_44_" class="st11" cx="151.4" cy="113.4" r="0.5"/>
			</g>
			<g id="XMLID_41_">
				<circle id="XMLID_42_" class="st11" cx="151.4" cy="111.2" r="0.5"/>
			</g>
			<g id="XMLID_39_">
				<circle id="XMLID_40_" class="st11" cx="151.4" cy="125.5" r="0.5"/>
			</g>
			<g id="XMLID_37_">
				<circle id="XMLID_38_" class="st11" cx="151.4" cy="123.3" r="0.5"/>
			</g>
			<g id="XMLID_33_">
				<path id="XMLID_34_" class="st12" d="M147.5,117.1h7.8v5.7h-7.8V117.1 M146.6,116.3v7.3h9.5v-7.3H146.6L146.6,116.3z"/>
			</g>
			<g id="XMLID_31_">
				<path id="XMLID_32_" class="st12" d="M151.4,124c0.2,0,0.4-0.2,0.4-0.4V120c0-0.2-0.2-0.4-0.4-0.4c-0.2,0-0.4,0.2-0.4,0.4v3.7
					C151,123.9,151.1,124,151.4,124z"/>
			</g>
		</g>
		<g id="XMLID_7_">
			<g id="XMLID_28_">
				<rect id="XMLID_29_" x="91.5" y="77.5" class="st10" width="4.2" height="52.6"/>
			</g>
			<g id="XMLID_26_">
				<circle id="XMLID_27_" class="st11" cx="93.8" cy="120" r="0.5"/>
			</g>
			<g id="XMLID_24_">
				<circle id="XMLID_25_" class="st11" cx="93.8" cy="117.8" r="0.5"/>
			</g>
			<g id="XMLID_22_">
				<circle id="XMLID_23_" class="st11" cx="93.8" cy="115.6" r="0.5"/>
			</g>
			<g id="XMLID_20_">
				<circle id="XMLID_21_" class="st11" cx="93.8" cy="113.4" r="0.5"/>
			</g>
			<g id="XMLID_18_">
				<circle id="XMLID_19_" class="st11" cx="93.8" cy="111.2" r="0.5"/>
			</g>
			<g id="XMLID_16_">
				<circle id="XMLID_17_" class="st11" cx="93.8" cy="125.5" r="0.5"/>
			</g>
			<g id="XMLID_14_">
				<circle id="XMLID_15_" class="st11" cx="93.8" cy="123.3" r="0.5"/>
			</g>
			<g id="XMLID_10_">
				<path id="XMLID_11_" class="st12" d="M97.7,117.1v5.7h-7.8v-5.7H97.7 M98.5,116.3H89v7.3h9.5V116.3L98.5,116.3z"/>
			</g>
			<g id="XMLID_8_">
				<path id="XMLID_9_" class="st12" d="M93.8,124c-0.2,0-0.4-0.2-0.4-0.4V120c0-0.2,0.2-0.4,0.4-0.4c0.2,0,0.4,0.2,0.4,0.4v3.7
					C94.2,123.9,94,124,93.8,124z"/>
			</g>
		</g>
		<path id="XMLID_6_" class="st13" d="M163.2,109.2V128c0,1.1-0.9,2.1-2.1,2.1H85.3c-1.1,0-2.1-0.9-2.1-2.1v-18.8H163.2z"/>
		<g id="XMLID_4_">
			<path id="XMLID_5_" class="st12" d="M113.2,127.2H132l2.1-2.1v-6c0-1.1-0.9-2.1-2.1-2.1c-1.1,0-2.1,0.9-2.1,2.1v3.9h-14.6v-3.9
				c0-1.1-0.9-2.1-2.1-2.1c-1.1,0-2.1,0.9-2.1,2.1v6L113.2,127.2z"/>
		</g>
	</g>
</g>
<g>
	<g>
		<path class="st0" d="M392.1,308.2v-14.1h-28.4v14.1h-9.9v-19.5c0-2.5,2-4.5,4.5-4.5h39.2c2.5,0,4.5,2,4.5,4.5v19.5H392.1z"/>
		<path class="st0" d="M291.2,407.8c0,2.5,2,4.5,4.5,4.5h164.5c2.5,0,4.5-2,4.5-4.5v-95.2c0-2.5-2-4.5-4.5-4.5H295.7
			c-2.5,0-4.5,2-4.5,4.5V407.8z"/>
		<path class="st1" d="M292.6,325.2c8.8,0,15.9-7.1,15.9-15.9c0-0.4,0-0.7-0.1-1.1h139.1c0,0.4-0.1,0.7-0.1,1.1
			c0,8.8,7.1,15.9,15.9,15.9c0.5,0,0.9,0,1.4-0.1v70.3c-0.5,0-0.9-0.1-1.4-0.1c-8.8,0-15.9,7.1-15.9,15.9c0,0.4,0,0.7,0.1,1.1H308.4
			c0-0.4,0.1-0.7,0.1-1.1c0-8.8-7.1-15.9-15.9-15.9c-0.5,0-0.9,0-1.4,0.1v-70.3C291.6,325.2,292.1,325.2,292.6,325.2z"/>
		<g>
			<rect x="421.3" y="308.2" class="st0" width="12.8" height="104.1"/>
			<rect x="321.7" y="308.2" class="st0" width="12.8" height="104.1"/>
		</g>
	</g>
	<g>
		<path class="st2" d="M369.6,462.8c0,2.1,1.7,3.8,3.8,3.8h140c2.1,0,3.8-1.7,3.8-3.8v-89.5c0-2.1-1.7-3.8-3.8-3.8h-140
			c-2.1,0-3.8,1.7-3.8,3.8V462.8z"/>
		<g>
			<rect x="369.6" y="447.6" class="st3" width="147.7" height="0.8"/>
		</g>
		<g>
			<g>
				<rect x="492" y="369.5" class="st4" width="7.7" height="97.2"/>
			</g>
			<g>
				<circle class="st5" cx="495.5" cy="448" r="1"/>
			</g>
			<g>
				<circle class="st5" cx="495.5" cy="444" r="1"/>
			</g>
			<g>
				<circle class="st5" cx="495.5" cy="440" r="1"/>
			</g>
			<g>
				<circle class="st5" cx="495.5" cy="435.9" r="1"/>
			</g>
			<g>
				<circle class="st5" cx="495.5" cy="431.9" r="1"/>
			</g>
			<g>
				<circle class="st5" cx="495.5" cy="458.2" r="1"/>
			</g>
			<g>
				<circle class="st5" cx="495.5" cy="454.2" r="1"/>
			</g>
			<g>
				<path class="st6" d="M488.2,442.8h14.5v10.5h-14.5V442.8 M486.7,441.2v13.6h17.5v-13.6H486.7L486.7,441.2z"/>
			</g>
			<g>
				<path class="st6" d="M495.5,455.6c0.4,0,0.8-0.3,0.8-0.8V448c0-0.4-0.3-0.8-0.8-0.8c-0.4,0-0.8,0.3-0.8,0.8v6.8
					C494.7,455.2,495,455.6,495.5,455.6z"/>
			</g>
		</g>
		<g>
			<g>
				<rect x="384.8" y="369.5" class="st4" width="7.7" height="97.2"/>
			</g>
			<g>
				<circle class="st5" cx="389" cy="448" r="1"/>
			</g>
			<g>
				<circle class="st5" cx="389" cy="444" r="1"/>
			</g>
			<g>
				<circle class="st5" cx="389" cy="440" r="1"/>
			</g>
			<g>
				<circle class="st5" cx="389" cy="435.9" r="1"/>
			</g>
			<g>
				<circle class="st5" cx="389" cy="431.9" r="1"/>
			</g>
			<g>
				<circle class="st5" cx="389" cy="458.2" r="1"/>
			</g>
			<g>
				<circle class="st5" cx="389" cy="454.2" r="1"/>
			</g>
			<g>
				<path class="st6" d="M396.3,442.8v10.5h-14.5v-10.5H396.3 M397.8,441.2h-17.5v13.6h17.5V441.2L397.8,441.2z"/>
			</g>
			<g>
				<path class="st6" d="M389,455.6c-0.4,0-0.8-0.3-0.8-0.8V448c0-0.4,0.3-0.8,0.8-0.8c0.4,0,0.8,0.3,0.8,0.8v6.8
					C389.8,455.2,389.5,455.6,389,455.6z"/>
			</g>
		</g>
		<path class="st7" d="M517.3,428v34.8c0,2.1-1.7,3.8-3.8,3.8h-140c-2.1,0-3.8-1.7-3.8-3.8V428H517.3z"/>
		<g>
			<path class="st6" d="M424.9,461.4h34.7l3.8-3.8v-11.1c0-2.1-1.7-3.8-3.8-3.8c-2.1,0-3.8,1.7-3.8,3.8v7.3h-27v-7.3
				c0-2.1-1.7-3.8-3.8-3.8c-2.1,0-3.8,1.7-3.8,3.8v11.1L424.9,461.4z"/>
		</g>
	</g>
	<g>
		<path class="st8" d="M377.9,415.1c0,1.6,1.3,2.9,2.9,2.9h107.4c1.6,0,2.9-1.3,2.9-2.9v-68.7c0-1.6-1.3-2.9-2.9-2.9H380.8
			c-1.6,0-2.9,1.3-2.9,2.9V415.1z"/>
		<g>
			<rect x="377.9" y="403.5" class="st9" width="113.3" height="0.6"/>
		</g>
		<g>
			<g>
				<rect x="471.8" y="343.5" class="st10" width="5.9" height="74.6"/>
			</g>
			<g>
				<circle class="st11" cx="474.4" cy="403.8" r="0.7"/>
			</g>
			<g>
				<circle class="st11" cx="474.4" cy="400.7" r="0.7"/>
			</g>
			<g>
				<circle class="st11" cx="474.4" cy="397.6" r="0.7"/>
			</g>
			<g>
				<circle class="st11" cx="474.4" cy="394.5" r="0.7"/>
			</g>
			<g>
				<circle class="st11" cx="474.4" cy="391.4" r="0.7"/>
			</g>
			<g>
				<circle class="st11" cx="474.4" cy="411.6" r="0.7"/>
			</g>
			<g>
				<path class="st11" d="M473.7,408.5c0,0.4,0.3,0.7,0.7,0.7s0.7-0.3,0.7-0.7c0-0.4-0.3-0.7-0.7-0.7S473.7,408.1,473.7,408.5z"/>
			</g>
			<g>
				<path class="st12" d="M468.9,399.7H480v8.1h-11.1V399.7 M467.7,398.6V409h13.4v-10.4H467.7L467.7,398.6z"/>
			</g>
			<g>
				<path class="st12" d="M474.4,409.5c0.3,0,0.6-0.3,0.6-0.6v-5.2c0-0.3-0.3-0.6-0.6-0.6c-0.3,0-0.6,0.3-0.6,0.6v5.2
					C473.9,409.3,474.1,409.5,474.4,409.5z"/>
			</g>
		</g>
		<g>
			<g>
				<rect x="389.5" y="343.5" class="st10" width="5.9" height="74.6"/>
			</g>
			<g>
				<circle class="st11" cx="392.8" cy="403.8" r="0.7"/>
			</g>
			<g>
				<circle class="st11" cx="392.8" cy="400.7" r="0.7"/>
			</g>
			<g>
				<circle class="st11" cx="392.8" cy="397.6" r="0.7"/>
			</g>
			<g>
				<circle class="st11" cx="392.8" cy="394.5" r="0.7"/>
			</g>
			<g>
				<circle class="st11" cx="392.8" cy="391.4" r="0.7"/>
			</g>
			<g>
				<circle class="st11" cx="392.8" cy="411.6" r="0.7"/>
			</g>
			<g>
				<path class="st11" d="M393.5,408.5c0,0.4-0.3,0.7-0.7,0.7c-0.4,0-0.7-0.3-0.7-0.7c0-0.4,0.3-0.7,0.7-0.7
					C393.2,407.8,393.5,408.1,393.5,408.5z"/>
			</g>
			<g>
				<path class="st12" d="M398.3,399.7v8.1h-11.1v-8.1H398.3 M399.5,398.6h-13.4V409h13.4V398.6L399.5,398.6z"/>
			</g>
			<g>
				<path class="st12" d="M392.8,409.5c-0.3,0-0.6-0.3-0.6-0.6v-5.2c0-0.3,0.3-0.6,0.6-0.6c0.3,0,0.6,0.3,0.6,0.6v5.2
					C393.4,409.3,393.1,409.5,392.8,409.5z"/>
			</g>
		</g>
		<path class="st13" d="M491.2,388.4v26.7c0,1.6-1.3,2.9-2.9,2.9H380.8c-1.6,0-2.9-1.3-2.9-2.9v-26.7H491.2z"/>
		<g>
			<path class="st12" d="M420.3,414h26.6l2.9-2.9v-8.5c0-1.6-1.3-2.9-2.9-2.9c-1.6,0-2.9,1.3-2.9,2.9v5.6h-20.7v-5.6
				c0-1.6-1.3-2.9-2.9-2.9c-1.6,0-2.9,1.3-2.9,2.9v8.5L420.3,414z"/>
		</g>
	</g>
</g>
</svg>
