<?xml version="1.0" encoding="utf-8"?>
<!-- Generator: Adobe Illustrator 19.0.0, SVG Export Plug-In . SVG Version: 6.00 Build 0)  -->
<svg version="1.1" id="Capa_1" xmlns="http://www.w3.org/2000/svg" xmlns:xlink="http://www.w3.org/1999/xlink" x="0px" y="0px"
	 viewBox="0 0 800 600" style="enable-background:new 0 0 800 600;" xml:space="preserve">
<style type="text/css">
	.st0{fill:#ffffff;stroke:#000000;stroke-width:0.5;stroke-miterlimit:10;}
</style>
<path id="XMLID_309_" class="st0" d="M577.8,375.1c0-5.8-2.9-11.8-8.6-15.2V240.7c5.7-3.4,8.6-9.4,8.6-15.2c0-6.1-3.6-11.7-8.6-14.6
	v-10.3h1.4c1.3,0,2.4-1.1,2.4-2.4c0-1.3-1.1-2.4-2.4-2.4h-2c2.1-1.5,3.5-3.9,3.5-6.6c0-4.5-3.6-8.1-8.1-8.1c-4.5,0-8.1,3.6-8.1,8.1
	c0,2.7,1.4,5.2,3.5,6.6h-2c-1.3,0-2.4,1.1-2.4,2.4c0,1.3,1.1,2.4,2.4,2.4h1.4v9c-4.9,1.5-8.7,5.9-8.7,11.3c0,1.6,0.6,3.1,1.4,4.4
	c0.6,1,1.4,1.9,2.1,2.6c0.7,0.7,1.3,1.3,1.8,1.7c0.5,0.4,0.7,0.6,0.7,0.6c-35.8,0-90.1-47.4-124.4-47.4c-7.1,0-12.5,1.7-12.5,1.7
	s-0.1-7.5-3.7-7.5c-1.6,0-3,0.6-4.2,1.4c-2.6,1.7-4.3,4.5-4.3,4.5s0.2-4.8-1.2-8.8c-1.1-3.2-3.9-6.2-7.6-5.1c-3,0.9-4.3,4.3-5,7.1
	c-0.5,2.2-0.7,4.5-0.6,6.8c-1.6-2.6-4.3-5.3-7.5-5.8c-0.3-0.1-0.7-0.1-1-0.1c-3.6,0-3.7,7.5-3.7,7.5s-5.5-1.7-12.5-1.7
	c-26.9,0-66,29.1-98.9,41.7c-8.1,3.1-16.7,5.7-25.5,5.7c0,0,0.3-0.2,0.7-0.6c0.5-0.4,1.1-1,1.8-1.7c0.7-0.7,1.5-1.6,2.1-2.6
	c0.8-1.3,1.4-2.8,1.4-4.4c0-5.4-3.8-9.8-8.7-11.3v-9h1.4c1.3,0,2.4-1.1,2.4-2.4c0-1.3-1.1-2.4-2.4-2.4h-2c2.1-1.5,3.5-3.9,3.5-6.6
	c0-4.5-3.6-8.1-8.1-8.1c-4.5,0-8.1,3.6-8.1,8.1c0,2.7,1.4,5.2,3.5,6.6h-2c-1.3,0-2.4,1.1-2.4,2.4c0,1.3,1.1,2.4,2.4,2.4h1.4v10.2
	c-2.7,1.5-4.9,3.8-6.4,6.5c-1.4,2.5-2.2,5.3-2.2,8.2c0,1.1,0.1,2.2,0.3,3.3c0.9,4.6,3.7,9.1,8.2,11.8v119.2
	c-4.6,2.7-7.3,7.2-8.2,11.8c-0.2,1.1-0.3,2.2-0.3,3.3c0,2.8,0.8,5.7,2.2,8.2c1.5,2.7,3.7,5,6.4,6.5v10.2H229c-1.3,0-2.4,1.1-2.4,2.4
	c0,1.3,1.1,2.4,2.4,2.4h2c-2.1,1.5-3.5,3.9-3.5,6.6c0,4.5,3.6,8.1,8.1,8.1c4.5,0,8.1-3.6,8.1-8.1c0-2.7-1.4-5.2-3.5-6.6h2
	c1.3,0,2.4-1.1,2.4-2.4c0-1.3-1.1-2.4-2.4-2.4h-1.4v-9c4.9-1.5,8.7-5.9,8.7-11.3c0-1.6-0.6-3.1-1.4-4.4c-0.6-1-1.4-1.9-2.1-2.6
	c-0.7-0.7-1.3-1.3-1.8-1.7c-0.5-0.4-0.7-0.6-0.7-0.6c8.8,0,17.4,2.6,25.5,5.7c32.9,12.6,72,41.7,98.9,41.7c7.1,0,12.5-1.7,12.5-1.7
	s0.1,7.5,3.7,7.5c0.3,0,0.7,0,1-0.1c3.2-0.5,5.9-3.2,7.5-5.8c-0.1,2.3,0.1,4.6,0.6,6.8c0.6,2.8,1.9,6.2,5,7.1
	c3.7,1.1,6.5-1.8,7.6-5.1c1.4-4,1.2-8.8,1.2-8.8s1.7,2.7,4.3,4.5c1.2,0.8,2.7,1.4,4.2,1.4c3.6,0,3.7-7.5,3.7-7.5s5.5,1.7,12.5,1.7
	c34.3,0,88.6-47.4,124.4-47.4c0,0-0.3,0.2-0.7,0.6c-0.5,0.4-1.1,1-1.8,1.7c-0.7,0.7-1.5,1.6-2.1,2.6c-0.8,1.3-1.4,2.8-1.4,4.4
	c0,5.4,3.8,9.8,8.7,11.3v9h-1.4c-1.3,0-2.4,1.1-2.4,2.4c0,1.3,1.1,2.4,2.4,2.4h2c-2.1,1.5-3.5,3.9-3.5,6.6c0,4.5,3.6,8.1,8.1,8.1
	c4.5,0,8.1-3.6,8.1-8.1c0-2.7-1.4-5.2-3.5-6.6h2c1.3,0,2.4-1.1,2.4-2.4c0-1.3-1.1-2.4-2.4-2.4h-1.4v-10.3
	C574.1,386.9,577.8,381.2,577.8,375.1z"/>
</svg>
